<svg width="623" height="437" viewBox="0 0 623 437" fill="none" xmlns="http://www.w3.org/2000/svg">
<g filter="url(#filter0_d_4_2)">
<path d="M405.098 290.582C381.563 290.582 358.028 290.582 334.505 290.582C334.016 290.582 333.527 290.582 333.038 290.54C332.637 290.508 332.452 290.318 332.408 289.937C332.365 289.619 332.365 289.301 332.365 288.984C332.365 279.224 332.3 269.464 332.398 259.703C332.463 253.543 333.212 247.435 334.765 241.443C335.732 237.738 337.035 234.149 338.773 230.73C340.456 227.417 342.541 224.336 345.05 221.542C349.329 216.767 354.531 213.232 360.45 210.681C365.511 208.5 370.811 207.156 376.274 206.362C380.347 205.769 384.43 205.472 388.547 205.409C403.36 205.165 418.185 205.377 432.999 205.292C434.183 205.282 435.355 205.282 436.539 205.218C438.299 205.134 439.993 204.721 441.622 204.043C444.891 202.688 446.878 200.222 447.823 196.961C448.529 194.548 448.768 192.06 448.475 189.541C448.366 188.63 448.334 187.72 448.127 186.831C447.878 185.74 447.519 184.692 447.031 183.687C445.792 181.157 443.805 179.442 441.144 178.447C439.58 177.865 437.951 177.494 436.268 177.441C435.247 177.409 434.237 177.388 433.216 177.388C405.207 177.388 377.197 177.388 349.188 177.388C348.656 177.388 348.124 177.388 347.602 177.346C347.135 177.304 346.94 177.113 346.886 176.679C346.842 176.361 346.842 176.044 346.842 175.726C346.842 167.279 346.842 158.821 346.842 150.373C346.842 148.807 346.886 148.764 348.482 148.764C366.228 148.764 383.985 148.764 401.731 148.764C412.646 148.764 423.55 148.775 434.465 148.764C436.865 148.764 439.265 148.807 441.655 149.05C446.813 149.579 451.863 150.596 456.653 152.628C460.965 154.459 464.787 156.979 467.97 160.366C470.924 163.51 473.074 167.131 474.616 171.1C476.006 174.678 476.897 178.373 477.364 182.173C477.614 184.227 477.809 186.27 477.864 188.334C477.896 189.52 478.026 190.705 477.994 191.901C477.831 196.983 477.451 202.043 476.115 206.986C475.138 210.606 473.758 214.079 471.771 217.307C469.012 221.796 465.32 225.353 460.715 228.02C457.044 230.158 453.08 231.545 448.931 232.477C446.629 232.995 444.294 233.345 441.948 233.588C440.416 233.747 438.863 233.842 437.321 233.885C434.921 233.938 432.521 233.916 430.121 233.916C416.849 233.916 403.578 233.895 390.306 233.927C386.548 233.938 382.823 234.308 379.207 235.335C375.232 236.457 371.648 238.267 368.737 241.199C366.521 243.433 364.936 246.048 363.85 248.948C362.807 251.722 362.221 254.591 361.971 257.533C361.884 258.518 361.732 259.502 361.764 260.497C361.775 260.73 361.754 260.974 361.775 261.207C361.819 261.662 361.993 261.852 362.46 261.884C362.948 261.916 363.437 261.916 363.926 261.916C385.017 261.916 406.108 261.916 427.199 261.916C443.403 261.916 459.607 261.916 475.811 261.916C476.3 261.916 476.788 261.927 477.277 261.969C477.635 262.001 477.874 262.212 477.929 262.572C477.972 262.89 477.994 263.207 477.994 263.525C477.994 272.015 477.994 280.505 477.994 289.005C477.994 289.164 477.994 289.323 477.983 289.481C477.929 290.413 477.788 290.54 476.799 290.572C476.397 290.582 475.985 290.572 475.583 290.572C452.081 290.582 428.589 290.582 405.098 290.582Z" fill="white"/>
<path d="M285.773 291.314C280.397 291.314 275.021 291.314 269.656 291.314C267.973 291.314 268.038 291.388 267.614 289.779C265.312 281.141 263.02 272.503 260.729 263.854C260.349 262.425 260.349 262.414 258.839 262.414C252.573 262.414 246.295 262.414 240.029 262.414C223.781 262.414 207.545 262.414 191.297 262.414C190.852 262.414 190.407 262.425 189.951 262.435C189.484 262.446 189.19 262.69 189.06 263.113C188.81 263.907 188.571 264.711 188.332 265.505C185.976 273.551 183.619 281.606 181.251 289.652C180.73 291.43 180.86 291.303 179.036 291.303C168.284 291.303 157.543 291.303 146.791 291.303C146.346 291.303 145.9 291.292 145.455 291.25C145.129 291.218 144.956 290.985 145.01 290.668C145.086 290.276 145.184 289.895 145.292 289.514C148.605 278.219 151.917 266.934 155.23 255.65C158.249 245.35 161.268 235.05 164.287 224.761C166.731 216.451 169.175 208.13 171.618 199.82C173.475 193.49 175.332 187.16 177.19 180.829C179.188 174.012 182.533 167.894 187.246 162.495C193.698 155.106 201.713 150.035 211.216 147.177C214.094 146.309 217.048 145.748 220.045 145.399C221.544 145.229 223.054 145.208 224.541 145.06C225.628 144.954 226.735 144.996 227.832 145.124C229.081 145.261 230.341 145.251 231.601 145.399C235.38 145.822 239.062 146.658 242.635 147.886C247.783 149.654 252.518 152.174 256.819 155.445C262.086 159.446 266.376 164.263 269.7 169.915C272.024 173.864 273.707 178.056 274.869 182.46C277.02 190.643 279.203 198.825 281.364 206.998C283.731 215.911 286.099 224.814 288.456 233.727C290.899 242.947 293.343 252.157 295.797 261.377C298.154 270.248 300.511 279.119 302.868 287.99C303.041 288.646 303.226 289.292 303.4 289.948C303.454 290.139 303.498 290.329 303.53 290.53C303.595 291.007 303.432 291.218 302.976 291.271C302.694 291.303 302.411 291.303 302.118 291.303C301.097 291.303 300.087 291.303 299.066 291.303C294.646 291.314 290.204 291.314 285.773 291.314ZM225.258 230.922C233.523 230.922 241.777 230.922 250.042 230.922C250.444 230.922 250.857 230.932 251.258 230.911C251.725 230.89 251.856 230.731 251.78 230.318C251.715 229.969 251.617 229.619 251.53 229.281C248.608 218.261 245.676 207.241 242.755 196.232C242.168 194.041 241.625 191.849 240.973 189.679C240.05 186.62 238.237 184.132 235.663 182.153C232.003 179.337 227.811 178.469 223.26 178.998C216.733 180.29 212.399 183.984 210.455 190.219C209.348 193.786 208.338 197.386 207.284 200.964C204.504 210.417 201.734 219.87 198.954 229.323C198.476 230.953 198.433 230.932 200.225 230.922C208.577 230.922 216.917 230.922 225.258 230.922Z" fill="white"/>
</g>
<g filter="url(#filter1_f_4_2)">
<path d="M404.099 295.555C380.564 295.555 357.029 295.555 333.505 295.555C333.016 295.555 332.528 295.555 332.039 295.587C331.637 295.611 331.452 295.756 331.409 296.045C331.366 296.286 331.366 296.527 331.366 296.768C331.366 304.172 331.3 311.577 331.398 318.981C331.463 323.655 332.213 328.289 333.766 332.834C334.732 335.645 336.036 338.367 337.773 340.961C339.457 343.475 341.542 345.812 344.051 347.932C348.33 351.554 353.532 354.236 359.451 356.172C364.512 357.826 369.812 358.846 375.275 359.448C379.348 359.898 383.431 360.123 387.547 360.171C402.361 360.356 417.186 360.195 432 360.26C433.183 360.268 434.356 360.268 435.54 360.316C437.299 360.38 438.994 360.693 440.623 361.207C443.892 362.235 445.879 364.106 446.824 366.58C447.53 368.411 447.769 370.298 447.476 372.209C447.367 372.9 447.335 373.591 447.128 374.265C446.878 375.093 446.52 375.888 446.031 376.651C444.793 378.57 442.806 379.871 440.145 380.626C438.581 381.067 436.952 381.349 435.269 381.389C434.248 381.413 433.238 381.429 432.217 381.429C404.207 381.429 376.198 381.429 348.189 381.429C347.656 381.429 347.124 381.429 346.603 381.461C346.136 381.493 345.94 381.638 345.886 381.967C345.843 382.208 345.843 382.449 345.843 382.69C345.843 389.098 345.843 395.515 345.843 401.924C345.843 403.112 345.886 403.144 347.483 403.144C365.229 403.144 382.986 403.144 400.732 403.144C411.647 403.144 422.551 403.136 433.466 403.144C435.866 403.144 438.266 403.112 440.655 402.927C445.814 402.526 450.864 401.755 455.654 400.213C459.965 398.824 463.788 396.912 466.97 394.342C469.925 391.957 472.075 389.211 473.617 386.199C475.007 383.485 475.898 380.682 476.365 377.799C476.615 376.241 476.81 374.691 476.864 373.125C476.897 372.226 477.027 371.326 476.995 370.419C476.832 366.564 476.452 362.725 475.116 358.975C474.138 356.228 472.759 353.594 470.772 351.145C468.013 347.739 464.321 345.041 459.716 343.017C456.045 341.395 452.081 340.343 447.932 339.636C445.63 339.243 443.294 338.978 440.949 338.793C439.417 338.673 437.864 338.6 436.322 338.568C433.922 338.528 431.522 338.544 429.121 338.544C415.85 338.544 402.578 338.56 389.307 338.536C385.549 338.528 381.824 338.247 378.207 337.468C374.232 336.617 370.648 335.243 367.738 333.019C365.522 331.324 363.936 329.341 362.85 327.14C361.808 325.036 361.221 322.86 360.971 320.627C360.885 319.88 360.733 319.134 360.765 318.379C360.776 318.202 360.754 318.017 360.776 317.841C360.819 317.495 360.993 317.351 361.46 317.327C361.949 317.303 362.438 317.303 362.926 317.303C384.018 317.303 405.109 317.303 426.2 317.303C442.404 317.303 458.608 317.303 474.812 317.303C475.301 317.303 475.789 317.295 476.278 317.262C476.636 317.238 476.875 317.078 476.93 316.805C476.973 316.564 476.995 316.323 476.995 316.082C476.995 309.641 476.995 303.2 476.995 296.752C476.995 296.631 476.995 296.511 476.984 296.39C476.93 295.684 476.788 295.587 475.8 295.563C475.398 295.555 474.986 295.563 474.584 295.563C451.082 295.555 427.59 295.555 404.099 295.555Z" fill="url(#paint0_linear_4_2)"/>
<path d="M284.774 295C279.398 295 274.022 295 268.656 295C266.973 295 267.038 294.944 266.615 296.165C264.312 302.718 262.021 309.271 259.729 315.832C259.349 316.916 259.349 316.925 257.839 316.925C251.573 316.925 245.295 316.925 239.029 316.925C222.781 316.925 206.545 316.925 190.298 316.925C189.852 316.925 189.407 316.916 188.951 316.908C188.484 316.9 188.191 316.716 188.06 316.394C187.81 315.792 187.572 315.182 187.333 314.579C184.976 308.476 182.619 302.365 180.252 296.261C179.73 294.912 179.861 295.008 178.036 295.008C167.284 295.008 156.543 295.008 145.791 295.008C145.346 295.008 144.9 295.016 144.455 295.048C144.129 295.073 143.956 295.249 144.01 295.49C144.086 295.787 144.184 296.076 144.292 296.366C147.605 304.934 150.917 313.495 154.23 322.056C157.249 329.87 160.268 337.684 163.287 345.49C165.731 351.794 168.175 358.107 170.618 364.411C172.475 369.213 174.333 374.016 176.19 378.818C178.188 383.99 181.533 388.632 186.247 392.728C192.698 398.333 200.713 402.18 210.216 404.348C213.094 405.007 216.048 405.432 219.045 405.697C220.544 405.826 222.054 405.842 223.542 405.954C224.628 406.035 225.736 406.003 226.832 405.906C228.081 405.802 229.341 405.81 230.601 405.697C234.381 405.376 238.062 404.742 241.635 403.81C246.783 402.469 251.519 400.558 255.819 398.076C261.087 395.041 265.377 391.387 268.7 387.098C271.024 384.103 272.707 380.922 273.87 377.581C276.02 371.374 278.203 365.166 280.364 358.966C282.732 352.204 285.099 345.45 287.456 338.688C289.9 331.693 292.343 324.706 294.798 317.712C297.155 310.982 299.511 304.252 301.868 297.522C302.042 297.024 302.226 296.534 302.4 296.036C302.455 295.892 302.498 295.747 302.531 295.595C302.596 295.233 302.433 295.073 301.977 295.032C301.694 295.008 301.412 295.008 301.119 295.008C300.098 295.008 299.088 295.008 298.067 295.008C293.647 295 289.205 295 284.774 295ZM224.259 340.816C232.523 340.816 240.777 340.816 249.042 340.816C249.444 340.816 249.857 340.808 250.259 340.824C250.726 340.84 250.856 340.961 250.78 341.274C250.715 341.539 250.617 341.804 250.53 342.061C247.609 350.421 244.676 358.781 241.755 367.133C241.168 368.796 240.625 370.458 239.974 372.104C239.051 374.425 237.237 376.313 234.663 377.814C231.003 379.951 226.811 380.609 222.26 380.208C215.733 379.228 211.4 376.425 209.456 371.695C208.348 368.988 207.338 366.258 206.284 363.544C203.504 356.372 200.735 349.2 197.954 342.029C197.476 340.792 197.433 340.808 199.225 340.816C207.577 340.816 215.918 340.816 224.259 340.816Z" fill="url(#paint1_linear_4_2)"/>
</g>
<defs>
<filter id="filter0_d_4_2" x="0" y="0" width="622.999" height="436.314" filterUnits="userSpaceOnUse" color-interpolation-filters="sRGB">
<feFlood flood-opacity="0" result="BackgroundImageFix"/>
<feColorMatrix in="SourceAlpha" type="matrix" values="0 0 0 0 0 0 0 0 0 0 0 0 0 0 0 0 0 0 127 0" result="hardAlpha"/>
<feOffset/>
<feGaussianBlur stdDeviation="72.5"/>
<feComposite in2="hardAlpha" operator="out"/>
<feColorMatrix type="matrix" values="0 0 0 0 0 0 0 0 0 0 0 0 0 0 0 0 0 0 0.8 0"/>
<feBlend mode="normal" in2="BackgroundImageFix" result="effect1_dropShadow_4_2"/>
<feBlend mode="normal" in="SourceGraphic" in2="effect1_dropShadow_4_2" result="shape"/>
</filter>
<filter id="filter1_f_4_2" x="132" y="283" width="357" height="135" filterUnits="userSpaceOnUse" color-interpolation-filters="sRGB">
<feFlood flood-opacity="0" result="BackgroundImageFix"/>
<feBlend mode="normal" in="SourceGraphic" in2="BackgroundImageFix" result="shape"/>
<feGaussianBlur stdDeviation="6" result="effect1_foregroundBlur_4_2"/>
</filter>
<linearGradient id="paint0_linear_4_2" x1="403.297" y1="396.844" x2="407.587" y2="295.7" gradientUnits="userSpaceOnUse">
<stop offset="0.244792" stop-color="#232323" stop-opacity="0"/>
<stop offset="0.88608" stop-color="#EAE6E6" stop-opacity="0.3"/>
</linearGradient>
<linearGradient id="paint1_linear_4_2" x1="222.32" y1="399.5" x2="226.515" y2="295.13" gradientUnits="userSpaceOnUse">
<stop offset="0.244792" stop-color="#232323" stop-opacity="0"/>
<stop offset="0.88608" stop-color="#EAE6E6" stop-opacity="0.3"/>
</linearGradient>
</defs>
</svg>
