<svg width="279" height="122" viewBox="0 0 279 122" fill="none" xmlns="http://www.w3.org/2000/svg">
<path d="M217.577 121.365C197.889 121.365 178.201 121.365 158.522 121.365C158.114 121.365 157.705 121.365 157.296 121.33C156.96 121.304 156.805 121.147 156.769 120.831C156.733 120.569 156.733 120.306 156.733 120.043C156.733 111.972 156.678 103.9 156.76 95.829C156.814 90.734 157.441 85.6827 158.74 80.7277C159.549 77.6637 160.639 74.696 162.093 71.8684C163.501 69.1282 165.246 66.5807 167.344 64.2696C170.924 60.3214 175.276 57.3974 180.227 55.2876C184.461 53.4842 188.894 52.3724 193.464 51.7159C196.871 51.2256 200.287 50.9805 203.731 50.928C216.123 50.7266 228.524 50.9017 240.917 50.8317C241.907 50.8229 242.888 50.8229 243.878 50.7704C245.35 50.7004 246.768 50.3589 248.13 49.7987C250.865 48.6781 252.528 46.6383 253.318 43.942C253.909 41.946 254.109 39.8887 253.863 37.8052C253.772 37.0523 253.745 36.2995 253.572 35.5641C253.364 34.6624 253.064 33.7957 252.655 32.9641C251.619 30.8718 249.957 29.4536 247.731 28.6307C246.422 28.1492 245.06 27.8428 243.651 27.799C242.797 27.7727 241.952 27.7552 241.098 27.7552C217.668 27.7552 194.237 27.7552 170.806 27.7552C170.361 27.7552 169.915 27.7552 169.479 27.7202C169.089 27.6852 168.925 27.5276 168.88 27.1687C168.843 26.9061 168.843 26.6434 168.843 26.3808C168.843 19.3948 168.843 12.4001 168.843 5.41416C168.843 4.11851 168.88 4.0835 170.215 4.0835C185.061 4.0835 199.915 4.0835 214.76 4.0835C223.891 4.0835 233.013 4.09225 242.143 4.0835C244.151 4.0835 246.159 4.11851 248.158 4.31986C252.473 4.75758 256.698 5.598 260.704 7.27883C264.311 8.79333 267.509 10.8769 270.171 13.6783C272.642 16.2783 274.441 19.2723 275.731 22.5552C276.894 25.5141 277.639 28.5694 278.03 31.7122C278.239 33.4105 278.403 35.1001 278.448 36.8072C278.475 37.7877 278.584 38.7682 278.557 39.7574C278.421 43.9595 278.103 48.1441 276.985 52.2324C276.168 55.2264 275.014 58.0978 273.351 60.7679C271.043 64.4797 267.954 67.4211 264.102 69.6272C261.031 71.3956 257.715 72.5424 254.245 73.3128C252.319 73.7418 250.365 74.0307 248.403 74.232C247.122 74.3633 245.823 74.4421 244.533 74.4771C242.525 74.5209 240.517 74.5034 238.509 74.5034C227.407 74.5034 216.305 74.4859 205.203 74.5122C202.059 74.5209 198.943 74.8273 195.917 75.6765C192.592 76.6045 189.594 78.1014 187.159 80.5264C185.306 82.3736 183.979 84.5359 183.071 86.9346C182.199 89.2282 181.708 91.6006 181.499 94.0343C181.426 94.8485 181.299 95.6626 181.326 96.4856C181.336 96.6781 181.317 96.8795 181.336 97.0721C181.372 97.4485 181.517 97.6061 181.908 97.6324C182.317 97.6586 182.726 97.6586 183.134 97.6586C200.778 97.6586 218.422 97.6586 236.065 97.6586C249.62 97.6586 263.176 97.6586 276.731 97.6586C277.14 97.6586 277.548 97.6674 277.957 97.7024C278.257 97.7287 278.457 97.9038 278.502 98.2014C278.539 98.464 278.557 98.7267 278.557 98.9893C278.557 106.01 278.557 113.031 278.557 120.061C278.557 120.192 278.557 120.324 278.548 120.455C278.502 121.225 278.384 121.33 277.558 121.357C277.221 121.365 276.876 121.357 276.54 121.357C256.88 121.365 237.228 121.365 217.577 121.365Z" fill="black"/>
<path d="M117.761 121.971C113.264 121.971 108.767 121.971 104.279 121.971C102.871 121.971 102.925 122.032 102.571 120.701C100.645 113.558 98.7277 106.414 96.8107 99.262C96.4928 98.0802 96.4928 98.0714 95.2299 98.0714C89.9877 98.0714 84.7364 98.0714 79.4942 98.0714C65.9027 98.0714 52.3202 98.0714 38.7286 98.0714C38.3561 98.0714 37.9836 98.0802 37.6021 98.0889C37.2114 98.0977 36.9661 98.299 36.8571 98.6492C36.6481 99.3058 36.4482 99.9711 36.2484 100.628C34.2769 107.281 32.3054 113.943 30.3248 120.596C29.8887 122.067 29.9977 121.962 28.4714 121.962C19.477 121.962 10.4916 121.962 1.49723 121.962C1.12473 121.962 0.752238 121.953 0.379742 121.918C0.107184 121.892 -0.0381804 121.699 0.00724591 121.437C0.0708428 121.113 0.15261 120.798 0.243463 120.483C3.01447 111.142 5.78547 101.81 8.55648 92.4774C11.0822 83.9594 13.6079 75.4414 16.1336 66.9322C18.1778 60.0601 20.222 53.1792 22.2661 46.307C23.8197 41.0719 25.3733 35.8368 26.9269 30.6017C28.5986 24.9639 31.3968 19.9039 35.3398 15.4392C40.7365 9.32868 47.4414 5.13535 55.391 2.77168C57.7986 2.05382 60.2698 1.58984 62.7773 1.30095C64.0311 1.16088 65.294 1.14337 66.5386 1.02081C67.4472 0.933265 68.3739 0.968282 69.2915 1.07333C70.3363 1.18714 71.3902 1.17839 72.4441 1.30095C75.6057 1.65112 78.6856 2.34271 81.6747 3.35822C85.9811 4.82019 89.9423 6.90372 93.54 9.60881C97.9464 12.918 101.535 16.9012 104.315 21.576C106.259 24.8414 107.668 28.3081 108.64 31.9499C110.439 38.717 112.265 45.4841 114.073 52.2424C116.053 59.6136 118.034 66.976 120.005 74.3471C122.05 81.9722 124.094 89.5885 126.147 97.2135C128.119 104.55 130.09 111.886 132.062 119.222C132.207 119.765 132.361 120.299 132.507 120.841C132.552 120.999 132.589 121.157 132.616 121.323C132.67 121.717 132.534 121.892 132.152 121.936C131.916 121.962 131.68 121.962 131.435 121.962C130.581 121.962 129.736 121.962 128.882 121.962C125.184 121.971 121.468 121.971 117.761 121.971ZM67.1383 72.0273C74.0522 72.0273 80.957 72.0273 87.8708 72.0273C88.207 72.0273 88.5522 72.036 88.8884 72.0185C89.2791 72.001 89.3881 71.8697 89.3245 71.5282C89.27 71.2394 89.1882 70.9505 89.1155 70.6703C86.6716 61.5571 84.2186 52.4438 81.7746 43.3393C81.284 41.5271 80.8298 39.715 80.2846 37.9203C79.5124 35.3903 77.9952 33.3331 75.842 31.696C72.7802 29.3674 69.2733 28.6495 65.4666 29.0872C60.0063 30.1552 56.3813 33.2105 54.755 38.3668C53.8284 41.317 52.9834 44.2935 52.1021 47.2525C49.7763 55.0701 47.4596 62.8877 45.1338 70.7053C44.734 72.0535 44.6977 72.036 46.1967 72.0273C53.1833 72.0273 60.1608 72.0273 67.1383 72.0273Z" fill="black"/>
</svg>
