<svg width="90" height="140" viewBox="0 0 90 140" fill="none" xmlns="http://www.w3.org/2000/svg">
<rect y="135.628" width="3.76744" height="3.76744" rx="1.88372" fill="#292B2C" fill-opacity="0.5"/>
<rect y="128.093" width="3.76744" height="3.76744" rx="1.88372" fill="#292B2C" fill-opacity="0.5"/>
<rect y="120.558" width="3.76744" height="3.76744" rx="1.88372" fill="#292B2C" fill-opacity="0.5"/>
<rect y="113.023" width="3.76744" height="3.76744" rx="1.88372" fill="#292B2C" fill-opacity="0.5"/>
<rect y="105.488" width="3.76744" height="3.76744" rx="1.88372" fill="#292B2C" fill-opacity="0.5"/>
<rect y="97.9534" width="3.76744" height="3.76744" rx="1.88372" fill="#292B2C" fill-opacity="0.5"/>
<rect y="90.4187" width="3.76744" height="3.76744" rx="1.88372" fill="#292B2C" fill-opacity="0.5"/>
<rect y="82.8838" width="3.76744" height="3.76744" rx="1.88372" fill="#292B2C" fill-opacity="0.5"/>
<rect y="75.3489" width="3.76744" height="3.76744" rx="1.88372" fill="#292B2C" fill-opacity="0.5"/>
<rect y="67.814" width="3.76744" height="3.76744" rx="1.88372" fill="#292B2C" fill-opacity="0.5"/>
<rect y="60.2791" width="3.76744" height="3.76744" rx="1.88372" fill="#292B2C" fill-opacity="0.5"/>
<rect y="52.7441" width="3.76744" height="3.76744" rx="1.88372" fill="#292B2C" fill-opacity="0.5"/>
<rect y="45.2092" width="3.76744" height="3.76744" rx="1.88372" fill="#292B2C" fill-opacity="0.5"/>
<rect y="37.6746" width="3.76744" height="3.76744" rx="1.88372" fill="#292B2C" fill-opacity="0.5"/>
<rect y="30.1394" width="3.76744" height="3.76744" rx="1.88372" fill="#292B2C" fill-opacity="0.5"/>
<rect y="22.6047" width="3.76744" height="3.76744" rx="1.88372" fill="#292B2C" fill-opacity="0.5"/>
<rect y="15.0698" width="3.76744" height="3.76744" rx="1.88372" fill="#292B2C" fill-opacity="0.5"/>
<rect y="7.53491" width="3.76744" height="3.76744" rx="1.88372" fill="#292B2C" fill-opacity="0.5"/>
<rect width="3.76744" height="3.76744" rx="1.88372" fill="#292B2C" fill-opacity="0.5"/>
<rect x="7.53491" y="135.628" width="3.76744" height="3.76744" rx="1.88372" fill="#292B2C" fill-opacity="0.5"/>
<rect x="7.53491" y="128.093" width="3.76744" height="3.76744" rx="1.88372" fill="#292B2C" fill-opacity="0.5"/>
<rect x="7.53491" y="120.558" width="3.76744" height="3.76744" rx="1.88372" fill="#292B2C" fill-opacity="0.5"/>
<rect x="7.53491" y="113.023" width="3.76744" height="3.76744" rx="1.88372" fill="#292B2C" fill-opacity="0.5"/>
<rect x="7.53491" y="105.488" width="3.76744" height="3.76744" rx="1.88372" fill="#292B2C" fill-opacity="0.5"/>
<rect x="7.53491" y="97.9534" width="3.76744" height="3.76744" rx="1.88372" fill="#292B2C" fill-opacity="0.5"/>
<rect x="7.53491" y="90.4187" width="3.76744" height="3.76744" rx="1.88372" fill="#292B2C" fill-opacity="0.5"/>
<rect x="7.53491" y="82.8838" width="3.76744" height="3.76744" rx="1.88372" fill="#292B2C" fill-opacity="0.5"/>
<rect x="7.53491" y="75.3489" width="3.76744" height="3.76744" rx="1.88372" fill="#292B2C" fill-opacity="0.5"/>
<rect x="7.53491" y="67.814" width="3.76744" height="3.76744" rx="1.88372" fill="#292B2C" fill-opacity="0.5"/>
<rect x="7.53491" y="60.2791" width="3.76744" height="3.76744" rx="1.88372" fill="#292B2C" fill-opacity="0.5"/>
<rect x="7.53491" y="52.7441" width="3.76744" height="3.76744" rx="1.88372" fill="#292B2C" fill-opacity="0.5"/>
<rect x="7.53491" y="45.2092" width="3.76744" height="3.76744" rx="1.88372" fill="#292B2C" fill-opacity="0.5"/>
<rect x="7.53491" y="37.6746" width="3.76744" height="3.76744" rx="1.88372" fill="#292B2C" fill-opacity="0.5"/>
<rect x="7.53491" y="30.1394" width="3.76744" height="3.76744" rx="1.88372" fill="#292B2C" fill-opacity="0.5"/>
<rect x="7.53491" y="22.6047" width="3.76744" height="3.76744" rx="1.88372" fill="#292B2C" fill-opacity="0.5"/>
<rect x="7.53491" y="15.0698" width="3.76744" height="3.76744" rx="1.88372" fill="#292B2C" fill-opacity="0.5"/>
<rect x="7.53491" y="7.53491" width="3.76744" height="3.76744" rx="1.88372" fill="#292B2C" fill-opacity="0.5"/>
<rect x="7.53491" width="3.76744" height="3.76744" rx="1.88372" fill="#292B2C" fill-opacity="0.5"/>
<rect x="15.0698" y="135.628" width="3.76744" height="3.76744" rx="1.88372" fill="#292B2C" fill-opacity="0.5"/>
<rect x="15.0698" y="128.093" width="3.76744" height="3.76744" rx="1.88372" fill="#292B2C" fill-opacity="0.5"/>
<rect x="15.0698" y="120.558" width="3.76744" height="3.76744" rx="1.88372" fill="#292B2C" fill-opacity="0.5"/>
<rect x="15.0698" y="113.023" width="3.76744" height="3.76744" rx="1.88372" fill="#292B2C" fill-opacity="0.5"/>
<rect x="15.0698" y="105.488" width="3.76744" height="3.76744" rx="1.88372" fill="#292B2C" fill-opacity="0.5"/>
<rect x="15.0698" y="97.9534" width="3.76744" height="3.76744" rx="1.88372" fill="#292B2C" fill-opacity="0.5"/>
<rect x="15.0698" y="90.4187" width="3.76744" height="3.76744" rx="1.88372" fill="#292B2C" fill-opacity="0.5"/>
<rect x="15.0698" y="82.8838" width="3.76744" height="3.76744" rx="1.88372" fill="#292B2C" fill-opacity="0.5"/>
<rect x="15.0698" y="75.3489" width="3.76744" height="3.76744" rx="1.88372" fill="#292B2C" fill-opacity="0.5"/>
<rect x="15.0698" y="67.814" width="3.76744" height="3.76744" rx="1.88372" fill="#292B2C" fill-opacity="0.5"/>
<rect x="15.0698" y="60.2791" width="3.76744" height="3.76744" rx="1.88372" fill="#292B2C" fill-opacity="0.5"/>
<rect x="15.0698" y="52.7441" width="3.76744" height="3.76744" rx="1.88372" fill="#292B2C" fill-opacity="0.5"/>
<rect x="15.0698" y="45.2092" width="3.76744" height="3.76744" rx="1.88372" fill="#292B2C" fill-opacity="0.5"/>
<rect x="15.0698" y="37.6746" width="3.76744" height="3.76744" rx="1.88372" fill="#292B2C" fill-opacity="0.5"/>
<rect x="15.0698" y="30.1394" width="3.76744" height="3.76744" rx="1.88372" fill="#292B2C" fill-opacity="0.5"/>
<rect x="15.0698" y="22.6047" width="3.76744" height="3.76744" rx="1.88372" fill="#292B2C" fill-opacity="0.5"/>
<rect x="15.0698" y="15.0698" width="3.76744" height="3.76744" rx="1.88372" fill="#292B2C" fill-opacity="0.5"/>
<rect x="15.0698" y="7.53491" width="3.76744" height="3.76744" rx="1.88372" fill="#292B2C" fill-opacity="0.5"/>
<rect x="15.0698" width="3.76744" height="3.76744" rx="1.88372" fill="#292B2C" fill-opacity="0.5"/>
<rect x="22.6047" y="135.628" width="3.76744" height="3.76744" rx="1.88372" fill="#292B2C" fill-opacity="0.5"/>
<rect x="22.6047" y="128.093" width="3.76744" height="3.76744" rx="1.88372" fill="#292B2C" fill-opacity="0.5"/>
<rect x="22.6047" y="120.558" width="3.76744" height="3.76744" rx="1.88372" fill="#292B2C" fill-opacity="0.5"/>
<rect x="22.6047" y="113.023" width="3.76744" height="3.76744" rx="1.88372" fill="#292B2C" fill-opacity="0.5"/>
<rect x="22.6047" y="105.488" width="3.76744" height="3.76744" rx="1.88372" fill="#292B2C" fill-opacity="0.5"/>
<rect x="22.6047" y="97.9534" width="3.76744" height="3.76744" rx="1.88372" fill="#292B2C" fill-opacity="0.5"/>
<rect x="22.6047" y="90.4187" width="3.76744" height="3.76744" rx="1.88372" fill="#292B2C" fill-opacity="0.5"/>
<rect x="22.6047" y="82.8838" width="3.76744" height="3.76744" rx="1.88372" fill="#292B2C" fill-opacity="0.5"/>
<rect x="22.6047" y="75.3489" width="3.76744" height="3.76744" rx="1.88372" fill="#292B2C" fill-opacity="0.5"/>
<rect x="22.6047" y="67.814" width="3.76744" height="3.76744" rx="1.88372" fill="#292B2C" fill-opacity="0.5"/>
<rect x="22.6047" y="60.2791" width="3.76744" height="3.76744" rx="1.88372" fill="#292B2C" fill-opacity="0.5"/>
<rect x="22.6047" y="52.7441" width="3.76744" height="3.76744" rx="1.88372" fill="#292B2C" fill-opacity="0.5"/>
<rect x="22.6047" y="45.2092" width="3.76744" height="3.76744" rx="1.88372" fill="#292B2C" fill-opacity="0.5"/>
<rect x="22.6047" y="37.6746" width="3.76744" height="3.76744" rx="1.88372" fill="#292B2C" fill-opacity="0.5"/>
<rect x="22.6047" y="30.1394" width="3.76744" height="3.76744" rx="1.88372" fill="#292B2C" fill-opacity="0.5"/>
<rect x="22.6047" y="22.6047" width="3.76744" height="3.76744" rx="1.88372" fill="#292B2C" fill-opacity="0.5"/>
<rect x="22.6047" y="15.0698" width="3.76744" height="3.76744" rx="1.88372" fill="#292B2C" fill-opacity="0.5"/>
<rect x="22.6047" y="7.53491" width="3.76744" height="3.76744" rx="1.88372" fill="#292B2C" fill-opacity="0.5"/>
<rect x="22.6047" width="3.76744" height="3.76744" rx="1.88372" fill="#292B2C" fill-opacity="0.5"/>
<rect x="30.1396" y="135.628" width="3.76744" height="3.76744" rx="1.88372" fill="#292B2C" fill-opacity="0.5"/>
<rect x="30.1396" y="128.093" width="3.76744" height="3.76744" rx="1.88372" fill="#292B2C" fill-opacity="0.5"/>
<rect x="30.1396" y="120.558" width="3.76744" height="3.76744" rx="1.88372" fill="#292B2C" fill-opacity="0.5"/>
<rect x="30.1396" y="113.023" width="3.76744" height="3.76744" rx="1.88372" fill="#292B2C" fill-opacity="0.5"/>
<rect x="30.1396" y="105.488" width="3.76744" height="3.76744" rx="1.88372" fill="#292B2C" fill-opacity="0.5"/>
<rect x="30.1396" y="97.9534" width="3.76744" height="3.76744" rx="1.88372" fill="#292B2C" fill-opacity="0.5"/>
<rect x="30.1396" y="90.4187" width="3.76744" height="3.76744" rx="1.88372" fill="#292B2C" fill-opacity="0.5"/>
<rect x="30.1396" y="82.8838" width="3.76744" height="3.76744" rx="1.88372" fill="#292B2C" fill-opacity="0.5"/>
<rect x="30.1396" y="75.3489" width="3.76744" height="3.76744" rx="1.88372" fill="#292B2C" fill-opacity="0.5"/>
<rect x="30.1396" y="67.814" width="3.76744" height="3.76744" rx="1.88372" fill="#292B2C" fill-opacity="0.5"/>
<rect x="30.1396" y="60.2791" width="3.76744" height="3.76744" rx="1.88372" fill="#292B2C" fill-opacity="0.5"/>
<rect x="30.1396" y="52.7441" width="3.76744" height="3.76744" rx="1.88372" fill="#292B2C" fill-opacity="0.5"/>
<rect x="30.1396" y="45.2092" width="3.76744" height="3.76744" rx="1.88372" fill="#292B2C" fill-opacity="0.5"/>
<rect x="30.1396" y="37.6746" width="3.76744" height="3.76744" rx="1.88372" fill="#292B2C" fill-opacity="0.5"/>
<rect x="30.1396" y="30.1394" width="3.76744" height="3.76744" rx="1.88372" fill="#292B2C" fill-opacity="0.5"/>
<rect x="30.1396" y="22.6047" width="3.76744" height="3.76744" rx="1.88372" fill="#292B2C" fill-opacity="0.5"/>
<rect x="30.1396" y="15.0698" width="3.76744" height="3.76744" rx="1.88372" fill="#292B2C" fill-opacity="0.5"/>
<rect x="30.1396" y="7.53491" width="3.76744" height="3.76744" rx="1.88372" fill="#292B2C" fill-opacity="0.5"/>
<rect x="30.1396" width="3.76744" height="3.76744" rx="1.88372" fill="#292B2C" fill-opacity="0.5"/>
<rect x="37.6743" y="135.628" width="3.76744" height="3.76744" rx="1.88372" fill="#292B2C" fill-opacity="0.5"/>
<rect x="37.6743" y="128.093" width="3.76744" height="3.76744" rx="1.88372" fill="#292B2C" fill-opacity="0.5"/>
<rect x="37.6743" y="120.558" width="3.76744" height="3.76744" rx="1.88372" fill="#292B2C" fill-opacity="0.5"/>
<rect x="37.6743" y="113.023" width="3.76744" height="3.76744" rx="1.88372" fill="#292B2C" fill-opacity="0.5"/>
<rect x="37.6743" y="105.488" width="3.76744" height="3.76744" rx="1.88372" fill="#292B2C" fill-opacity="0.5"/>
<rect x="37.6743" y="97.9534" width="3.76744" height="3.76744" rx="1.88372" fill="#292B2C" fill-opacity="0.5"/>
<rect x="37.6743" y="90.4187" width="3.76744" height="3.76744" rx="1.88372" fill="#292B2C" fill-opacity="0.5"/>
<rect x="37.6743" y="82.8838" width="3.76744" height="3.76744" rx="1.88372" fill="#292B2C" fill-opacity="0.5"/>
<rect x="37.6743" y="75.3489" width="3.76744" height="3.76744" rx="1.88372" fill="#292B2C" fill-opacity="0.5"/>
<rect x="37.6743" y="67.814" width="3.76744" height="3.76744" rx="1.88372" fill="#292B2C" fill-opacity="0.5"/>
<rect x="37.6743" y="60.2791" width="3.76744" height="3.76744" rx="1.88372" fill="#292B2C" fill-opacity="0.5"/>
<rect x="37.6743" y="52.7441" width="3.76744" height="3.76744" rx="1.88372" fill="#292B2C" fill-opacity="0.5"/>
<rect x="37.6743" y="45.2092" width="3.76744" height="3.76744" rx="1.88372" fill="#292B2C" fill-opacity="0.5"/>
<rect x="37.6743" y="37.6746" width="3.76744" height="3.76744" rx="1.88372" fill="#292B2C" fill-opacity="0.5"/>
<rect x="37.6743" y="30.1394" width="3.76744" height="3.76744" rx="1.88372" fill="#292B2C" fill-opacity="0.5"/>
<rect x="37.6743" y="22.6047" width="3.76744" height="3.76744" rx="1.88372" fill="#292B2C" fill-opacity="0.5"/>
<rect x="37.6743" y="15.0698" width="3.76744" height="3.76744" rx="1.88372" fill="#292B2C" fill-opacity="0.5"/>
<rect x="37.6743" y="7.53491" width="3.76744" height="3.76744" rx="1.88372" fill="#292B2C" fill-opacity="0.5"/>
<rect x="37.6743" width="3.76744" height="3.76744" rx="1.88372" fill="#292B2C" fill-opacity="0.5"/>
<rect x="45.2092" y="135.628" width="3.76744" height="3.76744" rx="1.88372" fill="#292B2C" fill-opacity="0.5"/>
<rect x="45.2092" y="128.093" width="3.76744" height="3.76744" rx="1.88372" fill="#292B2C" fill-opacity="0.5"/>
<rect x="45.2092" y="120.558" width="3.76744" height="3.76744" rx="1.88372" fill="#292B2C" fill-opacity="0.5"/>
<rect x="45.2092" y="113.023" width="3.76744" height="3.76744" rx="1.88372" fill="#292B2C" fill-opacity="0.5"/>
<rect x="45.2092" y="105.488" width="3.76744" height="3.76744" rx="1.88372" fill="#292B2C" fill-opacity="0.5"/>
<rect x="45.2092" y="97.9534" width="3.76744" height="3.76744" rx="1.88372" fill="#292B2C" fill-opacity="0.5"/>
<rect x="45.2092" y="90.4187" width="3.76744" height="3.76744" rx="1.88372" fill="#292B2C" fill-opacity="0.5"/>
<rect x="45.2092" y="82.8838" width="3.76744" height="3.76744" rx="1.88372" fill="#292B2C" fill-opacity="0.5"/>
<rect x="45.2092" y="75.3489" width="3.76744" height="3.76744" rx="1.88372" fill="#292B2C" fill-opacity="0.5"/>
<rect x="45.2092" y="67.814" width="3.76744" height="3.76744" rx="1.88372" fill="#292B2C" fill-opacity="0.5"/>
<rect x="45.2092" y="60.2791" width="3.76744" height="3.76744" rx="1.88372" fill="#292B2C" fill-opacity="0.5"/>
<rect x="45.2092" y="52.7441" width="3.76744" height="3.76744" rx="1.88372" fill="#292B2C" fill-opacity="0.5"/>
<rect x="45.2092" y="45.2092" width="3.76744" height="3.76744" rx="1.88372" fill="#292B2C" fill-opacity="0.5"/>
<rect x="45.2092" y="37.6746" width="3.76744" height="3.76744" rx="1.88372" fill="#292B2C" fill-opacity="0.5"/>
<rect x="45.2092" y="30.1394" width="3.76744" height="3.76744" rx="1.88372" fill="#292B2C" fill-opacity="0.5"/>
<rect x="45.2092" y="22.6047" width="3.76744" height="3.76744" rx="1.88372" fill="#292B2C" fill-opacity="0.5"/>
<rect x="45.2092" y="15.0698" width="3.76744" height="3.76744" rx="1.88372" fill="#292B2C" fill-opacity="0.5"/>
<rect x="45.2092" y="7.53491" width="3.76744" height="3.76744" rx="1.88372" fill="#292B2C" fill-opacity="0.5"/>
<rect x="45.2092" width="3.76744" height="3.76744" rx="1.88372" fill="#292B2C" fill-opacity="0.5"/>
<rect x="52.7441" y="135.628" width="3.76744" height="3.76744" rx="1.88372" fill="#292B2C" fill-opacity="0.5"/>
<rect x="52.7441" y="128.093" width="3.76744" height="3.76744" rx="1.88372" fill="#292B2C" fill-opacity="0.5"/>
<rect x="52.7441" y="120.558" width="3.76744" height="3.76744" rx="1.88372" fill="#292B2C" fill-opacity="0.5"/>
<rect x="52.7441" y="113.023" width="3.76744" height="3.76744" rx="1.88372" fill="#292B2C" fill-opacity="0.5"/>
<rect x="52.7441" y="105.488" width="3.76744" height="3.76744" rx="1.88372" fill="#292B2C" fill-opacity="0.5"/>
<rect x="52.7441" y="97.9534" width="3.76744" height="3.76744" rx="1.88372" fill="#292B2C" fill-opacity="0.5"/>
<rect x="52.7441" y="90.4187" width="3.76744" height="3.76744" rx="1.88372" fill="#292B2C" fill-opacity="0.5"/>
<rect x="52.7441" y="82.8838" width="3.76744" height="3.76744" rx="1.88372" fill="#292B2C" fill-opacity="0.5"/>
<rect x="52.7441" y="75.3489" width="3.76744" height="3.76744" rx="1.88372" fill="#292B2C" fill-opacity="0.5"/>
<rect x="52.7441" y="67.814" width="3.76744" height="3.76744" rx="1.88372" fill="#292B2C" fill-opacity="0.5"/>
<rect x="52.7441" y="60.2791" width="3.76744" height="3.76744" rx="1.88372" fill="#292B2C" fill-opacity="0.5"/>
<rect x="52.7441" y="52.7441" width="3.76744" height="3.76744" rx="1.88372" fill="#292B2C" fill-opacity="0.5"/>
<rect x="52.7441" y="45.2092" width="3.76744" height="3.76744" rx="1.88372" fill="#292B2C" fill-opacity="0.5"/>
<rect x="52.7441" y="37.6746" width="3.76744" height="3.76744" rx="1.88372" fill="#292B2C" fill-opacity="0.5"/>
<rect x="52.7441" y="30.1394" width="3.76744" height="3.76744" rx="1.88372" fill="#292B2C" fill-opacity="0.5"/>
<rect x="52.7441" y="22.6047" width="3.76744" height="3.76744" rx="1.88372" fill="#292B2C" fill-opacity="0.5"/>
<rect x="52.7441" y="15.0698" width="3.76744" height="3.76744" rx="1.88372" fill="#292B2C" fill-opacity="0.5"/>
<rect x="52.7441" y="7.53491" width="3.76744" height="3.76744" rx="1.88372" fill="#292B2C" fill-opacity="0.5"/>
<rect x="52.7441" width="3.76744" height="3.76744" rx="1.88372" fill="#292B2C" fill-opacity="0.5"/>
<rect x="60.2791" y="135.628" width="3.76744" height="3.76744" rx="1.88372" fill="#292B2C" fill-opacity="0.5"/>
<rect x="60.2791" y="128.093" width="3.76744" height="3.76744" rx="1.88372" fill="#292B2C" fill-opacity="0.5"/>
<rect x="60.2791" y="120.558" width="3.76744" height="3.76744" rx="1.88372" fill="#292B2C" fill-opacity="0.5"/>
<rect x="60.2791" y="113.023" width="3.76744" height="3.76744" rx="1.88372" fill="#292B2C" fill-opacity="0.5"/>
<rect x="60.2791" y="105.488" width="3.76744" height="3.76744" rx="1.88372" fill="#292B2C" fill-opacity="0.5"/>
<rect x="60.2791" y="97.9534" width="3.76744" height="3.76744" rx="1.88372" fill="#292B2C" fill-opacity="0.5"/>
<rect x="60.2791" y="90.4187" width="3.76744" height="3.76744" rx="1.88372" fill="#292B2C" fill-opacity="0.5"/>
<rect x="60.2791" y="82.8838" width="3.76744" height="3.76744" rx="1.88372" fill="#292B2C" fill-opacity="0.5"/>
<rect x="60.2791" y="75.3489" width="3.76744" height="3.76744" rx="1.88372" fill="#292B2C" fill-opacity="0.5"/>
<rect x="60.2791" y="67.814" width="3.76744" height="3.76744" rx="1.88372" fill="#292B2C" fill-opacity="0.5"/>
<rect x="60.2791" y="60.2791" width="3.76744" height="3.76744" rx="1.88372" fill="#292B2C" fill-opacity="0.5"/>
<rect x="60.2791" y="52.7441" width="3.76744" height="3.76744" rx="1.88372" fill="#292B2C" fill-opacity="0.5"/>
<rect x="60.2791" y="45.2092" width="3.76744" height="3.76744" rx="1.88372" fill="#292B2C" fill-opacity="0.5"/>
<rect x="60.2791" y="37.6746" width="3.76744" height="3.76744" rx="1.88372" fill="#292B2C" fill-opacity="0.5"/>
<rect x="60.2791" y="30.1394" width="3.76744" height="3.76744" rx="1.88372" fill="#292B2C" fill-opacity="0.5"/>
<rect x="60.2791" y="22.6047" width="3.76744" height="3.76744" rx="1.88372" fill="#292B2C" fill-opacity="0.5"/>
<rect x="60.2791" y="15.0698" width="3.76744" height="3.76744" rx="1.88372" fill="#292B2C" fill-opacity="0.5"/>
<rect x="60.2791" y="7.53491" width="3.76744" height="3.76744" rx="1.88372" fill="#292B2C" fill-opacity="0.5"/>
<rect x="60.2791" width="3.76744" height="3.76744" rx="1.88372" fill="#292B2C" fill-opacity="0.5"/>
<rect x="67.814" y="135.628" width="3.76744" height="3.76744" rx="1.88372" fill="#292B2C" fill-opacity="0.5"/>
<rect x="67.814" y="128.093" width="3.76744" height="3.76744" rx="1.88372" fill="#292B2C" fill-opacity="0.5"/>
<rect x="67.814" y="120.558" width="3.76744" height="3.76744" rx="1.88372" fill="#292B2C" fill-opacity="0.5"/>
<rect x="67.814" y="113.023" width="3.76744" height="3.76744" rx="1.88372" fill="#292B2C" fill-opacity="0.5"/>
<rect x="67.814" y="105.488" width="3.76744" height="3.76744" rx="1.88372" fill="#292B2C" fill-opacity="0.5"/>
<rect x="67.814" y="97.9534" width="3.76744" height="3.76744" rx="1.88372" fill="#292B2C" fill-opacity="0.5"/>
<rect x="67.814" y="90.4187" width="3.76744" height="3.76744" rx="1.88372" fill="#292B2C" fill-opacity="0.5"/>
<rect x="67.814" y="82.8838" width="3.76744" height="3.76744" rx="1.88372" fill="#292B2C" fill-opacity="0.5"/>
<rect x="67.814" y="75.3489" width="3.76744" height="3.76744" rx="1.88372" fill="#292B2C" fill-opacity="0.5"/>
<rect x="67.814" y="67.814" width="3.76744" height="3.76744" rx="1.88372" fill="#292B2C" fill-opacity="0.5"/>
<rect x="67.814" y="60.2791" width="3.76744" height="3.76744" rx="1.88372" fill="#292B2C" fill-opacity="0.5"/>
<rect x="67.814" y="52.7441" width="3.76744" height="3.76744" rx="1.88372" fill="#292B2C" fill-opacity="0.5"/>
<rect x="67.814" y="45.2092" width="3.76744" height="3.76744" rx="1.88372" fill="#292B2C" fill-opacity="0.5"/>
<rect x="67.814" y="37.6746" width="3.76744" height="3.76744" rx="1.88372" fill="#292B2C" fill-opacity="0.5"/>
<rect x="67.814" y="30.1394" width="3.76744" height="3.76744" rx="1.88372" fill="#292B2C" fill-opacity="0.5"/>
<rect x="67.814" y="22.6047" width="3.76744" height="3.76744" rx="1.88372" fill="#292B2C" fill-opacity="0.5"/>
<rect x="67.814" y="15.0698" width="3.76744" height="3.76744" rx="1.88372" fill="#292B2C" fill-opacity="0.5"/>
<rect x="67.814" y="7.53491" width="3.76744" height="3.76744" rx="1.88372" fill="#292B2C" fill-opacity="0.5"/>
<rect x="67.814" width="3.76744" height="3.76744" rx="1.88372" fill="#292B2C" fill-opacity="0.5"/>
<rect x="75.3489" y="135.628" width="3.76744" height="3.76744" rx="1.88372" fill="#292B2C" fill-opacity="0.5"/>
<rect x="75.3489" y="128.093" width="3.76744" height="3.76744" rx="1.88372" fill="#292B2C" fill-opacity="0.5"/>
<rect x="75.3489" y="120.558" width="3.76744" height="3.76744" rx="1.88372" fill="#292B2C" fill-opacity="0.5"/>
<rect x="75.3489" y="113.023" width="3.76744" height="3.76744" rx="1.88372" fill="#292B2C" fill-opacity="0.5"/>
<rect x="75.3489" y="105.488" width="3.76744" height="3.76744" rx="1.88372" fill="#292B2C" fill-opacity="0.5"/>
<rect x="75.3489" y="97.9534" width="3.76744" height="3.76744" rx="1.88372" fill="#292B2C" fill-opacity="0.5"/>
<rect x="75.3489" y="90.4187" width="3.76744" height="3.76744" rx="1.88372" fill="#292B2C" fill-opacity="0.5"/>
<rect x="75.3489" y="82.8838" width="3.76744" height="3.76744" rx="1.88372" fill="#292B2C" fill-opacity="0.5"/>
<rect x="75.3489" y="75.3489" width="3.76744" height="3.76744" rx="1.88372" fill="#292B2C" fill-opacity="0.5"/>
<rect x="75.3489" y="67.814" width="3.76744" height="3.76744" rx="1.88372" fill="#292B2C" fill-opacity="0.5"/>
<rect x="75.3489" y="60.2791" width="3.76744" height="3.76744" rx="1.88372" fill="#292B2C" fill-opacity="0.5"/>
<rect x="75.3489" y="52.7441" width="3.76744" height="3.76744" rx="1.88372" fill="#292B2C" fill-opacity="0.5"/>
<rect x="75.3489" y="45.2092" width="3.76744" height="3.76744" rx="1.88372" fill="#292B2C" fill-opacity="0.5"/>
<rect x="75.3489" y="37.6746" width="3.76744" height="3.76744" rx="1.88372" fill="#292B2C" fill-opacity="0.5"/>
<rect x="75.3489" y="30.1394" width="3.76744" height="3.76744" rx="1.88372" fill="#292B2C" fill-opacity="0.5"/>
<rect x="75.3489" y="22.6047" width="3.76744" height="3.76744" rx="1.88372" fill="#292B2C" fill-opacity="0.5"/>
<rect x="75.3489" y="15.0698" width="3.76744" height="3.76744" rx="1.88372" fill="#292B2C" fill-opacity="0.5"/>
<rect x="75.3489" y="7.53491" width="3.76744" height="3.76744" rx="1.88372" fill="#292B2C" fill-opacity="0.5"/>
<rect x="75.3489" width="3.76744" height="3.76744" rx="1.88372" fill="#292B2C" fill-opacity="0.5"/>
<rect x="82.8838" y="135.628" width="3.76744" height="3.76744" rx="1.88372" fill="#292B2C" fill-opacity="0.5"/>
<rect x="82.8838" y="128.093" width="3.76744" height="3.76744" rx="1.88372" fill="#292B2C" fill-opacity="0.5"/>
<rect x="82.8838" y="120.558" width="3.76744" height="3.76744" rx="1.88372" fill="#292B2C" fill-opacity="0.5"/>
<rect x="82.8838" y="113.023" width="3.76744" height="3.76744" rx="1.88372" fill="#292B2C" fill-opacity="0.5"/>
<rect x="82.8838" y="105.488" width="3.76744" height="3.76744" rx="1.88372" fill="#292B2C" fill-opacity="0.5"/>
<rect x="82.8838" y="97.9534" width="3.76744" height="3.76744" rx="1.88372" fill="#292B2C" fill-opacity="0.5"/>
<rect x="82.8838" y="90.4187" width="3.76744" height="3.76744" rx="1.88372" fill="#292B2C" fill-opacity="0.5"/>
<rect x="82.8838" y="82.8838" width="3.76744" height="3.76744" rx="1.88372" fill="#292B2C" fill-opacity="0.5"/>
<rect x="82.8838" y="75.3489" width="3.76744" height="3.76744" rx="1.88372" fill="#292B2C" fill-opacity="0.5"/>
<rect x="82.8838" y="67.814" width="3.76744" height="3.76744" rx="1.88372" fill="#292B2C" fill-opacity="0.5"/>
<rect x="82.8838" y="60.2791" width="3.76744" height="3.76744" rx="1.88372" fill="#292B2C" fill-opacity="0.5"/>
<rect x="82.8838" y="52.7441" width="3.76744" height="3.76744" rx="1.88372" fill="#292B2C" fill-opacity="0.5"/>
<rect x="82.8838" y="45.2092" width="3.76744" height="3.76744" rx="1.88372" fill="#292B2C" fill-opacity="0.5"/>
<rect x="82.8838" y="37.6746" width="3.76744" height="3.76744" rx="1.88372" fill="#292B2C" fill-opacity="0.5"/>
<rect x="82.8838" y="30.1394" width="3.76744" height="3.76744" rx="1.88372" fill="#292B2C" fill-opacity="0.5"/>
<rect x="82.8838" y="22.6047" width="3.76744" height="3.76744" rx="1.88372" fill="#292B2C" fill-opacity="0.5"/>
<rect x="82.8838" y="15.0698" width="3.76744" height="3.76744" rx="1.88372" fill="#292B2C" fill-opacity="0.5"/>
<rect x="82.8838" y="7.53491" width="3.76744" height="3.76744" rx="1.88372" fill="#292B2C" fill-opacity="0.5"/>
<rect x="82.8838" width="3.76744" height="3.76744" rx="1.88372" fill="#292B2C" fill-opacity="0.5"/>
</svg>
