<svg width="142" height="50" viewBox="0 0 142 50" fill="none" xmlns="http://www.w3.org/2000/svg">
<rect y="46.2327" width="3.30233" height="3.30233" rx="1.65116" fill="#292B2C" fill-opacity="0.5"/>
<rect y="39.6279" width="3.30233" height="3.30233" rx="1.65116" fill="#292B2C" fill-opacity="0.5"/>
<rect y="33.0234" width="3.30233" height="3.30233" rx="1.65116" fill="#292B2C" fill-opacity="0.5"/>
<rect y="26.4187" width="3.30233" height="3.30233" rx="1.65116" fill="#292B2C" fill-opacity="0.5"/>
<rect y="19.8137" width="3.30233" height="3.30233" rx="1.65116" fill="#292B2C" fill-opacity="0.5"/>
<rect y="13.2092" width="3.30233" height="3.30233" rx="1.65116" fill="#292B2C" fill-opacity="0.5"/>
<rect y="6.60449" width="3.30233" height="3.30233" rx="1.65116" fill="#292B2C" fill-opacity="0.5"/>
<rect width="3.30233" height="3.30233" rx="1.65116" fill="#292B2C" fill-opacity="0.5"/>
<rect x="6.60449" y="46.2327" width="3.30233" height="3.30233" rx="1.65116" fill="#292B2C" fill-opacity="0.5"/>
<rect x="6.60449" y="39.6279" width="3.30233" height="3.30233" rx="1.65116" fill="#292B2C" fill-opacity="0.5"/>
<rect x="6.60449" y="33.0234" width="3.30233" height="3.30233" rx="1.65116" fill="#292B2C" fill-opacity="0.5"/>
<rect x="6.60449" y="26.4187" width="3.30233" height="3.30233" rx="1.65116" fill="#292B2C" fill-opacity="0.5"/>
<rect x="6.60449" y="19.8137" width="3.30233" height="3.30233" rx="1.65116" fill="#292B2C" fill-opacity="0.5"/>
<rect x="6.60449" y="13.2092" width="3.30233" height="3.30233" rx="1.65116" fill="#292B2C" fill-opacity="0.5"/>
<rect x="6.60449" y="6.60449" width="3.30233" height="3.30233" rx="1.65116" fill="#292B2C" fill-opacity="0.5"/>
<rect x="6.60449" width="3.30233" height="3.30233" rx="1.65116" fill="#292B2C" fill-opacity="0.5"/>
<rect x="13.2095" y="46.2327" width="3.30233" height="3.30233" rx="1.65116" fill="#292B2C" fill-opacity="0.5"/>
<rect x="13.2095" y="39.6279" width="3.30233" height="3.30233" rx="1.65116" fill="#292B2C" fill-opacity="0.5"/>
<rect x="13.2095" y="33.0234" width="3.30233" height="3.30233" rx="1.65116" fill="#292B2C" fill-opacity="0.5"/>
<rect x="13.2095" y="26.4187" width="3.30233" height="3.30233" rx="1.65116" fill="#292B2C" fill-opacity="0.5"/>
<rect x="13.2095" y="19.8137" width="3.30233" height="3.30233" rx="1.65116" fill="#292B2C" fill-opacity="0.5"/>
<rect x="13.2095" y="13.2092" width="3.30233" height="3.30233" rx="1.65116" fill="#292B2C" fill-opacity="0.5"/>
<rect x="13.2095" y="6.60449" width="3.30233" height="3.30233" rx="1.65116" fill="#292B2C" fill-opacity="0.5"/>
<rect x="13.2095" width="3.30233" height="3.30233" rx="1.65116" fill="#292B2C" fill-opacity="0.5"/>
<rect x="19.814" y="46.2327" width="3.30233" height="3.30233" rx="1.65116" fill="#292B2C" fill-opacity="0.5"/>
<rect x="19.814" y="39.6279" width="3.30233" height="3.30233" rx="1.65116" fill="#292B2C" fill-opacity="0.5"/>
<rect x="19.814" y="33.0234" width="3.30233" height="3.30233" rx="1.65116" fill="#292B2C" fill-opacity="0.5"/>
<rect x="19.814" y="26.4187" width="3.30233" height="3.30233" rx="1.65116" fill="#292B2C" fill-opacity="0.5"/>
<rect x="19.814" y="19.8137" width="3.30233" height="3.30233" rx="1.65116" fill="#292B2C" fill-opacity="0.5"/>
<rect x="19.814" y="13.2092" width="3.30233" height="3.30233" rx="1.65116" fill="#292B2C" fill-opacity="0.5"/>
<rect x="19.814" y="6.60449" width="3.30233" height="3.30233" rx="1.65116" fill="#292B2C" fill-opacity="0.5"/>
<rect x="19.814" width="3.30233" height="3.30233" rx="1.65116" fill="#292B2C" fill-opacity="0.5"/>
<rect x="26.4189" y="46.2327" width="3.30233" height="3.30233" rx="1.65116" fill="#292B2C" fill-opacity="0.5"/>
<rect x="26.4189" y="39.6279" width="3.30233" height="3.30233" rx="1.65116" fill="#292B2C" fill-opacity="0.5"/>
<rect x="26.4189" y="33.0234" width="3.30233" height="3.30233" rx="1.65116" fill="#292B2C" fill-opacity="0.5"/>
<rect x="26.4189" y="26.4187" width="3.30233" height="3.30233" rx="1.65116" fill="#292B2C" fill-opacity="0.5"/>
<rect x="26.4189" y="19.8137" width="3.30233" height="3.30233" rx="1.65116" fill="#292B2C" fill-opacity="0.5"/>
<rect x="26.4189" y="13.2092" width="3.30233" height="3.30233" rx="1.65116" fill="#292B2C" fill-opacity="0.5"/>
<rect x="26.4189" y="6.60449" width="3.30233" height="3.30233" rx="1.65116" fill="#292B2C" fill-opacity="0.5"/>
<rect x="26.4189" width="3.30233" height="3.30233" rx="1.65116" fill="#292B2C" fill-opacity="0.5"/>
<rect x="33.0234" y="46.2324" width="3.30233" height="3.30233" rx="1.65116" fill="#292B2C" fill-opacity="0.5"/>
<rect x="33.0234" y="39.6279" width="3.30233" height="3.30233" rx="1.65116" fill="#292B2C" fill-opacity="0.5"/>
<rect x="33.0234" y="33.0234" width="3.30233" height="3.30233" rx="1.65116" fill="#292B2C" fill-opacity="0.5"/>
<rect x="33.0234" y="26.4185" width="3.30233" height="3.30233" rx="1.65116" fill="#292B2C" fill-opacity="0.5"/>
<rect x="33.0234" y="19.814" width="3.30233" height="3.30233" rx="1.65116" fill="#292B2C" fill-opacity="0.5"/>
<rect x="33.0234" y="13.2095" width="3.30233" height="3.30233" rx="1.65116" fill="#292B2C" fill-opacity="0.5"/>
<rect x="33.0234" y="6.60449" width="3.30233" height="3.30233" rx="1.65116" fill="#292B2C" fill-opacity="0.5"/>
<rect x="33.0234" width="3.30233" height="3.30233" rx="1.65116" fill="#292B2C" fill-opacity="0.5"/>
<rect x="39.6279" y="46.2327" width="3.30233" height="3.30233" rx="1.65116" fill="#292B2C" fill-opacity="0.5"/>
<rect x="39.6279" y="39.6279" width="3.30233" height="3.30233" rx="1.65116" fill="#292B2C" fill-opacity="0.5"/>
<rect x="39.6279" y="33.0234" width="3.30233" height="3.30233" rx="1.65116" fill="#292B2C" fill-opacity="0.5"/>
<rect x="39.6279" y="26.4187" width="3.30233" height="3.30233" rx="1.65116" fill="#292B2C" fill-opacity="0.5"/>
<rect x="39.6279" y="19.8137" width="3.30233" height="3.30233" rx="1.65116" fill="#292B2C" fill-opacity="0.5"/>
<rect x="39.6279" y="13.2092" width="3.30233" height="3.30233" rx="1.65116" fill="#292B2C" fill-opacity="0.5"/>
<rect x="39.6279" y="6.60449" width="3.30233" height="3.30233" rx="1.65116" fill="#292B2C" fill-opacity="0.5"/>
<rect x="39.6279" width="3.30233" height="3.30233" rx="1.65116" fill="#292B2C" fill-opacity="0.5"/>
<rect x="46.2324" y="46.2327" width="3.30233" height="3.30233" rx="1.65116" fill="#292B2C" fill-opacity="0.5"/>
<rect x="46.2324" y="39.6279" width="3.30233" height="3.30233" rx="1.65116" fill="#292B2C" fill-opacity="0.5"/>
<rect x="46.2324" y="33.0234" width="3.30233" height="3.30233" rx="1.65116" fill="#292B2C" fill-opacity="0.5"/>
<rect x="46.2324" y="26.4187" width="3.30233" height="3.30233" rx="1.65116" fill="#292B2C" fill-opacity="0.5"/>
<rect x="46.2324" y="19.8137" width="3.30233" height="3.30233" rx="1.65116" fill="#292B2C" fill-opacity="0.5"/>
<rect x="46.2324" y="13.2092" width="3.30233" height="3.30233" rx="1.65116" fill="#292B2C" fill-opacity="0.5"/>
<rect x="46.2324" y="6.60449" width="3.30233" height="3.30233" rx="1.65116" fill="#292B2C" fill-opacity="0.5"/>
<rect x="46.2324" width="3.30233" height="3.30233" rx="1.65116" fill="#292B2C" fill-opacity="0.5"/>
<rect x="52.8374" y="46.2327" width="3.30233" height="3.30233" rx="1.65116" fill="#292B2C" fill-opacity="0.5"/>
<rect x="52.8374" y="39.6279" width="3.30233" height="3.30233" rx="1.65116" fill="#292B2C" fill-opacity="0.5"/>
<rect x="52.8374" y="33.0234" width="3.30233" height="3.30233" rx="1.65116" fill="#292B2C" fill-opacity="0.5"/>
<rect x="52.8374" y="26.4187" width="3.30233" height="3.30233" rx="1.65116" fill="#292B2C" fill-opacity="0.5"/>
<rect x="52.8374" y="19.8137" width="3.30233" height="3.30233" rx="1.65116" fill="#292B2C" fill-opacity="0.5"/>
<rect x="52.8374" y="13.2092" width="3.30233" height="3.30233" rx="1.65116" fill="#292B2C" fill-opacity="0.5"/>
<rect x="52.8374" y="6.60449" width="3.30233" height="3.30233" rx="1.65116" fill="#292B2C" fill-opacity="0.5"/>
<rect x="52.8374" width="3.30233" height="3.30233" rx="1.65116" fill="#292B2C" fill-opacity="0.5"/>
<rect x="59.4419" y="46.2327" width="3.30233" height="3.30233" rx="1.65116" fill="#292B2C" fill-opacity="0.5"/>
<rect x="59.4419" y="39.6279" width="3.30233" height="3.30233" rx="1.65116" fill="#292B2C" fill-opacity="0.5"/>
<rect x="59.4419" y="33.0234" width="3.30233" height="3.30233" rx="1.65116" fill="#292B2C" fill-opacity="0.5"/>
<rect x="59.4419" y="26.4187" width="3.30233" height="3.30233" rx="1.65116" fill="#292B2C" fill-opacity="0.5"/>
<rect x="59.4419" y="19.8137" width="3.30233" height="3.30233" rx="1.65116" fill="#292B2C" fill-opacity="0.5"/>
<rect x="59.4419" y="13.2092" width="3.30233" height="3.30233" rx="1.65116" fill="#292B2C" fill-opacity="0.5"/>
<rect x="59.4419" y="6.60449" width="3.30233" height="3.30233" rx="1.65116" fill="#292B2C" fill-opacity="0.5"/>
<rect x="59.4419" width="3.30233" height="3.30233" rx="1.65116" fill="#292B2C" fill-opacity="0.5"/>
<rect x="66.0464" y="46.2327" width="3.30233" height="3.30233" rx="1.65116" fill="#292B2C" fill-opacity="0.5"/>
<rect x="66.0464" y="39.6279" width="3.30233" height="3.30233" rx="1.65116" fill="#292B2C" fill-opacity="0.5"/>
<rect x="66.0464" y="33.0234" width="3.30233" height="3.30233" rx="1.65116" fill="#292B2C" fill-opacity="0.5"/>
<rect x="66.0464" y="26.4187" width="3.30233" height="3.30233" rx="1.65116" fill="#292B2C" fill-opacity="0.5"/>
<rect x="66.0464" y="19.8137" width="3.30233" height="3.30233" rx="1.65116" fill="#292B2C" fill-opacity="0.5"/>
<rect x="66.0464" y="13.2092" width="3.30233" height="3.30233" rx="1.65116" fill="#292B2C" fill-opacity="0.5"/>
<rect x="66.0464" y="6.60449" width="3.30233" height="3.30233" rx="1.65116" fill="#292B2C" fill-opacity="0.5"/>
<rect x="66.0464" width="3.30233" height="3.30233" rx="1.65116" fill="#292B2C" fill-opacity="0.5"/>
<rect x="72.6514" y="46.2327" width="3.30233" height="3.30233" rx="1.65116" fill="#292B2C" fill-opacity="0.5"/>
<rect x="72.6514" y="39.6279" width="3.30233" height="3.30233" rx="1.65116" fill="#292B2C" fill-opacity="0.5"/>
<rect x="72.6514" y="33.0234" width="3.30233" height="3.30233" rx="1.65116" fill="#292B2C" fill-opacity="0.5"/>
<rect x="72.6514" y="26.4187" width="3.30233" height="3.30233" rx="1.65116" fill="#292B2C" fill-opacity="0.5"/>
<rect x="72.6514" y="19.8137" width="3.30233" height="3.30233" rx="1.65116" fill="#292B2C" fill-opacity="0.5"/>
<rect x="72.6514" y="13.2092" width="3.30233" height="3.30233" rx="1.65116" fill="#292B2C" fill-opacity="0.5"/>
<rect x="72.6514" y="6.60449" width="3.30233" height="3.30233" rx="1.65116" fill="#292B2C" fill-opacity="0.5"/>
<rect x="72.6514" width="3.30233" height="3.30233" rx="1.65116" fill="#292B2C" fill-opacity="0.5"/>
<rect x="79.2559" y="46.2327" width="3.30233" height="3.30233" rx="1.65116" fill="#292B2C" fill-opacity="0.5"/>
<rect x="79.2559" y="39.6279" width="3.30233" height="3.30233" rx="1.65116" fill="#292B2C" fill-opacity="0.5"/>
<rect x="79.2559" y="33.0234" width="3.30233" height="3.30233" rx="1.65116" fill="#292B2C" fill-opacity="0.5"/>
<rect x="79.2559" y="26.4187" width="3.30233" height="3.30233" rx="1.65116" fill="#292B2C" fill-opacity="0.5"/>
<rect x="79.2559" y="19.8137" width="3.30233" height="3.30233" rx="1.65116" fill="#292B2C" fill-opacity="0.5"/>
<rect x="79.2559" y="13.2092" width="3.30233" height="3.30233" rx="1.65116" fill="#292B2C" fill-opacity="0.5"/>
<rect x="79.2559" y="6.60449" width="3.30233" height="3.30233" rx="1.65116" fill="#292B2C" fill-opacity="0.5"/>
<rect x="79.2559" width="3.30233" height="3.30233" rx="1.65116" fill="#292B2C" fill-opacity="0.5"/>
<rect x="85.8608" y="46.2327" width="3.30233" height="3.30233" rx="1.65116" fill="#292B2C" fill-opacity="0.5"/>
<rect x="85.8608" y="39.6279" width="3.30233" height="3.30233" rx="1.65116" fill="#292B2C" fill-opacity="0.5"/>
<rect x="85.8608" y="33.0234" width="3.30233" height="3.30233" rx="1.65116" fill="#292B2C" fill-opacity="0.5"/>
<rect x="85.8608" y="26.4187" width="3.30233" height="3.30233" rx="1.65116" fill="#292B2C" fill-opacity="0.5"/>
<rect x="85.8608" y="19.8137" width="3.30233" height="3.30233" rx="1.65116" fill="#292B2C" fill-opacity="0.5"/>
<rect x="85.8608" y="13.2092" width="3.30233" height="3.30233" rx="1.65116" fill="#292B2C" fill-opacity="0.5"/>
<rect x="85.8608" y="6.60449" width="3.30233" height="3.30233" rx="1.65116" fill="#292B2C" fill-opacity="0.5"/>
<rect x="85.8608" width="3.30233" height="3.30233" rx="1.65116" fill="#292B2C" fill-opacity="0.5"/>
<rect x="92.4653" y="46.2327" width="3.30233" height="3.30233" rx="1.65116" fill="#292B2C" fill-opacity="0.5"/>
<rect x="92.4653" y="39.6279" width="3.30233" height="3.30233" rx="1.65116" fill="#292B2C" fill-opacity="0.5"/>
<rect x="92.4653" y="33.0234" width="3.30233" height="3.30233" rx="1.65116" fill="#292B2C" fill-opacity="0.5"/>
<rect x="92.4653" y="26.4187" width="3.30233" height="3.30233" rx="1.65116" fill="#292B2C" fill-opacity="0.5"/>
<rect x="92.4653" y="19.8137" width="3.30233" height="3.30233" rx="1.65116" fill="#292B2C" fill-opacity="0.5"/>
<rect x="92.4653" y="13.2092" width="3.30233" height="3.30233" rx="1.65116" fill="#292B2C" fill-opacity="0.5"/>
<rect x="92.4653" y="6.60449" width="3.30233" height="3.30233" rx="1.65116" fill="#292B2C" fill-opacity="0.5"/>
<rect x="92.4653" width="3.30233" height="3.30233" rx="1.65116" fill="#292B2C" fill-opacity="0.5"/>
<rect x="99.0698" y="46.2327" width="3.30233" height="3.30233" rx="1.65116" fill="#292B2C" fill-opacity="0.5"/>
<rect x="99.0698" y="39.6279" width="3.30233" height="3.30233" rx="1.65116" fill="#292B2C" fill-opacity="0.5"/>
<rect x="99.0698" y="33.0234" width="3.30233" height="3.30233" rx="1.65116" fill="#292B2C" fill-opacity="0.5"/>
<rect x="99.0698" y="26.4187" width="3.30233" height="3.30233" rx="1.65116" fill="#292B2C" fill-opacity="0.5"/>
<rect x="99.0698" y="19.8137" width="3.30233" height="3.30233" rx="1.65116" fill="#292B2C" fill-opacity="0.5"/>
<rect x="99.0698" y="13.2092" width="3.30233" height="3.30233" rx="1.65116" fill="#292B2C" fill-opacity="0.5"/>
<rect x="99.0698" y="6.60449" width="3.30233" height="3.30233" rx="1.65116" fill="#292B2C" fill-opacity="0.5"/>
<rect x="99.0698" width="3.30233" height="3.30233" rx="1.65116" fill="#292B2C" fill-opacity="0.5"/>
<rect x="105.674" y="46.2327" width="3.30233" height="3.30233" rx="1.65116" fill="#292B2C" fill-opacity="0.5"/>
<rect x="105.674" y="39.6279" width="3.30233" height="3.30233" rx="1.65116" fill="#292B2C" fill-opacity="0.5"/>
<rect x="105.674" y="33.0234" width="3.30233" height="3.30233" rx="1.65116" fill="#292B2C" fill-opacity="0.5"/>
<rect x="105.674" y="26.4187" width="3.30233" height="3.30233" rx="1.65116" fill="#292B2C" fill-opacity="0.5"/>
<rect x="105.674" y="19.8137" width="3.30233" height="3.30233" rx="1.65116" fill="#292B2C" fill-opacity="0.5"/>
<rect x="105.674" y="13.2092" width="3.30233" height="3.30233" rx="1.65116" fill="#292B2C" fill-opacity="0.5"/>
<rect x="105.674" y="6.60449" width="3.30233" height="3.30233" rx="1.65116" fill="#292B2C" fill-opacity="0.5"/>
<rect x="105.674" width="3.30233" height="3.30233" rx="1.65116" fill="#292B2C" fill-opacity="0.5"/>
<rect x="112.279" y="46.2327" width="3.30233" height="3.30233" rx="1.65116" fill="#292B2C" fill-opacity="0.5"/>
<rect x="112.279" y="39.6279" width="3.30233" height="3.30233" rx="1.65116" fill="#292B2C" fill-opacity="0.5"/>
<rect x="112.279" y="33.0234" width="3.30233" height="3.30233" rx="1.65116" fill="#292B2C" fill-opacity="0.5"/>
<rect x="112.279" y="26.4187" width="3.30233" height="3.30233" rx="1.65116" fill="#292B2C" fill-opacity="0.5"/>
<rect x="112.279" y="19.8137" width="3.30233" height="3.30233" rx="1.65116" fill="#292B2C" fill-opacity="0.5"/>
<rect x="112.279" y="13.2092" width="3.30233" height="3.30233" rx="1.65116" fill="#292B2C" fill-opacity="0.5"/>
<rect x="112.279" y="6.60449" width="3.30233" height="3.30233" rx="1.65116" fill="#292B2C" fill-opacity="0.5"/>
<rect x="112.279" width="3.30233" height="3.30233" rx="1.65116" fill="#292B2C" fill-opacity="0.5"/>
<rect x="118.884" y="46.2327" width="3.30233" height="3.30233" rx="1.65116" fill="#292B2C" fill-opacity="0.5"/>
<rect x="118.884" y="39.6279" width="3.30233" height="3.30233" rx="1.65116" fill="#292B2C" fill-opacity="0.5"/>
<rect x="118.884" y="33.0234" width="3.30233" height="3.30233" rx="1.65116" fill="#292B2C" fill-opacity="0.5"/>
<rect x="118.884" y="26.4187" width="3.30233" height="3.30233" rx="1.65116" fill="#292B2C" fill-opacity="0.5"/>
<rect x="118.884" y="19.8137" width="3.30233" height="3.30233" rx="1.65116" fill="#292B2C" fill-opacity="0.5"/>
<rect x="118.884" y="13.2092" width="3.30233" height="3.30233" rx="1.65116" fill="#292B2C" fill-opacity="0.5"/>
<rect x="118.884" y="6.60449" width="3.30233" height="3.30233" rx="1.65116" fill="#292B2C" fill-opacity="0.5"/>
<rect x="118.884" width="3.30233" height="3.30233" rx="1.65116" fill="#292B2C" fill-opacity="0.5"/>
<rect x="125.488" y="46.2327" width="3.30233" height="3.30233" rx="1.65116" fill="#292B2C" fill-opacity="0.5"/>
<rect x="125.488" y="39.6279" width="3.30233" height="3.30233" rx="1.65116" fill="#292B2C" fill-opacity="0.5"/>
<rect x="125.488" y="33.0234" width="3.30233" height="3.30233" rx="1.65116" fill="#292B2C" fill-opacity="0.5"/>
<rect x="125.488" y="26.4187" width="3.30233" height="3.30233" rx="1.65116" fill="#292B2C" fill-opacity="0.5"/>
<rect x="125.488" y="19.8137" width="3.30233" height="3.30233" rx="1.65116" fill="#292B2C" fill-opacity="0.5"/>
<rect x="125.488" y="13.2092" width="3.30233" height="3.30233" rx="1.65116" fill="#292B2C" fill-opacity="0.5"/>
<rect x="125.488" y="6.60449" width="3.30233" height="3.30233" rx="1.65116" fill="#292B2C" fill-opacity="0.5"/>
<rect x="125.488" width="3.30233" height="3.30233" rx="1.65116" fill="#292B2C" fill-opacity="0.5"/>
<rect x="132.093" y="46.2327" width="3.30233" height="3.30233" rx="1.65116" fill="#292B2C" fill-opacity="0.5"/>
<rect x="132.093" y="39.6279" width="3.30233" height="3.30233" rx="1.65116" fill="#292B2C" fill-opacity="0.5"/>
<rect x="132.093" y="33.0234" width="3.30233" height="3.30233" rx="1.65116" fill="#292B2C" fill-opacity="0.5"/>
<rect x="132.093" y="26.4187" width="3.30233" height="3.30233" rx="1.65116" fill="#292B2C" fill-opacity="0.5"/>
<rect x="132.093" y="19.8137" width="3.30233" height="3.30233" rx="1.65116" fill="#292B2C" fill-opacity="0.5"/>
<rect x="132.093" y="13.2092" width="3.30233" height="3.30233" rx="1.65116" fill="#292B2C" fill-opacity="0.5"/>
<rect x="132.093" y="6.60449" width="3.30233" height="3.30233" rx="1.65116" fill="#292B2C" fill-opacity="0.5"/>
<rect x="132.093" width="3.30233" height="3.30233" rx="1.65116" fill="#292B2C" fill-opacity="0.5"/>
<rect x="138.698" y="46.2327" width="3.30233" height="3.30233" rx="1.65116" fill="#292B2C" fill-opacity="0.5"/>
<rect x="138.698" y="39.6279" width="3.30233" height="3.30233" rx="1.65116" fill="#292B2C" fill-opacity="0.5"/>
<rect x="138.698" y="33.0234" width="3.30233" height="3.30233" rx="1.65116" fill="#292B2C" fill-opacity="0.5"/>
<rect x="138.698" y="26.4187" width="3.30233" height="3.30233" rx="1.65116" fill="#292B2C" fill-opacity="0.5"/>
<rect x="138.698" y="19.8137" width="3.30233" height="3.30233" rx="1.65116" fill="#292B2C" fill-opacity="0.5"/>
<rect x="138.698" y="13.2092" width="3.30233" height="3.30233" rx="1.65116" fill="#292B2C" fill-opacity="0.5"/>
<rect x="138.698" y="6.60449" width="3.30233" height="3.30233" rx="1.65116" fill="#292B2C" fill-opacity="0.5"/>
<rect x="138.698" width="3.30233" height="3.30233" rx="1.65116" fill="#292B2C" fill-opacity="0.5"/>
</svg>
