<svg width="30" height="30" viewBox="0 0 30 30" fill="none" xmlns="http://www.w3.org/2000/svg">
<path d="M0.00602007 30L2.03402 22.548C0.697727 20.2573 -0.00433595 17.652 2.01484e-05 15C2.01484e-05 6.7155 6.71552 0 15 0C23.2845 0 30 6.7155 30 15C30 23.2845 23.2845 30 15 30C12.3492 30.0043 9.745 29.3028 7.45502 27.9675L0.00602007 30ZM9.58652 7.962C9.39281 7.97403 9.20353 8.02505 9.03002 8.112C8.8673 8.20414 8.71876 8.31934 8.58902 8.454C8.40902 8.6235 8.30702 8.7705 8.19752 8.913C7.64314 9.63449 7.34493 10.5201 7.35002 11.43C7.35302 12.165 7.54502 12.8805 7.84502 13.5495C8.45852 14.9025 9.46802 16.335 10.8015 17.6625C11.1225 17.982 11.436 18.303 11.7735 18.6015C13.4286 20.0587 15.4009 21.1096 17.5335 21.6705L18.387 21.801C18.6645 21.816 18.942 21.795 19.221 21.7815C19.6579 21.7589 20.0844 21.6407 20.4705 21.435C20.667 21.3338 20.8587 21.2237 21.045 21.105C21.045 21.105 21.1095 21.063 21.2325 20.97C21.435 20.82 21.5595 20.7135 21.7275 20.538C21.852 20.409 21.96 20.2575 22.0425 20.085C22.1595 19.8405 22.2765 19.374 22.3245 18.9855C22.3605 18.6885 22.35 18.5265 22.3455 18.426C22.3395 18.2655 22.206 18.099 22.0605 18.0285L21.1875 17.637C21.1875 17.637 19.8825 17.0685 19.086 16.7055C19.002 16.6689 18.912 16.648 18.8205 16.644C18.7179 16.6335 18.6142 16.645 18.5164 16.6779C18.4186 16.7107 18.329 16.7641 18.2535 16.8345V16.8315C18.246 16.8315 18.1455 16.917 17.061 18.231C16.9988 18.3146 16.913 18.3779 16.8147 18.4126C16.7164 18.4473 16.61 18.452 16.509 18.426C16.4113 18.3999 16.3155 18.3668 16.2225 18.327C16.0365 18.249 15.972 18.219 15.8445 18.1635L15.837 18.1605C14.9789 17.7858 14.1844 17.2798 13.482 16.6605C13.293 16.4955 13.1175 16.3155 12.9375 16.1415C12.3474 15.5764 11.8331 14.937 11.4075 14.2395L11.319 14.097C11.2555 14.0012 11.2041 13.898 11.166 13.7895C11.109 13.569 11.2575 13.392 11.2575 13.392C11.2575 13.392 11.622 12.993 11.7915 12.777C11.9327 12.5975 12.0643 12.4107 12.186 12.2175C12.363 11.9325 12.4185 11.64 12.3255 11.4135C11.9055 10.3875 11.4705 9.366 11.0235 8.352C10.935 8.151 10.6725 8.007 10.434 7.9785C10.353 7.9695 10.272 7.9605 10.191 7.9545C9.98958 7.94449 9.78772 7.948 9.58652 7.962Z" fill="#F4F4F4"/>
</svg>
