<svg width="106" height="56" viewBox="0 0 106 56" fill="none" xmlns="http://www.w3.org/2000/svg">
<path d="M81.2506 11.6939C81.2506 13.2415 81.2506 14.7527 81.2506 16.2638C81.2506 22.6952 81.2506 29.1266 81.2506 35.558C81.2506 36.1639 81.2506 36.1639 80.6374 36.1639C79.0533 36.1639 77.4691 36.1639 75.885 36.1639C75.2207 36.1639 75.2207 36.1639 75.2207 35.5142C75.2207 30.9224 75.2207 26.338 75.2207 21.7462C75.2207 15.1761 75.2207 8.61328 75.2207 2.04318C75.2207 1.42997 75.2207 1.42997 75.8339 1.42997C77.3596 1.42997 78.8854 1.43727 80.4111 1.42267C80.7688 1.41537 80.9878 1.53947 81.2068 1.80957C84.6159 6.23344 88.0324 10.6427 91.4488 15.0593C93.9966 18.3516 96.5516 21.644 99.0994 24.9363C99.1797 25.0385 99.2673 25.1407 99.4206 25.3232C99.4206 25.0604 99.4206 24.8998 99.4206 24.7465C99.4206 17.169 99.4206 9.59149 99.4206 2.01398C99.4206 1.43727 99.4206 1.43727 100.012 1.43727C101.669 1.43727 103.333 1.44457 104.991 1.42997C105.348 1.42267 105.45 1.53217 105.45 1.88988C105.443 13.1685 105.443 24.4472 105.45 35.7186C105.45 36.0909 105.326 36.1712 104.983 36.1712C103.611 36.1566 102.238 36.142 100.859 36.1785C100.421 36.1931 100.18 36.0033 99.9316 35.6894C97.1502 32.0831 94.3543 28.4842 91.5657 24.8779C88.2368 20.5855 84.9152 16.2857 81.5864 11.9932C81.4988 11.8837 81.4477 11.745 81.2506 11.6939Z" fill="white"/>
<path d="M0.0513916 18.775C0.0513916 13.205 0.0513916 7.63505 0.0513916 2.05777C0.0513916 1.43726 0.0513917 1.43726 0.664601 1.43726C9.52694 1.43726 18.3893 1.43726 27.2516 1.43726C27.8575 1.43726 27.8575 1.43726 27.8575 2.02126C27.8575 3.47399 27.8575 4.91941 27.8575 6.37213C27.8575 6.96344 27.8575 6.97074 27.2589 6.97074C20.5428 6.97074 13.8194 6.97074 7.1033 6.97074C6.21999 6.97074 6.21999 6.97074 6.21269 7.86135C6.18349 10.3945 6.16159 12.9349 6.10319 15.4681C6.09589 15.9353 6.23459 16.0375 6.67989 16.0375C12.7682 16.0229 18.8492 16.0302 24.9375 16.0156C25.3901 16.0156 25.5361 16.1178 25.5215 16.585C25.4923 18.0304 25.5069 19.4831 25.5069 20.9359C25.5069 21.5126 25.5069 21.5126 24.9083 21.5126C18.8419 21.5126 12.7682 21.5126 6.70179 21.5126C6.11049 21.5126 6.11048 21.5126 6.11778 22.1039C6.14698 24.7757 6.19809 27.4476 6.20539 30.1194C6.20539 30.5501 6.35139 30.6377 6.75289 30.6377C13.5639 30.6304 20.3749 30.6304 27.1859 30.6304C28.2517 30.6304 28.1057 30.4844 28.113 31.5794C28.1203 32.908 28.113 34.2367 28.113 35.5653C28.113 36.1639 28.113 36.1639 27.529 36.1639C18.5572 36.1639 9.59264 36.1566 0.6208 36.1785C0.138993 36.1785 0.0513916 36.0179 0.0513916 35.5799C0.0513916 29.9807 0.0513916 24.3742 0.0513916 18.775Z" fill="white"/>
<path d="M38.6909 24.8561C39.691 24.8561 40.6838 24.8707 41.6766 24.8488C42.0489 24.8415 42.2679 24.951 42.4796 25.2722C44.8449 28.8639 48.1883 30.7984 52.4954 30.9371C58.8465 31.1488 64.3362 26.1629 64.818 19.8264C65.2341 14.3878 62.2046 9.4894 57.2113 7.50377C51.8238 5.36484 45.7063 7.32127 42.5527 12.2196C42.2972 12.6211 42.027 12.7453 41.5744 12.738C39.5669 12.7161 37.5594 12.7234 35.5518 12.738C35.1503 12.738 35.0481 12.6649 35.216 12.2634C37.8222 5.86124 42.4505 1.80238 49.2469 0.451862C59.0728 -1.50457 68.636 4.75893 70.9501 14.5265C73.4978 25.2868 66.1028 35.9742 55.1307 37.3685C46.5093 38.4708 38.1799 33.4484 35.2379 25.3671C35.0554 24.8707 35.0554 24.8634 35.5737 24.8634C36.6104 24.8561 37.6543 24.8561 38.6909 24.8561Z" fill="white"/>
<path d="M39.5451 21.571C36.9681 21.571 34.3839 21.571 31.807 21.571C31.2011 21.571 31.2011 21.571 31.2011 20.9432C31.2011 19.4613 31.2157 17.9867 31.1938 16.5048C31.1865 16.1179 31.3252 16.0229 31.6902 16.0229C36.9243 16.0302 42.1585 16.0302 47.3927 16.0229C47.7723 16.0229 47.9256 16.1033 47.9183 16.5194C47.8964 18.0451 47.8964 19.5635 47.9183 21.0892C47.9256 21.4688 47.8015 21.5783 47.4292 21.571C44.7939 21.5637 42.1658 21.571 39.5451 21.571Z" fill="white"/>
<path d="M15.3963 52.1657C15.3963 51.3335 15.3963 50.6327 15.3963 49.9246C15.3963 48.9756 15.389 48.0193 15.4036 47.0703C15.4109 46.698 15.2211 46.1797 15.4912 45.9972C15.8343 45.7562 16.3672 45.9388 16.8125 45.9169C16.9658 45.9096 17.0242 46.0045 17.0242 46.1432C17.0242 46.2308 17.0315 46.3257 17.0315 46.4133C17.0315 49.1289 17.0242 51.8445 17.0388 54.5602C17.0388 54.9982 16.9074 55.0931 16.484 55.1223C15.8562 55.1588 15.4766 54.9471 15.1043 54.4434C13.7537 52.633 12.3448 50.859 10.9578 49.0705C10.8921 48.9902 10.8264 48.9099 10.7388 48.8077C10.622 48.9829 10.6658 49.1508 10.6658 49.3041C10.6585 51.0853 10.6585 52.8666 10.6731 54.6478C10.6731 54.9909 10.5928 55.1223 10.2205 55.1223C9.01597 55.115 9.01597 55.1296 9.01597 53.9178C9.01597 51.4284 9.02327 48.9391 9.00867 46.4498C9.00867 46.0337 9.13277 45.9461 9.54157 45.9096C10.2862 45.8365 10.7461 46.0994 11.1841 46.7053C12.5127 48.5011 13.9289 50.2677 15.3963 52.1657Z" fill="white"/>
<path d="M93.0257 52.0199C93.0257 51.4066 93.0257 50.7861 93.0257 50.1729C93.0257 48.9027 93.033 47.6398 93.0184 46.3696C93.0111 46.0265 93.1133 45.9024 93.4783 45.9024C94.6682 45.917 94.6682 45.8951 94.6682 47.0631C94.6682 49.5816 94.6609 52.1075 94.6755 54.626C94.6755 54.991 94.5806 55.0859 94.2083 55.1224C93.5075 55.1881 93.0914 54.918 92.6826 54.3632C91.3539 52.5674 89.9596 50.8226 88.5945 49.056C88.5215 48.9611 88.4412 48.8808 88.3025 48.7275C88.3025 48.9611 88.3025 49.0998 88.3025 49.2458C88.3025 51.0562 88.2952 52.8667 88.3098 54.6771C88.3098 54.9691 88.2514 55.1078 87.9156 55.1078C86.6454 55.1297 86.6454 55.137 86.6454 53.8741C86.6454 51.3848 86.6527 48.8954 86.6381 46.3988C86.6381 45.9973 86.7622 45.9243 87.1418 45.8878C87.9229 45.8002 88.3974 46.0995 88.8573 46.7273C90.1786 48.5231 91.5656 50.2678 92.9308 52.0345C92.96 52.0345 92.9892 52.0272 93.0257 52.0199Z" fill="white"/>
<path d="M62.0951 50.5015C62.0951 49.1291 62.1097 47.7567 62.0878 46.3842C62.0805 46.0046 62.2046 45.8951 62.5769 45.9024C63.6501 45.9243 64.7159 45.9024 65.789 45.9097C68.271 45.9243 70.2348 47.7202 70.4319 50.1438C70.629 52.5455 69.001 54.6188 66.5409 55.013C65.1685 55.232 63.7742 55.0568 62.3871 55.1006C62.0513 55.1079 62.0951 54.867 62.0951 54.6626C62.0951 53.2756 62.0951 51.8885 62.0951 50.5015ZM63.7888 50.5088C63.7888 51.3994 63.7961 52.29 63.7888 53.1807C63.7815 53.48 63.8691 53.626 64.1976 53.6041C64.8254 53.5749 65.4605 53.6187 66.0956 53.5384C67.541 53.3559 68.5703 52.2754 68.6871 50.7862C68.8112 49.2751 67.9644 47.983 66.5847 47.5888C65.8182 47.3698 65.0298 47.4428 64.2487 47.4136C63.8837 47.399 63.7742 47.5304 63.7815 47.8808C63.7961 48.7568 63.7888 49.6328 63.7888 50.5088Z" fill="white"/>
<path d="M28.5656 50.5014C28.5656 49.129 28.5802 47.7566 28.5583 46.3842C28.551 46.0045 28.6751 45.9023 29.0474 45.9023C30.3614 45.9242 31.6754 45.9023 32.9822 45.9169C34.4057 45.9315 35.5445 46.6835 35.9314 47.8296C36.4497 49.3772 35.8292 50.8299 34.3254 51.4869C33.9823 51.6329 34.0261 51.7497 34.2086 51.9979C34.8729 52.9105 35.5226 53.8376 36.1723 54.7647C36.2307 54.845 36.3475 54.918 36.2964 55.0348C36.2453 55.1589 36.1139 55.0932 36.0117 55.1078C35.9971 55.1078 35.9825 55.1078 35.9679 55.1078C34.8583 55.3195 34.0918 54.9326 33.5735 53.9033C33.2742 53.3047 32.8069 52.7864 32.42 52.2242C32.2813 52.0198 32.128 51.9103 31.8652 51.9249C31.4564 51.9468 31.0476 51.9468 30.6461 51.9249C30.3395 51.9103 30.2227 51.9979 30.23 52.3264C30.2519 53.1222 30.2227 53.9252 30.2446 54.7209C30.2519 55.0202 30.1424 55.1005 29.8577 55.1078C28.5729 55.1297 28.5729 55.1443 28.5729 53.8449C28.5656 52.7353 28.5656 51.6183 28.5656 50.5014ZM30.23 48.9246C30.23 49.3334 30.23 49.7349 30.23 50.1437C30.23 50.3189 30.2665 50.443 30.4782 50.4357C31.3834 50.4065 32.2886 50.5306 33.1866 50.3481C34.0042 50.1875 34.4203 49.6181 34.3838 48.7932C34.3473 48.0705 33.8728 47.6033 33.0771 47.4865C32.2375 47.3624 31.3907 47.45 30.5512 47.4208C30.3103 47.4135 30.2373 47.523 30.2446 47.7493C30.2373 48.1435 30.23 48.5304 30.23 48.9246Z" fill="white"/>
<path d="M72.5708 50.4798C72.5708 49.122 72.5781 47.7642 72.5635 46.4063C72.5562 46.0486 72.6292 45.9026 73.0307 45.9099C74.3447 45.9318 75.6587 45.9099 76.9727 45.9245C78.5058 45.9464 79.63 46.7494 79.9804 48.0562C80.3746 49.5308 79.7541 50.8813 78.3524 51.4726C77.9728 51.6332 78.0093 51.75 78.2137 52.0274C78.8781 52.9253 79.5132 53.8452 80.1629 54.7504C80.2213 54.8307 80.3381 54.911 80.2943 55.0205C80.2359 55.1665 80.0826 55.1008 79.9731 55.1008C78.462 55.1446 78.462 55.1446 77.5859 53.9035C77.1844 53.3341 76.7829 52.772 76.396 52.1953C76.2646 51.9982 76.1113 51.9179 75.8777 51.9252C75.4689 51.9398 75.0601 51.9471 74.6586 51.9252C74.3301 51.9033 74.2498 52.042 74.2571 52.3413C74.2717 53.1297 74.2498 53.9109 74.2644 54.6993C74.2717 55.0205 74.1549 55.13 73.8483 55.1081C73.5636 55.0862 73.2716 55.0862 72.9869 55.1081C72.6584 55.1373 72.5781 54.9986 72.5781 54.692C72.5781 53.283 72.5708 51.8814 72.5708 50.4798ZM75.5273 50.4433C76.1186 50.4287 76.6661 50.4798 77.199 50.3557C77.9655 50.1732 78.4109 49.6184 78.389 48.8665C78.3671 48.1219 77.8852 47.6182 77.0822 47.4941C76.2427 47.3699 75.3959 47.4503 74.5491 47.4211C74.3082 47.4138 74.2352 47.5233 74.2425 47.7496C74.2498 48.2022 74.2279 48.6548 74.2498 49.1074C74.2644 49.5381 74.06 50.0929 74.352 50.363C74.6148 50.6185 75.155 50.4068 75.5273 50.4433Z" fill="white"/>
<path d="M46.4582 51.9178C46.4582 52.4434 46.4582 52.9763 46.4582 53.5019C46.4582 53.6845 46.4363 53.8378 46.2757 53.9838C44.6332 55.4438 41.7204 55.7139 39.9319 54.5313C38.4646 53.5603 37.8148 52.1368 37.8659 50.3994C37.9535 47.3918 40.4283 45.3696 43.4359 45.793C44.3411 45.9171 45.1442 46.2383 45.8742 46.7858C46.0932 46.9537 46.1297 47.0851 45.9326 47.2896C45.7282 47.5086 45.5238 47.7349 45.3486 47.9831C45.1588 48.2459 44.9982 48.224 44.7646 48.0415C43.9396 47.3772 42.976 47.1508 41.954 47.3626C40.6619 47.6327 39.9611 48.5452 39.6764 49.7789C39.3771 51.0929 39.9027 52.5164 40.8955 53.2099C41.9029 53.9108 43.6476 53.8889 44.6624 53.1807C44.8084 53.0785 44.8449 52.9763 44.8595 52.8084C44.9325 51.3922 44.9398 51.3922 43.5162 51.3922C42.4796 51.3922 42.4869 51.3922 42.4942 50.3264C42.4942 50.0052 42.5964 49.9103 42.9103 49.9103C43.9542 49.9249 44.9909 49.9249 46.0348 49.9103C46.3414 49.9103 46.4728 50.0052 46.4582 50.3264C46.4436 50.8593 46.4582 51.3922 46.4582 51.9178Z" fill="white"/>
<path d="M0.0149187 50.5088C0.0149187 49.1218 0.0222193 47.7347 0.00761908 46.3404C0.000318964 46.0119 0.0879203 45.8951 0.431026 45.9024C2.43856 45.917 4.44609 45.917 6.45362 45.9024C6.77482 45.9024 6.85512 46.0119 6.85512 46.3185C6.85512 47.4062 6.86972 47.4062 5.76741 47.4062C4.54829 47.4062 3.32187 47.4208 2.10275 47.3989C1.75235 47.3916 1.66474 47.5011 1.67934 47.837C1.70855 48.3042 1.71585 48.7787 1.67934 49.2386C1.64284 49.6693 1.82535 49.7277 2.19035 49.7277C3.38027 49.7058 4.57749 49.735 5.76741 49.7131C6.13241 49.7058 6.26382 49.808 6.26382 50.1876C6.25651 51.2169 6.27112 51.2169 5.2418 51.2169C4.18328 51.2169 3.13207 51.2242 2.07355 51.2096C1.78885 51.2096 1.66474 51.2753 1.67934 51.5892C1.70125 52.1294 1.70125 52.6769 1.67934 53.2171C1.66474 53.5383 1.77425 53.6259 2.08815 53.6186C3.53357 53.604 4.9863 53.6259 6.43172 53.604C6.84052 53.5967 6.94273 53.7281 6.93543 54.115C6.91353 55.1006 6.93543 55.1006 5.96451 55.1006C4.13948 55.1006 2.31445 55.0933 0.482126 55.1079C0.10982 55.1079 -0.00698132 55.0057 0.000318797 54.6261C0.0295192 53.2609 0.0149187 51.8812 0.0149187 50.5088Z" fill="white"/>
<path d="M19.5865 50.4649C19.5865 49.0925 19.5938 47.7201 19.5792 46.3477C19.5792 46.0264 19.6449 45.9023 19.9953 45.9023C22.0028 45.9169 24.0103 45.9169 26.0179 45.9023C26.3391 45.9023 26.4267 46.0045 26.4267 46.3184C26.434 47.4062 26.4486 47.4062 25.339 47.4062C24.1198 47.4062 22.8934 47.4208 21.6743 47.3989C21.3312 47.3916 21.229 47.5011 21.2436 47.8369C21.2728 48.3041 21.2801 48.7713 21.2436 49.2385C21.2071 49.6619 21.3823 49.7349 21.7619 49.7276C22.9518 49.7057 24.149 49.7349 25.339 49.713C25.7259 49.7057 25.8208 49.8371 25.8208 50.2021C25.8062 51.2168 25.8208 51.2168 24.7915 51.2168C23.7329 51.2168 22.6817 51.2241 21.6232 51.2095C21.3531 51.2095 21.2436 51.2752 21.2509 51.5599C21.2655 52.1147 21.2728 52.6768 21.2509 53.2317C21.2436 53.531 21.3531 53.6113 21.6378 53.6113C23.0978 53.5967 24.5651 53.6186 26.0252 53.5967C26.3756 53.5894 26.4997 53.6916 26.4997 54.0493C26.4997 55.0932 26.5143 55.0932 25.485 55.0932C23.6745 55.0932 21.8641 55.0859 20.0537 55.1005C19.6741 55.1078 19.5646 54.9983 19.5719 54.6187C19.6011 53.2463 19.5865 51.8592 19.5865 50.4649Z" fill="white"/>
<path d="M99.0045 50.3118C99.9389 49.3263 100.866 48.3408 101.8 47.3553C102.187 46.9465 102.567 46.545 102.954 46.1435C103.056 46.034 103.144 45.9172 103.326 45.9172C103.91 45.9245 104.494 45.9172 105.085 45.9172C105.115 46.1143 104.969 46.18 104.881 46.2676C103.823 47.3626 102.771 48.4649 101.698 49.5526C101.457 49.7935 101.443 49.9468 101.654 50.2242C102.808 51.6989 103.932 53.1881 105.071 54.6773C105.151 54.7868 105.224 54.8963 105.37 55.0934C104.669 55.0934 104.049 55.1007 103.428 55.0861C103.282 55.0861 103.217 54.9255 103.136 54.816C102.26 53.6626 101.377 52.5165 100.523 51.3484C100.311 51.0637 100.224 51.0929 99.9535 51.3046C99.0921 51.9909 98.7636 52.8158 98.8658 53.9327C98.968 55.1007 98.8877 55.0934 97.6977 55.108C97.3035 55.1153 97.1794 55.0131 97.1794 54.6116C97.194 51.8814 97.194 49.1511 97.1794 46.4136C97.1794 46.0413 97.2597 45.888 97.6758 45.8953C98.8804 45.9172 98.8804 45.9026 98.8804 47.0998C98.8804 48.151 98.8804 49.2022 98.8804 50.2534C98.9242 50.2826 98.968 50.2972 99.0045 50.3118Z" fill="white"/>
<path d="M51.8822 49.9026C52.3348 49.1944 52.7582 48.5374 53.1743 47.8804C53.532 47.3183 53.897 46.7708 54.2401 46.2014C54.3788 45.9751 54.5394 45.9021 54.7876 45.9094C55.2694 45.924 55.7513 45.9167 56.2331 45.9167C56.2769 46.1357 56.1309 46.2452 56.0433 46.3766C55.0285 47.9242 54.0138 49.4792 52.9845 51.0195C52.7874 51.3188 52.6852 51.6181 52.6925 51.9831C52.7144 52.8883 52.6925 53.7935 52.7071 54.6987C52.7144 55.0126 52.6049 55.1075 52.291 55.1148C51.0208 55.1294 51.0208 55.144 51.0208 53.8957C51.0208 53.8665 51.0135 53.8373 51.0208 53.8081C51.2763 52.1583 50.7434 50.7713 49.7287 49.4792C48.9402 48.4717 48.3124 47.3475 47.597 46.2817C47.3926 45.9751 47.4875 45.9605 47.8014 45.9094C48.9402 45.7269 49.6703 46.1138 50.1813 47.1796C50.6412 48.114 51.2909 48.9608 51.8822 49.9026Z" fill="white"/>
<path d="M82.3529 50.5089C82.3529 49.1073 82.3602 47.6984 82.3456 46.2967C82.3456 46.0047 82.4186 45.9098 82.7252 45.9098C84.0246 45.8952 84.0246 45.8806 84.0246 47.1655C84.0246 49.6256 84.01 52.0857 84.0319 54.5459C84.0392 55.0131 83.9005 55.1299 83.4406 55.1226C82.3529 55.0934 82.3529 55.1153 82.3529 54.0422C82.3529 52.8595 82.3529 51.6842 82.3529 50.5089Z" fill="white"/>
</svg>
