<svg width="112" height="71" viewBox="0 0 112 71" fill="none" xmlns="http://www.w3.org/2000/svg">
<path d="M40.517 0.683105C41.6561 0.86062 42.7951 1.03074 43.8972 1.40056C49.5925 3.31624 53.2833 7.16979 55.0067 12.9168C55.4209 14.3074 55.5984 15.7423 55.6058 17.192C55.6058 17.5544 55.7611 17.7245 56.0644 17.8799C59.7034 19.7216 63.2759 21.6742 66.5229 24.1668C67.6472 25.0322 68.7197 25.9568 69.5851 27.0884C69.8661 27.4583 70.1102 27.8503 70.2803 28.2793C70.7315 29.3961 70.3987 30.3059 69.3188 30.8532C68.2611 31.3932 67.1073 31.5189 65.9534 31.5633C63.1058 31.6816 60.3025 31.3192 57.5067 30.8458C55.2729 30.4686 53.054 29.9878 50.8499 29.4405C50.554 29.3665 50.3469 29.4109 50.1102 29.6254C47.4919 31.9923 44.4223 33.4346 40.9164 33.8266C35.3839 34.4405 30.6576 32.7023 26.7818 28.7157C24.8218 26.6964 23.5348 24.2704 22.8025 21.5485C22.7655 21.408 22.6398 21.223 22.7951 21.1047C22.9135 21.0085 23.0688 21.1269 23.2019 21.1787C26.9298 22.5988 30.7093 23.871 34.5333 25.0026C36.6783 25.6387 38.8454 26.2083 41.0274 26.7334C41.1087 26.7556 41.1901 26.7556 41.2862 26.7186C40.2138 26.3488 39.1339 25.979 38.0614 25.6091C33.128 23.9006 28.2907 21.9553 23.5718 19.7216C19.6516 17.8651 15.8129 15.8532 12.233 13.3902C10.517 12.2068 8.86022 10.9494 7.57324 9.27778C7.12206 8.68606 6.73744 8.06476 6.71525 7.28074C6.69306 6.59287 6.99631 6.08991 7.56584 5.72748C8.40903 5.18754 9.36318 5.01742 10.3247 4.92127C12.9357 4.655 15.517 4.93606 18.0984 5.30589C20.6058 5.66092 23.0762 6.17867 25.5392 6.77778C25.8425 6.85174 26.0126 6.76299 26.2049 6.54109C28.3647 4.01151 31.0496 2.28074 34.2301 1.3192C35.2582 1.00855 36.3084 0.845828 37.3661 0.697899C38.4312 0.683106 39.4741 0.683105 40.517 0.683105ZM22.662 9.28518C21.8558 9.25559 21.0422 9.27038 20.2656 9.54405C19.2966 9.88429 19.0451 10.5648 19.5703 11.4375C20.2434 12.5544 21.2789 13.3014 22.2996 14.0485C22.5289 14.2186 22.588 14.0633 22.6324 13.8562C22.9431 12.3991 23.4312 10.9938 24.1265 9.67719C24.2966 9.35174 24.1931 9.27038 23.875 9.27778C23.4682 9.29257 23.0614 9.28518 22.662 9.28518ZM54.5629 25.3725C55.1842 25.3799 55.8055 25.3207 56.412 25.1949C58.0318 24.8621 58.3646 23.9006 57.2996 22.6358C56.7966 22.0367 56.1975 21.5337 55.5984 21.0381C55.3247 20.8088 55.199 20.8458 55.125 21.2009C54.8661 22.3325 54.4667 23.4198 53.9712 24.4627C53.5422 25.3725 53.5422 25.3725 54.5629 25.3725Z" fill="white"/>
<path d="M23.4313 70.6684C23.4239 70.4983 23.4165 70.3208 23.4165 70.1506C23.4165 63.0722 23.4165 55.9938 23.4165 48.9154C23.4165 48.198 23.4239 48.1536 24.1414 48.2128C25.1177 48.2941 25.8056 47.9909 26.5526 47.2734C32.0112 42.0663 40.9535 44.5811 42.9875 51.8444C44.134 55.9495 42.4624 60.3725 38.8603 62.769C34.9328 65.3799 29.6369 64.8326 26.3307 61.4746C26.1236 61.2601 25.9239 61.0308 25.7168 60.8015C25.5689 60.9569 25.6354 61.127 25.6354 61.2749C25.628 64.2113 25.6355 67.1403 25.6281 70.0767C25.6281 70.2764 25.6133 70.4835 25.6059 70.6832C24.8736 70.6684 24.1562 70.6684 23.4313 70.6684ZM33.4165 46.7335C29.1044 46.7335 25.6281 50.158 25.6281 54.4258C25.6355 58.6566 28.9417 62.1921 33.3425 62.1995C37.9875 62.2143 41.1458 58.4051 41.1162 54.448C41.094 50.1728 37.6843 46.7335 33.4165 46.7335Z" fill="white"/>
<path d="M0.450439 53.3238C0.650144 52.2143 0.894232 51.1196 1.42678 50.1063C3.20932 46.7187 5.98299 44.7809 9.82175 44.5516C13.1576 44.3519 15.909 45.6093 18.0688 48.1611C18.2981 48.4347 18.3055 48.6122 18.0022 48.8193C17.6324 49.0708 17.27 49.3445 16.9297 49.6256C16.7078 49.8031 16.5821 49.8179 16.375 49.5738C14.6886 47.5841 12.5362 46.6374 9.91789 46.7409C6.56729 46.8741 3.446 49.5146 2.80251 52.8208C2.70635 53.3016 2.72855 53.3386 3.23151 53.3386C5.65755 53.3386 8.08357 53.3386 10.517 53.3386C13.4238 53.3386 16.3232 53.3386 19.23 53.3386C20.5096 53.3386 20.3321 53.2498 20.3247 54.4185C20.3099 57.2291 19.2966 59.633 17.2921 61.6078C13.2389 65.5945 6.53773 65.2986 2.8395 60.9791C2.75814 60.8829 2.68416 60.772 2.59541 60.6758C2.4031 60.4761 2.46227 60.3282 2.66197 60.1803C3.0244 59.914 3.39423 59.6625 3.73447 59.3667C4.01553 59.1226 4.20043 59.1448 4.43711 59.4406C5.28031 60.4909 6.35282 61.2232 7.60282 61.7114C11.9371 63.4051 16.9223 60.7424 17.9283 56.1936C18.0614 55.5945 18.054 55.5871 17.4401 55.5871C11.7744 55.5871 6.10872 55.5871 0.450439 55.5871C0.450439 54.8327 0.450439 54.0782 0.450439 53.3238Z" fill="white"/>
<path d="M111.456 55.5797C107.47 55.5797 103.476 55.5797 99.4889 55.5797C98.8158 55.5797 98.801 55.5649 98.801 54.914C98.801 54.522 98.8232 54.1374 98.8232 53.7454C98.8232 53.4939 98.912 53.3682 99.1782 53.3756C99.3927 53.3756 99.6072 53.3386 99.8291 53.3386C102.832 53.3386 105.842 53.3386 108.845 53.3534C109.178 53.3534 109.193 53.2276 109.141 52.9614C108.572 49.9732 106.116 47.488 103.121 46.8741C98.8232 46.0013 94.7108 48.7824 93.9046 53.1019C93.0762 57.5546 96.3454 61.8149 100.865 62.1626C101.582 62.2217 101.582 62.2217 101.582 62.917C101.582 63.2942 101.575 63.6714 101.582 64.0413C101.589 64.3297 101.456 64.4259 101.183 64.4111C98.9933 64.3001 97.0184 63.6123 95.3173 62.2217C92.7729 60.1359 91.5229 57.4288 91.5747 54.1448C91.6412 49.3963 95.4578 45.2247 100.169 44.6034C105.746 43.8711 110.569 47.7469 111.375 52.9836C111.39 53.0649 111.419 53.1537 111.442 53.235C111.456 54.0191 111.456 54.8031 111.456 55.5797Z" fill="white"/>
<path d="M66.3602 55.6608C66.3602 58.0277 66.3602 60.4019 66.3602 62.7688C66.3602 63.3457 66.3306 63.3753 65.7463 63.3753C65.3247 63.3753 64.9105 63.3753 64.4889 63.3753C64.2596 63.3753 64.156 63.2866 64.156 63.0351C64.1708 60.2318 64.0599 57.436 64.1412 54.6253C64.23 51.5632 62.5362 48.7082 59.585 47.3916C55.1768 45.4241 49.9327 47.7244 48.7418 52.6726C47.6842 57.0661 50.6279 61.4079 55.1102 62.1031C56.73 62.3546 58.3129 62.1475 59.7921 61.4005C60.1176 61.2377 60.3099 61.2525 60.48 61.5928C60.6649 61.97 60.8794 62.3324 61.1013 62.68C61.2788 62.9537 61.2345 63.1164 60.946 63.257C57.5658 64.9212 54.2226 64.8398 51.0421 62.8132C48.2315 61.0232 46.7078 58.3975 46.4711 55.0543C46.1309 50.2096 49.4519 45.9715 53.764 44.8768C57.6472 43.8857 60.983 44.8842 63.7566 47.7688C63.9267 47.9463 64.0525 48.0055 64.3336 47.9611C64.9031 47.8797 65.4874 47.9315 66.0643 47.9315C66.2566 47.9315 66.3454 48.0499 66.3602 48.2348C66.3676 48.3753 66.3676 48.5232 66.3676 48.6712C66.3676 51.0084 66.3676 53.3383 66.3602 55.6608C66.3676 55.6608 66.3676 55.6608 66.3602 55.6608Z" fill="white"/>
<path d="M69.4815 54.411C69.4741 49.4776 73.1428 45.2468 78.054 44.6329C82.2108 44.1152 85.4652 45.7128 87.8321 49.1521C88.017 49.4258 88.0392 49.5885 87.699 49.7512C87.2848 49.9509 86.8928 50.2024 86.5007 50.4391C86.2493 50.5944 86.1013 50.5427 85.9386 50.2912C84.6812 48.3829 82.9283 47.1773 80.665 46.8296C77.7507 46.3859 75.2729 47.2956 73.409 49.5885C70.909 52.6728 71.0717 56.8444 73.7715 59.766C75.0954 61.1936 76.767 61.9924 78.7271 62.1625C80.2433 62.2956 81.6561 62.0072 83.0022 61.3193C83.2537 61.1936 83.3942 61.2305 83.5274 61.4672C83.7567 61.8888 83.9934 62.2956 84.2448 62.7024C84.4076 62.9687 84.341 63.1092 84.0747 63.2424C81.4046 64.5959 78.6457 64.8326 75.8573 63.7305C72.3957 62.3548 70.3247 59.7734 69.5925 56.1196C69.5333 55.8237 69.4963 55.5205 69.4741 55.2172C69.4667 54.9584 69.4815 54.6847 69.4815 54.411Z" fill="white"/>
<path d="M22.2774 35.7793C24.0748 35.7867 25.4653 37.2216 25.4505 39.0338C25.4357 40.7719 24.0008 42.1699 22.2404 42.1625C20.4653 42.1551 19.023 40.7202 19.023 38.9672C19.0156 37.1994 20.4727 35.7719 22.2774 35.7793Z" fill="white"/>
<path d="M62.3292 10.1581C61.0126 10.1507 59.9327 9.07081 59.9327 7.75424C59.9327 6.39329 61.0274 5.32081 62.4032 5.3356C63.7123 5.35039 64.807 6.45986 64.7922 7.76164C64.77 9.10039 63.6753 10.1655 62.3292 10.1581Z" fill="white"/>
<path d="M14.6886 26.2895C13.9859 26.2969 13.4386 25.7644 13.4386 25.0691C13.4386 24.396 14.0081 23.8191 14.6812 23.8191C15.3321 23.8265 15.8942 24.3812 15.909 25.0321C15.9238 25.7422 15.3913 26.2821 14.6886 26.2895Z" fill="white"/>
</svg>
