<svg width="172" height="62" viewBox="0 0 172 62" fill="none" xmlns="http://www.w3.org/2000/svg">
<path d="M36.0743 61.0027C32.8318 61.051 29.5999 60.9682 26.4345 60.1619C24.843 59.7561 23.3268 59.1725 21.9997 58.1867C20.1859 56.8383 19.2545 55.0357 19.1389 52.8016C19.1092 52.237 19.2212 51.959 19.8795 51.9642C22.8821 51.9901 25.8865 51.9815 28.8908 51.9694C29.3338 51.9677 29.5736 52.0747 29.6752 52.553C29.9325 53.7667 30.7782 54.5212 31.9214 54.8717C34.8977 55.7816 37.9056 55.6901 40.8837 54.889C41.9709 54.5972 42.3596 53.9515 42.3316 52.9967C42.3053 52.1041 41.8869 51.6362 40.7541 51.3168C39.455 50.9507 38.1122 50.8972 36.7728 50.8333C33.7457 50.6866 30.7046 50.7988 27.6968 50.3361C26.0755 50.0875 24.4963 49.6973 23.0327 48.941C20.5973 47.6824 19.4558 45.7055 19.4944 42.9827C19.5311 40.3135 20.7532 38.4419 23.1377 37.2696C25.2894 36.2112 27.6145 35.7847 29.9815 35.6552C34.6701 35.398 39.3657 35.2443 44.0228 36.0644C45.8997 36.3942 47.7082 36.945 49.3049 38.0223C50.9699 39.1463 51.9031 40.6899 52.0712 42.6909C52.1237 43.3038 51.9136 43.4817 51.3026 43.4765C48.3578 43.4506 45.413 43.4575 42.4664 43.4731C42.0059 43.4748 41.7363 43.385 41.5682 42.8947C41.2846 42.0642 40.558 41.6239 39.7562 41.4012C36.8604 40.5932 33.9366 40.6674 31.0198 41.2838C30.2879 41.4392 29.7434 41.8691 29.7399 42.7082C29.7364 43.5421 30.2827 43.9375 30.9952 44.1654C32.3153 44.5867 33.6862 44.6402 35.0571 44.6765C38.3503 44.7628 41.6488 44.7127 44.9192 45.2013C46.5387 45.443 48.1232 45.8108 49.5991 46.5498C51.7455 47.6254 52.8468 49.3554 52.9431 51.719C53.1182 55.9836 51.4619 58.3749 47.3196 59.763C44.5271 60.6988 41.6208 60.9181 38.6987 61.0027C37.8251 61.0234 36.9497 61.0027 36.0743 61.0027Z" fill="white"/>
<path d="M147.988 48.0966C148.51 48.29 148.804 48.3936 149.096 48.5058C151.605 49.4692 152.936 51.3408 152.974 53.9945C152.993 55.2877 152.969 56.5826 152.99 57.8758C152.999 58.4197 153.032 58.9704 153.135 59.5039C153.333 60.5399 153.356 60.5364 152.316 60.5364C149.691 60.5364 147.067 60.5122 144.444 60.552C143.705 60.564 143.445 60.274 143.446 59.6075C143.448 58.4576 143.46 57.3078 143.434 56.1579C143.378 53.7839 142.28 52.5511 139.911 52.2006C139.365 52.1195 138.81 52.0798 138.259 52.0763C135.547 52.0642 132.835 52.0953 130.125 52.0539C129.344 52.0418 129.055 52.2317 129.078 53.0518C129.134 55.2359 129.06 57.4217 129.116 59.6041C129.135 60.3879 128.874 60.564 128.125 60.5502C125.59 60.5071 123.051 60.5071 120.516 60.5502C119.772 60.5623 119.599 60.324 119.601 59.6231C119.623 52.0055 119.622 44.388 119.602 36.7705C119.601 36.1144 119.765 35.8848 120.474 35.8882C127.968 35.9141 135.461 35.8917 142.954 35.9193C145.059 35.9262 147.151 36.1507 149.126 36.9483C151.713 37.9929 152.867 39.7401 152.871 42.4888C152.872 44.5123 151.962 46.0041 150.262 47.0762C149.618 47.4803 148.902 47.7202 147.988 48.0966ZM135.204 41.8603C135.204 41.8586 135.204 41.8586 135.204 41.8569C133.428 41.8569 131.653 41.8776 129.878 41.8448C129.263 41.8327 129.057 42.0416 129.079 42.6373C129.116 43.5834 129.107 44.5313 129.083 45.4775C129.071 45.9851 129.244 46.1957 129.783 46.194C133.304 46.1767 136.825 46.2147 140.346 46.1629C142.172 46.1353 143.105 45.291 143.063 43.9236C143.021 42.6131 142.067 41.8932 140.265 41.8673C138.581 41.8414 136.893 41.8603 135.204 41.8603Z" fill="white"/>
<path d="M118.274 60.5343C116.416 60.5343 114.617 60.5343 112.815 60.5343C111.504 60.5343 110.189 60.4998 108.879 60.5499C108.231 60.5741 107.906 60.3617 107.622 59.7816C104.872 54.1668 102.09 48.5676 99.3147 42.9633C99.1659 42.6611 99.0013 42.3676 98.8595 42.0965C98.5496 42.138 98.5181 42.3331 98.4498 42.4747C96.6745 46.1608 94.9133 49.8539 93.124 53.5315C92.8281 54.1392 92.9174 54.3222 93.6177 54.3153C96.2701 54.2911 98.9243 54.3188 101.577 54.2946C102.116 54.2894 102.415 54.45 102.648 54.9455C103.406 56.5616 104.205 58.1621 105.012 59.7557C105.281 60.2874 105.346 60.5482 104.567 60.5464C96.6938 60.5274 88.8223 60.5309 80.949 60.543C80.3257 60.5447 80.1787 60.4256 80.4798 59.8282C84.4121 52.0328 88.3303 44.2288 92.2398 36.4214C92.4359 36.0312 92.6793 35.8931 93.117 35.8948C96.9949 35.9103 100.873 35.9069 104.751 35.8965C105.145 35.8948 105.397 36.0053 105.588 36.3644C109.793 44.3152 114.006 52.259 118.214 60.208C118.242 60.2546 118.237 60.3168 118.274 60.5343Z" fill="white"/>
<path d="M69.3181 35.9038C74.1852 35.9038 79.0542 35.9176 83.9214 35.8882C84.6164 35.8848 84.8195 36.0833 84.802 36.7601C84.7565 38.4262 84.76 40.0941 84.802 41.7602C84.8178 42.399 84.6287 42.5976 83.9704 42.5907C80.9398 42.5579 77.9074 42.5993 74.8768 42.5613C74.1345 42.5527 73.9471 42.7979 73.9506 43.4971C73.9751 48.8719 73.9524 54.2449 73.9787 59.6196C73.9822 60.3137 73.8211 60.5658 73.0682 60.552C70.5033 60.5071 67.9384 60.5071 65.3735 60.552C64.612 60.5658 64.4649 60.2982 64.4684 59.6127C64.4929 54.2673 64.4666 48.9219 64.4982 43.5765C64.5034 42.7927 64.2863 42.5458 63.4722 42.5579C60.4994 42.6045 57.5265 42.5613 54.552 42.5872C53.9059 42.5924 53.617 42.4698 53.6398 41.7447C53.6941 40.0803 53.6906 38.4107 53.6415 36.7446C53.6205 36.0419 53.8727 35.8865 54.5415 35.89C59.4647 35.9141 64.3914 35.9038 69.3181 35.9038Z" fill="white"/>
<path d="M29.1727 11.6114C30.0113 11.9653 30.7256 12.2139 31.3927 12.5575C33.6547 13.7195 34.7016 15.5997 34.7174 18.0946C34.7349 20.6775 33.8473 22.7649 31.4574 24.046C29.4283 25.1337 27.1978 25.441 24.9445 25.4514C17.045 25.4911 9.1472 25.4652 1.24766 25.4842C0.63489 25.4876 0.45631 25.3012 0.45631 24.7038C0.473818 17.0016 0.475568 9.29952 0.45631 1.59912C0.454559 0.982744 0.664653 0.830807 1.25992 0.832534C9.09993 0.851526 16.9417 0.842893 24.7817 0.856706C26.4222 0.860159 28.0399 1.07252 29.5876 1.63711C32.051 2.53491 33.2467 4.13542 33.2695 6.53014C33.2905 8.82127 32.149 10.389 29.7539 11.3541C29.5964 11.418 29.4423 11.4922 29.1727 11.6114ZM16.5057 15.408C14.6394 15.408 12.7731 15.4478 10.9085 15.3891C10.1101 15.3649 9.89478 15.6411 9.94556 16.3766C10.0016 17.2071 9.98758 18.0445 9.94906 18.8767C9.92105 19.4879 10.0961 19.7382 10.7772 19.7313C14.4503 19.7002 18.1252 19.7175 21.7984 19.7141C22.3551 19.7141 22.9066 19.6692 23.4318 19.4654C24.3282 19.1167 24.7712 18.4243 24.7397 17.435C24.7082 16.4664 24.2705 15.9087 23.311 15.6066C22.7175 15.4201 22.103 15.415 21.492 15.4115C19.8287 15.4029 18.1672 15.408 16.5057 15.408ZM16.0663 9.94698C17.6683 9.94698 19.272 9.95216 20.874 9.94525C21.5147 9.9418 22.159 9.91763 22.7578 9.64828C23.4476 9.33923 23.7452 8.78501 23.7225 8.05641C23.6997 7.35198 23.3566 6.84092 22.6755 6.61992C22.2658 6.48698 21.8246 6.38511 21.3957 6.38338C17.8118 6.36266 14.228 6.3782 10.6441 6.35921C10.0891 6.35576 9.9368 6.58539 9.95256 7.07918C9.97532 7.76807 9.99458 8.46042 9.94731 9.14586C9.90004 9.81921 10.2012 9.97115 10.8227 9.95906C12.57 9.92626 14.319 9.94698 16.0663 9.94698Z" fill="white"/>
<path d="M117.193 0.35946C120.99 0.361187 124.329 0.573552 127.572 1.55423C129.399 2.10673 131.112 2.88885 132.575 4.12851C134.356 5.63924 135.412 7.52118 135.609 9.8572C135.662 10.4701 135.534 10.7377 134.834 10.7291C132.034 10.6963 129.235 10.7153 126.435 10.7153C126.082 10.7153 125.761 10.7308 125.586 10.2992C125.01 8.87824 123.834 8.08403 122.43 7.65067C119.289 6.6838 116.106 6.63891 112.953 7.55916C110.797 8.18935 109.365 9.57232 109.096 11.8738C108.8 14.3946 109.414 16.5648 111.729 18.003C112.886 18.723 114.176 19.0649 115.524 19.2099C117.807 19.4568 120.071 19.386 122.265 18.6401C123.778 18.1256 125.042 17.29 125.632 15.7309C125.772 15.3614 126.015 15.2855 126.367 15.2855C129.224 15.2924 132.082 15.3027 134.941 15.2786C135.576 15.2734 135.655 15.5738 135.618 16.0814C135.42 18.9233 134.016 21.0798 131.721 22.7096C129.643 24.1858 127.27 24.9869 124.772 25.3754C119.399 26.211 114.033 26.2732 108.71 24.9714C107.49 24.6727 106.326 24.2152 105.216 23.6281C101.418 21.6219 99.4575 18.4623 99.2054 14.2564C99.1231 12.8787 99.1441 11.4957 99.398 10.13C100.018 6.80121 101.872 4.35469 104.874 2.74382C107.46 1.35568 110.279 0.798003 113.171 0.530388C114.653 0.393991 116.139 0.331835 117.193 0.35946Z" fill="white"/>
<path d="M81.5069 6.80103C81.0026 7.8335 80.5982 8.65361 80.2008 9.4789C78.7879 12.4123 77.3768 15.3457 75.9691 18.2808C75.5262 19.2028 75.5332 19.2114 76.5381 19.2132C79.103 19.2166 81.6697 19.2304 84.2346 19.2045C84.8403 19.1976 85.1818 19.3841 85.4374 19.9418C86.1797 21.5647 86.9623 23.1721 87.7677 24.7657C88.0688 25.3631 87.9112 25.4823 87.2879 25.4823C79.4462 25.4685 71.6027 25.4685 63.7609 25.4805C63.1376 25.4823 62.9083 25.4167 63.2497 24.7381C67.1714 16.9704 71.0722 9.1923 74.9659 1.40902C75.176 0.98947 75.4176 0.828901 75.8956 0.830628C79.7438 0.84962 83.592 0.851346 87.4403 0.828901C87.9637 0.825448 88.2141 1.02573 88.4417 1.45564C92.5385 9.20093 96.6406 16.9428 100.769 24.6708C101.191 25.4616 100.876 25.4857 100.207 25.4805C97.3497 25.4615 94.4924 25.4512 91.6369 25.4874C90.9856 25.4961 90.6687 25.2854 90.3868 24.7105C87.6223 19.0716 84.8263 13.4465 82.0373 7.81969C81.8973 7.54172 81.7485 7.2672 81.5069 6.80103Z" fill="white"/>
<path d="M171.926 25.4723C167.962 25.4723 164.086 25.4654 160.21 25.4809C159.728 25.4826 159.472 25.1857 159.178 24.9198C155.586 21.6773 151.998 18.4314 148.404 15.1924C148.175 14.9852 147.991 14.7038 147.635 14.6468C147.38 14.9524 147.49 15.3116 147.49 15.6413C147.48 18.6317 147.467 21.6221 147.495 24.6107C147.502 25.2772 147.308 25.4999 146.608 25.4896C144.013 25.4498 141.417 25.4533 138.822 25.4878C138.165 25.4965 137.985 25.3014 137.987 24.6608C138.008 16.9846 138.01 9.30835 137.985 1.63213C137.983 0.958772 138.216 0.822375 138.843 0.829281C141.438 0.858632 144.034 0.867265 146.629 0.825828C147.355 0.813742 147.501 1.08308 147.495 1.72191C147.469 4.30827 147.481 6.89637 147.49 9.48446C147.492 9.78661 147.389 10.1164 147.63 10.3944C147.986 10.3581 148.183 10.0853 148.425 9.89538C152.046 7.03967 155.661 4.17878 159.275 1.31617C159.593 1.06409 159.887 0.831007 160.35 0.832734C163.907 0.85 167.465 0.843093 171.022 0.84482C171.129 0.84482 171.236 0.874171 171.369 0.89489C171.262 1.27646 170.937 1.39041 170.7 1.5717C166.428 4.86595 162.162 8.16711 157.862 11.4251C157.195 11.931 157.261 12.171 157.837 12.682C162.326 16.66 166.789 20.6673 171.255 24.6712C171.483 24.8766 171.786 25.0268 171.926 25.4723Z" fill="white"/>
<path d="M36.8157 13.1101C36.8157 9.37383 36.8473 5.63758 36.793 1.90133C36.7807 1.00353 37.0609 0.80325 37.924 0.822242C40.4294 0.879218 42.9382 0.868859 45.4436 0.825695C46.1544 0.81361 46.3172 1.04842 46.3137 1.70623C46.291 6.9653 46.319 12.2244 46.2822 17.4834C46.277 18.3001 46.5414 18.4848 47.324 18.4814C52.571 18.4503 57.8181 18.4658 63.0652 18.4658C64.1105 18.4658 64.1105 18.4676 63.5992 19.4033C62.6153 21.1972 61.6138 22.9842 60.6579 24.7919C60.397 25.284 60.1082 25.4894 59.5182 25.4877C52.2594 25.4653 45.0007 25.4635 37.7437 25.4877C37.0223 25.4894 36.7965 25.2978 36.8035 24.5761C36.8333 20.7535 36.8175 16.9327 36.8157 13.1101Z" fill="white"/>
</svg>
