<svg width="75" height="94" viewBox="0 0 75 94" fill="none" xmlns="http://www.w3.org/2000/svg">
<path d="M74.3918 17.9372C74.4027 22.9588 73.5394 28.0296 71.8837 32.9584C70.8455 36.0456 69.3756 38.9362 67.6763 41.7121C66.119 44.2639 64.3649 46.6736 62.3432 48.8702C58.4198 53.1269 53.808 56.3726 48.2673 58.2195C43.5899 59.7768 38.8087 60.7331 33.8854 60.9954C27.6179 61.3232 21.8531 59.7331 16.5146 56.4819C12.4765 54.023 8.85372 51.0778 5.8156 47.4386C4.37304 45.7119 3.13266 43.8486 2.21467 41.7831C0.482502 37.898 0.531681 33.9966 2.1491 30.1005C3.2638 27.4067 4.85389 25.0024 6.65163 22.7184C7.40023 21.7621 8.41658 21.5108 9.50943 21.3578C10.7717 21.1829 12.0394 21.2157 13.3125 21.1829C15.2305 21.1337 17.143 20.9643 19.0609 21.0026C19.7713 21.0135 20.4762 21.019 21.1756 21.1447C22.2957 21.3468 22.6181 21.8113 22.3559 22.9424C22.2356 23.4615 22.1209 23.9697 22.0936 24.5106C22.0499 25.4013 22.416 25.9805 23.2629 26.2592C23.4596 26.3248 23.6509 26.4013 23.8367 26.4941C24.2137 26.6854 24.5361 26.6472 24.9077 26.4177C25.5033 26.0461 26.1098 25.6964 26.8201 25.527C27.6234 25.3357 28.2682 25.5215 28.8692 26.0352C29.3009 26.4013 29.596 26.8876 29.9566 27.3138C30.5194 27.9804 30.8801 28.0569 31.656 27.6635C32.3445 27.3138 32.9401 26.8275 33.563 26.3849C33.9947 26.0789 34.4264 25.7565 34.8908 25.5106C35.6995 25.0898 36.3443 25.2319 36.9508 25.9095C37.1858 26.1718 37.3989 26.4614 37.6503 26.7073C38.0492 27.1007 38.1967 27.1116 38.6284 26.7619C39.3223 26.2046 39.8961 25.527 40.4425 24.833C40.8086 24.3686 41.1747 23.9041 41.5517 23.456C42.0872 22.8222 42.7484 22.5162 43.5954 22.7293C43.7921 22.7785 44.0052 22.7839 44.2073 22.8113C44.945 22.9205 45.4751 22.6364 45.792 21.9698C46.1198 21.2758 46.4422 20.5819 46.7592 19.8824C46.8958 19.5874 46.9996 19.2759 47.1416 18.9863C47.617 18.0137 48.0323 17.7842 49.1088 17.8825C49.9885 17.959 50.0869 17.8989 50.1743 17.0356C50.2344 16.4782 50.2344 15.9154 50.2781 15.358C50.3983 13.8171 51.1087 13.1505 52.666 13.1013C52.7534 13.1013 52.8408 13.1013 52.9337 13.1013C53.9556 13.1013 53.9719 13.0849 54.0922 12.1068C54.1249 11.8445 54.1523 11.5768 54.1905 11.3145C54.4309 9.77904 55.1468 8.56052 56.4964 7.71356C57.7751 6.91032 59.1247 6.24368 60.4799 5.5989C62.3213 4.72462 64.1518 3.83395 65.9058 2.79574C66.9495 2.17828 67.9713 1.53352 68.8784 0.724809C69.1899 0.446133 69.556 0.249412 69.9439 0.101878C70.5341 -0.116692 70.8073 0.00352955 71.0532 0.588203C72.217 3.33672 73.1678 6.1508 73.605 9.12334C74.0421 11.9811 74.4082 14.8444 74.3918 17.9372ZM73.1569 16.5055C73.2115 14.3963 72.7525 11.0959 72.1679 7.81191C71.8072 5.77375 71.2007 3.80117 70.5122 1.85044C70.31 1.28216 70.2007 1.23843 69.6762 1.49525C69.0915 1.77939 68.5287 2.1018 67.9495 2.39687C65.0753 3.85582 62.4087 5.659 59.6001 7.2327C58.9827 7.57695 58.3761 7.94852 57.786 8.33102C57.3379 8.62609 57.3324 8.76816 57.7587 9.1288C58.1466 9.45665 58.4799 9.8173 58.7969 10.2107C59.7968 11.4511 59.9006 13.0467 58.7641 14.3308C58.0701 15.1231 57.9772 16.0137 58.3324 16.9755C58.5674 17.6093 58.8133 18.2431 59.0537 18.877C59.3542 19.6693 59.2231 20.3797 58.6439 21.0081C58.4854 21.1829 58.3215 21.3523 58.163 21.5272C57.3707 22.385 56.8571 23.3468 57.0592 24.5707C57.0811 24.7128 57.0592 24.8658 57.0647 25.0133C57.0866 25.8548 56.7041 26.4887 56.0538 26.975C55.7915 27.1663 55.5074 27.3247 55.2287 27.4941C54.2014 28.1225 53.4966 28.9148 53.3381 30.2044C53.1742 31.5267 52.4802 31.9966 51.136 31.9857C50.7207 31.9857 50.3109 31.9639 49.8956 31.9857C49.0651 32.024 48.4257 32.3791 48.0542 33.1496C47.7974 33.6796 47.5515 34.2151 47.2509 34.7233C46.6772 35.7014 45.8466 36.0129 44.7592 35.6577C44.3385 35.5211 43.9396 35.3298 43.5298 35.1604C42.5134 34.7452 42.0982 34.8435 41.3496 35.6631C41.2512 35.7724 41.1583 35.8872 41.0599 35.9965C40.2731 36.8434 39.5955 36.9254 38.6338 36.3025C38.4863 36.2041 38.3497 36.0948 38.2021 35.991C37.2404 35.3189 36.2132 35.1495 35.0985 35.5703C34.4919 35.7998 33.8799 36.0238 33.2625 36.2205C31.5358 36.7615 30.6069 36.3844 29.7217 34.8271C29.6943 34.7779 29.667 34.7233 29.6397 34.6687C29.3228 34.0184 28.8037 33.6086 28.1261 33.401C27.7327 33.2807 27.3338 33.166 26.9349 33.0567C26.2519 32.8655 25.5907 32.6196 24.9787 32.2535C24.0607 31.6961 23.6072 30.8929 23.7001 29.8109C23.7328 29.4284 23.8148 29.0569 23.8804 28.6744C24.0061 27.9039 23.9678 27.8384 23.2684 27.5324C23.1318 27.4723 22.9952 27.4176 22.8586 27.3684C21.651 26.9368 21.1045 26.0352 21.0444 24.8002C21.0226 24.303 21.0608 23.8003 21.0882 23.2976C21.1319 22.5107 21.1045 22.4561 20.2904 22.385C19.5254 22.3249 18.7604 22.2594 17.9954 22.2703C16.1977 22.2812 14.3945 22.3359 12.5967 22.3741C11.6842 22.396 10.7662 22.4069 9.85367 22.4616C9.20343 22.4998 9.02311 22.6419 8.91383 23.1938C8.38379 25.915 7.8483 28.6361 7.82644 31.4284C7.80458 34.002 8.00676 36.5538 8.38379 39.1002C8.81 41.9798 9.52036 44.7556 10.952 47.3293C12.4929 50.0997 14.318 52.6023 16.9736 54.4055C18.2905 55.3016 19.6511 56.1267 21.0335 56.93C24.4814 58.9299 28.2299 59.6894 32.1587 59.6621C36.8197 59.6293 41.3714 58.8534 45.8521 57.5857C51.2781 56.0502 56.0429 53.3728 59.999 49.3565C63.8404 45.4551 66.9167 40.9908 69.2172 36.0238C71.9056 30.2372 73.1405 24.1227 73.1569 16.5055ZM50.4639 30.3847C50.6989 30.4066 50.9393 30.412 51.1688 30.4557C51.6005 30.5322 51.8464 30.3683 51.9229 29.9366C51.9447 29.7891 52.0103 29.6525 52.0267 29.5049C52.1469 28.3629 52.8081 27.5542 53.6823 26.8985C54.1304 26.5597 54.5949 26.2428 55.0593 25.9313C55.4309 25.68 55.6221 25.3412 55.6112 24.8877C55.6003 24.6199 55.6167 24.3576 55.6058 24.0899C55.5347 22.8386 55.9937 21.784 56.8133 20.866C57.0483 20.6037 57.256 20.3141 57.4909 20.0518C57.7805 19.724 57.8133 19.3852 57.633 18.9918C57.409 18.5109 57.2232 18.0137 57.021 17.5219C56.409 16.0575 56.562 14.6969 57.5947 13.462C57.6712 13.3691 57.7423 13.2762 57.8133 13.1833C58.3488 12.4237 58.3707 11.9156 57.857 11.156C57.6931 10.9102 57.4964 10.6861 57.2997 10.4675C57.0046 10.1397 56.715 9.71893 56.2123 9.82822C55.7041 9.94297 55.6276 10.4566 55.5293 10.8774C55.3981 11.4183 55.3325 11.9811 55.2178 12.5276C54.9883 13.6259 54.4309 14.0849 53.3162 14.1122C53.0813 14.1177 52.8408 14.1013 52.6059 14.1176C51.8464 14.1723 51.5404 14.4182 51.3928 15.1559C51.2945 15.6476 51.2508 16.1503 51.1906 16.6476C50.9721 18.3743 50.6715 18.6858 48.9503 18.8497C48.535 18.8879 48.3055 19.0628 48.1689 19.4398C47.9941 19.9425 47.8083 20.4398 47.6116 20.9316C47.322 21.6419 47.0651 22.3632 46.6225 23.0025C46.0379 23.8495 45.2456 24.1609 44.2456 24.0134C44.0707 23.9861 43.8959 23.9478 43.732 23.8822C43.0872 23.6418 42.5954 23.8385 42.1801 24.3686C41.7812 24.8822 41.3659 25.3849 40.9343 25.8658C40.3605 26.4996 39.8414 27.1827 39.1147 27.6635C38.2021 28.27 37.6229 28.2209 36.8197 27.4723C36.6066 27.2701 36.4153 27.0406 36.2132 26.8275C35.7105 26.2974 35.552 26.2756 34.9345 26.6799C34.6395 26.8767 34.3663 27.1007 34.0821 27.3138C33.4701 27.7782 32.88 28.27 32.2461 28.6962C31.1478 29.4394 30.1752 29.3356 29.2025 28.4285C28.8528 28.1061 28.6015 27.7017 28.3064 27.3356C27.8583 26.7892 27.454 26.6417 26.8311 26.904C25.9295 27.2755 25.0169 27.669 24.8366 28.8055C24.8148 28.9476 24.7273 29.0787 24.6782 29.2153C24.2082 30.5049 24.5743 31.2426 25.9185 31.6032C26.6289 31.7945 27.3556 31.9475 28.0824 32.0513C29.4922 32.2535 30.4375 33.0294 31.0822 34.2698C31.6341 35.3298 31.9237 35.45 33.0603 35.1604C33.4865 35.0512 33.9018 34.8818 34.3171 34.7342C34.8143 34.5539 35.3061 34.3517 35.8088 34.1823C36.8689 33.8272 37.8415 34.0075 38.7431 34.6577C38.9562 34.8107 39.1966 34.9364 39.4097 35.0949C39.7267 35.3298 39.9944 35.3244 40.2348 34.9856C40.3168 34.8654 40.4206 34.7561 40.519 34.6468C41.5408 33.5048 42.5189 33.2807 43.9287 33.8763C44.2292 34.002 44.5188 34.155 44.8193 34.2698C45.5297 34.543 45.7701 34.4446 46.0707 33.767C46.2127 33.4447 46.3056 33.095 46.4805 32.789C47.4914 30.9639 48.087 30.3137 50.4639 30.3847Z" fill="white"/>
<path d="M12.2806 77.2952C12.2806 76.0275 12.2696 74.7598 12.286 73.4867C12.2969 72.6233 12.4062 72.5195 13.2532 72.4976C13.6958 72.4867 14.1384 72.5031 14.581 72.4976C14.9526 72.4922 15.2914 72.5632 15.499 72.9129C15.734 73.3118 16.0126 73.1916 16.3186 73.0113C17.2093 72.4976 18.171 72.2682 19.1983 72.2791C19.9633 72.29 20.6791 72.4594 21.22 73.0168C21.5643 73.3719 21.8539 73.3282 22.2255 73.1042C23.2364 72.4977 24.3292 72.208 25.5204 72.29C27.3127 72.4102 28.3454 73.3883 28.482 75.1861C28.5421 75.9784 28.5093 76.7761 28.5093 77.5739C28.5148 78.8143 28.5203 80.0547 28.5093 81.2896C28.4984 82.0437 28.3837 82.1639 27.6296 82.1803C26.8919 82.2022 26.1543 82.1967 25.4166 82.1803C24.6461 82.1584 24.5041 82.0164 24.4931 81.2186C24.4767 79.7432 24.4877 78.2679 24.4822 76.7925C24.4822 76.4975 24.4822 76.1969 24.4276 75.9128C24.3401 75.4647 24.1106 75.3227 23.668 75.3718C22.7828 75.4757 22.4331 75.8472 22.4276 76.7379C22.4222 78.2132 22.4331 79.6886 22.4222 81.1639C22.4167 82.0491 22.2801 82.1748 21.384 82.1912C20.7665 82.2021 20.1436 82.1967 19.5261 82.1912C18.477 82.1803 18.406 82.1092 18.4005 81.0874C18.395 79.6722 18.4005 78.257 18.395 76.8417C18.395 76.5467 18.3896 76.2461 18.3295 75.962C18.2202 75.4265 17.9852 75.2953 17.4333 75.3882C16.5153 75.5467 16.2749 75.8363 16.2749 76.8144C16.2694 78.2898 16.2804 79.7651 16.2694 81.2404C16.264 82.0546 16.1547 82.1639 15.3515 82.1857C14.6138 82.2021 13.8761 82.2021 13.1384 82.1857C12.4117 82.1639 12.2751 82.0273 12.2642 81.2787C12.2696 79.9509 12.286 78.6231 12.2806 77.2952Z" fill="white"/>
<path d="M13.5849 88.2838C13.5849 86.9833 13.574 85.6883 13.5904 84.3878C13.6013 83.5845 13.727 83.4753 14.5302 83.4479C15.0001 83.4315 15.4755 83.4425 15.9455 83.4479C16.2842 83.4534 16.6012 83.5244 16.7924 83.8304C17.0274 84.2074 17.2842 84.1473 17.612 83.9615C18.3606 83.5244 19.1803 83.284 20.0491 83.2129C20.9671 83.1364 21.8304 83.3004 22.5189 83.9452C22.8577 84.2621 23.1473 84.2894 23.5353 84.0545C24.1965 83.6556 24.9123 83.3878 25.6827 83.2621C26.3057 83.1638 26.9176 83.1911 27.5296 83.3222C28.7263 83.5791 29.4476 84.3277 29.7099 85.497C29.8192 85.9833 29.8629 86.4915 29.8683 86.9888C29.8902 88.6717 29.8847 90.3547 29.8738 92.0322C29.8683 92.9939 29.7591 93.0977 28.8083 93.1141C28.1307 93.1251 27.4531 93.1305 26.7701 93.1141C25.9614 93.0923 25.8467 92.983 25.8357 92.1798C25.8193 90.7044 25.8303 89.2291 25.8248 87.7537C25.8248 87.4587 25.8193 87.1581 25.7538 86.874C25.6445 86.3822 25.4204 86.262 24.9123 86.3494C24.0271 86.5079 23.7593 86.8084 23.7539 87.6991C23.7484 89.1744 23.7593 90.6498 23.7429 92.1251C23.732 92.9939 23.6336 93.0868 22.7703 93.1087C22.0599 93.1251 21.3551 93.1251 20.6447 93.1087C19.8415 93.0868 19.7212 92.9721 19.7103 92.1743C19.6939 90.699 19.7049 89.2236 19.6994 87.7483C19.6994 87.4532 19.6939 87.1527 19.6393 86.8685C19.5628 86.4587 19.3005 86.2839 18.8688 86.3276C17.9836 86.4259 17.6394 86.7866 17.6339 87.6936C17.6284 89.1416 17.6394 90.5842 17.6284 92.0322C17.6175 92.9994 17.5137 93.0977 16.5574 93.1141C15.8471 93.1251 15.1422 93.1306 14.4319 93.1087C13.7324 93.0868 13.6013 92.9612 13.5849 92.2672C13.574 90.9394 13.5904 89.6116 13.5849 88.2838C13.5904 88.2838 13.5904 88.2838 13.5849 88.2838Z" fill="white"/>
<path d="M53.3114 77.3115C53.3114 76.0165 53.3005 74.716 53.3169 73.4209C53.3278 72.6122 53.4262 72.5248 54.2513 72.503C54.6939 72.492 55.1365 72.503 55.5791 72.503C55.8906 72.503 56.1747 72.574 56.3386 72.8636C56.5845 73.3062 56.8741 73.186 57.2184 72.9893C58.191 72.4265 59.2511 72.2188 60.3658 72.2953C61.9996 72.3991 62.9667 73.2843 63.2017 74.9127C63.2509 75.2296 63.2563 75.5575 63.2618 75.8853C63.2673 77.6229 63.2727 79.366 63.2618 81.1037C63.2563 82.0927 63.1744 82.1746 62.2127 82.191C61.6553 82.202 61.0925 82.1965 60.5297 82.191C59.5079 82.1801 59.4041 82.0818 59.3986 81.0873C59.3877 79.672 59.3986 78.2568 59.3931 76.8416C59.3931 76.5465 59.3931 76.2459 59.333 75.9618C59.2347 75.4864 58.9888 75.328 58.5079 75.3662C57.5517 75.4427 57.1801 75.8416 57.1801 76.8252C57.1746 78.2677 57.1856 79.7157 57.1746 81.1583C57.1692 82.049 57.0326 82.1746 56.1419 82.191C55.4643 82.202 54.7868 82.2074 54.1092 82.1856C53.459 82.1582 53.3333 82.038 53.3278 81.3823C53.3005 80.0272 53.3114 78.6721 53.3114 77.3115Z" fill="white"/>
<path d="M40.1475 88.2947C40.1475 89.5624 40.1585 90.8301 40.1421 92.0978C40.1312 92.9994 40.0273 93.0923 39.1093 93.1141C38.6667 93.1251 38.2241 93.1141 37.7815 93.1141C37.4482 93.1141 37.1204 93.0814 36.9291 92.759C36.6941 92.3546 36.41 92.4912 36.1095 92.6552C35.1532 93.1797 34.1314 93.3983 33.044 93.3218C31.3884 93.207 30.4376 92.3601 30.2081 90.7099C30.1207 90.0706 30.1425 89.4149 30.1371 88.7701C30.1316 87.3275 30.1261 85.8795 30.1425 84.437C30.148 83.5791 30.2682 83.4643 31.1152 83.4425C31.7654 83.4261 32.4102 83.4261 33.0604 83.4425C33.9074 83.4643 34.0057 83.5681 34.0167 84.4424C34.0276 85.7975 34.0221 87.1527 34.0221 88.5078C34.0221 88.628 34.0221 88.7428 34.0221 88.863C34.044 90.2454 34.5686 90.5514 35.7925 89.9394C36.175 89.7482 36.2734 89.4695 36.2734 89.087C36.2679 87.8193 36.2734 86.5516 36.2789 85.2839C36.2843 83.3277 36.1259 83.437 38.175 83.437C38.5574 83.437 38.9399 83.4261 39.3224 83.4479C40 83.4862 40.1421 83.6173 40.1475 84.3113C40.1639 85.6445 40.1475 86.9724 40.1475 88.2947Z" fill="white"/>
<path d="M42.3003 77.3443C42.3003 74.2625 44.2073 72.3555 47.4203 72.2407C48.1306 72.2134 48.8355 72.3008 49.5186 72.4975C51.595 73.0931 52.8463 74.6669 52.9556 76.8198C52.9829 77.3498 52.9938 77.8853 52.9009 78.4099C52.5676 80.2568 51.513 81.5026 49.7207 82.0873C48.4257 82.508 47.1034 82.5244 45.7919 82.1693C43.5571 81.5627 42.3003 79.8142 42.3003 77.3443ZM49.4366 77.1039C49.4257 76.5957 49.2563 75.94 48.6006 75.563C47.9394 75.186 47.229 75.1805 46.5952 75.6176C45.8138 76.1586 45.7646 77.0001 45.8794 77.8416C45.9723 78.5246 46.3329 79.0437 47.0269 79.2677C47.0542 79.2787 47.0815 79.2787 47.1143 79.2896C48.4749 79.612 49.453 78.7814 49.4366 77.1039Z" fill="white"/>
<path d="M32.8697 78.6176C33.1538 79.2514 33.651 79.3553 34.1374 79.4318C34.8477 79.5356 35.5417 79.4482 36.2356 79.2514C37.0717 79.011 37.1482 79.0602 37.4869 79.8744C37.5197 79.9563 37.547 80.0383 37.5798 80.1203C38.0498 81.3224 37.8913 81.6557 36.64 82.0382C35.3777 82.4207 34.0991 82.5191 32.7986 82.2622C30.4982 81.8087 29.0064 80.1257 28.8644 77.787C28.8207 77.1095 28.8152 76.4319 28.9846 75.7653C29.531 73.585 31.4544 72.1425 33.6784 72.2408C35.9679 72.3446 37.5908 73.8637 37.9241 76.2188C37.9951 76.716 38.0443 77.2133 38.0115 77.716C37.9678 78.3389 37.8312 78.4865 37.1919 78.4974C36.099 78.5192 35.0116 78.5028 33.9188 78.5083C33.5964 78.5083 33.274 78.4755 32.8697 78.6176ZM33.4653 76.2953C33.7439 76.1805 34.1865 76.4592 34.2412 75.9401C34.2849 75.4921 33.8696 75.0221 33.4762 75.0221C33.0937 75.0221 32.6511 75.4593 32.6729 75.9183C32.6948 76.5029 33.203 76.1587 33.4653 76.2953Z" fill="white"/>
<path d="M44.1461 93.3655C43.2609 93.3272 42.2992 93.2125 41.3539 92.9557C40.8675 92.8245 40.5889 92.5622 40.5561 92.0431C40.5288 91.6005 40.4468 91.1634 40.4195 90.7262C40.3648 89.8465 40.567 89.6935 41.3757 89.9831C41.8183 90.1416 42.2555 90.3164 42.7035 90.4694C43.2062 90.6388 43.7308 90.7317 44.2663 90.7262C44.4958 90.7262 44.7854 90.7372 44.8346 90.4421C44.8783 90.1962 44.6269 90.1088 44.4412 90.0323C44.0587 89.8793 43.6762 89.7263 43.2827 89.5952C42.7472 89.4149 42.2719 89.1198 41.7746 88.863C40.037 87.9723 40.1299 84.9833 41.5943 84.0162C42.0205 83.7375 42.4576 83.508 42.944 83.3823C44.3045 83.0326 45.6324 83.1911 46.9438 83.6282C47.4246 83.7867 47.676 84.0872 47.6596 84.6063C47.6432 85.109 47.6814 85.6117 47.6432 86.109C47.6049 86.6827 47.3481 86.8248 46.8126 86.6007C46.4629 86.4532 46.1296 86.2565 45.7799 86.098C45.4029 85.9287 45.004 85.8139 44.5832 85.8412C44.4029 85.8521 44.2171 85.9068 44.157 86.0926C44.0914 86.2948 44.2335 86.4368 44.392 86.5188C44.7854 86.7155 45.1898 86.9013 45.5941 87.0707C46.1679 87.3056 46.7416 87.5297 47.2607 87.8794C48.2716 88.5624 48.6432 89.5296 48.4956 90.7099C48.3535 91.841 47.7088 92.5896 46.6651 93.0049C45.8837 93.3163 45.0641 93.3764 44.1461 93.3655Z" fill="white"/>
<path d="M60.96 85.6229C60.9818 85.8852 61.031 86.1529 61.0146 86.4152C60.9873 86.8687 60.725 87.0326 60.2934 86.8742C60.0201 86.7704 59.7579 86.6228 59.4901 86.5081C59.2989 86.4261 59.1076 86.3496 58.9109 86.295C58.1131 86.0819 57.3044 85.9671 56.7143 86.7103C56.1241 87.4589 56.0422 88.3386 56.3646 89.2238C56.6269 89.9341 57.4902 90.3112 58.4574 90.1855C59.0147 90.1145 59.5338 89.8959 60.0639 89.7101C60.7578 89.4642 60.9982 89.6445 60.9491 90.3877C60.9108 90.9724 60.807 91.557 60.736 92.1417C60.6868 92.5406 60.4518 92.7701 60.0857 92.8958C58.594 93.4149 57.0804 93.546 55.5777 92.9996C53.8292 92.3603 52.9166 91.027 52.6653 89.2184C52.5779 88.6009 52.5888 87.9834 52.6817 87.366C53.0314 85.0382 54.534 83.5519 56.8727 83.2405C57.9109 83.1039 58.9218 83.2077 59.9273 83.5355C60.5884 83.7486 60.8944 84.153 60.8999 84.8306C60.8999 85.0928 60.9381 85.3606 60.9545 85.6229C60.9545 85.6229 60.9545 85.6229 60.96 85.6229Z" fill="white"/>
<path d="M41.7966 75.6176C41.7966 77.4754 41.802 79.3387 41.7966 81.1966C41.7911 82.0872 41.7091 82.1692 40.8513 82.191C40.3212 82.202 39.7912 82.202 39.2557 82.191C38.4087 82.1692 38.3213 82.0708 38.2995 81.1911C38.2995 81.1037 38.2995 81.0162 38.2995 80.9234C38.2995 77.3825 38.2995 73.8417 38.2995 70.3009C38.2995 70.126 38.294 69.9457 38.3049 69.7708C38.3432 69.1042 38.4415 68.9894 39.0863 68.9676C39.7038 68.9457 40.3267 68.9457 40.9442 68.9621C41.6982 68.984 41.7911 69.0714 41.7966 69.8583C41.802 71.7817 41.7966 73.6996 41.7966 75.6176Z" fill="white"/>
<path d="M48.8737 88.18C48.8737 86.8249 48.8628 85.4643 48.8792 84.1091C48.8901 83.295 48.9994 83.1912 49.8081 83.1748C50.3709 83.1638 50.9337 83.1529 51.4911 83.1857C52.1632 83.2239 52.3927 83.4534 52.3981 84.1255C52.4091 86.8413 52.4145 89.557 52.3981 92.2727C52.3927 92.9776 52.267 93.0923 51.5621 93.1142C50.9446 93.136 50.3217 93.136 49.7043 93.1142C49.0048 93.0869 48.8955 92.983 48.8846 92.2618C48.8628 90.8957 48.8737 89.5406 48.8737 88.18Z" fill="white"/>
</svg>
