<svg width="113" height="89" viewBox="0 0 113 89" fill="none" xmlns="http://www.w3.org/2000/svg">
<path d="M35.9988 25.76C35.4888 26.0926 35.4962 26.7283 35.4297 27.3048C34.0474 39.5378 32.6726 51.7707 31.2904 64.0036C31.1943 64.861 31.0761 65.7184 30.9061 66.5537C30.773 67.182 30.6621 68.0024 29.9008 67.9581C29.1617 67.9211 29.0582 67.1524 28.9843 66.4872C28.8069 64.9276 28.5777 63.3753 28.4669 61.8083C27.9716 54.8308 27.5207 47.8532 27.0403 40.883C26.7964 37.3942 26.5155 33.9128 26.2568 30.424C26.2198 29.9214 26.2568 29.2636 25.7172 29.1675C25.1407 29.0566 25.052 29.7662 24.8968 30.2097C23.5589 34.0459 22.258 37.8895 20.9275 41.733C20.1293 44.0318 19.7745 44.2609 17.6088 44.3275C12.686 44.4753 7.76328 44.6453 2.83315 44.564C2.24183 44.5566 1.65052 44.5935 1.08137 44.3127C0.741364 44.1353 0.364403 43.9727 0.393969 43.4848C0.423535 42.9231 0.844844 42.7457 1.26616 42.6939C2.44141 42.5609 3.62404 42.3983 4.80668 42.3835C8.50243 42.3391 12.2056 42.3613 15.9013 42.3465C18.7692 42.3318 19.0205 42.1248 19.9519 39.1682C21.408 34.5707 22.8567 29.9806 24.3202 25.3831C24.5198 24.7622 24.712 24.1339 24.9781 23.5426C25.3255 22.7739 25.8798 22.2047 26.7003 22.2934C27.5503 22.3821 27.7647 23.1582 27.8238 23.9565C28.0825 27.4453 28.319 30.9341 28.5703 34.4228C28.9621 39.8334 29.3538 45.244 29.7752 50.6546C29.8195 51.2607 29.7752 51.9703 30.3443 52.5764C31.0095 50.965 30.9208 49.3241 31.0761 47.7645C31.8891 39.656 32.5987 31.5328 33.3748 23.4169C34.0031 16.8163 34.6535 10.2157 35.3262 3.6151C35.4001 2.86856 35.6218 2.12941 35.851 1.41982C36.0136 0.917201 36.3758 0.584584 36.9006 0.606758C37.4327 0.628933 37.7358 1.01329 37.8836 1.51591C38.0093 1.94462 38.1054 2.3955 38.1275 2.84638C38.4232 10.7035 38.6967 18.5681 38.985 26.4253C39.4211 38.1925 39.8645 49.9524 40.2932 61.7196C40.3819 64.1071 40.3893 66.4946 40.4411 68.882C40.4485 69.1851 40.4633 69.4955 40.5372 69.7912C40.6481 70.242 40.4559 70.996 41.0767 71.0034C41.5646 71.0108 41.5276 70.3307 41.5942 69.8946C41.949 67.3889 42.3259 64.8906 42.6438 62.3775C43.6786 54.1951 44.6912 46.0053 45.7186 37.8229C45.7925 37.2242 45.933 36.6255 46.0882 36.049C46.3469 35.0955 46.9308 34.6224 47.84 34.7407C48.6678 34.8516 49.0004 35.4798 49.067 36.3151C49.3552 39.7965 49.6287 43.2853 49.9096 46.774C49.9761 47.6315 50.0278 48.4963 50.1313 49.3463C50.1905 49.8341 50.1979 50.5215 50.7374 50.5659C51.3214 50.6102 51.314 49.9006 51.4248 49.435C52.2601 45.9018 53.0732 42.3613 53.9158 38.8356C54.1006 38.0521 54.3002 37.2538 54.6328 36.5442C55.2537 35.2359 56.2515 35.199 56.9389 36.4555C57.582 37.6234 58.1511 38.843 58.6759 40.0847C59.4003 41.7996 60.6199 42.657 62.2682 42.5831C68.7431 42.28 75.2255 42.5609 81.693 42.2357C86.6232 41.9917 91.5459 42.2283 96.4686 41.9991C101.118 41.7848 105.767 41.7109 110.424 41.7478C110.697 41.7478 110.971 41.7478 111.244 41.7478C111.88 41.7478 112.523 41.8883 112.523 42.7457C112.523 43.5292 111.895 43.6327 111.318 43.6622C109.685 43.7509 108.044 43.9061 106.41 43.9357C102.441 43.9948 98.4569 43.8248 94.4951 44.0466C89.1584 44.3496 83.8144 44.0318 78.4851 44.3496C72.9193 44.6896 67.3535 44.4235 61.7951 44.6231C59.7846 44.697 58.0846 44.2314 57.0424 42.1026C56.8798 41.77 56.6506 41.3265 56.2145 41.43C55.7267 41.5483 55.7193 42.0952 55.6084 42.5239C54.3445 47.3949 53.0805 52.2733 51.8092 57.1517C51.5653 58.083 51.2844 58.9922 50.6118 59.6796C49.6657 60.6479 48.9191 60.4631 48.69 59.0439C48.3278 56.8043 48.1282 54.5277 47.8548 52.2659C47.7587 51.4603 47.67 50.6546 47.5665 49.8563C47.5295 49.568 47.5665 49.1615 47.2265 49.1171C46.7978 49.0654 46.7313 49.5089 46.6795 49.8415C46.3839 51.7929 46.103 53.7442 45.8295 55.703C44.4251 65.6224 43.0355 75.5491 41.6163 85.4685C41.4907 86.3555 41.4242 87.309 40.8846 88.0555C40.6407 88.3956 40.4041 88.876 39.9089 88.7356C39.5171 88.6247 39.3398 88.1886 39.2954 87.7968C39.1032 86.2964 38.8889 84.7885 38.8223 83.2732C38.3493 73.1912 37.9058 63.1092 37.4697 53.0272C37.2554 48.1119 37.0927 43.1966 36.8858 38.2738C36.7158 34.3194 36.5236 30.3723 36.3314 26.4179C36.3462 26.1813 36.361 25.9005 35.9988 25.76Z" fill="white"/>
<path d="M80.0595 54.8086C80.0595 56.4791 80.0669 58.157 80.0595 59.8275C80.0595 60.6405 80.1334 61.5571 79.2317 61.8527C78.3151 62.1558 77.783 61.4462 77.3395 60.7071C75.972 58.4305 74.6342 56.1317 73.2815 53.8477C73.1041 53.5521 72.9341 53.249 72.7419 52.9682C72.5867 52.7316 72.4315 52.4064 72.0989 52.5468C71.781 52.6799 71.8328 53.0495 71.8254 53.3377C71.8106 55.3187 71.8402 57.2922 71.7958 59.2731C71.7737 60.271 72.1137 61.801 70.7241 61.7493C69.4971 61.7049 69.8001 60.234 69.7853 59.2805C69.7558 56.3904 69.7706 53.5004 69.778 50.6103C69.778 50.2037 69.7632 49.7972 69.8075 49.3981C69.8962 48.6146 70.1106 47.868 70.8941 47.6389C71.6702 47.4098 72.0619 48.0602 72.4167 48.6515C73.8359 51.0094 75.2403 53.3821 76.652 55.7474C76.7555 55.9174 76.8368 56.1022 76.9477 56.2574C77.1916 56.6048 77.3394 57.2257 77.8051 57.1148C78.389 56.967 78.2116 56.2869 78.219 55.8213C78.2486 53.6408 78.2338 51.4603 78.256 49.2798C78.2634 48.548 78.3299 47.7054 79.1947 47.735C80.0595 47.7645 80.0595 48.6146 80.0595 49.3389C80.0595 51.1572 80.0521 52.9829 80.0595 54.8086Z" fill="white"/>
<path d="M88.2345 47.5353C89.7719 47.5501 90.9619 48.3484 91.3685 49.7158C91.8341 51.2976 91.0137 52.2954 90.0306 53.2268C89.6906 53.552 88.9293 53.7516 89.3062 54.4538C89.7941 55.3481 90.2893 56.3756 91.2428 56.7008C91.7381 56.8708 91.8785 56.0947 92.1002 55.6734C92.3589 55.1633 92.6546 54.6312 93.2607 54.9564C93.8077 55.252 93.7929 55.8508 93.6155 56.4199C93.4972 56.8043 93.3864 57.2034 93.2016 57.5434C92.8024 58.3047 92.965 58.8739 93.5785 59.3691C93.8668 59.6056 94.1255 59.9087 94.3768 60.197C94.7464 60.6183 94.8129 61.0839 94.4655 61.557C94.1477 61.9857 93.6746 62.0522 93.3716 61.6974C92.0559 60.1526 90.8067 60.7144 89.4023 61.5866C88.3823 62.2296 87.1701 62.0744 86.054 61.7787C84.6274 61.4018 83.5926 60.4704 83.2748 58.7852C82.9496 57.0999 83.5039 55.7251 84.7457 54.8307C85.7657 54.0916 85.9727 53.5298 85.337 52.2289C84.11 49.7306 85.5588 47.5131 88.2345 47.5353ZM87.621 60.33C88.4414 60.2561 89.3506 59.9974 89.7867 59.1252C90.2228 58.253 89.2397 57.9056 88.8849 57.3291C88.6558 56.9595 88.3527 56.6416 88.0793 56.3016C87.1036 55.082 86.357 55.1412 85.5366 56.5086C85.0635 57.2921 85.0192 58.1199 85.4257 58.933C85.884 59.8496 86.6231 60.293 87.621 60.33ZM89.7645 50.6176C89.6906 49.5975 89.1806 49.0728 88.3453 49.0432C87.4658 49.0136 86.7488 49.5015 86.7488 50.5141C86.7488 51.4306 87.1849 52.495 88.094 52.495C88.9958 52.5024 89.5723 51.6154 89.7645 50.6176Z" fill="white"/>
<path d="M96.3652 49.1172C96.3726 48.3263 96.6091 47.7941 97.2374 47.6389C97.8657 47.4837 98.1614 48.0158 98.3314 48.548C99.1075 50.9872 99.8466 53.4338 100.601 55.8804C100.734 56.3091 100.837 56.7526 101 57.1739C101.17 57.6248 101.192 58.3713 101.665 58.4009C102.286 58.4378 102.301 57.647 102.456 57.1443C103.232 54.6534 103.978 52.1403 104.74 49.642C104.888 49.1615 105.043 48.6811 105.257 48.2376C105.486 47.7719 105.849 47.4023 106.373 47.6463C106.876 47.8828 107.194 48.3411 107.068 48.9767C106.935 49.6124 106.721 50.2333 106.521 50.8542C105.494 53.9438 104.466 57.0335 103.432 60.1231C103.121 61.0618 102.722 61.934 101.65 61.9119C100.645 61.8971 100.246 61.0544 99.9575 60.1822C98.8266 56.8043 97.7179 53.419 96.6091 50.0337C96.4835 49.7085 96.4244 49.3611 96.3652 49.1172Z" fill="white"/>
</svg>
