<svg width="69" height="65" viewBox="0 0 69 65" fill="none" xmlns="http://www.w3.org/2000/svg">
<path d="M40.2196 17.899C40.1082 19.7818 40.3657 21.5915 40.1313 23.3975C40.1082 23.5704 39.9776 23.7932 40.162 23.9123C40.3042 24.0045 40.4732 23.8393 40.6231 23.7702C42.0294 23.0901 42.7863 21.9066 43.1552 20.4427C43.3281 19.7549 43.4434 19.0517 43.6009 18.3563C43.6624 18.0873 43.7469 17.8184 44.1273 17.584C44.1196 19.5397 44.0005 21.3841 43.4126 23.1823C44.6345 23.0478 45.7065 21.8298 45.8718 20.4581C46.0408 19.0249 45.7565 17.6224 45.5797 16.2122C45.5644 16.1047 45.5452 15.9971 45.5106 15.7665C46.1984 16.3352 46.3328 17.0537 46.4673 17.7415C46.6056 18.437 46.6518 19.1478 46.7363 19.8625C46.9515 19.851 46.9591 19.6781 47.0014 19.5551C47.5739 18.0105 47.4202 16.5388 46.5442 15.1441C45.8833 14.0913 45.0303 13.1883 44.2119 12.2623C43.8545 11.8589 43.5932 11.4247 43.8391 10.7715C44.1965 11.221 44.4962 11.6206 44.8151 12.001C45.3915 12.6965 46.0062 13.3574 46.8093 13.7992C47.6277 14.2488 48.1772 14.0298 48.4308 13.1268C48.7804 11.8819 48.5998 10.6408 48.2924 9.41128C48.2463 9.23069 48.1887 9.05394 48.1118 8.78882C48.4922 8.89256 48.6229 9.16152 48.7535 9.40359C49.522 10.8291 49.5758 12.3353 49.2415 13.8838C49.0724 14.6676 48.7689 15.4246 48.7151 16.2353C48.7036 16.3928 48.5768 16.6042 48.7843 16.681C48.9495 16.7425 49.0801 16.5504 49.1915 16.4313C49.7333 15.8357 50.01 15.098 50.2674 14.3525C50.5441 13.5572 50.5825 12.7195 50.7477 11.7935C51.1704 12.4544 51.1512 13.0923 51.0858 13.7109C50.9168 15.3362 50.4096 16.8155 49.1647 17.9682C48.765 18.3371 48.4577 18.7828 48.2655 19.3092C48.1195 19.7126 47.8967 20.0892 47.7468 20.4926C47.0206 22.433 45.5836 23.5857 43.6778 24.2466C42.5635 24.6347 41.4377 24.9843 40.3733 25.5069C39.9161 25.7298 39.4742 25.9757 39.1246 26.3522C39.0362 26.4483 38.9171 26.5559 38.9901 26.6942C39.0669 26.8402 39.236 26.7903 39.3436 26.7441C40.6846 26.164 42.1677 26.1755 43.5356 25.7144C43.989 25.5607 44.1388 25.7336 44.1235 26.1371C44.0927 27.0592 43.7085 27.8315 43.0822 28.4963C42.9055 28.6845 42.6864 28.8382 42.6864 29.1456C42.6864 29.3723 42.4713 29.4376 42.3137 29.526C41.5337 29.9564 40.6846 30.1792 39.8124 30.3329C39.1745 30.4443 38.9594 30.7095 39.1169 31.3434C39.2283 31.7892 39.2053 32.1888 39.0439 32.6037C38.8902 32.9918 38.8441 33.3953 38.8518 33.8141C38.8671 35.0475 38.6673 36.2732 38.8018 37.5143C38.8556 37.9984 38.9325 38.4288 39.2322 38.8168C39.6894 39.4086 40.1851 39.9811 40.5808 40.6151C41.3993 41.9253 41.5107 43.2816 40.6615 44.638C40.6231 44.6995 40.577 44.761 40.527 44.8147C40.504 44.8416 40.4656 44.8493 40.4271 44.8685C40.2811 44.7686 40.4194 44.5804 40.2427 44.4151C39.9622 45.368 39.4166 46.0558 38.433 46.3248C38.3484 46.0558 38.6443 45.8945 38.5021 45.5909C37.3494 46.5861 35.7087 46.5976 34.5944 47.6735C34.0258 46.2326 34.533 44.784 36.554 43.3162C36.6847 43.4815 36.5617 43.6774 36.6501 43.9387C37.2149 43.4546 37.4724 42.8359 37.7375 42.1558C37.9834 42.5747 38.1179 42.5132 38.2178 42.1136C38.3369 41.641 38.31 41.176 38.187 40.7226C37.9334 39.8082 37.5838 38.9129 37.799 37.814C36.312 38.5632 35.9354 40.0886 34.9364 41.0723C34.7404 40.9647 34.8865 40.6842 34.6329 40.6112C34.4523 40.8994 34.5176 41.3144 34.1679 41.6448C33.703 40.6919 32.7847 40.2423 32.0546 39.5815C31.8356 39.3817 31.6281 39.155 31.4629 38.909C31.2823 38.6362 31.1517 38.544 30.9327 39.0704C30.6675 37.3068 29.7223 35.9197 29.6109 34.2905C29.5609 33.5374 29.4803 32.7997 29.2228 32.0889C29.096 31.7469 29.315 31.4318 29.3266 31.0937C29.3381 30.721 29.242 30.5442 28.8232 30.5711C27.7128 30.648 26.7945 30.1369 25.9107 29.5529C25.8646 29.5222 25.7954 29.4876 25.7839 29.4453C25.6072 28.5808 24.7772 28.1197 24.489 27.3205C24.3315 26.8748 24.2085 26.4291 24.2431 25.9488C24.2623 25.7106 24.3815 25.5799 24.6043 25.6606C25.8492 26.1025 27.1864 26.1025 28.4505 26.456C28.6465 26.5098 28.8232 26.6289 29.0115 26.7172C29.1498 26.7826 29.3189 26.8633 29.4226 26.7172C29.5187 26.5789 29.3919 26.4368 29.2997 26.3215C29.0307 25.9949 28.6811 25.7836 28.3122 25.5914C27.3093 25.0766 26.245 24.7115 25.1768 24.3696C23.0558 23.6933 21.4689 22.4561 20.6928 20.3005C20.3086 19.2323 19.7015 18.3217 18.9292 17.4649C17.6689 16.0701 17.3038 14.3449 17.496 12.4928C17.5267 12.2162 17.5421 12.22 17.8072 11.855C17.884 12.4006 17.9417 12.8963 18.03 13.3881C18.1799 14.2411 18.4565 15.0557 18.8946 15.8088C19.0252 16.0317 19.1904 16.243 19.3595 16.4389C19.4632 16.5581 19.5862 16.7617 19.7629 16.681C19.9397 16.6003 19.8513 16.3813 19.8283 16.2276C19.736 15.5206 19.5324 14.8367 19.348 14.1489C18.9676 12.7157 18.9829 11.294 19.5286 9.89926C19.6899 9.48428 19.8821 9.07699 20.3278 8.80034C20.42 9.06547 20.274 9.26143 20.224 9.45354C19.9243 10.6101 19.7937 11.7782 20.055 12.9578C20.2932 14.0413 20.9118 14.2988 21.857 13.7147C22.8484 13.1038 23.5707 12.2124 24.27 11.3017C24.3891 11.1442 24.4737 10.9482 24.7042 10.8291C24.8925 11.3978 24.7119 11.8281 24.3507 12.2239C23.6053 13.0423 22.8676 13.8646 22.222 14.7675C21.2384 16.1508 20.908 17.6493 21.4305 19.2938C21.4958 19.4975 21.5189 19.7357 21.8032 19.9163C21.9761 18.4946 21.93 17.0422 22.9137 15.755C23.0174 16.3275 22.8484 16.7655 22.8022 17.2074C22.6793 18.437 22.4487 19.6665 22.7485 20.8961C23.0482 22.1295 23.8896 22.848 25.1615 23.286C24.5736 21.6184 24.4621 19.9816 24.416 18.3371C24.416 18.2986 24.3968 18.2641 24.3968 18.2256C24.4084 18.0451 24.3046 17.7684 24.4929 17.7146C24.7426 17.6416 24.7887 17.949 24.8541 18.1219C25.1192 18.8289 25.1615 19.5858 25.3382 20.312C25.7032 21.8182 26.4448 23.0478 27.8857 23.7586C28.0471 23.8393 28.2008 23.97 28.4505 23.8931C28.1162 21.9258 28.4159 19.947 28.3007 17.9106C28.7848 18.0719 28.8386 18.46 28.9231 18.802C29.169 19.7703 29.1344 20.7731 29.2651 21.7568C29.438 23.0785 29.9029 24.2543 30.9135 25.1726C31.1478 25.384 31.3938 25.5069 31.7127 25.5223C32.1046 25.5415 32.5273 25.5146 32.8807 25.6568C34.3139 26.2331 35.678 25.4646 37.0766 25.4839C37.2956 25.4877 37.4378 25.3033 37.5915 25.1688C38.8172 24.0814 39.2014 22.6405 39.3167 21.0882C39.3705 20.3389 39.4051 19.5897 39.5703 18.8558C39.6625 18.5138 39.724 18.1257 40.2196 17.899ZM39.7547 29.6759C39.7739 29.4761 39.4704 29.4991 39.4896 29.2609C40.1543 28.9727 40.7806 28.5577 41.0919 27.8776C41.4838 27.0208 42.233 26.9824 43.0246 26.8287C42.7133 27.6356 42.1524 28.1543 41.5222 28.6307C42.0947 28.4732 42.6365 28.2811 43.0284 27.8277C43.3973 27.405 43.77 26.9747 43.7316 26.3445C43.72 26.1371 43.6778 26.0179 43.4395 26.0717C42.0832 26.3945 40.6577 26.5367 39.6318 27.6778C39.3974 27.9391 39.1054 28.2042 38.6673 28.2235C38.7134 27.5587 38.5905 26.9593 38.1832 26.456C38.0141 26.2446 37.822 26.1447 37.4993 26.1025C36.5156 25.968 35.6011 26.1832 34.679 26.4368C34.1257 26.5905 33.5762 26.4637 33.2035 26.1178C32.9922 25.9219 32.8231 25.8566 32.5926 25.8412C32.2544 25.8143 31.9202 25.8642 31.5897 25.9296C30.4255 26.1563 29.9029 26.7518 29.8453 27.9237C29.8376 28.0429 29.9068 28.1927 29.7415 28.2657C29.4457 28.162 29.2267 27.9506 29.0192 27.7393C28.6349 27.3436 28.1546 27.0976 27.682 26.8248C26.8252 26.3253 25.83 26.4022 24.9309 26.0909C24.6696 25.9987 24.6235 26.1447 24.6389 26.3907C24.6888 27.2091 25.269 27.6855 25.7993 28.1735C26.1105 28.4578 26.4948 28.673 26.9558 28.7114C26.2911 28.2311 25.7301 27.6855 25.4074 26.7595C25.9991 27.0554 26.6715 26.8594 27.0019 27.4089C27.4899 28.2196 28.0778 28.892 28.9654 29.2647C28.6157 29.7412 28.6157 29.7412 29.1806 29.8257C29.315 29.8449 29.5033 29.7873 29.5148 30.0217C29.5379 30.502 29.7492 30.9669 29.561 31.4626C29.461 31.7277 29.4841 32.0159 29.6032 32.2887C29.8184 32.7766 29.8722 33.2915 29.8952 33.8218C29.926 34.5787 30.0182 35.3357 30.6214 35.9197C30.1796 34.9361 30.1335 33.9255 30.291 32.8458C30.9711 33.1955 31.778 33.2992 31.9317 34.1983C31.9432 34.2675 32.0124 34.3597 32.0892 34.3097C32.5004 34.0293 32.3159 34.4481 32.3044 34.5172C32.2083 35.0129 32.0815 35.5009 31.9701 35.9965C31.8894 36.3539 31.8433 36.742 32.1622 36.984C32.5157 37.253 32.9576 37.1569 33.3572 37.0609C33.6415 36.9956 33.6262 36.7304 33.5954 36.4999C33.5493 36.1694 33.3495 36.4077 33.2189 36.4115C32.923 36.4269 32.6925 36.3769 32.7002 36.0004C32.7078 35.6584 32.7539 35.2742 33.1728 35.3241C33.8452 35.401 34.4984 35.4202 35.1746 35.3203C35.5781 35.2626 35.6934 35.6315 35.6934 35.9735C35.6934 36.3424 35.4551 36.4423 35.1208 36.4038C35.0094 36.3885 34.825 36.181 34.7942 36.4807C34.775 36.6766 34.7059 36.9341 34.9403 37.034C35.3168 37.1954 35.7126 37.1685 36.0853 36.9879C36.4042 36.838 36.481 36.546 36.4426 36.2309C36.408 35.9351 36.3504 35.6392 36.2812 35.3472C36.189 34.9553 36.0046 34.5749 36.1237 34.1099C36.2543 34.1561 36.4311 34.548 36.5002 34.1522C36.6155 33.4798 37.1227 33.2992 37.6376 33.0456C38.1563 32.792 38.1794 32.9611 38.1947 33.4298C38.2293 34.2828 38.1256 35.1051 37.8105 35.9082C38.3215 35.3779 38.4906 34.7478 38.4752 34.0523C38.4637 33.5451 38.456 33.0264 38.6827 32.5615C38.9094 32.0965 38.967 31.6393 38.8249 31.1475C38.7019 30.7171 38.9478 30.3406 39.0362 29.9487C39.0977 29.6643 39.4781 29.891 39.6779 29.7527C39.7009 29.7335 39.724 29.7028 39.7547 29.6759ZM28.8655 23.5704C28.8347 23.5819 28.804 23.5973 28.7733 23.6088C28.8078 23.7894 28.8194 23.9777 28.8847 24.1467C29.0499 24.5809 28.9193 24.604 28.5158 24.5117C27.4169 24.2581 26.4871 23.7663 25.8147 22.8403C25.7455 22.7481 25.6994 22.5982 25.5111 22.6251C25.5956 23.0939 25.9722 23.4128 26.1835 23.897C25.2921 23.6933 24.5121 23.4128 23.7244 23.1016C23.7551 23.2053 23.8243 23.2361 23.8781 23.286C24.5236 23.8893 25.392 23.9892 26.172 24.2735C27.4707 24.7461 28.8155 25.1035 29.8414 26.114C30.1027 26.3714 30.2065 26.0525 30.3294 25.9526C30.5523 25.7643 30.2872 25.7144 30.1834 25.6529C29.8799 25.4723 29.6839 25.2034 29.5302 24.8998C29.3074 24.4618 29.0883 24.0161 28.8655 23.5704ZM44.7767 23.0747C44.0121 23.4359 43.2282 23.7125 42.3637 23.8816C42.552 23.4167 42.9785 23.1285 42.9938 22.4561C42.2177 23.651 41.2225 24.2581 40.0006 24.5233C39.651 24.6001 39.4858 24.6155 39.6433 24.1813C39.7125 23.993 39.8469 23.7817 39.7125 23.5512C39.5242 23.6933 39.5242 23.9239 39.4243 24.0968C39.1207 24.627 38.9594 25.2456 38.4176 25.626C38.3138 25.699 37.9565 25.7106 38.2447 25.9949C38.4214 26.164 38.5559 26.2715 38.7941 26.041C39.4358 25.4224 40.212 25.0189 41.0573 24.7346C41.9948 24.4195 42.9285 24.0852 43.866 23.7663C44.2503 23.6395 44.5615 23.4359 44.7767 23.0747ZM36.0661 37.6103C34.8365 37.3836 33.6876 37.4336 32.5388 37.5335C32.1853 37.5642 32.3313 37.7563 32.3928 37.9177C32.8001 38.9744 34.4792 39.4393 35.3821 38.7438C35.4974 38.6554 35.628 38.5632 35.6165 38.3481C35.0209 38.4556 34.4138 38.5824 33.7722 38.1713C34.6329 38.2097 35.409 38.2751 36.0661 37.6103Z" fill="white"/>
<path d="M12.4431 22.9596C12.8312 31.8585 16.8541 38.4789 24.8347 42.6133C25.0038 42.7016 25.3227 42.7132 25.2766 42.9552C25.2189 43.2549 25.0729 43.5738 24.8731 43.8044C24.7233 43.9773 24.4927 43.7506 24.3198 43.6661C21.0039 42.0638 18.2105 39.8083 15.9858 36.8689C12.5661 32.3542 11.0291 27.2438 11.325 21.6071C11.8821 10.9753 19.9856 1.97266 30.4484 0.305076C40.5499 -1.30487 50.1481 3.55187 54.8051 12.6352C60.5955 23.9356 55.7234 38.2176 44.2271 43.6584C43.7122 43.9004 43.2127 43.5508 43.2473 42.9629C43.2626 42.6901 43.5316 42.6939 43.6968 42.6133C45.9792 41.5067 48.0272 40.0658 49.7908 38.2445C53.5333 34.3829 55.6619 29.7759 56.0039 24.3928C56.7032 13.3998 49.299 3.75935 38.5135 1.55768C26.7021 -0.851475 14.9983 7.08299 12.8312 18.9636C12.5891 20.2776 12.4585 21.5994 12.4431 22.9596Z" fill="white"/>
<path d="M33.6812 55.139C34.0808 54.4513 34.4997 53.775 34.8762 53.0719C35.0722 52.6991 35.2835 52.6146 35.6716 52.7875C36.1327 52.995 36.613 53.1564 37.0932 53.3062C37.3968 53.3985 37.5197 53.5099 37.4122 53.8595C37.27 54.3245 37.27 54.8124 37.3392 55.3696C37.6427 55.1928 37.7042 54.9085 37.8271 54.6818C38.1461 54.1093 38.4496 53.5291 38.7455 52.9451C38.8684 52.6991 38.9991 52.6223 39.2719 52.7376C39.7906 52.9527 40.3208 53.1372 40.8549 53.3101C41.1508 53.4061 41.2468 53.5291 41.1085 53.8365C40.9125 54.2707 40.8933 54.7394 40.8972 55.212C40.9202 57.0295 40.9433 58.8469 40.9433 60.6644C40.9433 61.0217 41.0355 61.2407 41.3967 61.3022C41.681 61.3521 41.6541 61.5097 41.5427 61.7018C41.5043 61.7671 41.4812 61.8401 41.4389 61.9016C41.2315 62.2051 41.17 62.8084 40.8664 62.8007C40.2709 62.7892 39.6753 62.5317 39.0836 62.3627C38.9491 62.3243 38.9683 62.1859 38.9914 62.0707C39.268 60.5837 39.0874 59.0813 39.1297 57.5828C39.1527 56.7221 39.1259 55.8576 39.1374 54.9969C39.1412 54.7164 39.0605 54.5435 38.7839 54.4474C38.4765 54.3398 38.3843 54.5396 38.2728 54.7394C38.2536 54.7702 38.2383 54.8048 38.2152 54.8355C37.4621 55.8307 37.1355 56.9219 37.2777 58.186C37.3699 59.0198 37.3007 59.8728 37.293 60.7143C37.2892 61.0025 37.3315 61.2407 37.6619 61.306C37.904 61.3521 37.9155 61.4866 37.8118 61.6672C37.7926 61.6979 37.7733 61.7325 37.7541 61.7633C37.1855 62.9198 36.7397 63.0581 35.5563 62.4664C35.418 62.3973 35.3565 62.3319 35.3834 62.1706C35.6447 60.5299 35.4526 58.8777 35.5025 57.2331C35.5256 56.5223 35.4756 55.8076 35.5179 55.0968C35.5448 54.6434 35.2374 54.5934 34.9531 54.4666C34.6226 54.3168 34.5458 54.5781 34.3998 54.774C33.735 55.6616 33.4276 56.6222 33.5275 57.7557C33.6121 58.7432 33.5506 59.7422 33.5583 60.7335C33.5583 60.8987 33.4891 61.1523 33.6351 61.21C34.3344 61.4828 33.8465 61.8324 33.7197 62.1552C33.6659 62.2935 33.5736 62.4165 33.516 62.5548C33.3969 62.8276 33.2278 62.8891 32.9358 62.7853C32.5324 62.6393 32.0329 62.6547 31.7139 62.4165C31.3143 62.1206 31.7255 61.6403 31.7216 61.2369C31.6871 59.1389 31.6986 57.0372 31.7139 54.9392C31.7178 54.5896 31.6179 54.3667 31.2874 54.2515C30.9493 54.1362 31.0031 53.9518 31.1683 53.6982C31.883 52.5916 32.3057 52.507 33.4776 53.2256C33.7081 53.3677 33.6428 53.5137 33.6005 53.6982C33.4968 54.1631 33.516 54.6357 33.6812 55.139Z" fill="white"/>
<path d="M3.87503 62.7512C3.87503 62.194 3.87887 61.6369 3.87503 61.0797C3.86734 59.6926 3.84429 58.3056 3.85966 56.9185C3.8635 56.4766 3.7636 56.2806 3.27178 56.2922C2.26124 56.3152 2.2574 56.2883 1.67336 57.6331C1.67336 56.7686 1.62725 55.9002 1.69257 55.0396C1.72331 54.6092 2.12291 54.7283 2.32272 54.9089C2.72616 55.2739 3.17188 55.0434 3.59454 55.0703C3.72902 55.078 3.7636 54.9435 3.76744 54.8244C3.77129 54.6937 3.77129 54.5631 3.77513 54.4325C3.78665 53.6947 3.5369 52.8648 4.70882 52.4806C4.17857 52.3499 3.88656 52.5036 3.59454 52.5574C2.97976 52.6727 2.36114 52.6342 1.74636 52.615C1.30449 52.5997 1.04321 52.7188 0.935626 53.1722C0.858779 53.4911 0.720454 53.7946 0.505282 54.0828C0.505282 53.0454 0.493755 52.0041 0.509125 50.9667C0.51681 50.5824 0.870306 50.5709 1.00863 50.7476C1.2507 51.0512 1.52735 50.9936 1.81168 50.9936C3.25641 50.9974 4.69729 50.9936 6.14202 51.0012C6.34566 51.0012 6.62231 50.8898 6.71837 51.1972C6.79906 51.4546 6.58389 51.5469 6.42251 51.6775C6.02675 51.9887 5.98064 52.4306 5.98064 52.8955C5.98448 56.1577 5.97295 59.4198 5.99601 62.682C5.99985 63.1162 5.88842 63.339 5.46961 63.4351C4.57818 63.6349 3.90961 64.2266 3.22183 64.7761C2.91444 65.022 2.74538 64.9913 2.51099 64.68C1.83858 63.7771 1.13159 62.9049 0.443805 62.0134C-0.186342 61.1989 -0.136391 59.7042 0.536021 58.928C0.609026 58.8435 0.670504 58.7359 0.804986 58.7628C0.966365 58.7974 0.916415 58.9319 0.912572 59.0356C0.904888 59.1893 0.920257 59.3353 1.02016 59.4583C1.91927 60.5802 2.81454 61.7022 3.71365 62.828C3.7636 62.7973 3.82124 62.7742 3.87503 62.7512Z" fill="white"/>
<path d="M34.4451 2.28025C24.2283 2.28025 15.6637 9.45777 13.8846 19.3403C12.2516 28.4236 16.9624 37.5992 25.3157 41.5991C25.4156 41.649 25.5193 41.699 25.6192 41.7451C25.7345 41.7989 25.7998 41.8719 25.7268 42.0064C25.6653 42.1293 25.5769 42.1677 25.454 42.1063C25.1312 41.9526 24.8046 41.8104 24.4934 41.6375C18.1804 38.1563 14.3918 32.8654 13.3698 25.7263C11.8059 14.7871 19.2447 4.43965 30.1301 2.26103C41.7033 -0.0520654 52.9038 7.57885 55.0286 19.2327C56.7154 28.4813 51.924 37.8682 43.4324 41.941C43.3132 41.9987 43.198 42.0563 43.075 42.1063C42.9598 42.1524 42.8598 42.1524 42.8022 42.0064C42.7484 41.8757 42.7907 41.795 42.9098 41.7374C43.2633 41.5607 43.6206 41.3954 43.9626 41.2072C50.0873 37.7759 53.8106 32.6233 54.7443 25.6495C56.1928 14.8294 49.0883 4.90842 38.4219 2.67217C37.0464 2.38783 35.6477 2.24182 34.4451 2.28025Z" fill="white"/>
<path d="M15.8286 62.6933C15.3675 62.5627 14.9064 62.4167 14.4376 62.3091C14.1302 62.2361 14.015 62.1439 14.0918 61.7827C14.3224 60.7107 14.1802 59.6156 14.1994 58.532C14.2186 57.5215 14.2033 56.5071 14.2033 55.4966C14.2033 55.4044 14.1879 55.3083 14.2033 55.2161C14.2609 54.8933 13.8421 54.559 14.1456 54.2824C14.3685 54.0788 14.7028 53.9827 15.0025 53.8789C15.4635 53.7214 15.7133 53.341 15.9861 52.9914C16.1821 52.7416 16.355 52.6379 16.6931 52.7647C17.5499 53.0874 18.4222 53.3718 19.2944 53.6522C19.5672 53.7406 19.6402 53.829 19.5403 54.1287C19.4481 54.4053 19.4596 54.7204 19.4596 55.0163C19.4558 57.6214 19.4442 60.2265 19.4673 62.8278C19.4711 63.2927 19.3635 63.5963 18.8679 63.6424C18.2569 63.7 17.9419 64.1726 17.5807 64.5645C17.3425 64.822 17.1388 64.8835 16.8122 64.7259C16.305 64.4838 15.7748 64.3109 15.1946 64.3186C14.8103 64.3225 14.4953 64.4147 14.2724 64.7451C14.1687 64.895 14.0649 65.1101 13.8382 64.9334C13.6038 64.7528 13.8382 64.5876 13.9228 64.4569C14.3915 63.7154 14.9602 63.0852 15.8286 62.6933ZM15.9707 57.6867C15.9707 58.6588 15.9784 59.6309 15.9669 60.6031C15.963 60.872 16.0591 61.0104 16.3165 61.0872C16.6009 61.1717 16.7008 61.0219 16.8391 60.8144C17.4769 59.8538 17.8496 58.8394 17.7075 57.656C17.6268 56.9913 17.7805 56.3112 17.5653 55.6503C17.5461 55.5888 17.5423 55.4812 17.5807 55.4428C18.0802 54.951 17.5922 54.9125 17.2887 54.7973C17.062 54.7127 16.8314 54.6359 16.6009 54.559C15.9823 54.3554 15.9784 54.3554 15.9746 54.9894C15.9669 55.8885 15.9707 56.7876 15.9707 57.6867ZM17.6883 60.5262C17.6345 60.507 17.5807 60.4878 17.523 60.4647C17.2541 60.9297 16.9813 61.3907 16.7162 61.8557C16.1552 62.8393 16.2128 62.9315 17.3655 63.0622C17.5961 63.0891 17.6883 63.0276 17.6883 62.8163C17.6921 62.0516 17.6883 61.287 17.6883 60.5262Z" fill="white"/>
<path d="M8.49879 55.7771C8.17988 55.4466 7.77259 55.2661 7.52284 54.9087C7.34609 54.6551 7.33456 54.4822 7.65732 54.3516C8.43347 54.0365 9.1251 53.6138 9.58618 52.8838C9.71682 52.6763 9.90125 52.7263 10.0818 52.7954C10.908 53.099 11.7302 53.4064 12.5563 53.7099C12.7677 53.7867 12.9367 53.879 12.7715 54.1518C12.6101 54.4207 12.6178 54.7243 12.6178 55.024C12.6255 56.8991 12.6332 58.7703 12.6255 60.6454C12.6255 60.9873 12.6716 61.2332 13.0635 61.287C13.3094 61.3216 13.3478 61.4253 13.2287 61.6674C12.5832 62.9469 12.5832 62.9354 11.2 62.5742C10.7812 62.4666 10.7081 62.2668 10.7581 61.9018C10.7965 61.6136 10.9041 61.3216 10.7888 60.9566C10.3278 61.3447 10.128 61.8518 9.89741 62.3168C9.67071 62.774 9.42096 62.9661 8.8984 62.7855C8.445 62.628 7.83407 62.7049 7.51131 62.4244C7.16165 62.117 7.49978 61.5176 7.46904 61.0411C7.37298 59.5311 7.60353 58.0095 7.32303 56.5033C7.28077 56.2728 7.44599 56.2612 7.56894 56.2036C7.86865 56.0614 8.20678 56.0076 8.49879 55.7771ZM9.24421 58.6204C9.24421 59.239 9.26342 59.8577 9.23653 60.4763C9.22116 60.8375 9.34795 60.9989 9.68992 61.1141C10.0511 61.2371 10.1356 61.0142 10.2855 60.7991C10.712 60.1958 10.8926 59.5426 10.8388 58.7933C10.7888 58.0863 10.8273 57.3717 10.8273 56.657C10.8273 55.5389 10.8388 55.5696 9.81672 56.0076C9.35948 56.2036 9.1981 56.4572 9.23268 56.9336C9.27495 57.4946 9.24421 58.0594 9.24421 58.6204Z" fill="white"/>
<path d="M29.4812 36.9573C29.8847 37.5759 29.9961 38.1561 30.0845 38.7478C30.2689 39.9927 30.5571 40.5422 31.3294 41.107C31.5292 41.034 31.3025 40.7804 31.5138 40.6805C31.9019 41.107 32.3053 41.522 32.6704 41.9677C33.289 42.7246 33.3505 43.6084 33.1699 44.5267C33.1045 44.8572 32.9854 45.1761 32.924 45.5065C32.9124 45.568 32.6588 45.9791 33.1238 45.7563C33.2429 45.6986 33.2237 45.8754 33.2198 45.9522C33.1968 46.5286 33.3927 47.055 33.6386 47.6198C32.2477 47.4661 31.0758 46.9935 30.2574 45.8754C29.9999 45.983 30.1997 46.2097 30.0768 46.3288C27.5447 45.1146 26.5918 42.9552 27.7368 40.6498C28.0365 40.0465 28.3977 39.474 28.7319 38.89C29.0547 38.3136 29.3659 37.7373 29.4812 36.9573ZM28.6974 41.5412C28.3131 42.717 28.828 43.9849 29.7386 44.2424C29.9884 43.6468 29.4351 43.3663 29.2122 42.9398C29.1162 42.7592 29.0509 42.5633 28.9548 42.3827C28.8165 42.1252 28.9317 41.7833 28.6974 41.5412Z" fill="white"/>
<path d="M51.4858 58.7669C51.4858 56.9494 51.4858 55.1282 51.4858 53.3107C51.4858 53.1801 51.4935 53.0456 51.4782 52.9188C51.3859 52.0504 51.3783 52.0197 52.2044 51.8084C52.7538 51.67 53.0305 51.2474 53.3648 50.8862C53.5991 50.6326 53.7951 50.5634 54.0756 50.794C54.2331 50.9246 54.4252 51.013 54.5943 51.1283C54.9363 51.355 55.2706 51.4587 55.5972 51.0975C55.7124 50.9707 55.8469 50.9362 55.9852 51.0706C56.1313 51.2166 55.9814 51.3089 55.9122 51.4049C55.7086 51.6969 55.5049 51.9928 55.2744 52.2618C54.8863 52.7113 54.3791 52.8035 53.8489 52.5922C53.4416 52.427 53.3225 52.5154 53.3302 52.9457C53.3686 55.3818 53.2034 57.8178 53.3263 60.2539C53.3801 61.3182 53.3302 62.3902 53.3379 63.4584C53.3417 63.7619 53.2687 63.9348 52.9344 64.0155C52.604 64.0924 52.2966 64.2845 52.2389 64.6687C52.189 65.0184 51.9585 65.0107 51.7049 64.9915C51.3975 64.9646 51.4974 64.7225 51.4974 64.5612C51.4897 62.6284 51.4935 60.6996 51.4935 58.7669C51.4935 58.7669 51.4897 58.7669 51.4858 58.7669Z" fill="white"/>
<path d="M59.0629 57.8213C59.0091 56.8261 59.1705 55.6235 58.9361 54.4362C58.8939 54.2172 59.0053 54.1096 59.2013 54.0981C60.0235 54.0481 60.4808 53.4718 60.9303 52.8954C61.134 52.6303 61.2838 52.5688 61.5374 52.8493C62.1022 53.4718 62.6901 54.075 63.2818 54.6783C63.4509 54.8512 63.4778 54.9588 63.3395 55.1931C62.548 56.5495 61.791 57.9289 61.0187 59.2968C60.7882 59.7041 60.9342 60.1382 60.9265 60.5609C60.9226 60.73 61.084 60.7415 61.2108 60.7761C61.5912 60.876 61.9678 60.9797 62.3482 61.0796C62.5979 61.1449 62.8246 61.1718 62.9207 60.8376C62.9821 60.6185 63.1474 60.6301 63.3241 60.7108C63.5931 60.8299 63.4086 60.9759 63.3549 61.118C63.3433 61.1526 63.3164 61.1834 63.2972 61.2141C62.9937 61.729 62.8054 62.4398 62.3558 62.7011C61.8871 62.9739 61.2262 62.5167 60.6421 62.4014C60.1119 62.2976 59.4741 62.2746 59.1014 61.9595C58.6749 61.6022 59.1283 60.9682 59.0822 60.4418C59.013 59.6387 59.0629 58.828 59.0629 57.8213ZM60.9073 58.39C60.9534 58.4053 60.9995 58.4207 61.0494 58.4361C61.4068 57.7675 61.7641 57.0989 62.1215 56.4304C62.1676 56.342 62.206 56.2459 62.1368 56.1691C61.7641 55.7272 61.3837 55.293 60.9073 54.7397C60.9073 56.0846 60.9073 57.2373 60.9073 58.39Z" fill="white"/>
<path d="M28.0831 54.8282C28.4289 54.2096 28.7786 53.5948 29.1244 52.9762C29.2281 52.7917 29.328 52.6188 29.5931 52.6573C29.8506 52.6957 29.8352 52.9108 29.8813 53.0838C30.0773 53.8061 30.2886 54.5246 30.4538 55.2547C30.6921 56.3113 30.2848 57.1605 29.5432 57.8867C29.4279 57.9981 29.3203 58.0865 29.159 57.9443C29.0129 57.8137 28.9476 57.6907 29.0975 57.5178C29.4087 57.1567 29.3472 56.7609 29.2166 56.3536C29.0552 55.8579 28.963 55.3392 28.6825 54.7744C28.3367 55.3431 27.9256 55.7773 27.9371 56.4535C27.9601 57.8022 27.9678 59.1547 27.9332 60.5033C27.9179 61.0336 28.2675 61.0413 28.6018 61.1373C28.8977 61.2257 29.1705 61.3679 29.2742 60.8876C29.3357 60.5956 29.5816 60.7531 29.7315 60.8107C29.9543 60.8991 29.8314 61.049 29.7507 61.1758C29.4587 61.656 29.1551 62.1287 28.8708 62.6128C28.7478 62.8203 28.6095 62.901 28.3674 62.8318C27.7219 62.6474 27.0687 62.4745 26.4155 62.3016C26.1888 62.2439 26.0966 62.1748 26.1312 61.8828C26.3694 59.8847 26.2311 57.879 26.2311 55.8733C26.2311 55.5544 26.1888 55.2355 26.208 54.9204C26.2272 54.5631 26.1658 54.2941 25.7585 54.2173C25.5049 54.1673 25.5202 54.029 25.6586 53.8599C25.7277 53.7715 25.793 53.6793 25.8545 53.5871C26.5923 52.5343 26.6115 52.5381 27.7949 53.0953C28.0101 53.199 28.0716 53.3028 28.0024 53.5256C27.8718 53.9406 27.9217 54.3633 28.0831 54.8282Z" fill="white"/>
<path d="M66.7308 54.6899C66.2851 55.3277 65.9316 55.8733 65.9662 56.638C66.02 57.8714 65.9969 59.1124 65.97 60.3458C65.9624 60.7416 66.093 60.9491 66.4734 60.9914C66.7731 61.0221 67.142 61.4063 67.3187 60.8031C67.3994 60.5303 67.6184 60.6494 67.7836 60.7301C68.0065 60.8377 67.8566 60.9721 67.7913 61.0951C67.7836 61.1105 67.7721 61.1297 67.7644 61.145C67.3917 61.6753 67.2188 62.5706 66.6578 62.6897C65.9163 62.851 65.117 62.3554 64.337 62.1748C64.1411 62.1287 64.1603 61.998 64.1795 61.829C64.4216 59.4544 64.2333 57.076 64.2948 54.6976C64.3025 54.3671 64.1526 54.225 63.8606 54.152C63.5916 54.0866 63.5263 53.9445 63.7338 53.7255C63.7991 53.6563 63.8452 53.5756 63.899 53.4988C64.6137 52.469 64.6098 52.4767 65.7818 52.9762C66.0392 53.0876 66.1353 53.2029 66.0392 53.4795C65.9047 53.8753 65.9777 54.2749 66.1391 54.7168C66.4657 54.1443 66.7846 53.5641 67.1189 52.9954C67.2342 52.7956 67.2841 52.5113 67.6184 52.5458C67.9719 52.5843 67.9066 52.907 67.9681 53.1107C68.164 53.7562 68.3254 54.4094 68.4868 55.0626C68.7481 56.1346 68.3792 57.0107 67.6299 57.7638C67.5147 57.8829 67.4032 58.0289 67.215 57.8445C67.0805 57.7138 66.9921 57.5947 67.1458 57.4218C67.4647 57.0645 67.3956 56.6687 67.2649 56.2576C67.1074 55.7619 67.0036 55.247 66.7308 54.6899Z" fill="white"/>
<path d="M45.6337 62.8318C44.6346 62.5782 43.6587 62.3207 42.675 62.0902C42.3753 62.021 42.4253 61.8673 42.4445 61.6406C42.6597 59.2891 42.6443 56.9337 42.4368 54.5822C42.4138 54.3248 42.4368 54.1595 42.6904 54.1403C43.5204 54.0904 43.9699 53.5102 44.4195 52.9338C44.6308 52.661 44.7845 52.638 45.0266 52.9069C45.5914 53.5332 46.1754 54.1365 46.7671 54.7359C46.9477 54.9203 46.9324 55.0433 46.8056 55.2585C46.0294 56.6033 45.284 57.9635 44.5117 59.3122C44.2773 59.7233 44.3926 60.1498 44.381 60.5724C44.3772 60.7108 44.4848 60.7646 44.5962 60.7915C45.0842 60.9221 45.5722 61.0489 46.0602 61.1757C46.3061 61.2372 46.3445 61.0297 46.3906 60.8875C46.4751 60.6416 46.6288 60.7031 46.794 60.7569C47.0207 60.8337 46.9362 60.9759 46.8594 61.1104C46.575 61.6176 46.2907 62.1209 46.0102 62.6281C45.9257 62.801 45.8142 62.9086 45.6337 62.8318ZM44.3964 54.7897C44.3964 56.1384 44.3964 57.3141 44.3964 58.4937C44.8806 57.8367 45.2533 57.1412 45.6183 56.4419C45.6874 56.3074 45.6183 56.1922 45.5261 56.0884C45.1841 55.6927 44.846 55.3007 44.3964 54.7897Z" fill="white"/>
<path d="M23.9697 62.8622C22.9899 62.6163 22.0139 62.3627 21.0303 62.1206C20.7805 62.0591 20.7959 61.9285 20.8189 61.7095C21.0648 59.358 21.0111 56.9988 20.8343 54.6472C20.8189 54.4244 20.7421 54.2246 21.0495 54.2015C21.891 54.1439 22.3636 53.5599 22.8208 52.9643C23.0398 52.6761 23.1781 52.6915 23.4164 52.9605C23.9505 53.5599 24.5191 54.1324 25.0916 54.701C25.3145 54.9239 25.326 55.0699 25.1531 55.3619C24.3654 56.7029 23.6277 58.0669 22.8708 59.4233C22.6517 59.8114 22.7824 60.2302 22.7785 60.6336C22.7747 60.7566 22.8823 60.8257 22.9975 60.8565C23.4509 60.9718 23.9043 61.087 24.3577 61.2061C24.5844 61.2676 24.7151 61.1639 24.7804 60.9564C24.8496 60.7412 24.9994 60.722 25.18 60.7989C25.4298 60.9064 25.2991 61.0678 25.2223 61.21C24.961 61.6864 24.6882 62.1552 24.4269 62.6317C24.3232 62.8276 24.1887 62.916 23.9697 62.8622ZM22.7709 58.5626C22.8093 58.5703 22.8515 58.578 22.89 58.5857C23.2435 57.9286 23.597 57.2716 23.9505 56.6145C24.0158 56.4954 24.0888 56.3648 23.9927 56.2495C23.6239 55.8038 23.2396 55.3658 22.7709 54.8202C22.7709 56.188 22.7709 57.3753 22.7709 58.5626Z" fill="white"/>
<path d="M54.5179 54.0022C55.5285 53.0416 56.2355 52.1118 56.8772 51.082C57.0308 51.3356 56.9732 51.5239 56.977 51.7007C56.9847 52.5767 56.9809 52.5767 57.8838 52.5767C58.0145 52.5767 58.1451 52.5806 58.2758 52.5767C58.6177 52.5652 58.7215 52.6843 58.5486 53.0109C58.2719 53.5219 58.1259 54.1482 57.2998 53.9945C56.9194 53.9254 56.9847 54.2789 56.9847 54.5056C56.9809 56.0617 56.9809 57.6179 56.9809 59.174C56.9809 59.5506 56.9886 59.9233 56.9694 60.2998C56.9463 60.7686 56.9156 61.2105 57.5726 61.2566C57.7455 61.2681 57.8301 61.4026 57.7148 61.5832C57.6956 61.6139 57.6764 61.6485 57.6571 61.6793C57.392 62.0558 57.2883 62.7474 56.8887 62.782C56.3315 62.832 55.7398 62.5207 55.1635 62.3593C55.0136 62.3171 54.9752 62.198 55.0136 62.0481C55.394 60.5688 55.1442 59.0626 55.198 57.5718C55.2326 56.5804 55.2057 55.5853 55.2057 54.5901C55.198 54.252 55.2864 53.8562 54.5179 54.0022Z" fill="white"/>
<path d="M50.0759 53.5103C49.7339 55.8388 49.9645 58.175 49.88 60.4996C49.8646 60.9146 49.9491 61.1835 50.4064 61.245C50.7176 61.2873 50.7214 61.4487 50.5793 61.7138C49.953 62.878 49.9606 62.8819 48.6965 62.5476C48.5889 62.5207 48.4775 62.4861 48.3699 62.4707C48.0164 62.4208 47.855 62.3017 47.9857 61.8828C48.0971 61.514 48.1125 61.1067 48.1163 60.7186C48.1278 58.809 48.1125 56.8993 48.1317 54.9897C48.1355 54.6362 48.0471 54.4133 47.6936 54.3326C47.367 54.2596 47.3402 54.1213 47.5092 53.8254C48.2316 52.5728 48.2277 52.5574 49.6033 53.1184C49.7916 53.203 50.1028 53.1799 50.0759 53.5103Z" fill="white"/>
<path d="M33.6767 13.784C33.6767 13.1846 33.6652 12.5852 33.6805 11.9858C33.6882 11.6553 33.5768 11.5055 33.2271 11.5285C32.8736 11.5516 32.5125 11.5016 32.1628 11.5401C31.6787 11.5938 31.6556 11.3249 31.671 10.9675C31.6864 10.6371 31.5865 10.2644 32.1513 10.322C32.5202 10.3605 32.9005 10.3182 33.2733 10.3297C33.5614 10.3374 33.6805 10.2106 33.6767 9.93011C33.669 9.53819 33.6921 9.14243 33.6767 8.7505C33.6613 8.31248 33.9533 8.33553 34.2415 8.34322C34.5259 8.3509 34.8832 8.251 34.8794 8.73898C34.8755 9.07711 34.9063 9.41523 34.8755 9.74952C34.8256 10.2337 35.0369 10.3835 35.4864 10.3336C35.7285 10.3067 35.9783 10.3566 36.2165 10.322C36.7544 10.2452 36.8735 10.4911 36.8697 10.9829C36.8659 11.4325 36.716 11.5439 36.2818 11.5401C34.8832 11.5247 34.8832 11.5439 34.8832 12.931C34.8832 13.8301 34.864 14.7292 34.8909 15.6283C34.9024 16.1009 34.645 16.1317 34.2838 16.124C33.938 16.1201 33.6536 16.1201 33.6767 15.636C33.7036 15.0212 33.6805 14.4026 33.6767 13.784C33.6805 13.784 33.6805 13.784 33.6767 13.784Z" fill="white"/>
<path d="M17.5005 33.2723C17.3776 33.0993 17.1778 32.9533 17.2738 32.6997C17.3161 32.5806 17.416 32.4807 17.4967 32.377C19.5216 29.7719 21.5465 27.1667 23.5715 24.5616C23.6521 24.4579 23.7328 24.3541 23.8212 24.2581C23.9211 24.1505 24.021 24.2043 24.1248 24.2658C24.2669 24.3503 24.2208 24.4425 24.1478 24.5424C24.0133 24.723 23.8788 24.9036 23.7444 25.0803C21.7848 27.6893 19.8252 30.2983 17.8656 32.9072C17.7657 33.034 17.7003 33.1992 17.5005 33.2723Z" fill="white"/>
<path d="M44.5955 24.1812C44.7953 24.1774 44.853 24.3119 44.9337 24.4079C47.0239 27.0745 49.1142 29.7411 51.2044 32.4077C51.2275 32.4385 51.2505 32.4654 51.2736 32.4961C51.458 32.7382 51.312 32.9495 51.1506 33.084C50.9277 33.2684 50.8855 32.9687 50.8086 32.8688C49.068 30.5941 47.3428 28.3079 45.6099 26.0294C45.2372 25.5376 44.8645 25.0458 44.4918 24.5501C44.4303 24.4656 44.3227 24.3772 44.4418 24.2658C44.4841 24.2197 44.561 24.2004 44.5955 24.1812Z" fill="white"/>
<path d="M46.1292 38.5979C46.0793 38.8016 45.8987 38.8899 45.7335 38.9514C45.5567 39.0167 45.5413 38.8246 45.4952 38.7132C44.3617 35.939 43.2321 33.1648 42.1024 30.3906C42.0217 30.1947 41.9295 29.9949 42.2254 29.8873C42.4982 29.7874 42.4905 30.041 42.5443 30.1639C43.7124 32.8843 44.8728 35.6047 46.0332 38.3289C46.0716 38.4096 46.0946 38.5019 46.1292 38.5979Z" fill="white"/>
<path d="M22.9596 39.0436C22.6753 39.0705 22.4793 38.7055 22.6138 38.3904C23.0403 37.3722 23.4745 36.3578 23.901 35.3396C24.5849 33.7181 25.2573 32.0966 25.9528 30.479C26.0181 30.3292 25.9874 30.0102 26.3217 30.1294C26.6636 30.2523 26.4907 30.4829 26.4139 30.6788C25.3419 33.3531 24.2698 36.0274 23.1901 38.6978C23.1325 38.8285 23.1171 38.9975 22.9596 39.0436Z" fill="white"/>
<path d="M14.8649 26.2101C14.7151 25.8105 14.7919 25.5723 15.1031 25.3418C16.8591 24.0354 18.592 22.7059 20.3441 21.3918C20.4747 21.2958 20.6208 20.9884 20.8359 21.2689C21.0396 21.5263 20.7514 21.63 20.6092 21.7415C18.8033 23.167 16.9897 24.581 15.18 25.9988C15.0955 26.0641 14.9994 26.1179 14.8649 26.2101Z" fill="white"/>
<path d="M53.7638 25.7914C53.7599 25.803 53.7407 25.9374 53.6639 25.9951C53.5563 26.0796 53.4679 25.949 53.3834 25.8836C51.5506 24.4658 49.7216 23.0441 47.8888 21.6225C47.7389 21.5072 47.5622 21.3842 47.7389 21.1691C47.9195 20.9462 48.0386 21.1844 48.1462 21.2613C49.9445 22.6023 51.7388 23.9509 53.5294 25.2996C53.66 25.3995 53.8368 25.4764 53.7638 25.7914Z" fill="white"/>
<path d="M31.1368 10.6178C30.4644 10.5448 29.7881 10.4756 29.1157 10.3949C26.3991 10.0645 23.6864 9.73406 20.9699 9.39593C20.82 9.37672 20.5818 9.43051 20.6241 9.1577C20.6664 8.90026 20.8815 9.00017 21.0314 9.02322C24.2436 9.46125 27.452 9.90312 30.6642 10.345C30.8409 10.3719 31.0177 10.3949 31.1368 10.6178Z" fill="white"/>
<path d="M37.2968 10.6027C37.4504 10.3722 37.608 10.3722 37.7502 10.353C40.9163 9.90342 44.0824 9.45002 47.2523 9.00815C47.4675 8.97741 47.844 8.81987 47.8863 9.12342C47.9362 9.45002 47.5251 9.35012 47.3291 9.37701C44.0824 9.79583 40.8317 10.1993 37.5849 10.6027C37.5119 10.6104 37.4389 10.6027 37.2968 10.6027Z" fill="white"/>
<path d="M32.2625 24.9075C32.5815 22.606 32.8927 20.3428 33.2039 18.0797C33.2616 17.6724 33.3153 17.2651 33.373 16.854C33.3884 16.7464 33.3845 16.6004 33.5459 16.6273C33.715 16.658 33.6381 16.804 33.6266 16.9001C33.4421 18.4447 33.2539 19.9855 33.0656 21.5263C32.9311 22.6406 32.7928 23.7548 32.6583 24.873C32.6391 25.0305 32.6775 25.2572 32.4316 25.2495C32.1511 25.2495 32.2818 25.0113 32.2625 24.9075Z" fill="white"/>
<path d="M34.9674 16.6504C35.3247 17.2652 35.3401 17.9376 35.4361 18.5908C35.755 20.6849 36.0355 22.7789 36.3314 24.8769C36.3506 25.0267 36.4582 25.2342 36.1739 25.2611C35.9856 25.2803 35.974 25.1382 35.9587 25.0037C35.6205 22.3102 35.2824 19.6167 34.9443 16.9194C34.9366 16.8348 34.9597 16.7426 34.9674 16.6504Z" fill="white"/>
<path d="M35.6095 12.0781C35.9515 11.9935 36.0629 12.1857 36.1974 12.2856C38.5066 14.0108 40.812 15.7437 43.1175 17.4766C43.1636 17.5112 43.2097 17.5419 43.2519 17.5765C43.3749 17.6841 43.5785 17.7917 43.4056 17.9761C43.2519 18.1375 43.1405 17.9223 43.0406 17.8454C41.3807 16.5659 39.7247 15.2788 38.0686 13.9916C37.2732 13.3729 36.4779 12.7543 35.6095 12.0781Z" fill="white"/>
<path d="M32.8615 12.055C32.7962 12.2548 32.6156 12.3317 32.4773 12.4431C30.1988 14.2375 27.9126 16.0242 25.6302 17.8147C25.5726 17.8608 25.5149 17.9146 25.4496 17.9454C25.3497 17.9953 25.2614 18.1798 25.1269 17.9992C24.9847 17.8147 25.1461 17.7379 25.2614 17.6495C25.5418 17.4343 25.8262 17.2192 26.1105 17.004C28.1969 15.4209 30.2872 13.8379 32.3774 12.2587C32.5157 12.1588 32.6271 11.9628 32.8615 12.055Z" fill="white"/>
<path d="M38.8202 22.3409C37.5753 19.2786 36.3841 16.343 35.193 13.4075C36.0422 14.4026 38.9931 21.7492 38.8202 22.3409Z" fill="white"/>
<path d="M33.311 13.5034C32.1276 16.4543 30.9441 19.4014 29.7376 22.4138C29.5724 22.1026 29.557 21.8797 29.6608 21.6338C30.7981 18.9441 31.9316 16.2545 33.0651 13.5648C33.0843 13.5187 33.1342 13.4842 33.1727 13.4419C33.2188 13.4649 33.2649 13.4842 33.311 13.5034Z" fill="white"/>
<path d="M23.0867 15.3941C25.9377 14.2375 28.7772 13.081 31.6859 11.9014C31.6474 12.2049 31.4937 12.2011 31.3862 12.2472C28.8271 13.3384 26.2643 14.4296 23.7053 15.5209C23.4978 15.6092 23.2673 15.7937 23.0867 15.3941Z" fill="white"/>
<path d="M45.6067 15.4016C45.3531 15.6091 45.161 15.6129 44.9227 15.513C42.3061 14.4026 39.6895 13.3037 37.0728 12.2009C37.0075 12.174 36.9575 12.1241 36.8999 12.0818C36.923 12.0319 36.9422 11.9819 36.9652 11.9358C39.8201 13.0808 42.6826 14.2297 45.6067 15.4016Z" fill="white"/>
<path d="M36.8158 9.76144C37.6534 9.40026 38.4872 9.03907 39.3287 8.68174C41.0309 7.95553 42.733 7.22932 44.439 6.5108C44.6465 6.42243 44.8732 6.24184 45.1345 6.59533C42.3718 7.72114 39.6322 8.83158 36.8965 9.94587C36.8657 9.88439 36.8389 9.82291 36.8158 9.76144Z" fill="white"/>
<path d="M31.6823 9.82272C31.4941 9.9303 31.3288 9.83809 31.1598 9.77277C28.6815 8.7776 26.2031 7.78627 23.7287 6.78342C23.6134 6.73731 23.3636 6.73731 23.4328 6.53751C23.4981 6.34539 23.6979 6.39534 23.867 6.4645C26.4452 7.55573 29.0273 8.64312 31.6093 9.73435C31.6362 9.74587 31.6516 9.78814 31.6823 9.82272Z" fill="white"/>
<path d="M32.9302 9.79194C32.6804 9.89953 32.5882 9.78041 32.4883 9.70741C30.5095 8.22042 28.5307 6.73726 26.5595 5.24259C26.4596 5.16574 26.2291 5.11579 26.3367 4.93136C26.4443 4.75077 26.6018 4.87372 26.7171 4.96594C28.7766 6.56052 30.8284 8.15894 32.9302 9.79194Z" fill="white"/>
<path d="M35.6368 9.75731C37.3851 8.38559 39.1334 7.01386 40.8817 5.6383C41.1621 5.41929 41.4388 5.19643 41.7231 4.9851C41.8499 4.88904 42.0152 4.71229 42.1458 4.92362C42.2457 5.08884 42.019 5.16185 41.9152 5.2387C40.2784 6.48362 38.6377 7.7247 36.997 8.96578C36.5782 9.2847 36.1556 9.60361 35.7367 9.91868C35.7022 9.86489 35.6714 9.8111 35.6368 9.75731Z" fill="white"/>
<path d="M33.1665 12.2166C33.2433 12.4817 33.1396 12.5739 33.0589 12.6738C31.787 14.3683 30.5191 16.0666 29.2396 17.7572C29.1627 17.861 29.1128 18.0877 28.9206 17.9762C28.7823 17.8917 28.8707 17.7419 28.9552 17.6343C30.3462 15.8437 31.7371 14.057 33.1665 12.2166Z" fill="white"/>
<path d="M35.3363 12.1626C36.804 14.0338 38.2103 15.8282 39.6166 17.6264C39.6935 17.7263 39.8049 17.8416 39.6474 17.9569C39.5436 18.0337 39.4783 17.9377 39.4245 17.8647C38.049 16.0395 36.6772 14.2144 35.3055 12.3893C35.2901 12.3701 35.3132 12.324 35.3363 12.1626Z" fill="white"/>
<path d="M33.1476 9.62258C32.7941 9.17686 32.4483 8.74652 32.1102 8.31233C31.0843 7.00593 30.0545 5.69569 29.0363 4.38544C28.9595 4.28939 28.7405 4.17412 28.9134 4.02042C29.0824 3.87057 29.1785 4.07421 29.2592 4.1818C30.5502 5.87628 31.8336 7.5746 33.1207 9.27292C33.1822 9.3613 33.2591 9.44967 33.1476 9.62258Z" fill="white"/>
<path d="M15.1362 19.1711C14.9941 19.1941 14.9287 19.1519 14.9518 18.9905C14.9902 18.733 15.1516 18.6216 15.3783 18.5294C16.2659 18.1797 17.1458 17.807 18.0334 17.4497C18.2063 17.3805 18.433 17.2038 18.5559 17.5035C18.675 17.7917 18.3753 17.7801 18.2332 17.8455C17.2918 18.2604 16.3427 18.6639 15.3937 19.0673C15.313 19.1058 15.2246 19.1365 15.1362 19.1711Z" fill="white"/>
<path d="M35.3595 9.66496C35.2519 9.39983 35.3902 9.29993 35.4748 9.1885C36.712 7.54013 37.9454 5.89176 39.1903 4.25107C39.2825 4.12812 39.3632 3.81689 39.5899 4.01669C39.7667 4.17039 39.5092 4.30487 39.4209 4.42014C38.0837 6.15688 36.7389 7.8821 35.3595 9.66496Z" fill="white"/>
<path d="M43.8549 12.3353C41.6187 12.0241 39.49 11.7283 37.3613 11.4324C37.9992 11.1634 43.5245 11.9396 43.8549 12.3353Z" fill="white"/>
<path d="M53.5631 19.1403C52.8138 18.8291 52.1145 18.5409 51.419 18.2489C51.0233 18.0837 50.6275 17.9185 50.2356 17.7417C50.1203 17.6879 49.9013 17.6879 50.0089 17.4535C50.0896 17.2806 50.2394 17.2768 50.3893 17.3306C50.566 17.3921 50.7351 17.4689 50.908 17.5381C51.6534 17.8378 52.3912 18.149 53.1443 18.4333C53.4478 18.5486 53.5746 18.7407 53.5631 19.1403Z" fill="white"/>
<path d="M31.1666 11.3826C30.5403 11.6362 29.864 11.6246 29.2223 11.7322C27.8929 11.9512 26.5557 12.1241 25.2186 12.3047C25.0726 12.3239 24.8267 12.4277 24.7883 12.224C24.746 11.9896 25.0073 12.0319 25.161 12.0089C27.0937 11.7591 29.0225 11.5094 30.9552 11.2634C31.0206 11.2558 31.1012 11.2404 31.1666 11.3826Z" fill="white"/>
<path d="M33.1142 8.43549C32.461 6.90624 31.8039 5.38082 31.1546 3.85156C31.1085 3.74782 31.0009 3.59028 31.1661 3.50575C31.3006 3.43659 31.3582 3.58259 31.4005 3.6825C32.0037 5.15412 32.6031 6.62574 33.1949 8.1012C33.2333 8.19726 33.1987 8.32022 33.1987 8.43165C33.1718 8.42781 33.1411 8.43165 33.1142 8.43549Z" fill="white"/>
<path d="M35.3489 8.57003C35.2606 8.2588 35.3144 8.10511 35.3797 7.94373C35.933 6.57585 36.4824 5.20797 37.0357 3.84009C37.0934 3.70177 37.1011 3.42512 37.3201 3.50965C37.5314 3.59418 37.3547 3.79399 37.297 3.93231C36.6669 5.4462 36.029 6.9524 35.3489 8.57003Z" fill="white"/>
<path d="M33.3796 3.28296C33.5679 4.80837 33.76 6.33379 33.9483 7.85921C33.883 7.86689 33.8176 7.87457 33.7523 7.8861C33.5372 6.36837 33.322 4.85064 33.1068 3.33291C33.2029 3.31369 33.2912 3.29833 33.3796 3.28296Z" fill="white"/>
<path d="M34.6749 7.83603C34.7287 6.30293 34.9093 4.78905 35.2513 3.29053C35.2321 4.83131 34.9708 6.33752 34.6749 7.83603Z" fill="white"/>
<path d="M28.1124 19.071C27.6705 20.0854 26.8367 20.8347 26.2527 21.7645C26.0414 21.5878 25.9991 21.4456 26.1259 21.2804C26.7253 20.5042 27.3324 19.7281 27.9318 18.9519C27.9933 18.9903 28.0548 19.0326 28.1124 19.071Z" fill="white"/>
<path d="M40.5282 18.7905C41.193 19.6358 41.8116 20.4274 42.434 21.2112C42.5455 21.3534 42.557 21.4994 42.4187 21.5993C42.2496 21.7184 42.1997 21.5186 42.1343 21.4341C41.6195 20.7693 41.1161 20.0931 40.6051 19.4284C40.4783 19.2708 40.4168 19.1056 40.5282 18.7905Z" fill="white"/>
<path d="M32.2475 30.2945C31.7519 29.5913 31.2255 29.111 30.3071 29.2109C30.8335 28.6115 31.4445 28.7076 32.163 28.8229C31.8249 28.4309 31.4944 28.308 31.1486 28.2773C30.5761 28.2273 30.5991 27.9699 30.8566 27.5895C30.9065 27.5165 30.945 27.4358 30.9872 27.3628C30.8066 27.2475 30.7336 27.455 30.603 27.4204C30.6068 26.7979 30.9411 26.4521 31.5328 26.4214C31.9401 26.4022 32.3052 26.6058 32.7586 26.4906C33.1044 26.4022 33.4771 26.8172 33.7076 27.1745C33.8459 27.1169 33.6538 26.7749 33.9919 26.9247C34.3109 27.0669 34.7028 26.5712 35.0255 26.9939C35.1062 26.9171 35.1754 26.8172 35.2676 26.7634C35.6595 26.552 36.0169 26.1678 36.5279 26.6058C36.6585 26.7173 36.9621 26.6174 37.1849 26.6366C37.8381 26.6865 38.2493 27.4627 37.9573 28.0506C37.8689 28.2311 37.719 28.1966 37.5807 28.2273C37.1849 28.3118 36.77 28.3541 36.4242 28.7768C37.0774 28.7191 37.696 28.6 38.2301 29.1841C37.331 29.1264 36.7738 29.5491 36.3781 30.1831C36.1283 30.137 36.2397 29.9026 36.1014 29.818C35.8401 29.9141 35.721 30.1562 35.5635 30.3598C35.4597 30.4905 35.4482 30.9515 35.1139 30.5135C35.0486 30.429 34.9256 30.598 34.8757 30.6826C34.672 31.013 34.4838 31.355 34.2609 31.7392C34.1072 31.4549 34.0073 31.1667 33.8229 30.9554C33.6961 30.8094 33.7268 30.2369 33.2273 30.6557C33.1159 30.7479 32.9584 30.3214 32.797 30.1562C32.5856 29.9564 32.3858 29.5337 32.2475 30.2945Z" fill="white"/>
<path d="M32.1625 31.3899C31.8782 31.3515 31.64 31.2631 31.3787 31.3361C31.2442 31.3707 31.1174 31.386 31.0675 31.1555C31.029 30.9595 30.6755 30.8981 30.6064 30.9442C30.249 31.1747 30.1876 30.948 30.103 30.6944C30.007 30.3986 30.1645 30.2602 30.4066 30.145C30.883 29.9144 31.3479 30.0412 31.64 30.5484C31.8013 30.8289 31.9281 31.1286 32.1625 31.3899Z" fill="white"/>
<path d="M36.3505 31.4013C36.5848 31.1016 36.7155 30.7597 36.9114 30.4638C37.2188 30.0066 37.653 29.9374 38.1256 30.1603C38.41 30.2947 38.4753 30.483 38.3792 30.7366C38.3024 30.9364 38.2255 31.24 37.9028 30.9364C37.8682 30.9057 37.6838 30.9556 37.653 31.0133C37.3533 31.5512 36.7693 31.1631 36.3505 31.4013Z" fill="white"/>
</svg>
