<svg width="151" height="45" viewBox="0 0 151 45" fill="none" xmlns="http://www.w3.org/2000/svg">
<path d="M23.3437 36.6389C24.7597 38.6392 26.6061 39.6795 28.9816 39.7883C31.5483 39.9062 33.6365 39.0032 35.2657 36.9109C34.9407 36.8138 34.7196 36.8837 34.4999 36.92C33.4402 37.0975 32.3792 37.2568 31.3078 37.3359C31.1647 37.3462 30.9632 37.4084 30.9099 37.2141C30.8592 37.0288 31.0594 36.9718 31.1842 36.8954C33.5767 35.4249 35.1578 33.2834 36.2851 30.7688C36.6063 30.0523 36.8598 29.3113 37.0913 28.5612C37.2044 28.1932 37.2603 28.1583 37.6296 28.2295C40.8971 28.8617 44.0879 29.7401 47.0837 31.2248C47.8912 31.6251 47.8925 31.6627 47.1318 32.1822C45.0592 33.5982 42.8059 34.6463 40.4264 35.4301C39.9804 35.5765 39.7529 35.8162 39.5696 36.2398C37.5672 40.8675 34.076 43.7035 29.0726 44.4406C21.682 45.5302 15.7919 41.3793 13.3539 35.9432C13.1914 35.5817 12.9833 35.3822 12.6037 35.25C10.6039 34.5569 8.69901 33.6604 6.91897 32.5126C6.69403 32.3675 6.46649 32.2224 6.25324 32.0604C5.85797 31.7612 5.87877 31.5487 6.32216 31.2974C6.43918 31.2313 6.5614 31.1756 6.68233 31.1173C8.27123 30.3412 9.93295 29.7544 11.6246 29.2465C12.0212 29.1273 12.0979 28.9978 12.0498 28.6363C12.0251 28.451 11.9431 28.3513 11.7468 28.3992C11.5791 28.4394 11.4126 28.486 11.2475 28.5353C9.24252 29.1403 7.28434 29.8632 5.44319 30.8685C5.16363 31.0214 4.93349 31.0706 4.66434 30.8323C3.09234 29.4395 1.79078 27.8525 1.08865 25.8496C0.192777 23.2987 0.480133 20.8436 1.78298 18.4961C2.46692 17.2628 3.38619 16.2147 4.41469 15.2547C4.65784 15.0279 4.83857 15.0344 5.11422 15.1925C7.0568 16.2989 9.1372 17.0736 11.2722 17.7149C11.3645 17.7421 11.4568 17.768 11.5505 17.7887C11.7234 17.825 11.9275 17.9779 12.0303 17.6955C12.1356 17.4092 12.029 17.1241 11.7689 17.0373C11.2605 16.8663 10.743 16.7212 10.2333 16.5541C8.97467 16.1421 7.74853 15.6485 6.5588 15.0668C6.35206 14.9658 6.14402 14.866 5.94769 14.7455C5.56931 14.5123 5.55371 14.3245 5.91648 14.0511C6.69793 13.4629 7.53139 12.9512 8.39086 12.4835C9.41805 11.9238 10.4726 11.4173 11.57 11.0079C11.9379 10.8706 12.0745 10.6723 12.0654 10.2901C12.0459 9.37291 12.0719 8.45437 12.055 7.53712C12.0238 5.90474 11.0863 4.99527 9.45056 4.99009C8.99027 4.9888 8.52868 4.99916 8.06969 4.9862C7.52489 4.97066 7.35066 4.80353 7.34415 4.24904C7.33245 3.19836 7.33115 2.14638 7.34545 1.0944C7.35326 0.564522 7.51449 0.419421 8.03849 0.389624C8.17241 0.381851 8.30764 0.385737 8.44157 0.385737C14.2368 0.385737 20.0307 0.385737 25.8259 0.385737C26.8817 0.385737 26.9389 0.442741 26.9402 1.48306C26.9415 2.38217 26.9467 3.27998 26.9376 4.17908C26.9311 4.82685 26.7699 4.97843 26.1068 4.9888C25.6075 4.99527 25.1095 4.98491 24.6102 4.99268C23.2085 5.016 22.2255 5.99025 22.2021 7.38296C22.1904 8.07089 22.1969 8.75882 22.2021 9.44805C22.2034 9.59185 22.1579 9.7538 22.2957 9.88983C22.5207 9.89501 22.6754 9.73307 22.8509 9.63202C23.7234 9.12935 24.6518 8.78473 25.6491 8.62538C25.7622 8.60724 25.8766 8.59688 25.991 8.58263C26.2225 8.55283 26.3642 8.63056 26.3603 8.88578C26.359 8.99979 26.3642 9.11509 26.3642 9.2304C26.3642 12.2322 26.3642 15.2339 26.3642 18.2344C26.3642 18.3108 26.3655 18.3873 26.3629 18.4637C26.3408 18.934 26.3031 18.9677 25.8129 18.9755C24.7571 18.9923 23.7052 18.8848 22.6507 18.8537C22.2515 18.842 22.1722 18.9457 22.2047 19.3175C22.2203 19.4989 22.2957 19.6012 22.4804 19.618C22.7469 19.6427 23.0148 19.6789 23.2813 19.6906C24.1239 19.7295 24.9677 19.7554 25.8116 19.7929C26.2992 19.815 26.359 19.859 26.3603 20.3202C26.3681 22.1936 26.3681 24.0669 26.3603 25.9403C26.359 26.3743 26.2888 26.4326 25.8545 26.452C24.9925 26.4909 24.1291 26.5181 23.267 26.5544C23.0369 26.5634 22.8054 26.5751 22.5792 26.6101C22.2385 26.6632 22.1124 26.9055 22.2255 27.2281C22.284 27.3965 22.4193 27.3965 22.5519 27.3939C22.8782 27.3861 23.2059 27.3874 23.5297 27.3537C24.2565 27.2773 24.9859 27.2851 25.7141 27.2734C26.2953 27.2643 26.3629 27.3226 26.3642 27.8758C26.3694 30.8206 26.3694 33.7641 26.3642 36.7088C26.3629 37.2672 26.2745 37.3229 25.7037 37.2478C25.1108 37.17 24.5413 37.0055 23.9861 36.7891C23.8131 36.7231 23.6493 36.6104 23.3437 36.6389ZM22.6585 4.25681C22.6065 4.21406 22.5792 4.1726 22.5519 4.1726C22.1488 4.16354 21.747 4.14928 21.3439 4.15576C19.0893 4.19204 17.3327 5.93584 17.3301 8.17842C17.321 16.1305 17.321 24.0825 17.3301 32.0345C17.3327 34.6515 18.2455 36.9472 20.019 38.8633C22.4622 41.5036 25.5243 42.6126 29.0973 42.1993C32.6158 41.7925 35.2436 39.993 37.0133 36.942C37.0926 36.8047 37.2876 36.5883 37.1316 36.4964C36.8897 36.3526 36.8481 36.6635 36.7662 36.8073C34.9043 40.0876 31.3845 41.5982 27.5175 40.8222C23.6415 40.0448 20.9929 36.714 20.9929 32.7548C20.9916 24.3818 20.9929 16.01 20.9929 7.63688C20.9929 7.50344 20.989 7.3687 20.9942 7.23526C21.0423 6.18976 21.448 5.31398 22.2463 4.62475C22.3828 4.50426 22.5649 4.42523 22.6585 4.25681ZM11.6376 4.23609C11.635 4.25422 11.6246 4.27625 11.6324 4.2892C11.6519 4.32159 11.6727 4.35787 11.7026 4.3786C12.8572 5.21681 13.259 6.35689 13.2538 7.76384C13.2239 15.0655 13.2382 22.3672 13.2421 29.6676C13.2421 30.7973 13.3552 31.9179 13.6166 33.0204C15.1053 39.2895 21.0059 43.9522 27.9973 43.3601C32.4936 42.9792 35.7975 40.7418 37.9755 36.8254C38.0795 36.6389 38.3174 36.3137 38.151 36.236C37.7921 36.0675 37.7635 36.5015 37.6608 36.7062C34.9693 42.1125 28.7749 43.9496 23.7039 41.9571C19.5483 40.3247 16.862 36.3409 16.8568 31.848C16.849 23.9737 16.8308 16.0981 16.8568 8.22376C16.8646 6.04466 14.9376 3.5935 11.6376 4.23609ZM17.0843 6.57195C17.1337 6.5266 17.1688 6.50587 17.1883 6.47608C17.23 6.41259 17.2638 6.34393 17.2989 6.27527C18.2038 4.55738 19.6185 3.69066 21.5767 3.71139C22.5168 3.72176 23.4556 3.71398 24.3956 3.71269C24.722 3.71269 25.0471 3.70751 25.3734 3.70362C25.6049 3.70103 25.7245 3.5935 25.7219 3.35123C25.7167 2.96905 25.7258 2.58686 25.7232 2.20468C25.7193 1.57245 25.7154 1.56986 25.0835 1.56079C25.0458 1.56079 25.0068 1.56079 24.969 1.56079C19.7342 1.56079 14.4994 1.56079 9.26462 1.56079C9.1307 1.56079 8.99677 1.56338 8.86155 1.56857C8.65871 1.57504 8.53388 1.6761 8.53128 1.88338C8.52608 2.37958 8.52738 2.87706 8.52738 3.37326C8.52738 3.58054 8.6379 3.69066 8.84464 3.69973C8.99807 3.70621 9.1515 3.71139 9.30493 3.71139C10.4934 3.71269 11.6831 3.69455 12.8715 3.71787C14.6113 3.75414 15.8894 4.57811 16.7619 6.06021C16.8568 6.22345 16.8945 6.42037 17.0843 6.57195Z" fill="white"/>
<path d="M52.9632 22.8624C52.9736 24.842 52.369 26.508 51.3626 28.0471C50.6982 29.0628 49.879 29.9438 48.9792 30.7548C48.701 31.0061 48.4487 31.0567 48.1016 30.8701C45.0707 29.2364 41.8057 28.2739 38.4511 27.5846C37.4278 27.3735 37.4109 27.3579 37.5877 26.3552C37.9791 24.132 37.9765 21.9076 37.6202 19.6805C37.4993 18.9252 37.5539 18.8371 38.3185 18.6855C40.8631 18.1829 43.3517 17.4911 45.7507 16.4961C46.6362 16.1282 47.506 15.7265 48.3382 15.2498C48.6347 15.0801 48.9025 15.0451 49.1756 15.299C50.8503 16.8511 52.1583 18.6311 52.7252 20.8828C52.8982 21.5733 52.9736 22.2729 52.9632 22.8624Z" fill="white"/>
<path d="M38.5323 0.386912C40.4125 0.386912 42.2926 0.386912 44.1728 0.386912C44.3262 0.386912 44.4797 0.38173 44.6331 0.392094C45.0726 0.421892 45.2949 0.595494 45.3027 1.01525C45.3235 2.12294 45.3248 3.23322 45.3027 4.3409C45.2949 4.78398 45.0609 4.97313 44.5915 4.98608C44.074 5.00033 43.5552 4.98738 43.0377 4.99127C41.5294 5.00293 40.5581 5.95385 40.5308 7.46316C40.5165 8.2651 40.5256 9.06833 40.5282 9.87157C40.5308 10.4507 40.5334 10.4546 41.0717 10.6515C43.1677 11.4197 45.1714 12.3681 47.0255 13.6183C47.2635 13.7789 47.504 13.9383 47.7277 14.1184C48.0124 14.3477 48.0046 14.4979 47.7069 14.6884C47.5456 14.7907 47.3701 14.8711 47.1998 14.9579C44.4563 16.3363 41.5424 17.203 38.5479 17.8288C38.2476 17.891 37.9459 17.9493 37.6455 18.0089C37.418 18.0542 37.275 17.9622 37.21 17.7433C37.1332 17.4868 37.0617 17.2289 36.9811 16.9737C36.2075 14.5316 35.0203 12.3305 33.1701 10.518C32.676 10.0348 32.1416 9.6008 31.5643 9.21862C31.4524 9.14477 31.3406 9.07093 31.2314 8.9919C31.1274 8.91805 31.0845 8.8157 31.1313 8.69392C31.1703 8.59157 31.2652 8.55789 31.364 8.56048C31.5942 8.56566 31.8256 8.56825 32.0532 8.59546C33.3287 8.75093 34.5991 8.94008 35.8577 9.19918C35.9513 9.21862 36.0449 9.24453 36.1385 9.25748C36.4987 9.30412 36.5338 9.28339 36.5416 8.90898C36.552 8.37392 36.552 7.83887 36.5429 7.30381C36.5208 5.99531 35.5755 5.03661 34.2545 4.99386C33.6993 4.97572 33.1415 4.99515 32.585 4.98608C31.9309 4.97572 31.7736 4.81896 31.7684 4.16471C31.7606 3.22803 31.7645 2.29136 31.7671 1.35468C31.7697 0.491851 31.8698 0.386912 32.7189 0.385617C34.6576 0.384321 36.5949 0.386912 38.5323 0.386912ZM38.6337 5.76989C38.6961 5.69863 38.7417 5.66106 38.769 5.61313C39.5153 4.28131 40.6556 3.65815 42.1821 3.71127C42.6606 3.72811 43.1417 3.72293 43.6215 3.70868C44.0467 3.69572 44.0831 3.65556 44.0948 3.24358C44.1065 2.88083 44.1013 2.51678 44.0974 2.15403C44.0909 1.59047 44.0727 1.57622 43.5149 1.56326C43.4382 1.56197 43.3614 1.56326 43.2847 1.56326C40.0991 1.56326 36.9135 1.56326 33.7279 1.56326C33.6317 1.56326 33.5354 1.56067 33.4405 1.56456C33.001 1.58529 32.962 1.61768 32.9477 2.075C32.936 2.45719 32.936 2.83937 32.9477 3.22156C32.962 3.66334 32.9984 3.7022 33.4587 3.70998C34.1297 3.72164 34.8019 3.7022 35.4741 3.72034C36.6769 3.75273 37.5896 4.31758 38.271 5.28535C38.3815 5.43952 38.4309 5.63645 38.6337 5.76989ZM36.4233 4.49378C36.5793 4.65572 36.7133 4.78916 36.8394 4.92908C37.4115 5.55871 37.7431 6.29069 37.7574 7.14834C37.7691 7.83368 37.7574 8.51902 37.7678 9.20437C37.773 9.58785 37.8757 9.72776 38.1461 9.72129C38.5011 9.71222 38.3685 9.42331 38.3724 9.24971C38.388 8.5268 38.3945 7.80259 38.3737 7.07968C38.3412 5.93442 37.7717 5.10268 36.7978 4.52876C36.7068 4.47305 36.6066 4.38495 36.4233 4.49378ZM40.6842 4.64277C40.6478 4.59872 40.6101 4.55467 40.5737 4.50932C39.6336 4.88633 38.9094 5.87223 38.8782 6.88664C38.8509 7.76372 38.8691 8.6421 38.8704 9.52048C38.8704 9.73036 38.8522 9.99983 39.1525 9.9778C39.4178 9.95837 39.3424 9.6889 39.345 9.51659C39.3554 8.75352 39.3476 7.98915 39.3528 7.22607C39.358 6.30365 39.696 5.51466 40.3449 4.85912C40.4359 4.76714 40.5698 4.71402 40.6842 4.64277Z" fill="white"/>
<path d="M74.0077 16.9985C74.022 17.2239 74.2053 17.356 74.3327 17.5141C75.3209 18.7332 76.3156 19.9471 77.3038 21.1649C77.4221 21.31 77.5756 21.437 77.5912 21.6482C77.6172 22.0096 77.4091 22.2972 77.0334 22.3866C76.6043 22.4877 76.1635 22.546 75.7448 22.6768C75.4028 22.7843 75.2247 22.6781 75.0401 22.397C74.0714 20.9278 73.0858 19.4704 72.1067 18.009C72.0105 17.8665 71.9143 17.724 71.8154 17.5827C71.7491 17.4869 71.6724 17.4014 71.5463 17.3871C71.1471 17.3431 70.7466 17.3003 70.3475 17.2576C70.1446 17.2355 70.0705 17.347 70.0705 17.5283C70.0692 18.5026 70.0705 19.4768 70.0666 20.4511C70.0653 20.6959 70.2239 20.7776 70.4229 20.8255C70.7388 20.9032 71.0535 20.9926 71.3734 21.0509C71.6568 21.1027 71.7647 21.253 71.7335 21.529C71.7179 21.6611 71.7179 21.7958 71.7101 21.9293C71.701 22.0938 71.6061 22.1664 71.4488 22.1664C71.2576 22.1664 71.0652 22.1703 70.8741 22.1573C69.514 22.0614 68.1539 22.0588 66.7939 22.1586C66.6222 22.1716 66.4493 22.1651 66.2764 22.1703C66.0917 22.1767 65.9864 22.0977 65.976 21.9073C65.9708 21.8114 65.9604 21.7168 65.9552 21.6209C65.9292 21.1584 65.9305 21.1584 66.37 21.0393C66.3882 21.0341 66.4064 21.0276 66.4246 21.0224C66.7653 20.9123 67.2152 20.9771 67.4284 20.6739C67.6195 20.4005 67.496 20.0041 67.4973 19.6621C67.5025 17.255 67.5012 14.8466 67.4999 12.4394C67.4999 11.7036 67.5337 11.7489 66.8771 11.5766C66.803 11.5572 66.7302 11.5326 66.6574 11.5092C66.0592 11.3123 66.0553 11.3046 66.2283 10.7034C66.3531 10.2707 66.3778 10.2422 66.8316 10.3251C68.1487 10.5648 69.4685 10.4741 70.7869 10.3653C71.649 10.294 72.5072 10.272 73.3666 10.4003C75.3183 10.6905 76.3182 11.9044 76.2532 13.8853C76.2103 15.1938 75.6109 16.1343 74.4459 16.7264C74.3093 16.7951 74.1767 16.8702 74.0441 16.9453C74.0298 16.9531 74.0233 16.9751 74.0077 16.9985ZM70.0627 13.8257H70.064C70.064 14.34 70.0666 14.8543 70.0627 15.3687C70.0601 15.5902 70.1407 15.7431 70.3735 15.769C71.06 15.8441 71.7478 15.8908 72.4084 15.6148C73.1781 15.2935 73.5344 14.6496 73.4941 13.665C73.4616 12.8501 73.0559 12.3047 72.277 12.0534C71.7049 11.8694 71.1146 11.8344 70.5191 11.9031C70.1043 11.951 70.0731 11.9873 70.0653 12.3993C70.0562 12.8735 70.0627 13.3502 70.0627 13.8257Z" fill="white"/>
<path d="M115.446 18.0285C115.561 17.7849 115.519 17.5906 115.515 17.4028C115.477 15.6823 115.437 13.9631 115.393 12.2426C115.38 11.7386 115.375 11.7373 114.868 11.5922C114.646 11.5288 114.424 11.4718 114.203 11.4057C113.788 11.2839 113.615 10.8758 113.801 10.4781C113.86 10.3537 113.966 10.3265 114.083 10.3239C114.333 10.3174 114.583 10.3174 114.831 10.3174C115.925 10.3174 117.018 10.3148 118.113 10.3187C118.705 10.32 118.757 10.3887 118.781 10.9717C118.793 11.2606 118.68 11.3863 118.404 11.4342C118.065 11.4951 117.733 11.5948 117.395 11.6648C117.107 11.7244 116.974 11.8825 116.977 12.1804C116.982 12.7155 116.971 13.2505 116.964 13.7869C116.921 16.3676 116.876 18.947 116.831 21.5278C116.821 22.147 116.819 22.147 116.217 22.274C116.161 22.2856 116.099 22.2831 116.048 22.3051C115.661 22.4657 115.425 22.309 115.185 21.9929C113.145 19.3124 111.089 16.6423 109.036 13.9709C108.889 13.7804 108.771 13.5589 108.55 13.4267C108.381 13.5628 108.431 13.7273 108.433 13.8685C108.462 15.9906 108.496 18.1114 108.533 20.2335C108.542 20.753 108.55 20.7543 109.057 20.8709C109.318 20.9305 109.578 21.0095 109.843 21.0406C110.175 21.0795 110.262 21.2544 110.202 21.5498C110.198 21.5679 110.198 21.5874 110.198 21.6068C110.163 22.16 110.163 22.1639 109.591 22.1652C108.305 22.1678 107.019 22.169 105.735 22.1626C105.553 22.1613 105.317 22.2364 105.216 22.0201C105.109 21.7933 105.116 21.5329 105.174 21.2894C105.209 21.143 105.372 21.1261 105.499 21.0899C105.85 20.9927 106.201 20.8942 106.554 20.8035C106.79 20.744 106.906 20.6131 106.905 20.3579C106.903 20.0521 106.941 19.7477 106.949 19.4419C107.006 17.0918 107.061 14.7404 107.113 12.3903C107.126 11.7827 107.119 11.7827 106.533 11.6143C106.275 11.5404 106.015 11.4718 105.759 11.3927C105.365 11.2697 105.334 11.2101 105.404 10.7618C105.467 10.3667 105.498 10.3343 105.927 10.3291C107.04 10.3174 108.153 10.3174 109.266 10.3019C109.495 10.2993 109.672 10.333 109.786 10.561C110.115 11.2152 110.599 11.7646 111.037 12.345C112.365 14.1017 113.696 15.8533 115.029 17.6062C115.135 17.7525 115.226 17.9236 115.446 18.0285Z" fill="white"/>
<path d="M96.1292 22.1417C95.1891 22.1067 94.249 22.0782 93.3103 22.1482C92.8357 22.1844 92.5587 21.7738 92.7225 21.3255C92.7615 21.2206 92.8461 21.1843 92.9358 21.1545C93.1542 21.0819 93.374 21.0159 93.5937 20.9485C94.2178 20.7568 94.2217 20.7581 94.2217 20.1336C94.223 17.5335 94.223 14.9333 94.2217 12.3332C94.2217 11.7268 94.2178 11.7268 93.6327 11.5468C93.5222 11.5131 93.4117 11.4833 93.3024 11.4483C92.8448 11.298 92.8448 11.298 92.9098 10.7992C92.9722 10.3225 92.9735 10.2927 93.4234 10.3225C95.1319 10.4378 96.8365 10.2953 98.5438 10.2992C99.3759 10.3017 100.187 10.4261 100.964 10.7383C102.468 11.3421 103.465 12.4238 103.909 13.972C104.369 15.5759 104.342 17.1901 103.789 18.7681C103.104 20.727 101.692 21.8087 99.6373 22.0899C98.9091 22.1896 98.1823 22.1547 97.4541 22.143C97.0121 22.1365 96.5713 22.1417 96.1292 22.1417ZM96.804 16.2159C96.804 17.4959 96.8001 18.7746 96.8066 20.0546C96.8092 20.4938 96.8664 20.5637 97.2838 20.6026C97.7987 20.6505 98.3214 20.6842 98.8324 20.5922C100.073 20.3707 100.823 19.5778 101.205 18.4287C101.629 17.1526 101.698 15.8402 101.402 14.5291C101.057 13.0055 100.159 12.1971 98.6231 11.9432C98.2226 11.8771 97.8234 11.8603 97.4203 11.8719C96.8248 11.8888 96.8066 11.9056 96.804 12.4925C96.8001 13.7336 96.8027 14.9748 96.804 16.2159Z" fill="white"/>
<path d="M37.0509 22.8519C37.0626 24.1694 36.9443 25.4028 36.7076 26.6271C36.601 27.1764 36.5477 27.2217 35.9808 27.1375C33.2646 26.732 30.5314 26.5325 27.7879 26.4561C27.2366 26.4405 27.1833 26.3965 27.182 25.8679C27.1768 24.0321 27.1768 22.1976 27.182 20.3618C27.1833 19.8605 27.234 19.8164 27.7476 19.7931C29.4717 19.7154 31.1985 19.6778 32.9148 19.4796C33.9615 19.3578 35.0082 19.2269 36.0536 19.0909C36.5984 19.0196 36.6868 19.0611 36.7766 19.613C36.9573 20.709 37.0691 21.8115 37.0509 22.8519Z" fill="white"/>
<path d="M27.1827 13.7167C27.1827 12.2462 27.1827 10.7758 27.1827 9.30404C27.1827 9.1706 27.1892 9.03586 27.184 8.90242C27.1736 8.65757 27.2828 8.54226 27.5286 8.58113C27.8692 8.63425 28.2125 8.6757 28.5467 8.75603C30.055 9.12137 31.3422 9.89222 32.4617 10.9468C34.234 12.6141 35.3639 14.6728 36.1245 16.9542C36.2208 17.2431 36.3066 17.5372 36.3794 17.8339C36.4691 18.1953 36.4548 18.2264 36.0842 18.277C34.9075 18.4337 33.7308 18.6073 32.5501 18.7187C30.9859 18.8664 29.4178 18.9688 27.8445 18.974C27.1879 18.9766 27.184 18.9778 27.1827 18.3016C27.1814 16.7728 27.1827 15.2441 27.1827 13.7167Z" fill="white"/>
<path d="M28.6465 27.2734C30.9467 27.3615 33.2364 27.5533 35.5157 27.8733C35.6107 27.8862 35.7043 27.9083 35.7979 27.9277C36.305 28.0326 36.3752 28.1272 36.2166 28.6338C35.5652 30.7183 34.5965 32.6331 33.1142 34.2629C31.823 35.6841 30.2913 36.7218 28.3891 37.1532C28.1472 37.2077 27.9002 37.2543 27.6531 37.2776C27.3268 37.3087 27.2123 37.1986 27.1837 36.8605C27.1759 36.7659 27.1811 36.67 27.1811 36.5741C27.1811 33.7278 27.1811 30.8815 27.1811 28.0352C27.1811 27.9212 27.1837 27.8059 27.1837 27.6919C27.1837 27.4082 27.3281 27.2722 27.6102 27.2734C27.9561 27.2734 28.302 27.2734 28.6465 27.2734Z" fill="white"/>
<path d="M79.6782 15.5268C79.6782 14.4567 79.6808 13.3866 79.6769 12.3164C79.6743 11.7905 79.6691 11.7892 79.1828 11.6311C78.928 11.5482 78.6666 11.4821 78.4144 11.3914C78.1049 11.2787 78.1088 11.2269 78.1647 10.7437C78.1959 10.4742 78.313 10.3822 78.5691 10.3887C79.2023 10.4042 79.8342 10.4133 80.4675 10.4146C81.4258 10.4172 82.3853 10.4107 83.3436 10.4094C83.5491 10.4094 83.7662 10.3602 83.8091 10.6828C83.8767 11.1906 83.8299 11.3487 83.471 11.4536C83.1772 11.5404 82.8781 11.6091 82.5791 11.6765C82.3359 11.7309 82.2241 11.8721 82.2267 12.1208C82.2319 12.4836 82.2202 12.8476 82.2241 13.2104C82.2462 14.892 82.1708 16.5736 82.2735 18.2539C82.2904 18.5208 82.3151 18.7851 82.384 19.0468C82.6051 19.8889 83.1577 20.3941 83.9833 20.604C84.5646 20.7517 85.1549 20.7686 85.7504 20.6468C86.6424 20.4641 87.221 19.942 87.5031 19.0921C87.6604 18.618 87.7307 18.1231 87.7333 17.6256C87.7437 15.8287 87.7333 14.033 87.7489 12.2361C87.7515 11.8915 87.6371 11.7037 87.299 11.6246C87.0571 11.5689 86.8218 11.4821 86.5877 11.3966C86.2367 11.2684 86.2107 11.1621 86.2653 10.6685C86.3017 10.3407 86.5019 10.3174 86.749 10.3317C88.0895 10.4081 89.4314 10.4483 90.7733 10.3602C91.0008 10.3446 91.0879 10.4561 91.11 10.653C91.1256 10.7851 91.1282 10.9199 91.1386 11.0533C91.1555 11.258 91.0658 11.3733 90.8604 11.4173C90.5613 11.4834 90.2636 11.5586 89.9671 11.6376C89.5354 11.7516 89.525 11.7633 89.5159 12.2258C89.499 13.1236 89.4834 14.0214 89.4756 14.9192C89.4652 15.9893 89.4652 17.0594 89.4548 18.1295C89.4509 18.4923 89.4496 18.855 89.3729 19.2139C89.0114 20.9279 87.9023 21.8866 86.2354 22.2481C85.0209 22.5111 83.8 22.5137 82.5869 22.204C80.9512 21.7882 79.6418 20.5328 79.6704 18.513C79.6847 17.5193 79.673 16.5257 79.673 15.532C79.6795 15.5268 79.6795 15.5268 79.6782 15.5268Z" fill="white"/>
<path d="M86.0946 31.5486C86.0946 32.3324 86.0933 33.1162 86.0959 33.9C86.0972 34.7097 86.0634 34.588 86.8046 34.8263C86.8774 34.8497 86.9541 34.8639 87.0256 34.8898C87.3403 35.0051 87.391 35.1165 87.3455 35.4534C87.3091 35.728 87.1192 35.719 86.9242 35.719C85.7345 35.719 84.5447 35.7203 83.355 35.719C83.1626 35.719 82.9506 35.7397 82.9363 35.456C82.9246 35.2228 82.8973 34.9857 83.2094 34.908C83.3394 34.8756 83.4616 34.8173 83.589 34.7745C84.2834 34.5439 84.2015 34.5582 84.2041 33.9415C84.2093 32.6226 84.2119 31.3025 84.2028 29.9836C84.195 28.6881 83.7165 28.2554 82.4279 28.3655C81.8246 28.4173 81.2824 28.6609 80.7428 28.9135C80.4554 29.0482 80.4515 29.2801 80.4528 29.5366C80.4567 30.9138 80.4515 32.2897 80.4606 33.6668C80.4658 34.5763 80.4736 34.5802 81.3396 34.8626C81.5698 34.9378 81.7687 35.009 81.7479 35.3186C81.7271 35.6451 81.692 35.7138 81.3409 35.7151C80.1135 35.7229 78.8847 35.7177 77.6573 35.7177C77.4779 35.7177 77.2971 35.7099 77.288 35.4663C77.2802 35.2616 77.2178 35.0362 77.5013 34.9442C77.7379 34.8678 77.9655 34.7603 78.206 34.6955C78.5389 34.6061 78.6546 34.4118 78.6507 34.0684C78.6351 32.826 78.6455 31.5836 78.6455 30.3399C78.6455 29.8048 78.6312 29.2685 78.6494 28.7347C78.6611 28.4134 78.548 28.2269 78.2255 28.1673C78.0565 28.1362 77.8926 28.0688 77.7236 28.0429C77.422 27.995 77.3816 27.8006 77.3855 27.5441C77.3894 27.2902 77.5416 27.2163 77.747 27.1865C78.3724 27.0945 79.0005 27.0103 79.6259 26.9158C79.9028 26.873 80.0615 26.9728 80.1317 27.2461C80.1941 27.4858 80.2799 27.7203 80.3579 27.9561C80.4359 28.1893 80.5712 28.2009 80.7402 28.0442C81.0068 27.7967 81.2733 27.5493 81.5372 27.2979C81.6777 27.1658 81.8168 27.0375 82.017 26.9987C82.7725 26.851 83.5344 26.7448 84.3016 26.8756C85.49 27.079 86.0478 27.7423 86.0959 28.9692C86.0972 29.0068 86.0972 29.0456 86.0972 29.0845C86.0946 29.9046 86.0946 30.7272 86.0946 31.5486Z" fill="white"/>
<path d="M74.6105 30.7547C74.6105 31.7873 74.6092 32.8198 74.6118 33.8511C74.6131 34.5066 74.6157 34.5066 75.2347 34.6517C75.3647 34.6828 75.4973 34.7061 75.6273 34.7424C75.9537 34.8331 76.0161 34.9393 75.9888 35.2801C75.9745 35.4589 75.9043 35.5677 75.7196 35.5897C74.9967 35.6804 74.2738 35.7698 73.5508 35.8605C73.322 35.889 73.1907 35.7866 73.127 35.5703C73.0515 35.3137 72.9683 35.0585 72.8812 34.8059C72.8149 34.6142 72.6992 34.5727 72.5392 34.7165C72.2701 34.9614 71.9996 35.2049 71.7318 35.4511C71.5757 35.5949 71.4184 35.7335 71.2 35.7737C70.4237 35.9149 69.6462 36.025 68.8595 35.8695C67.792 35.6584 67.294 35.1311 67.1705 34.061C67.138 33.7772 67.1471 33.4883 67.1471 33.202C67.1445 31.7679 67.1471 30.335 67.1458 28.9008C67.1445 28.2841 67.1419 28.2841 66.5672 28.1183C66.4385 28.0807 66.3097 28.0419 66.1797 28.0082C65.9106 27.9369 65.9028 27.7297 65.9132 27.5094C65.9223 27.2956 66.0497 27.2088 66.2434 27.1842C67.0418 27.0819 67.8414 26.9834 68.6385 26.8746C68.9232 26.8357 69.0286 26.9614 69.026 27.2231C69.0247 27.3565 69.0273 27.4913 69.0273 27.6247C69.0299 29.3063 69.0325 30.9892 69.0364 32.6708C69.0377 32.9572 69.0377 33.2435 69.1105 33.5246C69.2548 34.0895 69.6176 34.4237 70.1962 34.4768C71.0739 34.5572 71.8527 34.2372 72.5964 33.8187C72.8253 33.6904 72.7759 33.4572 72.7772 33.2525C72.7811 31.9907 72.7798 30.7288 72.7785 29.4683C72.7785 29.182 72.7681 28.8943 72.7785 28.608C72.7876 28.3528 72.6693 28.2181 72.4287 28.165C72.2415 28.1235 72.0594 28.0613 71.8709 28.025C71.5822 27.9693 71.5211 27.788 71.5276 27.5237C71.5354 27.2361 71.7084 27.1868 71.9398 27.1583C72.681 27.065 73.4221 26.9575 74.1632 26.8629C74.5364 26.815 74.6014 26.8629 74.6053 27.2542C74.6144 28.4202 74.6092 29.5862 74.6092 30.7521C74.6105 30.7547 74.6105 30.7547 74.6105 30.7547Z" fill="white"/>
<path d="M146.617 33.9844C146.796 33.8329 146.821 33.6334 146.883 33.4572C147.445 31.8727 148.001 30.2857 148.558 28.6999C148.746 28.161 148.744 28.1597 148.212 27.9705C148.104 27.9317 147.996 27.8928 147.886 27.8604C147.575 27.7684 147.632 27.5236 147.648 27.2969C147.665 27.0546 147.845 27.0546 148.024 27.0481C148.828 27.0183 149.633 26.982 150.438 26.9587C150.599 26.9535 150.815 26.8914 150.888 27.1077C150.96 27.3215 151.004 27.5547 150.87 27.771C150.85 27.8034 150.819 27.828 150.79 27.8539C150.008 28.5782 149.609 29.5343 149.203 30.4852C148.235 32.7524 147.275 35.0222 146.309 37.2907C146.007 38.0006 145.634 38.6691 145.049 39.1873C144.275 39.8727 143.387 40.0178 142.425 39.6524C141.439 39.278 141.665 38.2753 142.169 37.8516C142.352 37.6975 142.529 37.6573 142.743 37.7843C143.073 37.9786 143.422 38.1444 143.741 38.3556C144.049 38.5603 144.311 38.5085 144.587 38.3141C144.826 38.1444 145.016 37.932 145.16 37.6806C145.475 37.1313 145.67 36.5354 145.886 35.8928C145.322 35.863 145.142 35.4976 144.976 35.0662C144.157 32.9454 143.305 30.8363 142.49 28.7142C142.339 28.3229 142.141 28.0522 141.721 27.9602C141.511 27.9135 141.329 27.8319 141.318 27.5547C141.305 27.179 141.37 27.0792 141.755 27.0585C142.464 27.0196 143.172 26.9937 143.881 26.9574C144.138 26.9445 144.322 26.9859 144.361 27.302C144.506 28.4875 144.954 29.5913 145.346 30.7067C145.687 31.6797 146.05 32.6461 146.402 33.6152C146.445 33.737 146.459 33.8769 146.617 33.9844Z" fill="white"/>
<path d="M107.624 35.9591C107.181 35.9681 106.611 35.893 106.059 35.7168C105.043 35.3929 104.324 34.7412 103.978 33.732C103.465 32.2344 103.462 30.7121 104.007 29.2326C104.6 27.6261 105.887 26.9434 107.538 26.8423C108.039 26.8112 108.538 26.8436 109.027 26.9499C110.092 27.1831 110.859 27.7907 111.287 28.8012C111.513 29.3375 111.564 29.9115 111.632 30.4802C111.664 30.7536 111.551 30.9207 111.256 30.9401C111.026 30.9557 110.798 30.9842 110.568 30.9971C109.112 31.0749 107.657 31.1487 106.2 31.2277C105.643 31.2575 105.636 31.2692 105.657 31.8405C105.658 31.86 105.658 31.8781 105.66 31.8975C105.786 33.9458 106.917 34.648 108.716 34.556C109.33 34.5249 109.935 34.4096 110.517 34.201C110.733 34.1246 110.939 34.0093 111.071 34.3487C111.265 34.8436 111.268 34.9589 110.903 35.161C109.928 35.7025 108.879 35.9681 107.624 35.9591ZM106 30.4297C107.037 30.3273 108.027 30.2302 109.017 30.1291C109.19 30.111 109.354 30.0903 109.398 29.8622C109.537 29.1303 108.97 28.2104 108.239 28.0316C106.849 27.6909 105.79 28.5861 105.683 30.1304C105.663 30.3934 105.809 30.466 106 30.4297Z" fill="white"/>
<path d="M127.182 28.6167C127.182 28.8654 127.186 29.1142 127.181 29.3616C127.177 29.53 127.2 29.7192 126.959 29.7619C126.715 29.8047 126.505 29.8021 126.392 29.521C126.285 29.2554 126.139 29.0053 126.038 28.7372C125.926 28.4431 125.721 28.2656 125.433 28.171C124.9 27.9948 124.358 27.8743 123.799 28.0402C123.408 28.1568 123.11 28.3718 123.045 28.811C122.982 29.2347 123.136 29.5573 123.492 29.7904C123.734 29.9485 123.995 30.0651 124.261 30.1778C124.965 30.4771 125.684 30.7479 126.358 31.1158C127.103 31.5226 127.62 32.0887 127.731 32.9723C127.857 33.9738 127.429 34.8897 126.554 35.4027C126.119 35.658 125.644 35.8069 125.147 35.8795C123.915 36.0583 122.703 35.9896 121.512 35.5997C121.119 35.4714 120.911 35.2654 120.922 34.8184C120.935 34.3041 120.871 33.7885 120.841 33.2742C120.829 33.0811 120.802 32.8842 121.058 32.8129C121.302 32.7443 121.457 32.8246 121.561 33.0565C121.709 33.3882 121.885 33.7069 122.032 34.0385C122.14 34.2808 122.317 34.4376 122.556 34.5399C123.305 34.8573 124.071 34.9467 124.857 34.7109C125.302 34.5775 125.665 34.3404 125.745 33.8377C125.83 33.313 125.644 32.8959 125.202 32.6031C124.995 32.467 124.774 32.3478 124.549 32.2429C123.994 31.9838 123.432 31.7376 122.873 31.4863C122.575 31.3529 122.293 31.1922 122.019 31.0147C120.486 30.0249 120.941 27.9054 122.252 27.2719C122.708 27.0517 123.184 26.9234 123.683 26.8729C124.749 26.7654 125.784 26.9079 126.792 27.2693C127.087 27.3756 127.223 27.5518 127.198 27.8692C127.178 28.1166 127.194 28.3654 127.194 28.6141C127.189 28.6167 127.186 28.6167 127.182 28.6167Z" fill="white"/>
<path d="M99.0179 33.4364C99.2285 33.2382 99.2597 33.0231 99.3286 32.8288C99.8253 31.4452 100.317 30.0589 100.81 28.6727C100.992 28.1623 100.99 28.1623 100.495 27.9899C100.369 27.9459 100.241 27.9044 100.115 27.8578C99.824 27.749 99.8721 27.5028 99.8877 27.2774C99.9046 27.0338 100.094 27.0442 100.27 27.0377C101.075 27.0066 101.878 26.9691 102.683 26.9444C102.843 26.9393 103.066 26.8654 103.128 27.0895C103.186 27.2994 103.32 27.5546 103.124 27.7438C101.85 28.9759 101.403 30.6536 100.695 32.1875C100.215 33.2278 99.7811 34.2902 99.3234 35.3408C99.1596 35.7178 98.5368 36.0301 98.148 35.9407C97.9413 35.8927 97.9126 35.7049 97.8476 35.5546C97.4394 34.6076 97.0363 33.6579 96.6319 32.7083C96.0715 31.3894 95.502 30.0745 94.9611 28.7478C94.7907 28.3307 94.5788 28.0107 94.1042 27.9265C93.8312 27.8785 93.7414 27.701 93.7492 27.429C93.757 27.1712 93.839 27.0481 94.1146 27.039C94.861 27.017 95.6086 26.9807 96.3549 26.9406C96.6098 26.9263 96.7515 27.0183 96.7879 27.2774C96.9128 28.1752 97.2703 29.0031 97.5863 29.8426C97.9699 30.8609 98.3547 31.8805 98.7383 32.8988C98.8046 33.0749 98.8501 33.2602 99.0179 33.4364Z" fill="white"/>
<path d="M135.792 31.0406C135.792 30.1998 135.795 29.359 135.79 28.5182C135.786 27.9961 135.771 27.987 135.232 27.9676C135.118 27.9637 135.002 27.9663 134.888 27.9611C134.731 27.9546 134.572 27.943 134.541 27.7409C134.509 27.5349 134.543 27.3587 134.77 27.2758C134.949 27.2097 135.123 27.1177 135.309 27.0788C135.779 26.9804 136.019 26.6915 136.127 26.238C136.202 25.9232 136.33 25.6214 136.442 25.3169C136.56 24.9969 137.179 24.6471 137.504 24.7132C137.681 24.7495 137.679 24.8907 137.679 25.0254C137.682 25.5229 137.677 26.0191 137.685 26.5166C137.692 27.018 137.708 27.0322 138.205 27.04C138.779 27.0478 139.356 27.0361 139.932 27.0465C140.318 27.0529 140.345 27.0931 140.346 27.4856C140.348 27.8847 140.31 27.9495 139.954 27.9598C139.359 27.9767 138.764 27.9598 138.17 27.9728C137.716 27.9831 137.686 28.0129 137.685 28.478C137.679 30.0638 137.682 31.6508 137.687 33.2366C137.687 33.4076 137.704 33.5812 137.744 33.747C137.878 34.2963 138.183 34.5541 138.748 34.6137C139.253 34.6668 139.74 34.5593 140.231 34.4647C140.392 34.4336 140.583 34.3144 140.697 34.5166C140.818 34.7303 140.913 34.9674 140.885 35.2226C140.87 35.3548 140.734 35.3872 140.631 35.4299C139.565 35.8665 138.467 36.0867 137.317 35.8626C136.457 35.6955 136.018 35.2278 135.889 34.365C135.827 33.9491 135.781 33.5319 135.792 33.1096C135.801 32.7663 135.793 32.4217 135.793 32.077C135.792 31.7285 135.792 31.3852 135.792 31.0406Z" fill="white"/>
<path d="M116.59 31.7806C116.59 32.5631 116.586 33.3469 116.592 34.1294C116.595 34.6062 116.602 34.6075 117.075 34.7564C117.276 34.8199 117.476 34.8873 117.68 34.9404C117.87 34.9909 117.972 35.0894 117.98 35.298C117.992 35.6141 117.927 35.7126 117.601 35.7164C116.681 35.7255 115.761 35.7203 114.841 35.7216C114.477 35.7216 114.113 35.7203 113.749 35.7216C113.55 35.7216 113.357 35.7216 113.332 35.4509C113.31 35.2047 113.329 34.9974 113.626 34.9158C113.865 34.8497 114.091 34.7383 114.329 34.6683C114.603 34.588 114.734 34.4403 114.732 34.1359C114.722 32.3027 114.723 30.4695 114.731 28.6376C114.732 28.3565 114.615 28.2127 114.35 28.1595C114.2 28.1297 114.052 28.087 113.905 28.0429C113.549 27.9367 113.493 27.8473 113.507 27.5299C113.52 27.2475 113.704 27.1983 113.929 27.1659C114.572 27.07 115.216 26.9728 115.857 26.8614C116.116 26.8174 116.26 26.9068 116.32 27.1555C116.378 27.3965 116.442 27.6361 116.502 27.8771C116.564 28.1285 116.692 28.1285 116.87 27.9808C117.061 27.8214 117.251 27.6608 117.451 27.5131C117.932 27.1542 118.459 26.886 119.045 26.75C119.228 26.7072 119.425 26.7021 119.616 26.7047C119.912 26.7085 120.072 26.8783 120.096 27.1685C120.143 27.7385 120.003 28.2645 119.713 28.7568C119.595 28.9563 119.42 28.9757 119.221 28.9615C118.533 28.9148 117.845 28.8643 117.157 28.8255C116.599 28.7944 116.595 28.8008 116.593 29.3799C116.588 30.1767 116.59 30.9786 116.59 31.7806Z" fill="white"/>
<path d="M132.394 30.7713C132.394 31.8984 132.406 33.0255 132.387 34.1514C132.382 34.5025 132.508 34.6825 132.846 34.7538C133.052 34.7978 133.246 34.8937 133.45 34.9391C133.744 35.0038 133.79 35.1917 133.768 35.4508C133.745 35.7332 133.549 35.719 133.355 35.719C132.09 35.7203 130.825 35.7203 129.559 35.719C129.367 35.719 129.163 35.7371 129.125 35.4663C129.09 35.215 129.125 35.0077 129.418 34.9326C129.492 34.9132 129.561 34.8782 129.632 34.851C130.632 34.461 130.498 34.6825 130.503 33.6137C130.511 32.028 130.507 30.4435 130.505 28.8578C130.503 28.2774 130.5 28.2774 129.944 28.118C129.834 28.0869 129.725 28.0494 129.611 28.0273C129.302 27.9665 129.305 27.741 129.311 27.5001C129.318 27.241 129.491 27.1982 129.693 27.1684C130.414 27.0622 131.131 26.9443 131.852 26.8419C132.302 26.7784 132.359 26.8225 132.363 27.2759C132.371 28.4406 132.365 29.6066 132.365 30.7713C132.374 30.7713 132.384 30.7713 132.394 30.7713Z" fill="white"/>
<path d="M91.9993 30.6973C91.9993 31.7662 91.9928 32.835 92.0019 33.9025C92.0084 34.6125 92.0188 34.6125 92.6716 34.8185C92.8172 34.8651 92.9615 34.9156 93.1097 34.9571C93.3061 35.0115 93.3854 35.1372 93.3841 35.3367C93.3841 35.5867 93.3009 35.7292 93.0187 35.7228C92.5025 35.7124 91.985 35.7215 91.4675 35.7215C90.7017 35.7215 89.9358 35.7215 89.17 35.7189C88.9997 35.7176 88.8111 35.7383 88.7786 35.4921C88.7474 35.2538 88.7357 35.0335 89.0335 34.9377C89.2883 34.8547 89.5315 34.7394 89.7863 34.6578C90.0386 34.5775 90.1595 34.435 90.1582 34.159C90.1517 32.3271 90.1517 30.4952 90.1595 28.6633C90.1608 28.3861 90.0477 28.2358 89.7863 28.1749C89.6186 28.1361 89.4521 28.092 89.2883 28.0402C88.9489 27.9327 88.8995 27.8368 88.919 27.5051C88.9372 27.2085 89.1466 27.1955 89.3585 27.1644C90.0204 27.0659 90.6835 26.9649 91.3453 26.8625C91.9421 26.7693 91.9759 26.7913 91.9772 27.3782C91.9811 28.4846 91.9785 29.5923 91.9785 30.6986C91.9837 30.6973 91.9915 30.6973 91.9993 30.6973Z" fill="white"/>
<path d="M131.371 23.0437C132.088 23.032 132.621 23.545 132.621 24.2459C132.621 24.9416 132.08 25.4793 131.384 25.4754C130.7 25.4715 130.179 24.9714 130.154 24.2951C130.128 23.6202 130.678 23.0553 131.371 23.0437Z" fill="white"/>
<path d="M92.2372 24.2691C92.2268 24.9713 91.6898 25.4895 90.9863 25.4753C90.2712 25.461 89.7849 24.9454 89.8031 24.216C89.8187 23.541 90.3349 23.0435 91.0201 23.0422C91.734 23.0422 92.2476 23.5592 92.2372 24.2691Z" fill="white"/>
</svg>
