<svg width="166" height="53" viewBox="0 0 166 53" fill="none" xmlns="http://www.w3.org/2000/svg">
<path d="M50.2686 0.2229C50.2736 5.51276 50.2333 10.8077 50.2988 16.0975C50.3493 20.3183 50.3241 24.5442 50.3341 28.765C50.3543 35.4769 50.3493 42.1939 50.3543 48.9058C50.3543 49.758 50.3644 50.6102 50.3644 51.4625C50.3644 51.9314 50.3341 51.9617 49.85 51.9617C48.5792 51.9667 47.3034 51.9617 46.0327 51.9617C45.9368 51.9617 45.841 51.9566 45.7502 51.9516C45.5738 51.9365 45.483 51.8407 45.4779 51.6642C45.4779 51.5684 45.4729 51.4725 45.4779 51.3818C45.5536 50.1816 45.6343 48.9814 45.7049 47.7812C45.7654 46.808 45.8158 45.8347 45.8763 44.8665C45.9469 43.6916 46.0326 42.5166 46.0982 41.3467C46.1385 40.6861 46.1537 40.0255 46.1991 39.3598C46.2797 38.2554 46.31 37.146 46.4109 36.0417C46.4613 35.5021 46.4663 34.9625 46.5067 34.4229C46.5924 33.1976 46.6327 31.9671 46.7033 30.7367C46.7941 29.2541 46.9 27.7665 46.9958 26.2839C47.0412 25.5981 47.0513 24.9072 47.1017 24.2164C47.2076 22.6935 47.2479 21.1655 47.3891 19.6426C47.4396 19.1333 47.4295 18.6139 47.4749 18.1046C47.5404 17.3784 47.5505 16.6472 47.5858 15.916C47.6161 15.3764 47.6463 14.8368 47.6816 14.2973C47.6917 14.1762 47.7169 14.0552 47.7573 13.9392C48.554 11.6851 48.9927 9.34023 49.4063 6.99534C49.7038 5.33123 49.9307 3.65703 50.077 1.9677C50.1072 1.60462 50.1022 1.2365 50.1072 0.873422C50.1072 0.656583 50.1274 0.439737 50.1828 0.22794C50.2131 0.222898 50.2434 0.2229 50.2686 0.2229Z" fill="white"/>
<path d="M0.961339 51.402C1.53117 51.407 2.09092 51.2809 2.65067 51.1902C4.07777 50.9582 5.49983 50.6708 6.90676 50.348C8.39438 50.0001 9.87191 49.6017 11.3343 49.1579C12.9934 48.6537 14.6272 48.0788 16.2359 47.4333C17.552 46.9038 18.8531 46.334 20.1289 45.7087C21.904 44.8413 23.6387 43.8933 25.3078 42.8393C27.0022 41.7753 28.636 40.6205 30.1993 39.3598C31.3692 38.4168 32.4837 37.4133 33.588 36.3947C34.3545 35.6887 35.0404 34.902 35.7816 34.1708C35.8573 34.0952 35.9329 34.0145 36.0136 33.9489C36.0943 33.8834 36.1851 33.8683 36.2758 33.9187C36.3817 33.9742 36.4422 34.0599 36.4221 34.1809C36.4019 34.2868 36.3716 34.3927 36.3363 34.4936C35.8018 36.077 35.0706 37.5696 34.289 39.0421C33.7696 40.0204 33.2048 40.9786 32.6249 41.9216C31.2784 44.095 29.811 46.1877 28.1772 48.1645C27.1938 49.3546 26.1147 50.4539 25.0002 51.523C24.7178 51.7953 24.4052 51.8961 24.0169 51.8961C16.3317 51.8861 8.64147 51.8911 0.956299 51.8911C0.961342 51.7247 0.961339 51.5633 0.961339 51.402ZM35.6354 35.1037C35.4135 35.1693 35.3328 35.2601 35.2572 35.3508C34.8739 35.8249 34.405 36.2182 33.9713 36.6418C32.5543 38.0235 31.0515 39.2993 29.4731 40.4945C28.0712 41.5585 26.624 42.5519 25.1212 43.4747C23.1092 44.7052 21.0265 45.7994 18.8884 46.7828C16.3266 47.9577 13.6842 48.926 10.9864 49.7328C9.21131 50.2623 7.41608 50.7313 5.59564 51.0843C5.21239 51.1599 4.83923 51.2507 4.46102 51.3314C4.46102 51.3566 4.46607 51.3767 4.46607 51.402C4.60727 51.402 4.74846 51.402 4.8947 51.402C11.2133 51.402 17.5369 51.402 23.8555 51.402C23.9513 51.402 24.0471 51.3969 24.1379 51.402C24.3547 51.412 24.5262 51.3364 24.6825 51.1851C25.9735 49.9496 27.2089 48.6637 28.3234 47.2618C29.6042 45.6532 30.7893 43.9689 31.8886 42.2292C33.1745 40.1919 34.3596 38.0941 35.3177 35.8803C35.4186 35.6534 35.5093 35.4164 35.6354 35.1037Z" fill="white"/>
<path d="M46.2198 18.5935C46.3105 18.7044 46.2853 18.8154 46.2752 18.9213C46.124 20.4694 45.9475 22.0125 45.8264 23.5657C45.7004 25.1693 45.5188 26.7678 45.3877 28.3714C45.2617 29.854 45.0902 31.3315 44.9389 32.8091C44.7927 34.221 44.6666 35.6381 44.5052 37.045C44.3338 38.5477 44.1775 40.0555 43.9808 41.5583C43.7841 43.061 43.5975 44.5637 43.3706 46.0615C43.0983 47.8668 42.7705 49.667 42.3268 51.437C42.2007 51.9464 42.1805 51.9615 41.6762 51.9615C37.7227 51.9615 33.7742 51.9615 29.8207 51.9615C29.6795 51.9615 29.4828 52.027 29.4072 51.8808C29.3265 51.7194 29.5232 51.6287 29.6139 51.5278C31.4092 49.5157 32.8111 47.2415 34.0617 44.8562C35.3879 42.3248 36.5024 39.6975 37.5059 37.0198C38.3379 34.801 39.0994 32.562 39.7348 30.2776C39.8457 29.8792 40.0222 29.5262 40.2592 29.1934C41.53 27.4083 42.705 25.5525 43.7639 23.6363C44.6414 22.0478 45.4583 20.4291 46.0987 18.7297C46.1139 18.6742 46.134 18.6187 46.2198 18.5935Z" fill="white"/>
<path d="M129.415 41.2207C129.536 41.2156 129.577 41.1602 129.622 41.1097C130.323 40.3029 131.024 39.4961 131.725 38.6892C132.38 37.9328 133.036 37.1713 133.687 36.4149C133.777 36.3141 133.863 36.2132 133.949 36.1073C134.337 35.6232 134.125 35.003 133.515 34.8567C133.334 34.8113 133.142 34.8063 132.955 34.7659C132.738 34.7206 132.648 34.5894 132.673 34.3928C132.703 34.1961 132.854 34.1759 133.006 34.1759C134.1 34.1759 135.199 34.1759 136.294 34.1759C136.51 34.1759 136.727 34.1759 136.944 34.181C137.106 34.181 137.237 34.2264 137.252 34.423C137.267 34.6197 137.196 34.7155 136.984 34.7559C136.758 34.8012 136.526 34.8214 136.309 34.8819C135.966 34.9727 135.84 35.1341 135.804 35.482C135.794 35.603 135.794 35.7241 135.794 35.8451C135.794 38.0639 135.794 40.2878 135.794 42.5066C135.794 42.6024 135.794 42.6982 135.799 42.789C135.83 43.2983 136.072 43.5454 136.581 43.5958C136.717 43.611 136.853 43.6009 136.984 43.6261C137.191 43.6563 137.257 43.7572 137.252 43.9589C137.247 44.1404 137.156 44.2363 136.979 44.2463C136.884 44.2514 136.788 44.2564 136.697 44.2564C135.547 44.2564 134.398 44.2564 133.243 44.2564C133.147 44.2564 133.051 44.2564 132.96 44.2463C132.779 44.2363 132.693 44.1404 132.688 43.9589C132.683 43.7421 132.744 43.6513 132.945 43.621C133.091 43.6009 133.243 43.6059 133.389 43.5857C133.792 43.5252 134.014 43.3185 134.105 42.9201C134.13 42.8041 134.145 42.678 134.15 42.557C134.155 40.8223 134.155 39.0926 134.155 37.3579C134.155 37.2924 134.161 37.2218 134.115 37.1613C133.989 37.136 133.964 37.252 133.908 37.3176C132.764 38.6186 131.624 39.9196 130.479 41.2207C130.187 41.5585 129.899 41.9015 129.587 42.2191C129.319 42.4915 129.319 42.7991 129.43 43.1218C129.541 43.4445 129.814 43.5605 130.131 43.5908C130.278 43.6059 130.429 43.6059 130.575 43.621C130.757 43.6412 130.822 43.7673 130.822 43.9337C130.822 44.1051 130.752 44.2211 130.57 44.2413C130.474 44.2514 130.378 44.2514 130.288 44.2514C129.108 44.2514 127.933 44.2514 126.753 44.2514C126.657 44.2514 126.561 44.2514 126.47 44.2413C126.289 44.2211 126.213 44.1152 126.213 43.9387C126.213 43.7673 126.279 43.6463 126.455 43.621C126.617 43.6009 126.778 43.6059 126.939 43.5857C127.408 43.5252 127.63 43.2882 127.67 42.8142C127.681 42.7083 127.676 42.5974 127.676 42.4915C127.676 40.313 127.665 38.1345 127.681 35.951C127.686 35.0736 127.484 34.8315 126.622 34.771C126.541 34.7659 126.46 34.7559 126.385 34.7306C126.248 34.6853 126.213 34.5693 126.218 34.4382C126.223 34.297 126.284 34.2012 126.43 34.186C126.536 34.1759 126.647 34.1709 126.753 34.1709C127.933 34.1709 129.108 34.1709 130.288 34.1709C130.383 34.1709 130.479 34.1709 130.57 34.1759C130.731 34.186 130.817 34.2667 130.822 34.4331C130.827 34.6096 130.752 34.7155 130.575 34.7458C130.348 34.7861 130.116 34.8063 129.894 34.8668C129.496 34.9727 129.375 35.1189 129.37 35.5274C129.36 37.368 129.365 39.2086 129.365 41.0492C129.385 41.0997 129.4 41.1501 129.415 41.2207Z" fill="white"/>
<path d="M86.4164 37.091C85.9676 37.6003 85.5339 38.0794 85.1103 38.5635C84.253 39.5418 83.4058 40.5201 82.5486 41.4984C82.3267 41.7555 82.0998 42.0077 81.8779 42.2598C81.4896 42.6985 81.7014 43.4045 82.2763 43.5457C82.4578 43.5911 82.6545 43.581 82.841 43.6012C83.0881 43.6314 83.1638 43.7121 83.1638 43.9239C83.1587 44.1357 83.0831 44.2214 82.8259 44.2315C82.5032 44.2467 82.1754 44.2366 81.8527 44.2366C80.945 44.2366 80.0373 44.2366 79.1346 44.2366C79.0136 44.2366 78.8925 44.2315 78.7715 44.2164C78.6051 44.1912 78.5547 44.0702 78.5547 43.9189C78.5547 43.7726 78.595 43.6415 78.7614 43.6163C78.9329 43.5911 79.1144 43.5911 79.2859 43.5709C79.7095 43.5205 79.9162 43.3289 80.002 42.9154C80.0473 42.7036 80.0726 42.4867 80.0726 42.2699C80.0726 40.1973 80.0726 38.1298 80.0726 36.0572C80.0726 35.8252 80.0524 35.5983 79.9919 35.3714C79.9112 35.0537 79.7145 34.852 79.3767 34.8116C79.1901 34.7915 79.0035 34.7612 78.8119 34.731C78.6354 34.7057 78.5547 34.5948 78.5648 34.4183C78.5749 34.2317 78.6858 34.1611 78.8573 34.151C78.9228 34.146 78.9934 34.146 79.059 34.146C80.2642 34.146 81.4694 34.146 82.6746 34.146C82.7553 34.146 82.836 34.146 82.9167 34.151C83.078 34.1611 83.1638 34.2469 83.1688 34.4082C83.1739 34.5595 83.1234 34.6805 82.9621 34.7108C82.7503 34.7511 82.5334 34.7763 82.3216 34.8217C81.8779 34.9175 81.772 35.0486 81.7064 35.4975C81.661 35.795 81.6509 36.0875 81.6509 36.385C81.6509 37.8625 81.6509 39.335 81.6509 40.8125C81.6509 40.9588 81.6257 41.1101 81.6862 41.2613C81.8375 41.2866 81.898 41.1605 81.9686 41.0748C82.8814 40.0208 83.784 38.9618 84.6968 37.9079C85.2111 37.3128 85.7305 36.7279 86.25 36.1379C86.4315 35.9362 86.5374 35.7345 86.4567 35.442C86.3558 35.089 86.1642 34.8722 85.8011 34.8066C85.6297 34.7763 85.4532 34.7511 85.2817 34.7259C85.1002 34.6957 85.0397 34.5797 85.0447 34.4082C85.0548 34.2469 85.1355 34.1611 85.2969 34.151C85.3927 34.146 85.4885 34.146 85.5793 34.146C86.7441 34.146 87.909 34.146 89.0689 34.146C89.1495 34.146 89.2302 34.146 89.3109 34.151C89.4874 34.1561 89.5883 34.2418 89.5883 34.4233C89.5883 34.6049 89.4975 34.6957 89.326 34.7209C89.1647 34.741 89.0033 34.7612 88.847 34.7915C88.2822 34.9125 88.141 35.0638 88.1359 35.6437C88.1259 37.3229 88.1309 39.0022 88.1309 40.6764C88.1309 41.2966 88.1309 41.9219 88.1309 42.5422C88.1309 42.7338 88.1359 42.9204 88.2116 43.1019C88.3276 43.3793 88.5394 43.5255 88.8318 43.5508C88.9932 43.5659 89.1596 43.5608 89.316 43.581C89.5227 43.6113 89.5933 43.7071 89.5883 43.9088C89.5832 44.0853 89.5025 44.1861 89.321 44.2013C89.2252 44.2063 89.1294 44.2114 89.0386 44.2114C87.8737 44.2114 86.7088 44.2114 85.549 44.2114C85.4683 44.2114 85.3876 44.2063 85.3069 44.2063C85.1254 44.1962 85.0397 44.1004 85.0397 43.9189C85.0346 43.7071 85.0952 43.6113 85.2969 43.576C85.4431 43.5558 85.5944 43.5659 85.7406 43.5356C86.1188 43.465 86.3911 43.2734 86.4567 42.8649C86.4819 42.7187 86.5021 42.5725 86.5021 42.4212C86.5071 40.7419 86.5021 39.0627 86.5021 37.3885C86.492 37.333 86.5122 37.2372 86.4164 37.091Z" fill="white"/>
<path d="M72.7204 38.5481C73.3709 38.5481 74.0214 38.5532 74.6719 38.5481C75.0905 38.5481 75.1208 38.5179 75.1208 38.1195C75.1258 37.3732 75.1208 36.6319 75.1208 35.8856C75.1208 35.7797 75.1157 35.6687 75.0955 35.5628C75.03 35.1594 74.8232 34.8921 74.3996 34.8316C74.2282 34.8064 74.0517 34.7812 73.8802 34.7509C73.6937 34.7207 73.6432 34.5946 73.6584 34.4232C73.6684 34.2567 73.7642 34.1861 73.9206 34.1761C73.9861 34.171 74.0567 34.171 74.1223 34.171C75.3275 34.171 76.5327 34.171 77.738 34.171C77.8186 34.171 77.8993 34.171 77.98 34.1811C78.1464 34.1962 78.2069 34.3021 78.212 34.4585C78.217 34.6148 78.1615 34.7207 77.9951 34.7459C77.8085 34.7761 77.6169 34.7913 77.4354 34.8316C76.921 34.9426 76.7748 35.1039 76.7647 35.6385C76.7496 36.3697 76.7546 37.1009 76.7546 37.8321C76.7546 39.36 76.7546 40.893 76.7546 42.421C76.7546 42.653 76.7597 42.8799 76.8403 43.1018C76.9513 43.3993 77.1479 43.5707 77.4707 43.5909C77.6169 43.601 77.7682 43.601 77.9145 43.6161C78.1515 43.6464 78.222 43.7371 78.217 43.959C78.212 44.1658 78.0859 44.2414 77.8993 44.2465C77.8186 44.2515 77.738 44.2515 77.6573 44.2515C76.5226 44.2515 75.383 44.2515 74.2484 44.2515C74.1425 44.2515 74.0315 44.2565 73.9256 44.2364C73.7239 44.2061 73.6533 44.1103 73.6584 43.8985C73.6634 43.717 73.7491 43.6212 73.9307 43.6111C74.0668 43.601 74.203 43.601 74.3341 43.5859C74.7425 43.5455 75.0098 43.3085 75.0955 42.9101C75.1258 42.779 75.1308 42.6429 75.1308 42.5067C75.1359 41.5839 75.1359 40.6661 75.1308 39.7433C75.1308 39.3298 75.0955 39.2945 74.6972 39.2945C73.386 39.2894 72.0699 39.2894 70.7588 39.2945C70.3856 39.2945 70.3402 39.3399 70.3352 39.7181C70.3301 40.7064 70.3251 41.6948 70.3402 42.6832C70.3503 43.3186 70.5873 43.5455 71.2328 43.5909C71.3286 43.5959 71.4244 43.5959 71.5152 43.6111C71.727 43.6464 71.7925 43.7321 71.7925 43.9389C71.7875 44.1406 71.6866 44.2364 71.49 44.2414C71.4244 44.2465 71.3538 44.2465 71.2883 44.2465C70.083 44.2465 68.8778 44.2465 67.6726 44.2465C67.5919 44.2465 67.5112 44.2465 67.4305 44.2364C67.249 44.2162 67.1834 44.0952 67.1834 43.9237C67.1834 43.7523 67.254 43.6363 67.4356 43.6161C67.5969 43.601 67.7583 43.601 67.9197 43.5859C68.3231 43.5455 68.5551 43.3388 68.6408 42.9404C68.6862 42.7387 68.7013 42.542 68.7013 42.3353C68.7013 40.2526 68.7013 38.1649 68.7013 36.0822C68.7013 35.8503 68.6811 35.6233 68.6206 35.3964C68.5399 35.0787 68.3483 34.872 68.0105 34.8266C67.8239 34.8014 67.6322 34.7812 67.4457 34.7459C67.2288 34.7056 67.1633 34.6047 67.1734 34.4131C67.1885 34.2164 67.3146 34.171 67.481 34.166C67.7533 34.1609 68.0205 34.1609 68.2928 34.1609C69.2409 34.1609 70.1889 34.1609 71.137 34.1609C71.2429 34.1609 71.3538 34.1559 71.4597 34.166C71.7018 34.1811 71.7774 34.2517 71.7774 34.4433C71.7774 34.645 71.6614 34.7257 71.4748 34.756C71.263 34.7862 71.0462 34.8165 70.8344 34.872C70.4915 34.9627 70.3402 35.1241 70.3352 35.472C70.315 36.3898 70.315 37.3127 70.3251 38.2304C70.3251 38.4927 70.3856 38.5381 70.6882 38.5431C71.3689 38.5481 72.0447 38.5431 72.7204 38.5481Z" fill="white"/>
<path d="M70.7126 25.7446C70.9798 25.548 71.1664 25.2605 71.3833 25.0134C72.5734 23.6468 73.7584 22.2752 74.9435 20.9036C75.004 20.833 75.0695 20.7624 75.125 20.6867C75.4931 20.2278 75.2864 19.5975 74.7165 19.4462C74.5854 19.4109 74.4493 19.4059 74.3131 19.3907C73.9853 19.3453 73.8895 19.2697 73.9047 19.0579C73.9147 18.8612 74.0005 18.8058 74.3283 18.8058C75.1956 18.8007 76.063 18.8058 76.9253 18.8007C77.2884 18.8007 77.6565 18.7856 78.0196 18.7806C78.2616 18.7755 78.3423 18.836 78.3574 19.0277C78.3725 19.2243 78.2818 19.3302 78.0851 19.3554C77.9238 19.3756 77.7624 19.4008 77.6061 19.4311C77.1068 19.542 76.9454 19.7286 76.9253 20.2379C76.9202 20.3438 76.9202 20.4548 76.9202 20.5607C76.9202 22.6433 76.9202 24.731 76.9202 26.8137C76.9202 26.8944 76.9202 26.9751 76.9202 27.0557C76.9455 27.676 77.1875 27.9332 77.8128 27.9887C77.9187 27.9987 78.0296 28.0038 78.1355 28.0189C78.2969 28.0441 78.3574 28.1551 78.3574 28.3063C78.3574 28.4677 78.2818 28.5635 78.1154 28.5736C78.0196 28.5787 77.9238 28.5837 77.833 28.5837C76.6984 28.5837 75.5587 28.5837 74.4241 28.5837C74.3585 28.5837 74.2879 28.5837 74.2224 28.5837C74.0408 28.5837 73.9047 28.5282 73.8946 28.3114C73.8895 28.1198 73.9551 28.0441 74.1871 28.0088C74.3585 27.9836 74.535 27.9584 74.7065 27.9231C75.0342 27.8575 75.2309 27.6508 75.2763 27.323C75.3066 27.1213 75.3368 26.9196 75.3419 26.7179C75.3469 25.1496 75.3469 23.5762 75.3419 22.0079C75.3419 21.9071 75.3771 21.7911 75.2712 21.6902C75.12 21.7558 75.0292 21.897 74.9283 22.013C73.9147 23.1728 72.9012 24.3377 71.8876 25.5026C71.5245 25.9211 71.1564 26.3346 70.7983 26.7582C70.4958 27.1163 70.6773 27.7416 71.1261 27.8979C71.3328 27.9685 71.5497 27.9987 71.7665 28.0038C71.9531 28.0088 72.0842 28.0744 72.0842 28.2862C72.0842 28.4929 72.0035 28.5736 71.7363 28.5787C71.4236 28.5887 71.116 28.5837 70.8034 28.5837C69.936 28.5837 69.0687 28.5837 68.2063 28.5837C68.0853 28.5837 67.9643 28.5787 67.8433 28.5686C67.697 28.5534 67.6365 28.4576 67.6315 28.3215C67.6264 28.1702 67.6617 28.0492 67.8332 28.024C68.0349 27.9937 68.2315 27.9634 68.4333 27.9382C68.7661 27.8979 68.9325 27.6911 68.988 27.3785C69.0132 27.2322 69.0233 27.081 69.0233 26.9347C69.0233 24.7714 69.0233 22.603 69.0233 20.4396C69.0233 20.3741 69.0233 20.3035 69.0182 20.2379C68.993 19.7084 68.7812 19.4815 68.2568 19.4159C68.1509 19.4008 68.0399 19.4059 67.934 19.3857C67.6869 19.3453 67.6163 19.2647 67.6264 19.0478C67.6365 18.8461 67.692 18.8007 67.9542 18.8007C69.2149 18.8007 70.4705 18.8058 71.7312 18.8058C71.8926 18.8058 72.0741 18.7806 72.0842 19.0226C72.0943 19.2294 72.0136 19.3252 71.7766 19.3706C71.6304 19.3958 71.4791 19.4008 71.3328 19.426C70.8639 19.5168 70.6723 19.7185 70.647 20.1925C70.6269 20.5707 70.6319 20.949 70.6319 21.3272C70.6319 22.719 70.6319 24.1158 70.6319 25.5076C70.647 25.5833 70.6067 25.669 70.7126 25.7446Z" fill="white"/>
<path d="M60.9254 20.2781C60.88 19.7385 60.7893 19.6225 60.3203 19.4813C60.2043 19.446 60.0833 19.4258 59.9623 19.4107C59.6143 19.3603 59.5185 19.2846 59.5437 19.0476C59.5639 18.8459 59.6395 18.8056 60.0127 18.8056C60.6884 18.8056 61.3641 18.8056 62.0399 18.8056C62.5694 18.8056 63.0938 18.8056 63.6233 18.8056C63.7544 18.8056 63.9006 18.7904 63.9763 18.9468C64.0771 19.1535 63.9712 19.3653 63.7393 19.3905C63.467 19.4208 63.1997 19.4359 62.9526 19.562C62.7206 19.6729 62.5996 19.8444 62.6047 20.1066C62.6097 20.2428 62.6702 20.3134 62.8114 20.2629C63.1089 20.1621 63.4165 20.1066 63.7241 20.0713C65.3378 19.8746 66.9717 20.7823 67.3499 22.5927C67.6424 23.9946 66.9515 25.6183 65.7312 26.3495C65.1966 26.6672 64.6117 26.8034 63.9813 26.7429C63.6183 26.7076 63.2552 26.6824 62.8971 26.6017C62.7055 26.5563 62.6097 26.6319 62.6097 26.8236C62.6097 26.9698 62.6047 27.1211 62.6198 27.2673C62.6601 27.6808 62.8669 27.9027 63.2753 27.9784C63.4216 28.0036 63.5729 27.9985 63.7191 28.0187C63.9511 28.054 64.0217 28.1498 64.0116 28.3717C64.0015 28.5835 63.8704 28.6491 63.6888 28.6491C63.23 28.6541 62.7711 28.6541 62.3071 28.6541C61.5104 28.6541 60.7086 28.6591 59.9118 28.6491C59.6193 28.644 59.5235 28.5381 59.5387 28.2961C59.5487 28.1397 59.6244 28.0389 59.7858 28.0238C59.9219 28.0086 60.0581 28.0137 60.1892 27.9985C60.7086 27.9481 60.9355 27.7212 60.9859 27.2018C61.0464 26.6067 61.0162 26.5916 60.4262 26.6824C59.9219 26.7631 59.4176 26.8337 58.8932 26.7479C57.7636 26.5613 56.9971 25.9159 56.5281 24.9124C56.1802 24.1761 56.0894 23.3844 56.2457 22.5725C56.4878 21.3118 57.5367 20.3789 58.7822 20.1318C59.4075 20.0057 60.0177 20.0663 60.6229 20.2528C60.7136 20.2831 60.7994 20.3386 60.9254 20.2781ZM63.7443 20.7874C63.6082 20.7874 63.472 20.7773 63.3409 20.7874C62.7307 20.8428 62.5643 21.0294 62.5593 21.6346C62.5593 22.7994 62.5593 23.9593 62.5593 25.1242C62.5593 25.2603 62.5694 25.3965 62.5744 25.5276C62.5845 25.7646 62.7055 25.8957 62.9324 25.9562C63.2501 26.0419 63.5729 26.0571 63.8956 26.0571C64.7226 26.0621 65.2773 25.6637 65.6051 24.9224C65.8724 24.3123 65.9329 23.6718 65.9026 23.0163C65.8976 22.9104 65.8673 22.7994 65.8673 22.6935C65.832 21.4631 64.8689 20.7521 63.7443 20.7874ZM60.996 23.4853C60.996 22.8095 61.001 22.1338 60.991 21.4581C60.9859 21.095 60.9254 21.0294 60.5825 20.8983C60.2446 20.7672 59.8866 20.7622 59.5387 20.8076C58.7066 20.9185 57.9502 21.3824 57.7535 22.3809C57.6476 22.9205 57.6325 23.46 57.6779 23.9946C57.7233 24.5291 57.93 25.0132 58.2527 25.4469C58.4898 25.7646 58.8074 25.9713 59.1957 26.0319C59.6496 26.0974 60.1135 26.1075 60.5674 26.0016C60.9456 25.9108 60.9809 25.8705 60.9859 25.4772C60.996 24.8115 60.996 24.1459 60.996 23.4853Z" fill="white"/>
<path d="M162.814 21.7148C162.678 21.7148 162.647 21.8207 162.587 21.8862C161.306 23.3537 160.025 24.8211 158.739 26.2835C158.608 26.4348 158.462 26.5811 158.331 26.7323C157.998 27.1206 158.19 27.7661 158.684 27.9123C158.85 27.9628 159.027 27.9829 159.203 28.0031C159.526 28.0435 159.617 28.1191 159.597 28.341C159.576 28.5326 159.501 28.583 159.163 28.583C158.664 28.5881 158.159 28.583 157.66 28.583C157.01 28.583 156.359 28.583 155.714 28.583C155.608 28.583 155.497 28.583 155.391 28.578C155.204 28.5679 155.134 28.457 155.134 28.2805C155.134 28.1191 155.214 28.0334 155.376 28.0132C155.562 27.993 155.754 27.9729 155.941 27.9426C156.258 27.8922 156.44 27.6905 156.516 27.3879C156.561 27.2013 156.586 27.0147 156.586 26.8231C156.586 24.7253 156.586 22.6275 156.586 20.5297C156.586 20.4238 156.581 20.3129 156.566 20.207C156.49 19.6876 156.238 19.4455 155.714 19.4002C155.593 19.3901 155.472 19.38 155.351 19.3548C155.194 19.3245 155.129 19.2136 155.139 19.0573C155.144 18.8908 155.24 18.8152 155.396 18.8051C155.517 18.8001 155.638 18.8001 155.759 18.8001C156.909 18.795 158.059 18.79 159.208 18.7849C159.304 18.7849 159.4 18.7749 159.486 18.8253C159.592 18.8908 159.602 19.0018 159.592 19.1127C159.581 19.2337 159.521 19.3195 159.4 19.3396C159.213 19.3749 159.027 19.3951 158.84 19.4355C158.341 19.5414 158.164 19.733 158.159 20.2373C158.149 21.9821 158.149 23.7269 158.144 25.4767C158.144 25.5574 158.139 25.6381 158.195 25.7087C158.361 25.6986 158.422 25.5624 158.507 25.4666C159.587 24.221 160.661 22.9654 161.74 21.7198C162.022 21.3921 162.305 21.0643 162.597 20.7415C162.814 20.4995 162.91 20.2423 162.763 19.9296C162.627 19.6321 162.405 19.4607 162.083 19.4203C161.977 19.4052 161.866 19.4002 161.76 19.385C161.473 19.3396 161.387 19.259 161.397 19.0472C161.407 18.8354 161.508 18.7648 161.8 18.7749C162.042 18.7849 162.284 18.8051 162.532 18.8051C163.52 18.8051 164.508 18.8051 165.497 18.8001C165.643 18.8001 165.804 18.7597 165.86 18.9665C165.91 19.1631 165.835 19.2993 165.618 19.3497C165.431 19.3901 165.245 19.4102 165.058 19.4455C164.705 19.5212 164.468 19.7027 164.448 20.0961C164.438 20.2726 164.418 20.444 164.418 20.6205C164.418 22.6527 164.418 24.6799 164.418 26.7122C164.418 26.929 164.433 27.1408 164.478 27.3576C164.554 27.7005 164.75 27.9123 165.103 27.9628C165.275 27.988 165.451 28.0031 165.628 28.0233C165.814 28.0435 165.88 28.1494 165.875 28.3259C165.87 28.4872 165.784 28.578 165.628 28.5881C165.532 28.5931 165.436 28.5931 165.345 28.5931C164.211 28.5931 163.071 28.5931 161.936 28.5931C161.841 28.5931 161.745 28.5931 161.654 28.5881C161.488 28.578 161.412 28.4822 161.412 28.3208C161.412 28.1695 161.462 28.0535 161.629 28.0283C161.815 27.9981 162.002 27.9829 162.189 27.9527C162.537 27.8972 162.738 27.6753 162.814 27.3425C162.844 27.1963 162.859 27.05 162.859 26.8987C162.864 25.275 162.859 23.6512 162.859 22.0274C162.854 21.9115 162.874 21.8056 162.814 21.7148Z" fill="white"/>
<path d="M84.0419 23.7875C83.4066 23.7875 82.7712 23.7825 82.1358 23.7875C81.7525 23.7925 81.7223 23.8228 81.7223 24.2111C81.7172 25.1339 81.7122 26.0517 81.7223 26.9745C81.7273 27.6603 81.9794 27.9175 82.6653 27.9932C82.7459 28.0033 82.8266 28.0083 82.9073 28.0133C83.0889 28.0234 83.1746 28.1192 83.1746 28.3008C83.1746 28.4823 83.0889 28.5781 82.9073 28.5832C82.867 28.5832 82.8266 28.5882 82.7863 28.5882C81.5558 28.5882 80.3204 28.5933 79.0899 28.5882C78.7975 28.5882 78.7218 28.5277 78.7067 28.3361C78.6916 28.1646 78.747 28.0436 78.9336 28.0184C79.1353 27.9932 79.337 27.968 79.5337 27.9327C79.8363 27.8822 80.0128 27.7007 80.0783 27.4082C80.1287 27.1813 80.154 26.9544 80.154 26.7224C80.154 24.6801 80.154 22.6327 80.154 20.5904C80.154 20.4694 80.154 20.3483 80.1338 20.2273C80.0582 19.6726 79.8262 19.4558 79.2614 19.4053C79.1656 19.3953 79.0698 19.3953 78.979 19.3751C78.7521 19.3297 78.6764 19.2188 78.7017 19.007C78.7269 18.7952 78.8781 18.8002 79.0345 18.8053C80.1691 18.8053 81.3088 18.8053 82.4434 18.8053C82.6047 18.8053 82.7661 18.8002 82.9325 18.8002C83.0788 18.8002 83.1645 18.8658 83.1695 19.012C83.1796 19.1532 83.1695 19.2944 82.9981 19.3347C82.8518 19.37 82.7056 19.3852 82.5594 19.4053C81.9593 19.481 81.7374 19.6928 81.7273 20.2929C81.7122 21.0896 81.7172 21.8914 81.7223 22.6882C81.7223 23.0109 81.7677 23.0462 82.1156 23.0513C82.6552 23.0563 83.1998 23.0513 83.7394 23.0513C84.4857 23.0513 85.227 23.0563 85.9733 23.0513C86.3818 23.0513 86.412 23.021 86.412 22.6075C86.4171 21.8612 86.4171 21.1199 86.412 20.3736C86.407 19.723 86.175 19.4759 85.5245 19.4003C85.4035 19.3852 85.2825 19.37 85.1665 19.3398C85.0051 19.2994 84.9648 19.1734 84.9799 19.0271C84.995 18.8809 85.0908 18.8153 85.227 18.8103C85.2926 18.8053 85.3631 18.8053 85.4287 18.8053C86.6591 18.8002 87.8946 18.8002 89.125 18.7952C89.3066 18.7952 89.4528 18.8254 89.478 19.0372C89.4982 19.1885 89.4528 19.3095 89.2864 19.3398C89.0998 19.3751 88.9132 19.3953 88.7267 19.4255C88.2073 19.5163 88.0459 19.6877 88.0459 20.2122C88.0358 21.8914 88.0408 23.5707 88.0358 25.2449C88.0358 25.8651 88.0308 26.4904 88.0409 27.1107C88.0509 27.6906 88.2577 27.9074 88.8376 27.9831C88.9586 27.9982 89.0797 28.0033 89.2007 28.0133C89.3621 28.0335 89.4377 28.1243 89.4377 28.2856C89.4377 28.4621 89.3621 28.568 89.1755 28.5781C89.0797 28.5832 88.9839 28.5832 88.8931 28.5832C87.7685 28.5832 86.644 28.5832 85.5245 28.5832C85.4186 28.5832 85.3077 28.5832 85.2018 28.568C85.0354 28.5479 84.9799 28.4319 84.9799 28.2806C84.9799 28.1445 85.0454 28.0486 85.1866 28.0234C85.3329 27.9982 85.4842 27.9881 85.6304 27.9579C86.1851 27.857 86.4019 27.62 86.412 27.0552C86.4272 26.2685 86.4171 25.4869 86.4171 24.7002C86.4171 24.5238 86.4221 24.3473 86.4171 24.1708C86.407 23.8379 86.3717 23.7925 86.0389 23.7875C85.3682 23.7825 84.7076 23.7875 84.0419 23.7875Z" fill="white"/>
<path d="M105.795 23.0465C106.446 23.0465 107.096 23.0515 107.747 23.0465C108.135 23.0414 108.18 23.0112 108.175 22.633C108.16 21.811 108.241 20.984 108.115 20.162C108.039 19.6728 107.842 19.4812 107.358 19.4106C107.222 19.3905 107.091 19.3804 106.955 19.3552C106.773 19.3199 106.713 19.1988 106.728 19.0274C106.743 18.8559 106.859 18.8055 107.01 18.8004C107.076 18.8004 107.147 18.7954 107.212 18.7954C108.432 18.7904 109.648 18.7853 110.868 18.7803C111.035 18.7803 111.166 18.8055 111.186 19.0022C111.206 19.1988 111.14 19.2946 110.929 19.34C110.732 19.3854 110.525 19.4005 110.329 19.451C109.93 19.5569 109.789 19.7283 109.749 20.1317C109.734 20.3082 109.734 20.4847 109.734 20.6612C109.734 22.6632 109.734 24.6702 109.734 26.6722C109.734 26.9042 109.728 27.1311 109.779 27.358C109.855 27.6808 110.031 27.8926 110.374 27.9379C110.561 27.9632 110.747 27.9884 110.939 28.0085C111.125 28.0287 111.191 28.1447 111.186 28.3162C111.181 28.4826 111.09 28.5632 110.934 28.5683C110.853 28.5733 110.772 28.5733 110.692 28.5733C109.542 28.5733 108.392 28.5733 107.237 28.5733C107.142 28.5733 107.046 28.5733 106.955 28.5632C106.789 28.5481 106.728 28.4372 106.728 28.2859C106.728 28.1296 106.794 28.0287 106.96 28.0035C107.147 27.9783 107.333 27.9531 107.52 27.9178C107.868 27.8522 108.069 27.6455 108.115 27.2925C108.145 27.0655 108.185 26.8386 108.185 26.6067C108.18 25.82 108.185 25.0383 108.185 24.2517C108.185 23.8079 108.16 23.7827 107.737 23.7827C106.476 23.7777 105.22 23.7777 103.96 23.7827C103.521 23.7827 103.486 23.818 103.486 24.2365C103.48 25.1442 103.486 26.0519 103.486 26.9596C103.486 27.0807 103.491 27.2017 103.511 27.3227C103.561 27.6303 103.728 27.8472 104.04 27.9127C104.237 27.9581 104.439 27.9783 104.64 28.0035C104.827 28.0287 104.892 28.1346 104.887 28.3111C104.882 28.4775 104.797 28.5582 104.635 28.5683C104.539 28.5733 104.444 28.5784 104.353 28.5784C103.218 28.5784 102.079 28.5784 100.944 28.5784C100.848 28.5784 100.752 28.5784 100.662 28.5733C100.495 28.5632 100.425 28.4624 100.425 28.3061C100.425 28.1548 100.48 28.0388 100.646 28.0136C100.848 27.9833 101.05 27.9732 101.247 27.9279C101.645 27.8421 101.796 27.6757 101.857 27.2723C101.877 27.1412 101.877 27 101.877 26.8689C101.877 24.756 101.877 22.643 101.877 20.5352C101.877 20.52 101.877 20.5099 101.877 20.4948C101.897 19.8695 101.786 19.4157 100.878 19.3854C100.813 19.3854 100.742 19.3703 100.677 19.3552C100.475 19.3047 100.409 19.1988 100.43 19.0072C100.45 18.8105 100.571 18.7652 100.742 18.7752C101.867 18.8257 102.991 18.7853 104.111 18.8004C104.287 18.8004 104.464 18.7954 104.64 18.7954C104.761 18.7954 104.892 18.7803 104.923 18.9517C104.953 19.1232 104.872 19.2896 104.711 19.335C104.58 19.3703 104.444 19.3905 104.313 19.4056C104.136 19.4258 103.97 19.4913 103.808 19.5569C103.662 19.6224 103.566 19.7334 103.536 19.8897C103.496 20.1015 103.45 20.3133 103.465 20.5352C103.506 21.2512 103.511 21.9673 103.46 22.6834C103.44 22.996 103.48 23.0465 103.788 23.0515C104.439 23.0515 105.114 23.0465 105.795 23.0465Z" fill="white"/>
<path d="M95.5037 38.7699C95.892 38.8859 96.2197 38.9615 96.5274 39.1078C98.4386 40.0104 98.3982 42.204 97.3594 43.2983C96.7745 43.9186 96.018 44.2211 95.1759 44.2363C93.5673 44.2665 91.9586 44.2463 90.35 44.2413C90.2188 44.2413 90.0726 44.2564 89.9718 44.1354C89.8205 43.9488 89.9365 43.6463 90.1836 43.611C90.355 43.5857 90.5366 43.5958 90.708 43.5706C91.1064 43.5051 91.3283 43.268 91.3686 42.8646C91.3837 42.7285 91.3787 42.5923 91.3787 42.4612C91.3787 40.2979 91.3787 38.1345 91.3787 35.9712C91.3787 35.8098 91.3787 35.6434 91.3585 35.4871C91.3081 35.0736 91.1265 34.8971 90.713 34.8315C90.5416 34.8012 90.3651 34.7861 90.1886 34.7609C89.997 34.7306 89.9062 34.6197 89.9163 34.423C89.9264 34.2264 90.0575 34.181 90.2239 34.1759C90.3298 34.1759 90.4407 34.1709 90.5466 34.1709C92.009 34.1709 93.4664 34.1709 94.9288 34.1709C95.4835 34.1709 95.9979 34.3121 96.4769 34.5844C97.7628 35.3055 97.7931 37.0201 96.9862 37.9227C96.7291 38.2051 96.3912 38.3867 96.0332 38.5278C95.8768 38.5833 95.7003 38.6136 95.5037 38.7699ZM93.0075 40.9837C93.0075 41.4022 93.0075 41.8208 93.0075 42.2393C93.0075 42.441 93.0327 42.6427 93.0731 42.8445C93.1386 43.1722 93.3403 43.3739 93.6479 43.4647C93.9354 43.5504 94.2278 43.6009 94.5254 43.5807C95.2616 43.5353 95.7709 43.1823 96.0332 42.4864C96.245 41.9166 96.3004 41.3266 96.2097 40.7315C96.0836 39.9045 95.6197 39.4406 94.7977 39.2641C94.3338 39.1632 93.8597 39.138 93.3857 39.1481C93.0579 39.1531 93.0176 39.1884 93.0125 39.5263C93.0025 40.0104 93.0075 40.4945 93.0075 40.9837ZM93.0075 36.6973C93.0075 36.9394 93.0075 37.1865 93.0075 37.4285C93.0075 37.6706 93.0025 37.9177 93.0075 38.1597C93.0176 38.5178 93.0529 38.5581 93.416 38.543C93.8194 38.5228 94.2278 38.4925 94.6212 38.3867C95.2616 38.2152 95.665 37.7563 95.7356 37.0907C95.781 36.6721 95.776 36.2536 95.6701 35.8401C95.5289 35.2551 95.1809 34.9324 94.5909 34.8315C94.1875 34.7609 93.7841 34.7559 93.3756 34.7659C93.0478 34.776 93.0126 34.8113 93.0075 35.1542C93.0025 35.6686 93.0075 36.183 93.0075 36.6973Z" fill="white"/>
<path d="M138.548 23.2834C138.739 23.3389 138.931 23.3943 139.123 23.4548C139.516 23.5759 139.859 23.7776 140.182 24.0348C141.412 25.0131 141.412 27.4285 139.43 28.3312C139.072 28.4926 138.689 28.5833 138.291 28.5833C136.722 28.5783 135.154 28.5833 133.581 28.5833C133.485 28.5833 133.389 28.5833 133.298 28.5732C133.132 28.5581 133.066 28.4472 133.066 28.2959C133.066 28.1396 133.137 28.0387 133.298 28.0185C133.5 27.9933 133.702 27.9732 133.898 27.9379C134.256 27.8673 134.438 27.6807 134.488 27.3126C134.508 27.1663 134.508 27.015 134.508 26.8688C134.508 24.7559 134.508 22.648 134.508 20.5351C134.508 20.4796 134.508 20.4292 134.508 20.3737C134.483 19.6728 134.287 19.461 133.596 19.3954C133.5 19.3853 133.409 19.3752 133.313 19.3601C133.117 19.3299 133.046 19.2038 133.056 19.0122C133.071 18.8054 133.207 18.7903 133.369 18.7903C134.629 18.7953 135.885 18.7903 137.146 18.8004C137.67 18.8054 138.2 18.755 138.724 18.8861C138.976 18.9466 139.218 19.0323 139.44 19.1634C140.136 19.5769 140.514 20.1821 140.504 20.999C140.494 21.8159 140.156 22.4614 139.415 22.8648C139.143 23.0111 138.855 23.1271 138.548 23.2834ZM136.122 25.4921C136.122 25.7342 136.122 25.9813 136.122 26.2233C136.122 26.4805 136.117 26.7377 136.127 26.9949C136.152 27.5849 136.405 27.8521 136.995 27.9126C137.181 27.9328 137.373 27.9328 137.559 27.9278C138.391 27.9177 138.891 27.5193 139.107 26.7074C139.223 26.2687 139.239 25.8249 139.218 25.3812C139.183 24.5138 138.659 23.8885 137.811 23.7423C137.388 23.6666 136.954 23.6162 136.52 23.6263C136.173 23.6364 136.127 23.6717 136.127 24.0297C136.117 24.5189 136.122 25.008 136.122 25.4921ZM136.122 21.1856C136.122 21.6596 136.122 22.1336 136.122 22.6077C136.122 22.6329 136.122 22.6631 136.122 22.6883C136.142 22.9909 136.188 23.0413 136.485 23.0413C136.894 23.0413 137.297 22.9959 137.69 22.89C138.21 22.7488 138.568 22.411 138.689 21.8765C138.805 21.3823 138.795 20.883 138.664 20.3939C138.497 19.7686 138.129 19.4559 137.484 19.4105C137.161 19.3853 136.833 19.3904 136.51 19.3954C136.168 19.4005 136.122 19.4509 136.117 19.8089C136.117 20.2678 136.122 20.7267 136.122 21.1856Z" fill="white"/>
<path d="M132.411 23.7024C132.441 25.4674 131.745 26.8844 130.313 27.9182C129.249 28.6847 128.034 28.9519 126.738 28.8561C125.724 28.7805 124.796 28.4527 123.994 27.8425C122.779 26.9147 122.124 25.654 122.003 24.1311C121.907 22.9208 122.169 21.7912 122.835 20.7625C123.45 19.8144 124.307 19.169 125.371 18.8311C126.874 18.352 128.377 18.3924 129.784 19.1488C131.453 20.0464 132.345 21.4634 132.411 23.3797C132.416 23.4856 132.411 23.5965 132.411 23.7024ZM130.611 23.7327C130.656 22.8351 130.52 21.9728 130.192 21.1457C129.854 20.2935 129.289 19.643 128.407 19.3203C127.938 19.1488 127.454 19.1488 126.965 19.1538C126.349 19.1589 125.795 19.3505 125.306 19.7186C124.675 20.1977 124.332 20.8633 124.095 21.5945C123.894 22.2047 123.838 22.8401 123.823 23.4755C123.793 24.5799 123.924 25.6641 124.458 26.6625C125.517 28.6544 128.104 28.5384 129.234 27.5702C129.789 27.0962 130.142 26.5062 130.343 25.8153C130.54 25.1295 130.646 24.4387 130.611 23.7327Z" fill="white"/>
<path d="M151.393 44.2463C150.228 44.2463 149.063 44.2463 147.898 44.2463C147.777 44.2463 147.656 44.2463 147.535 44.2362C147.363 44.2261 147.263 44.1353 147.257 43.9538C147.247 43.7571 147.323 43.6512 147.525 43.6159C147.671 43.5907 147.822 43.6008 147.969 43.5857C148.397 43.5403 148.604 43.3638 148.7 42.9503C148.75 42.7233 148.78 42.4964 148.78 42.2645C148.78 40.207 148.78 38.1496 148.78 36.0921C148.78 35.8753 148.755 35.6584 148.71 35.4466C148.619 35.0483 148.427 34.8768 148.019 34.8213C147.842 34.7961 147.671 34.7759 147.494 34.7507C147.313 34.7205 147.252 34.6045 147.263 34.428C147.273 34.2666 147.358 34.1809 147.52 34.1708C147.616 34.1658 147.711 34.1658 147.802 34.1658C149.925 34.1658 152.053 34.1658 154.176 34.1658C154.242 34.1658 154.312 34.1658 154.378 34.1658C154.66 34.1859 154.711 34.2162 154.746 34.4885C154.827 35.0936 154.897 35.6988 154.963 36.3039C154.983 36.4653 154.998 36.6418 154.776 36.6922C154.569 36.7426 154.413 36.6619 154.348 36.43C154.237 36.0467 154.08 35.6937 153.833 35.3811C153.586 35.0684 153.274 34.8818 152.875 34.8264C152.149 34.7205 151.418 34.7659 150.687 34.7709C150.424 34.7709 150.369 34.8415 150.359 35.1289C150.349 35.5475 150.354 35.966 150.354 36.3896C150.354 36.9998 150.349 37.61 150.359 38.2151C150.364 38.5026 150.409 38.5429 150.692 38.558C150.908 38.5681 151.125 38.5681 151.342 38.558C152.038 38.5278 152.371 38.2454 152.532 37.5596C152.603 37.252 152.683 37.1763 152.91 37.2015C153.047 37.2166 153.137 37.2822 153.158 37.4234C153.173 37.5192 153.178 37.61 153.178 37.7058C153.178 38.5328 153.178 39.3548 153.178 40.1818C153.178 40.2625 153.173 40.3432 153.168 40.4238C153.152 40.5802 153.062 40.6659 152.9 40.6709C152.739 40.676 152.598 40.6457 152.552 40.4642C152.512 40.2927 152.472 40.1213 152.431 39.9498C152.341 39.5464 152.078 39.3245 151.675 39.2539C151.327 39.1934 150.974 39.2186 150.621 39.2237C150.46 39.2237 150.369 39.3044 150.359 39.4708C150.354 39.5514 150.354 39.6321 150.354 39.7128C150.354 40.5398 150.359 41.3618 150.354 42.1888C150.349 43.0259 150.606 43.5604 151.776 43.5907C152.265 43.6008 152.749 43.5907 153.233 43.4949C153.985 43.3487 154.499 42.92 154.827 42.2443C154.938 42.0123 155.033 41.7753 155.094 41.5232C155.119 41.4173 155.154 41.3164 155.2 41.2156C155.265 41.0592 155.407 41.0592 155.543 41.0794C155.674 41.0996 155.709 41.2004 155.719 41.3164C155.724 41.3568 155.724 41.3971 155.724 41.4374C155.674 42.2342 155.634 43.031 155.568 43.8277C155.533 44.2311 155.502 44.2463 155.089 44.2463C153.858 44.2463 152.623 44.2463 151.393 44.2463Z" fill="white"/>
<path d="M103.091 44.2463C101.926 44.2463 100.762 44.2463 99.6018 44.2463C99.4959 44.2463 99.3849 44.2514 99.279 44.2413C99.0218 44.2211 98.9462 44.1505 98.9412 43.9337C98.9361 43.7118 99.0118 43.6311 99.2588 43.6059C99.4051 43.5908 99.5564 43.5958 99.7026 43.5807C100.086 43.5353 100.318 43.3235 100.383 42.9403C100.424 42.7033 100.454 42.4562 100.454 42.2141C100.459 40.1718 100.459 38.1295 100.459 36.0821C100.459 35.8653 100.434 35.6484 100.393 35.4366C100.333 35.0887 100.136 34.8819 99.7833 34.8265C99.5967 34.7962 99.4051 34.7811 99.2185 34.7508C99.0067 34.7155 98.9361 34.6147 98.9462 34.423C98.9563 34.2314 99.0773 34.1709 99.2437 34.1709C99.3395 34.1709 99.4353 34.1709 99.5261 34.1709C101.624 34.1709 103.722 34.1709 105.819 34.1709C106.389 34.1709 106.399 34.1709 106.47 34.7407C106.536 35.2753 106.601 35.8148 106.641 36.3544C106.662 36.6418 106.49 36.7679 106.248 36.6923C106.127 36.6519 106.087 36.5612 106.051 36.4553C105.971 36.193 105.865 35.9459 105.739 35.7089C105.451 35.1895 105.043 34.8769 104.428 34.8164C103.752 34.7508 103.076 34.7811 102.4 34.776C102.098 34.776 102.042 34.8315 102.042 35.1391C102.037 36.1678 102.037 37.1966 102.042 38.2253C102.042 38.5178 102.088 38.5531 102.375 38.5631C102.617 38.5732 102.864 38.5732 103.106 38.5581C103.767 38.5077 104.095 38.2001 104.216 37.5344C104.241 37.3983 104.261 37.2672 104.423 37.2167C104.675 37.136 104.861 37.247 104.861 37.5142C104.871 38.4623 104.866 39.4103 104.861 40.3584C104.861 40.5449 104.781 40.666 104.579 40.6811C104.367 40.6962 104.271 40.6206 104.216 40.3886C104.191 40.2726 104.176 40.1466 104.145 40.0306C104.004 39.4961 103.797 39.3044 103.248 39.249C102.955 39.2187 102.653 39.2237 102.355 39.2338C102.098 39.2389 102.047 39.2893 102.042 39.5515C102.032 40.0407 102.037 40.5248 102.037 41.0139C102.037 41.4476 102.032 41.8813 102.037 42.315C102.053 43.1369 102.466 43.5656 103.288 43.6009C103.818 43.6261 104.342 43.611 104.866 43.5202C105.608 43.3992 106.132 43.0109 106.47 42.3503C106.621 42.0477 106.747 41.735 106.833 41.4073C106.863 41.3014 106.873 41.1854 106.979 41.1299C107.09 41.0694 107.216 41.0644 107.332 41.1198C107.453 41.1753 107.443 41.2913 107.438 41.4022C107.393 42.1839 107.342 42.9655 107.297 43.7522C107.272 44.1909 107.206 44.2615 106.752 44.2665C105.532 44.2463 104.312 44.2463 103.091 44.2463Z" fill="white"/>
<path d="M110.278 34.1656C110.848 34.1656 111.412 34.1605 111.982 34.1656C112.552 34.1706 113.117 34.211 113.672 34.3471C114.867 34.6345 115.588 35.4767 115.588 36.7626C115.588 37.6501 115.295 38.3763 114.605 38.931C114.105 39.3294 113.5 39.4302 112.89 39.4605C112.335 39.4907 111.781 39.4706 111.226 39.4756C110.833 39.4806 110.802 39.5059 110.797 39.8841C110.792 40.7918 110.787 41.6944 110.802 42.6021C110.812 43.3031 111.065 43.5552 111.755 43.5955C111.821 43.6006 111.892 43.5955 111.957 43.6056C112.199 43.6359 112.265 43.7115 112.26 43.9435C112.26 44.1452 112.159 44.241 111.962 44.241C111.816 44.241 111.665 44.2461 111.518 44.2461C110.464 44.2461 109.411 44.2461 108.352 44.2461C108.23 44.2461 108.109 44.2511 107.988 44.236C107.772 44.2108 107.701 44.125 107.701 43.9233C107.701 43.7216 107.802 43.6258 107.993 43.6107C108.13 43.6006 108.266 43.6006 108.397 43.5855C108.856 43.535 109.103 43.2879 109.153 42.829C109.168 42.708 109.163 42.587 109.163 42.466C109.163 40.3026 109.163 38.1393 109.163 35.9709C109.163 35.865 109.163 35.754 109.158 35.6481C109.128 35.1489 108.921 34.9119 108.437 34.8211C108.306 34.7959 108.17 34.7858 108.034 34.7657C107.762 34.7253 107.691 34.6598 107.691 34.4581C107.696 34.2513 107.772 34.1807 108.044 34.1706C108.447 34.1605 108.856 34.1656 109.259 34.1656C109.602 34.1656 109.94 34.1656 110.278 34.1656ZM110.792 36.8181C110.792 37.3879 110.787 37.9527 110.797 38.5225C110.802 38.8352 110.848 38.8856 111.145 38.8906C111.468 38.9007 111.796 38.9058 112.118 38.8856C112.915 38.8301 113.455 38.4217 113.722 37.6653C113.914 37.1257 113.899 36.571 113.772 36.0264C113.626 35.3758 113.223 34.9674 112.567 34.7909C112.129 34.6699 111.685 34.6749 111.236 34.6951C110.843 34.7102 110.792 34.7707 110.787 35.154C110.792 35.7087 110.792 36.2634 110.792 36.8181Z" fill="white"/>
<path d="M144.742 28.5833C143.946 28.5833 143.144 28.5883 142.347 28.5833C141.994 28.5833 141.903 28.5228 141.903 28.311C141.898 28.0992 141.974 28.0387 142.327 27.9933C143.164 27.8823 143.346 27.6958 143.351 26.8486C143.361 24.7256 143.356 22.6026 143.356 20.4796C143.356 20.3837 143.351 20.2879 143.341 20.1972C143.28 19.6828 143.053 19.4559 142.534 19.4055C142.413 19.3903 142.292 19.3853 142.171 19.3702C141.974 19.3399 141.898 19.2239 141.903 19.0272C141.913 18.8255 142.039 18.8003 142.206 18.7852C142.519 18.7499 142.826 18.8054 143.139 18.8054C144.072 18.8003 145.005 18.8054 145.938 18.8003C146.285 18.8003 146.356 18.8356 146.371 19.0323C146.391 19.2491 146.311 19.3147 145.973 19.3752C145.811 19.4054 145.655 19.4307 145.494 19.466C145.171 19.5467 144.979 19.7484 144.949 20.0862C144.939 20.1921 144.924 20.3031 144.924 20.409C144.919 21.1553 144.919 21.8966 144.924 22.6429C144.924 23.0161 144.964 23.0463 145.358 23.0514C145.897 23.0564 146.442 23.0262 146.981 23.0615C147.748 23.1068 148.424 23.3993 148.998 23.9137C149.851 24.6802 150.012 25.9056 149.654 26.904C149.311 27.8672 148.267 28.5732 147.183 28.5883C146.366 28.5934 145.554 28.5833 144.742 28.5833ZM144.914 25.4971H144.919C144.919 25.9963 144.904 26.5006 144.924 26.9999C144.944 27.5596 145.252 27.8672 145.811 27.9176C145.998 27.9328 146.19 27.9328 146.381 27.9328C147.168 27.9176 147.647 27.5697 147.884 26.8183C148.061 26.2687 148.106 25.714 148 25.1391C147.869 24.3978 147.476 23.9591 146.734 23.7876C146.27 23.6817 145.796 23.6767 145.327 23.6515C144.979 23.6313 144.924 23.6968 144.914 24.0448C144.909 24.5239 144.914 25.008 144.914 25.4971Z" fill="white"/>
<path d="M118.181 39.0673C118.136 39.975 118.317 40.8322 118.691 41.6441C119.139 42.6174 119.866 43.3133 120.935 43.5352C122.17 43.7923 123.3 43.4948 124.268 42.6678C124.651 42.34 124.969 41.9568 125.221 41.518C125.297 41.3869 125.347 41.1903 125.579 41.3063C125.907 41.4727 126.013 41.6542 125.902 41.8963C125.75 42.2139 125.554 42.5115 125.317 42.7687C124.434 43.7369 123.34 44.2966 122.034 44.4479C120.622 44.6093 119.341 44.3117 118.217 43.4393C117.107 42.577 116.552 41.4021 116.391 40.0304C116.3 39.2589 116.331 38.4873 116.552 37.741C117.148 35.7088 118.444 34.3825 120.551 33.9942C121.762 33.7673 122.952 33.9489 124.051 34.5489C124.122 34.5893 124.197 34.6246 124.268 34.6599C124.646 34.8616 124.656 34.8616 124.833 34.4834C124.878 34.3876 124.908 34.2817 125.014 34.2262C125.211 34.1203 125.438 34.2212 125.483 34.438C125.493 34.4783 125.493 34.5187 125.493 34.559C125.529 35.5172 125.559 36.4803 125.594 37.4384C125.594 37.4637 125.594 37.4939 125.594 37.5191C125.589 37.6805 125.604 37.857 125.382 37.8973C125.181 37.9377 125.029 37.852 124.964 37.6099C124.807 37.0451 124.591 36.5055 124.263 36.0214C123.658 35.1137 122.816 34.6195 121.721 34.5943C121.278 34.5842 120.834 34.5792 120.405 34.7607C119.497 35.149 118.938 35.8399 118.595 36.7375C118.302 37.4889 118.136 38.2655 118.181 39.0673Z" fill="white"/>
<path d="M98.2229 28.5834C97.6682 28.5834 97.1135 28.5834 96.5588 28.5834C96.4378 28.5834 96.3067 28.5986 96.2159 28.4977C96.0747 28.3414 96.1655 28.059 96.3722 28.0237C96.5437 27.9934 96.7252 28.0086 96.8967 27.9783C97.2244 27.9128 97.3455 27.7463 97.2547 27.4236C97.0732 26.7731 96.7756 26.1629 96.5084 25.5427C96.4227 25.346 96.2562 25.3208 96.0697 25.3208C95.3939 25.3208 94.7182 25.3208 94.0425 25.3208C93.6895 25.3208 93.3365 25.3309 92.9885 25.3208C92.7566 25.3157 92.6103 25.3964 92.5246 25.6233C92.3229 26.1427 92.101 26.647 91.8993 27.1664C91.6925 27.6959 91.869 27.9581 92.4439 28.0035C92.5246 28.0086 92.6053 28.0086 92.686 28.0136C92.8725 28.0186 92.9986 28.0893 92.9986 28.301C92.9986 28.4977 92.9331 28.5834 92.691 28.5834C91.7329 28.5935 90.7697 28.5885 89.8116 28.5885C89.6401 28.5885 89.5241 28.528 89.5141 28.3363C89.504 28.1498 89.5796 28.059 89.7965 28.0186C89.9024 27.9985 90.0133 27.9934 90.1192 27.9733C90.5377 27.9027 90.8403 27.6858 91.0117 27.2925C91.274 26.6823 91.5362 26.0772 91.7934 25.462C92.6708 23.339 93.5483 21.2109 94.4257 19.0879C94.5215 18.8509 94.6022 18.5937 94.9451 18.6038C95.2578 18.6139 95.3334 18.8509 95.4292 19.0778C96.584 21.7303 97.7388 24.3828 98.8886 27.0404C99.1104 27.5598 99.4332 27.9279 100.028 28.0136C100.255 28.0439 100.331 28.1901 100.28 28.3868C100.235 28.5784 100.084 28.5885 99.9324 28.5885C99.3626 28.5834 98.7927 28.5834 98.2229 28.5834ZM94.5064 20.8024C94.4106 20.863 94.3955 20.9487 94.3652 21.0193C94.1181 21.6194 93.876 22.2195 93.634 22.8246C93.4474 23.2885 93.2558 23.7525 93.0743 24.2164C92.9482 24.5391 92.9734 24.5795 93.3012 24.5795C94.0878 24.5845 94.8695 24.5845 95.6561 24.5795C95.994 24.5744 96.0293 24.5139 95.9083 24.1811C95.8881 24.1307 95.8679 24.0803 95.8478 24.0298C95.4544 23.0364 95.0611 22.043 94.6678 21.0495C94.6325 20.9638 94.6123 20.868 94.5064 20.8024Z" fill="white"/>
<path d="M121.054 21.14C121.054 21.4628 121.049 21.7906 121.054 22.1133C121.054 22.2495 121.038 22.3654 120.882 22.3907C120.721 22.4209 120.549 22.436 120.464 22.2444C120.408 22.1234 120.378 21.9872 120.338 21.8612C120.095 21.1501 119.773 20.4895 119.203 19.9651C118.517 19.3398 117.7 19.128 116.803 19.1935C115.426 19.2944 114.634 20.1517 114.185 21.3619C113.671 22.7537 113.651 24.1657 114.115 25.5827C114.271 26.0517 114.498 26.4753 114.806 26.8585C115.865 28.1747 117.705 28.2856 119.011 27.5696C119.727 27.1762 120.312 26.6568 120.685 25.9105C120.817 25.6432 120.872 25.6382 121.114 25.8147C121.437 26.0416 121.457 26.1273 121.255 26.4803C120.701 27.4486 119.879 28.1091 118.85 28.5075C117.897 28.8756 116.913 28.9664 115.9 28.7647C113.812 28.3562 112.41 26.793 112.083 24.7406C111.856 23.3034 112.108 21.962 112.899 20.7366C113.747 19.4255 114.967 18.7094 116.52 18.5632C117.69 18.4523 118.774 18.6993 119.788 19.2894C120.09 19.4658 120.116 19.4507 120.272 19.1381C120.297 19.0876 120.317 19.0423 120.338 18.9918C120.408 18.8254 120.549 18.7952 120.706 18.8153C120.882 18.8355 120.907 18.9717 120.917 19.1129C120.948 19.5869 120.978 20.0559 120.998 20.5299C121.008 20.7316 120.998 20.9383 120.998 21.14C121.028 21.14 121.038 21.14 121.054 21.14Z" fill="white"/>
<path d="M65.2502 34.1661C65.7091 34.1661 66.1679 34.1661 66.6319 34.1661C66.7983 34.1661 66.9647 34.1711 66.995 34.393C67.0202 34.5897 66.9496 34.6855 66.7126 34.7611C66.647 34.7813 66.5815 34.7964 66.5159 34.8116C65.9814 34.9427 65.6132 35.2654 65.3661 35.7546C64.5845 37.2976 63.7928 38.8407 63.0011 40.3838C62.5523 41.2613 62.0934 42.1387 61.6496 43.0161C61.4378 43.4347 61.1554 43.7877 60.7571 44.0449C60.2679 44.3626 59.7485 44.413 59.2089 44.2012C58.8559 44.06 58.6542 43.7726 58.5735 43.4095C58.4929 43.0464 58.629 42.7287 58.9164 42.5119C59.1888 42.3102 59.5014 42.3354 59.7989 42.5018C59.93 42.5774 60.046 42.6631 60.1923 42.7136C60.6058 42.8497 60.8529 42.769 61.1 42.406C61.1554 42.3303 61.1958 42.2446 61.2512 42.1639C61.4227 41.9219 61.3924 41.705 61.226 41.4579C59.9855 39.6022 58.7601 37.7364 57.5297 35.8756C57.4087 35.694 57.2725 35.5276 57.1414 35.3562C56.9195 35.0738 56.6724 34.8317 56.2992 34.7611C56.1379 34.7309 56.032 34.6451 56.032 34.4586C56.032 34.2821 56.0975 34.1711 56.2841 34.161C56.3497 34.156 56.4203 34.156 56.4858 34.156C57.5801 34.156 58.6794 34.156 59.7737 34.156C60.1267 34.156 60.2175 34.2115 60.2376 34.4132C60.2578 34.6351 60.167 34.7006 59.7939 34.741C59.7384 34.746 59.688 34.751 59.6325 34.7561C59.0677 34.8418 58.9568 35.0234 59.1484 35.5528C59.1888 35.6638 59.2543 35.7697 59.3199 35.8756C60.2074 37.2523 61.0949 38.6239 61.9875 40.0006C62.0228 40.056 62.0581 40.1166 62.1035 40.167C62.2346 40.3233 62.3001 40.3233 62.396 40.1367C62.6481 39.6425 62.8901 39.1433 63.1372 38.6441C63.576 37.7465 64.0147 36.8438 64.4484 35.9411C64.529 35.7697 64.6148 35.5982 64.6702 35.4167C64.7761 35.0687 64.6854 34.9074 64.3374 34.8116C64.1559 34.7611 63.9693 34.7359 63.7777 34.7309C63.5961 34.7258 63.4549 34.6704 63.4499 34.4535C63.4448 34.2518 63.5356 34.161 63.7928 34.156C64.2769 34.161 64.7661 34.1711 65.2502 34.1661Z" fill="white"/>
<path d="M142.236 34.1659C143.577 34.1659 144.913 34.1659 146.255 34.1659C146.361 34.1659 146.471 34.171 146.577 34.171C146.769 34.171 146.885 34.2668 146.905 34.4584C146.971 35.0787 147.036 35.6939 147.102 36.3142C147.117 36.4806 147.117 36.652 146.89 36.6823C146.683 36.7125 146.567 36.6066 146.497 36.415C146.411 36.1881 146.32 35.9612 146.209 35.7443C145.937 35.1947 145.513 34.877 144.883 34.8064C144.384 34.7509 143.885 34.766 143.385 34.7711C143.113 34.7761 143.063 34.8366 143.042 35.114C143.037 35.1947 143.037 35.2753 143.037 35.356C143.037 37.711 143.037 40.066 143.037 42.4209C143.037 42.5974 143.042 42.7689 143.078 42.9454C143.153 43.3085 143.38 43.5102 143.738 43.5656C143.885 43.5909 144.036 43.5858 144.182 43.6009C144.439 43.6262 144.51 43.7018 144.505 43.9186C144.5 44.1355 144.424 44.2111 144.172 44.2363C144.091 44.2464 144.011 44.2414 143.93 44.2414C142.795 44.2414 141.656 44.2414 140.521 44.2414C140.415 44.2414 140.304 44.2414 140.198 44.2262C140.017 44.2061 139.951 44.0851 139.951 43.9136C139.951 43.7421 140.027 43.6262 140.208 43.611C140.355 43.5959 140.506 43.5959 140.652 43.5808C141.111 43.5303 141.333 43.3236 141.409 42.8748C141.449 42.6327 141.474 42.3907 141.474 42.1486C141.474 39.8743 141.474 37.6001 141.474 35.3258C141.474 35.2451 141.479 35.1644 141.469 35.0837C141.449 34.8316 141.404 34.7711 141.146 34.766C140.576 34.761 140.012 34.7307 139.447 34.8164C138.983 34.887 138.645 35.114 138.403 35.5073C138.232 35.7847 138.116 36.0923 138 36.3948C137.944 36.5411 137.879 36.6671 137.697 36.6823C137.48 36.6974 137.359 36.6066 137.354 36.3898C137.349 36.2688 137.374 36.1477 137.384 36.0267C137.44 35.5426 137.49 35.0585 137.556 34.5744C137.611 34.171 137.626 34.1609 138.045 34.1609C139.447 34.1659 140.844 34.1659 142.236 34.1659Z" fill="white"/>
<path d="M160.624 34.1659C161.966 34.1659 163.302 34.1659 164.644 34.1659C164.749 34.1659 164.86 34.1659 164.966 34.171C165.158 34.171 165.269 34.2668 165.289 34.4584C165.365 35.1039 165.44 35.7494 165.511 36.3898C165.526 36.5058 165.501 36.6117 165.38 36.6571C165.229 36.7125 165.077 36.6974 164.971 36.5663C164.911 36.4957 164.886 36.3999 164.85 36.3142C164.76 36.1024 164.679 35.8855 164.573 35.6838C164.306 35.1694 163.892 34.8669 163.297 34.8013C162.783 34.7459 162.268 34.766 161.759 34.766C161.472 34.766 161.431 34.8265 161.406 35.0988C161.401 35.1795 161.401 35.2602 161.401 35.3409C161.401 37.6152 161.401 39.8844 161.401 42.1587C161.401 42.4058 161.426 42.6428 161.467 42.8849C161.542 43.3135 161.759 43.5203 162.193 43.5757C162.329 43.5909 162.465 43.5858 162.596 43.6009C162.843 43.6312 162.919 43.7169 162.914 43.9338C162.909 44.1456 162.828 44.2162 162.571 44.2363C162.505 44.2414 162.435 44.2414 162.369 44.2414C161.22 44.2414 160.07 44.2414 158.92 44.2414C158.824 44.2414 158.728 44.2414 158.638 44.2313C158.461 44.2162 158.375 44.1103 158.375 43.9338C158.375 43.7674 158.431 43.6362 158.617 43.6161C158.764 43.5959 158.915 43.5959 159.061 43.5808C159.49 43.5354 159.681 43.3639 159.787 42.9403C159.833 42.7689 159.843 42.5924 159.843 42.4159C159.843 40.0357 159.843 37.6555 159.843 35.2753C159.843 35.2098 159.848 35.1392 159.838 35.0736C159.818 34.8215 159.777 34.7711 159.51 34.766C158.94 34.7559 158.375 34.7358 157.811 34.8265C157.417 34.8921 157.1 35.0635 156.878 35.4065C156.701 35.6838 156.545 35.9612 156.444 36.2738C156.409 36.3747 156.373 36.4806 156.313 36.5663C156.227 36.6924 156.086 36.7024 155.945 36.6722C155.799 36.6369 155.758 36.5209 155.768 36.3948C155.804 35.9259 155.849 35.4518 155.889 34.9829C155.904 34.8064 155.935 34.6349 155.955 34.4584C155.975 34.2617 156.086 34.171 156.278 34.1659C156.383 34.1659 156.494 34.1609 156.6 34.1609C157.947 34.1659 159.288 34.1659 160.624 34.1659Z" fill="white"/>
<path d="M152.451 18.8052C153.072 18.8052 153.697 18.8052 154.317 18.8052C154.489 18.8052 154.645 18.8304 154.66 19.0573C154.675 19.259 154.61 19.3498 154.398 19.3952C154.201 19.4355 154 19.4607 153.798 19.5061C153.485 19.5767 153.309 19.7683 153.268 20.0911C153.238 20.3331 153.203 20.5752 153.203 20.8172C153.208 22.7789 153.203 24.7456 153.203 26.7072C153.203 26.9089 153.213 27.1106 153.258 27.3123C153.364 27.751 153.561 27.9376 154 27.9931C154.121 28.0082 154.242 28.0032 154.363 28.0234C154.595 28.0587 154.665 28.1545 154.655 28.3763C154.65 28.5932 154.519 28.6537 154.332 28.6537C153.818 28.6587 153.304 28.6587 152.789 28.6587C152.058 28.6587 151.327 28.6638 150.596 28.6537C150.298 28.6487 150.218 28.5478 150.233 28.2957C150.243 28.1343 150.318 28.0435 150.48 28.0284C150.626 28.0133 150.777 28.0133 150.924 27.9931C151.352 27.9326 151.549 27.741 151.614 27.3174C151.635 27.1863 151.64 27.0501 151.64 26.9139C151.64 24.801 151.64 22.6881 151.64 20.5802C151.64 20.5399 151.64 20.4995 151.64 20.4592C151.629 19.7129 151.428 19.491 150.692 19.4204C150.626 19.4154 150.555 19.4154 150.49 19.4053C150.273 19.37 150.197 19.2792 150.207 19.0876C150.218 18.906 150.318 18.8203 150.495 18.8203C150.818 18.8153 151.145 18.8153 151.468 18.8153C151.801 18.8052 152.124 18.8052 152.451 18.8052Z" fill="white"/>
<path d="M160.732 16.955C161.004 16.955 161.271 16.9399 161.528 16.8441C161.821 16.7281 161.886 16.6424 161.881 16.3297C161.881 16.1835 161.861 16.0322 161.866 15.886C161.881 15.4725 162.159 15.1699 162.557 15.1094C162.95 15.0489 163.404 15.3262 163.52 15.6893C163.692 16.244 163.49 16.7836 163.006 17.0962C162.597 17.3585 162.149 17.4946 161.68 17.5753C160.888 17.7064 160.096 17.6862 159.31 17.4946C158.815 17.3736 158.367 17.1668 158.039 16.7533C157.61 16.2037 157.812 15.3918 158.422 15.1598C158.886 14.9833 159.602 15.2808 159.547 15.9314C159.536 16.0675 159.531 16.2037 159.531 16.3348C159.531 16.6373 159.602 16.7382 159.889 16.8491C160.162 16.95 160.444 16.955 160.732 16.955Z" fill="white"/>
<path d="M147.422 49.9798C147.422 50.3429 147.422 50.711 147.422 51.0741C147.422 51.2557 147.422 51.4322 147.654 51.4876C147.669 51.4927 147.679 51.4927 147.689 51.5028C147.881 51.6389 147.901 52.5819 147.719 52.7181C147.573 52.829 147.346 52.7634 147.286 52.592C147.271 52.5567 147.271 52.5113 147.266 52.471C147.195 51.9768 147.195 51.9768 146.706 51.9717C146.302 51.9717 145.894 51.9667 145.49 51.9717C145.107 51.9768 145.092 51.9919 145.057 52.3852C145.042 52.5315 145.057 52.6878 144.875 52.7534C144.679 52.824 144.512 52.7332 144.497 52.5264C144.477 52.2592 144.492 51.9869 144.492 51.7146C144.492 51.6137 144.537 51.528 144.633 51.4876C144.895 51.3868 144.971 51.1498 145.047 50.9228C145.153 50.6001 145.208 50.2673 145.228 49.9294C145.248 49.5915 145.269 49.2537 145.294 48.9209C145.319 48.6032 145.354 48.5578 145.652 48.5527C146.126 48.5426 146.6 48.5426 147.069 48.5527C147.346 48.5578 147.402 48.6133 147.412 48.8906C147.427 49.2486 147.417 49.6117 147.422 49.9798ZM146.847 50.2219C146.852 50.005 146.852 49.7933 146.852 49.5764C146.852 48.9763 146.842 48.9662 146.247 48.9814C145.874 48.9915 145.828 49.0268 145.823 49.405C145.818 50.0151 145.778 50.6152 145.566 51.1951C145.49 51.4069 145.531 51.4574 145.768 51.4674C146.025 51.4775 146.282 51.4775 146.534 51.4674C146.792 51.4574 146.842 51.412 146.847 51.1548C146.852 50.8421 146.847 50.5295 146.847 50.2219Z" fill="white"/>
<path d="M141.666 50.2473C141.666 50.9129 141.308 51.397 140.652 51.5987C140.466 51.6542 140.314 51.6996 140.239 51.9215C140.168 52.1282 139.84 52.1282 139.76 51.9164C139.669 51.6744 139.487 51.6441 139.301 51.5836C138.645 51.3668 138.307 50.8927 138.328 50.212C138.343 49.5564 138.696 49.0975 139.346 48.916C139.538 48.8605 139.704 48.8202 139.745 48.5831C139.765 48.4419 139.891 48.4016 140.022 48.4016C140.143 48.4016 140.249 48.447 140.264 48.5731C140.299 48.8353 140.496 48.8706 140.693 48.9311C141.323 49.1177 141.666 49.5867 141.666 50.2473ZM140.284 50.222C140.284 50.4389 140.269 50.6557 140.284 50.8726C140.299 51.1247 140.405 51.1903 140.627 51.0894C140.945 50.9482 141.091 50.7011 141.096 50.3532C141.096 49.975 141.091 49.6119 140.682 49.4202C140.632 49.395 140.582 49.3799 140.531 49.3648C140.38 49.3194 140.289 49.3749 140.284 49.5312C140.279 49.7632 140.284 49.9951 140.284 50.222ZM139.704 50.2523C139.709 50.2523 139.709 50.2523 139.704 50.2523C139.709 50.0355 139.719 49.8186 139.704 49.6018C139.689 49.3497 139.603 49.2992 139.366 49.39C139.235 49.4404 139.129 49.5161 139.049 49.627C138.817 49.9397 138.802 50.4943 139.023 50.8171C139.109 50.9432 139.22 51.039 139.366 51.0944C139.573 51.1751 139.684 51.1197 139.704 50.9028C139.719 50.686 139.704 50.4691 139.704 50.2523Z" fill="white"/>
<path d="M63.0945 50.8271C63.5433 50.1312 63.9619 49.4807 64.3754 48.8352C64.4712 48.6839 64.562 48.5427 64.7788 48.5427C65.0158 48.5427 65.0965 48.5982 65.1217 48.8352C65.1318 48.9159 65.1268 48.9966 65.1268 49.0773C65.1268 49.8488 65.1268 50.6203 65.1268 51.3919C65.1268 51.4978 65.1268 51.6087 65.1116 51.7146C65.0965 51.876 64.9957 51.9516 64.8343 51.9466C64.678 51.9415 64.5771 51.8659 64.562 51.7045C64.5519 51.6087 64.5519 51.5129 64.5519 51.4221C64.5519 50.9733 64.5519 50.5296 64.5519 50.0808C64.5519 49.9648 64.5872 49.8387 64.4712 49.6925C64.1838 50.1362 63.9064 50.5598 63.6291 50.9885C63.4828 51.2154 63.3366 51.4474 63.1903 51.6743C63.155 51.7297 63.1147 51.7852 63.0693 51.8357C62.9584 51.9617 62.8121 51.9718 62.6558 51.9365C62.4894 51.8962 62.4642 51.76 62.4591 51.6238C62.4541 51.5028 62.4541 51.3818 62.4541 51.2608C62.4541 50.5699 62.4541 49.8791 62.4541 49.1882C62.4541 49.0823 62.4541 48.9714 62.4591 48.8655C62.4692 48.6839 62.5348 48.5528 62.7466 48.5478C62.9382 48.5478 63.0189 48.6133 63.0239 48.8604C63.034 49.3496 63.0239 49.8337 63.029 50.3228C63.0391 50.4691 63.0088 50.6203 63.0945 50.8271Z" fill="white"/>
<path d="M99.4127 50.2165C99.4127 49.7828 99.4077 49.3541 99.4127 48.9205C99.4178 48.5977 99.4682 48.5523 99.801 48.5423C100.124 48.5322 100.452 48.5271 100.774 48.5423C101.576 48.5826 101.929 49.2331 101.521 49.9341C101.43 50.0904 101.445 50.1862 101.551 50.3224C102.04 50.9779 101.748 51.7192 100.951 51.8957C100.562 51.9814 100.169 51.9663 99.7808 51.9512C99.4884 51.9411 99.4228 51.8806 99.4178 51.5831C99.4026 51.1342 99.4127 50.6754 99.4127 50.2165ZM100.557 50.4182C100.436 50.4182 100.396 50.4182 100.356 50.4182C100.209 50.4232 100.023 50.4182 100.008 50.6098C99.9826 50.8821 99.8968 51.1695 100.088 51.4217C100.109 51.4469 100.159 51.457 100.199 51.457C100.411 51.4721 100.628 51.4923 100.84 51.4318C101.087 51.3612 101.203 51.1796 101.193 50.9174C101.183 50.6501 101.057 50.4888 100.794 50.4383C100.694 50.4182 100.583 50.4232 100.557 50.4182ZM99.9825 49.4853C100.018 49.6113 99.9069 49.8534 100.179 49.9088C100.391 49.9542 100.608 49.9492 100.815 49.8735C101.006 49.7979 101.117 49.6567 101.112 49.4399C101.112 49.218 100.991 49.0869 100.794 49.0264C100.694 48.9961 100.583 48.986 100.477 48.981C100.028 48.9659 99.9825 49.0112 99.9825 49.4853Z" fill="white"/>
<path d="M160.595 50.7819C160.999 50.1465 161.407 49.5111 161.811 48.8757C161.922 48.7042 162.027 48.5328 162.28 48.5529C162.436 48.5681 162.537 48.6286 162.547 48.795C162.552 48.8757 162.552 48.9564 162.552 49.037C162.552 49.8489 162.552 50.6608 162.552 51.4677C162.552 51.5635 162.552 51.6593 162.542 51.7501C162.527 51.8963 162.426 51.9568 162.29 51.9518C162.148 51.9518 162.053 51.8862 162.043 51.74C162.032 51.6038 162.032 51.4727 162.027 51.3366C162.027 50.8121 162.027 50.2826 162.027 49.7582C161.866 49.7178 161.851 49.8388 161.806 49.9044C161.427 50.4793 161.059 51.0592 160.681 51.6391C160.636 51.7047 160.6 51.7803 160.545 51.8408C160.434 51.9669 160.288 51.977 160.136 51.9417C159.97 51.9013 159.945 51.7652 159.945 51.624C159.94 51.3517 159.94 51.0844 159.94 50.8121C159.94 50.1918 159.94 49.5665 159.94 48.9463C159.94 48.8152 159.92 48.6689 160.061 48.5832C160.262 48.4571 160.494 48.5832 160.505 48.8454C160.52 49.2489 160.51 49.6573 160.515 50.0607C160.515 50.2877 160.515 50.5196 160.515 50.7466C160.54 50.7617 160.565 50.7718 160.595 50.7819Z" fill="white"/>
<path d="M134.695 50.797C135.043 50.2524 135.391 49.7077 135.739 49.1631C135.835 49.0169 135.93 48.8656 136.026 48.7194C136.127 48.5681 136.278 48.5328 136.455 48.5479C136.581 48.558 136.657 48.6185 136.682 48.7395C136.687 48.7647 136.692 48.795 136.692 48.8202C136.692 49.7682 136.692 50.7163 136.692 51.6643C136.692 51.8358 136.611 51.9467 136.425 51.9518C136.238 51.9568 136.142 51.8711 136.132 51.6442C136.122 51.155 136.127 50.6709 136.127 50.1818C136.127 50.0406 136.127 49.8943 136.127 49.6623C135.779 50.0305 135.613 50.3986 135.386 50.7264C135.169 51.039 134.977 51.3618 134.776 51.6845C134.715 51.7753 134.66 51.866 134.554 51.9165C134.302 52.0375 134.095 51.9165 134.09 51.629C134.08 50.9533 134.085 50.2776 134.085 49.5968C134.085 49.3547 134.085 49.1076 134.09 48.8656C134.09 48.7093 134.12 48.563 134.322 48.5529C134.508 48.5428 134.599 48.6235 134.609 48.8555C134.619 49.3295 134.614 49.8035 134.614 50.2776C134.614 50.4389 134.614 50.6003 134.614 50.7617C134.639 50.7768 134.665 50.7869 134.695 50.797Z" fill="white"/>
<path d="M123.581 49.7125C123.213 50.2874 122.84 50.8673 122.472 51.4421C122.391 51.5682 122.316 51.6943 122.23 51.8153C122.119 51.9666 121.958 51.9817 121.791 51.9363C121.625 51.896 121.61 51.7498 121.61 51.6136C121.605 50.7109 121.605 49.8032 121.61 48.9006C121.61 48.7644 121.62 48.6232 121.781 48.5678C122.003 48.4871 122.164 48.598 122.175 48.8703C122.185 49.3696 122.175 49.8688 122.18 50.368C122.18 50.4991 122.149 50.6353 122.235 50.8118C122.437 50.5042 122.618 50.2268 122.795 49.9495C123.027 49.5864 123.254 49.2183 123.486 48.8552C123.536 48.7745 123.592 48.6938 123.662 48.6333C123.783 48.5224 123.934 48.5325 124.081 48.5829C124.207 48.6283 124.212 48.7443 124.212 48.8552C124.212 49.7881 124.212 50.721 124.212 51.6539C124.212 51.8203 124.166 51.9515 123.97 51.9615C123.788 51.9716 123.697 51.8859 123.692 51.6539C123.682 51.1698 123.687 50.6807 123.687 50.1966C123.687 50.0503 123.687 49.9041 123.687 49.7579C123.652 49.7326 123.617 49.7226 123.581 49.7125Z" fill="white"/>
<path d="M120.289 49.6771C119.926 50.2419 119.593 50.7613 119.255 51.2858C119.144 51.4572 119.033 51.6287 118.922 51.7951C118.816 51.9514 118.665 51.9867 118.494 51.9413C118.322 51.8959 118.327 51.7497 118.327 51.6135C118.327 50.7058 118.327 49.8032 118.327 48.8955C118.327 48.8551 118.332 48.8148 118.337 48.7745C118.352 48.6282 118.433 48.5576 118.579 48.5576C118.72 48.5576 118.821 48.608 118.836 48.7543C118.852 48.8753 118.852 48.9963 118.852 49.1174C118.852 49.6418 118.852 50.1713 118.852 50.721C119.033 50.7159 119.073 50.5798 119.129 50.4941C119.482 49.9494 119.83 49.3998 120.173 48.8501C120.289 48.6686 120.42 48.5324 120.657 48.5475C120.818 48.5576 120.909 48.6282 120.924 48.7896C120.929 48.8551 120.934 48.9257 120.934 48.9913C120.934 49.8284 120.939 50.6706 120.934 51.5077C120.934 51.8556 120.864 51.9514 120.657 51.9514C120.445 51.9514 120.369 51.8506 120.364 51.5177C120.359 51.0588 120.364 50.6 120.359 50.136C120.364 50.0049 120.4 49.8688 120.289 49.6771Z" fill="white"/>
<path d="M79.4557 50.7815C79.7633 50.3075 80.0659 49.8284 80.3735 49.3544C80.5046 49.1476 80.6357 48.9459 80.7719 48.7392C80.8626 48.603 80.9837 48.5375 81.1501 48.5526C81.2913 48.5627 81.382 48.6181 81.3972 48.7694C81.4022 48.8249 81.4073 48.8753 81.4073 48.9308C81.4073 49.8385 81.4123 50.7412 81.4123 51.6489C81.4123 51.896 81.3064 51.9918 81.1047 51.9514C80.9131 51.9111 80.8879 51.7699 80.8879 51.6136C80.8879 51.1395 80.8879 50.6655 80.8828 50.1915C80.8828 50.0453 80.908 49.894 80.8425 49.7276C80.7013 49.783 80.6559 49.9192 80.5903 50.0251C80.2374 50.5697 79.8944 51.1194 79.5414 51.664C79.4456 51.8153 79.3498 51.9615 79.138 51.9615C78.9313 51.9666 78.8405 51.896 78.8052 51.6942C78.7951 51.6388 78.7951 51.5883 78.7951 51.5329C78.7951 50.6655 78.7951 49.8032 78.7951 48.9358C78.7951 48.8047 78.78 48.6585 78.9262 48.5778C79.1229 48.4719 79.3448 48.5879 79.3649 48.8199C79.3801 49.0216 79.375 49.2233 79.375 49.43C79.375 49.8738 79.375 50.3176 79.375 50.7613C79.4003 50.7664 79.4255 50.7714 79.4557 50.7815Z" fill="white"/>
<path d="M165.3 49.7075C165.129 49.8033 165.073 49.9597 164.988 50.0908C164.645 50.6253 164.302 51.1599 163.959 51.6944C163.929 51.7398 163.898 51.7851 163.863 51.8255C163.757 51.9616 163.616 51.9768 163.46 51.9415C163.293 51.9062 163.263 51.7751 163.258 51.6288C163.258 51.5734 163.253 51.5229 163.253 51.4675C163.253 50.6404 163.253 49.8185 163.253 48.9915C163.253 48.9259 163.253 48.8553 163.263 48.7897C163.278 48.6032 163.394 48.5376 163.566 48.5427C163.732 48.5477 163.813 48.6435 163.818 48.7998C163.823 49.2335 163.823 49.6672 163.828 50.0958C163.833 50.2975 163.803 50.4992 163.863 50.7262C164.03 50.6556 164.08 50.5043 164.156 50.3883C164.478 49.8891 164.796 49.3848 165.119 48.8856C165.179 48.7948 165.235 48.704 165.315 48.6284C165.436 48.5124 165.588 48.5174 165.734 48.5679C165.855 48.6132 165.87 48.7292 165.87 48.8402C165.87 49.7731 165.87 50.706 165.87 51.6389C165.87 51.8053 165.81 51.9314 165.618 51.9415C165.447 51.9465 165.371 51.8608 165.366 51.6087C165.356 51.1094 165.366 50.6102 165.361 50.1059C165.351 49.9849 165.381 49.8487 165.3 49.7075Z" fill="white"/>
<path d="M75.9227 50.2215C75.9227 49.7878 75.9176 49.3592 75.9227 48.9255C75.9277 48.5977 75.9781 48.5523 76.3059 48.5423C76.6186 48.5322 76.9262 48.5271 77.2388 48.5423C78.086 48.5826 78.4289 49.2583 77.97 49.9795C77.8994 50.0954 77.8893 50.166 77.9902 50.2568C78.1869 50.4434 78.2776 50.6804 78.2827 50.9477C78.2877 51.4015 78.0255 51.7495 77.5767 51.8705C77.1279 51.9915 76.669 51.9764 76.2101 51.9562C75.9781 51.9461 75.9277 51.7948 75.9277 51.5982C75.9227 51.1393 75.9227 50.6804 75.9227 50.2215ZM76.9665 51.4671C77.0321 51.462 77.1027 51.4671 77.1682 51.462C77.4859 51.4318 77.7078 51.2048 77.7027 50.9124C77.6977 50.635 77.5061 50.4383 77.1632 50.4232C76.3765 50.3929 76.4421 50.4081 76.4521 51.1494C76.4572 51.4116 76.5026 51.4469 76.7598 51.4671C76.8304 51.4721 76.8959 51.4671 76.9665 51.4671ZM76.9665 49.929C77.0169 49.924 77.1531 49.924 77.2842 49.8836C77.4859 49.8282 77.6019 49.6819 77.617 49.4701C77.6321 49.2785 77.5162 49.1272 77.3044 49.0465C77.0976 48.9709 76.8808 48.9658 76.6639 48.9911C76.5379 49.0011 76.4673 49.0818 76.4572 49.2029C76.4471 49.2987 76.4471 49.3894 76.4471 49.4853C76.4521 49.8988 76.4824 49.929 76.9665 49.929Z" fill="white"/>
<path d="M156.532 50.2271C156.532 49.7782 156.526 49.3345 156.532 48.8857C156.532 48.7495 156.537 48.6083 156.708 48.5579C156.925 48.4923 157.076 48.5932 157.091 48.8352C157.106 49.0622 157.096 49.2941 157.096 49.5261C157.096 50.0556 157.091 50.58 157.101 51.1095C157.106 51.4171 157.152 51.4575 157.459 51.4676C157.717 51.4777 157.974 51.4726 158.231 51.4676C158.569 51.4575 158.609 51.4272 158.614 51.0944C158.619 50.4288 158.619 49.7682 158.619 49.1025C158.619 48.9966 158.619 48.8857 158.629 48.7798C158.644 48.6134 158.75 48.5478 158.907 48.5528C159.053 48.5579 159.129 48.6436 159.134 48.7848C159.144 48.9865 159.144 49.1933 159.144 49.395C159.144 49.9648 159.144 50.5347 159.144 51.0995C159.144 51.2659 159.149 51.4323 159.355 51.4827C159.391 51.4928 159.431 51.518 159.456 51.5483C159.582 51.6945 159.532 52.5114 159.386 52.6425C159.26 52.7585 159.048 52.7081 158.987 52.5467C158.972 52.5114 158.972 52.466 158.967 52.4257C158.897 51.9668 158.897 51.9668 158.453 51.9668C157.964 51.9668 157.48 51.9718 156.99 51.9618C156.577 51.9567 156.532 51.9063 156.527 51.4827C156.521 51.0692 156.526 50.6456 156.532 50.2271C156.526 50.2271 156.526 50.2271 156.532 50.2271Z" fill="white"/>
<path d="M111.68 50.272C111.705 50.6805 111.639 51.0739 111.402 51.4268C110.848 52.2438 109.542 52.1631 109.118 51.2705C108.805 50.615 108.82 49.9291 109.093 49.2635C109.305 48.7441 109.804 48.4567 110.353 48.4768C110.903 48.497 111.352 48.8298 111.559 49.3492C111.675 49.6468 111.7 49.9493 111.68 50.272ZM111.12 50.2468C111.11 50.0703 111.115 49.8938 111.09 49.7224C111.024 49.3038 110.711 49.0013 110.348 48.9811C109.97 48.9609 109.647 49.208 109.542 49.6417C109.446 50.025 109.461 50.4183 109.537 50.8066C109.562 50.9427 109.632 51.0587 109.713 51.1697C110.071 51.6538 110.737 51.5882 111.004 51.0436C111.125 50.7864 111.11 50.5192 111.12 50.2468Z" fill="white"/>
<path d="M66.9369 50.2522C66.9369 49.8185 66.9268 49.3849 66.9369 48.9562C66.9469 48.6083 67.0075 48.5478 67.3403 48.5427C67.9605 48.5326 68.5858 48.5326 69.2061 48.5427C69.5238 48.5478 69.5894 48.6083 69.5944 48.926C69.6045 49.8185 69.5994 50.7111 69.5944 51.6037C69.5944 51.6289 69.5894 51.6591 69.5894 51.6844C69.5742 51.8609 69.4784 51.9567 69.2969 51.9466C69.1355 51.9415 69.0447 51.8558 69.0346 51.6944C69.0246 51.5886 69.0246 51.4776 69.0246 51.3717C69.0246 50.7212 69.0246 50.0757 69.0246 49.4252C69.0195 49.0067 68.9943 48.9814 68.5959 48.9764C68.3539 48.9713 68.1068 48.9713 67.8647 48.9764C67.5521 48.9865 67.5117 49.0218 67.5117 49.3294C67.5067 50.0202 67.5117 50.7061 67.5067 51.3969C67.5067 51.5028 67.5067 51.6138 67.4966 51.7197C67.4865 51.8609 67.4008 51.9365 67.2596 51.9415C67.1083 51.9466 66.9873 51.9062 66.957 51.7398C66.9369 51.6339 66.9369 51.523 66.9369 51.4171C66.9318 51.0389 66.9318 50.6455 66.9369 50.2522Z" fill="white"/>
<path d="M130.748 50.2523C130.738 49.8287 130.779 49.4152 131.031 49.0522C131.328 48.6185 131.752 48.4521 132.256 48.4924C132.786 48.5328 133.184 48.8051 133.361 49.3093C133.562 49.8691 133.588 50.449 133.416 51.0239C133.219 51.6845 132.685 52.0324 131.999 51.982C131.359 51.9316 130.854 51.4475 130.769 50.7818C130.753 50.6003 130.753 50.4238 130.748 50.2523ZM132.962 50.2574C132.962 49.9851 132.937 49.7178 132.836 49.4657C132.715 49.1631 132.493 48.9816 132.16 48.9816C131.838 48.9816 131.575 49.1127 131.449 49.4203C131.233 49.9548 131.212 50.4944 131.444 51.0289C131.575 51.3315 131.812 51.4777 132.145 51.4777C132.468 51.4828 132.675 51.3113 132.816 51.0441C132.942 50.802 132.962 50.5297 132.962 50.2574Z" fill="white"/>
<path d="M127.935 50.2317C127.935 49.8535 127.935 49.4753 127.935 49.0971C127.935 48.9912 127.94 48.8803 127.955 48.7744C127.98 48.613 128.091 48.5525 128.247 48.5575C128.414 48.5626 128.5 48.6483 128.505 48.8097C128.51 49.0517 128.5 49.2988 128.515 49.5409C128.525 49.6922 128.434 49.904 128.636 49.9645C128.802 50.0149 128.878 49.8283 128.969 49.7123C129.216 49.4047 129.458 49.0971 129.7 48.7895C129.836 48.6181 130.002 48.5273 130.229 48.5525C130.31 48.5626 130.401 48.5475 130.446 48.6332C130.492 48.724 130.426 48.7845 130.376 48.845C130.103 49.198 129.826 49.5459 129.549 49.8989C129.322 50.1914 129.317 50.1964 129.538 50.4788C129.836 50.8621 130.149 51.2403 130.451 51.6185C130.507 51.6891 130.592 51.7647 130.537 51.8656C130.486 51.9614 130.381 51.9614 130.285 51.9665C130.088 51.9765 129.952 51.8757 129.836 51.7345C129.579 51.4168 129.322 51.1041 129.064 50.7915C128.994 50.7058 128.933 50.615 128.848 50.5494C128.681 50.4183 128.525 50.4839 128.515 50.7007C128.495 51.0386 128.505 51.3765 128.5 51.7143C128.495 51.8807 128.399 51.9564 128.237 51.9614C128.086 51.9614 127.97 51.9009 127.95 51.7395C127.935 51.6488 127.935 51.5529 127.935 51.4571C127.935 51.0436 127.935 50.6352 127.935 50.2317Z" fill="white"/>
<path d="M90.0799 50.2675C90.0799 50.7112 90.0799 51.16 90.0799 51.6038C90.0799 51.7248 90.0849 51.8509 89.9538 51.9215C89.7723 52.0173 89.5605 51.9165 89.5252 51.7097C89.505 51.6038 89.5101 51.4929 89.5101 51.387C89.5101 50.7264 89.5151 50.0607 89.505 49.4001C89.5 49.0169 89.4647 48.9866 89.0865 48.9765C89.0713 48.9765 89.0612 48.9765 89.0461 48.9765C88.4813 48.9664 88.441 48.9967 88.446 49.5615C88.446 50.091 88.4006 50.6154 88.2897 51.1298C88.1838 51.629 87.9266 51.8761 87.493 51.9215C87.382 51.9316 87.266 51.9467 87.2206 51.8156C87.1702 51.6744 87.1904 51.5332 87.3467 51.4777C87.6644 51.3618 87.74 51.1096 87.7955 50.8121C87.8863 50.3179 87.856 49.8136 87.8712 49.3144C87.8964 48.5378 87.8964 48.5328 88.678 48.5328C89.0159 48.5328 89.3537 48.5277 89.6916 48.5378C90.0143 48.5479 90.0547 48.5933 90.0698 48.9211C90.0698 48.9463 90.0698 48.9765 90.0698 49.0017C90.0799 49.4304 90.0799 49.8489 90.0799 50.2675Z" fill="white"/>
<path d="M56.2608 50.2624C56.2608 49.8186 56.2557 49.3698 56.2608 48.9261C56.2658 48.5932 56.3062 48.5529 56.639 48.5478C57.2492 48.5378 57.8543 48.5378 58.4645 48.5478C58.8074 48.5529 58.8628 48.6033 58.8679 48.9563C58.878 49.8186 58.8729 50.686 58.8679 51.5483C58.8679 51.861 58.7922 51.9517 58.5956 51.9517C58.3888 51.9517 58.3081 51.8559 58.3031 51.5584C58.2981 50.923 58.2981 50.2876 58.2981 49.6522C58.2981 48.9513 58.3384 48.9765 57.6475 48.9815C57.5013 48.9815 57.35 48.9765 57.2038 48.9815C56.8357 48.9916 56.7903 49.032 56.7903 49.4152C56.7852 50.0657 56.7903 50.7112 56.7852 51.3617C56.7852 51.4676 56.7852 51.5786 56.7802 51.6844C56.7751 51.8408 56.7096 51.9467 56.5432 51.9517C56.3616 51.9568 56.2658 51.866 56.2658 51.6844C56.2608 51.2104 56.2608 50.7364 56.2608 50.2624Z" fill="white"/>
<path d="M142.067 50.2425C142.067 49.8088 142.062 49.3752 142.067 48.9465C142.072 48.5986 142.123 48.5532 142.476 48.5481C142.95 48.5431 143.424 48.5481 143.898 48.5481C143.964 48.5481 144.034 48.5532 144.1 48.5633C144.226 48.5784 144.296 48.654 144.286 48.7801C144.281 48.8911 144.216 48.9566 144.11 48.9667C143.989 48.9768 143.868 48.9818 143.747 48.9818C143.474 48.9869 143.207 48.9869 142.935 48.9869C142.758 48.9869 142.657 49.0776 142.647 49.2592C142.647 49.2995 142.642 49.3399 142.642 49.3802C142.622 49.8895 142.662 49.9299 143.177 49.9349C143.394 49.9349 143.611 49.9349 143.827 49.945C143.984 49.95 144.079 50.0408 144.069 50.2072C144.059 50.3585 143.958 50.419 143.822 50.424C143.55 50.4341 143.283 50.4291 143.01 50.4392C142.698 50.4493 142.662 50.4896 142.642 50.7922C142.602 51.4578 142.622 51.478 143.288 51.478C143.53 51.478 143.777 51.478 144.019 51.483C144.175 51.4881 144.327 51.5183 144.322 51.7251C144.317 51.8965 144.201 51.9621 144.049 51.9621C143.479 51.9671 142.915 51.9722 142.345 51.9621C142.108 51.9571 142.072 51.7806 142.072 51.5889C142.067 51.1351 142.067 50.6913 142.067 50.2425Z" fill="white"/>
<path d="M84.7982 50.2474C84.7982 49.8137 84.7881 49.38 84.8033 48.9463C84.8133 48.6034 84.8739 48.548 85.2168 48.5429C85.6908 48.5328 86.1648 48.5379 86.6388 48.5429C86.7044 48.5429 86.775 48.548 86.8405 48.5581C86.9464 48.5732 87.017 48.6337 87.017 48.7446C87.0221 48.8758 86.9464 48.9514 86.8254 48.9615C86.6792 48.9766 86.5279 48.9766 86.3816 48.9766C86.1648 48.9816 85.948 48.9716 85.7311 48.9817C85.4336 48.9968 85.3933 49.0422 85.3731 49.3498C85.3731 49.375 85.3731 49.4052 85.3731 49.4304C85.368 49.8843 85.3983 49.9196 85.8421 49.9246C86.074 49.9297 86.301 49.9297 86.5329 49.9347C86.6842 49.9398 86.7952 50.0053 86.7952 50.1818C86.7901 50.3533 86.6741 50.4138 86.5228 50.4188C86.2505 50.4239 85.9833 50.4188 85.711 50.4289C85.4286 50.439 85.3933 50.4794 85.3731 50.7668C85.3277 51.4324 85.3529 51.4627 86.0085 51.4627C86.2657 51.4627 86.5228 51.4627 86.78 51.4677C86.9313 51.4728 87.0473 51.5232 87.0473 51.6997C87.0473 51.8711 86.9364 51.9418 86.7851 51.9468C86.2152 51.9518 85.6504 51.9518 85.0806 51.9468C84.8436 51.9418 84.8033 51.7703 84.8033 51.5787C84.7982 51.14 84.7982 50.6912 84.7982 50.2474Z" fill="white"/>
<path d="M102.271 50.1818C102.271 49.7633 102.266 49.3447 102.271 48.9261C102.276 48.6085 102.337 48.553 102.659 48.5479C103.133 48.5379 103.607 48.5479 104.081 48.5479C104.137 48.5479 104.187 48.553 104.243 48.558C104.364 48.5732 104.45 48.6286 104.45 48.7597C104.45 48.8909 104.374 48.9615 104.253 48.9715C104.107 48.9816 103.955 48.9816 103.809 48.9867C103.673 48.9867 103.537 48.9867 103.406 48.9867C102.886 48.9917 102.7 49.264 102.866 49.7683C102.917 49.9145 103.027 49.9347 103.154 49.9397C103.436 49.9448 103.723 49.9347 104.006 49.9498C104.228 49.9599 104.318 50.0809 104.278 50.2574C104.243 50.4087 104.127 50.4339 103.996 50.4339C103.754 50.439 103.507 50.4339 103.265 50.439C102.912 50.4491 102.866 50.4945 102.851 50.8374C102.821 51.4576 102.836 51.4778 103.456 51.4778C103.713 51.4778 103.97 51.4778 104.228 51.4828C104.374 51.4879 104.5 51.5333 104.51 51.7098C104.52 51.9064 104.379 51.9669 104.218 51.9669C103.688 51.972 103.164 51.977 102.634 51.9619C102.372 51.9518 102.291 51.861 102.281 51.5686C102.261 51.0996 102.271 50.6407 102.271 50.1818Z" fill="white"/>
<path d="M156.147 51.7194C156.157 51.8656 156.097 51.9262 155.991 51.9463C155.83 51.9715 155.693 51.9362 155.608 51.79C155.582 51.7446 155.557 51.6942 155.542 51.6438C155.345 51.0336 155.386 51.084 154.71 51.079C154.614 51.079 154.518 51.084 154.428 51.079C154.176 51.0588 154.014 51.1596 153.939 51.4067C153.898 51.5328 153.843 51.6589 153.782 51.7799C153.727 51.906 153.616 51.9463 153.485 51.9514C153.293 51.9564 153.217 51.8606 153.263 51.674C153.273 51.6236 153.298 51.5732 153.318 51.5227C153.651 50.6554 153.984 49.783 154.312 48.9156C154.317 48.9055 154.322 48.8904 154.327 48.8753C154.392 48.6887 154.473 48.5324 154.72 48.5425C154.942 48.5525 155.013 48.7038 155.073 48.8702C155.184 49.1627 155.295 49.4502 155.406 49.7376C155.628 50.3175 155.85 50.8974 156.072 51.4773C156.102 51.5681 156.127 51.6589 156.147 51.7194ZM154.72 49.4048C154.498 49.7578 154.423 50.0805 154.312 50.3881C154.286 50.4587 154.312 50.5343 154.382 50.5545C154.594 50.5999 154.806 50.615 155.013 50.5444C155.088 50.5192 155.083 50.4335 155.063 50.3679C154.962 50.0654 154.851 49.7678 154.72 49.4048Z" fill="white"/>
<path d="M148.235 50.2624C148.235 49.8186 148.23 49.3698 148.235 48.926C148.24 48.6033 148.295 48.5529 148.618 48.5478C149.092 48.5377 149.566 48.5428 150.035 48.5478C150.101 48.5478 150.171 48.5529 150.237 48.563C150.343 48.5831 150.403 48.6588 150.398 48.7647C150.398 48.8706 150.343 48.9512 150.232 48.9664C150.101 48.9815 149.964 48.9815 149.828 48.9865C149.682 48.9916 149.531 48.9865 149.385 48.9865C148.8 48.9865 148.759 49.0319 148.805 49.6068C148.825 49.8842 148.865 49.9194 149.153 49.9346C149.339 49.9447 149.531 49.9346 149.722 49.9396C149.818 49.9396 149.914 49.9396 150.005 49.9548C150.146 49.9699 150.227 50.0506 150.222 50.1968C150.222 50.343 150.126 50.4187 149.99 50.4288C149.732 50.4389 149.475 50.4338 149.218 50.4439C148.835 50.454 148.805 50.4842 148.795 50.8675C148.779 51.4726 148.789 51.4827 149.385 51.4827C149.617 51.4827 149.843 51.4777 150.075 51.4878C150.328 51.4978 150.423 51.5735 150.413 51.7399C150.403 51.9719 150.227 51.9769 150.06 51.9769C149.586 51.9819 149.112 51.987 148.643 51.9769C148.3 51.9719 148.24 51.9113 148.23 51.5735C148.23 51.1297 148.24 50.696 148.235 50.2624C148.24 50.2624 148.24 50.2624 148.235 50.2624Z" fill="white"/>
<path d="M59.535 50.2171C59.535 49.7834 59.5299 49.3548 59.535 48.9211C59.54 48.5984 59.5904 48.553 59.9182 48.5429C60.2813 48.5379 60.6494 48.5278 61.0125 48.548C61.7538 48.5883 62.2026 49.2439 61.9807 49.9448C61.8748 50.2827 61.6328 50.4793 61.305 50.5852C61.0276 50.676 60.7452 50.6508 60.4628 50.6609C60.1603 50.671 60.1199 50.7164 60.1048 51.0189C60.0947 51.2358 60.0997 51.4526 60.0947 51.6694C60.0897 51.8459 59.9938 51.9417 59.8123 51.9468C59.6257 51.9518 59.54 51.8459 59.535 51.6694C59.5299 51.1853 59.535 50.6962 59.535 50.2121C59.54 50.2171 59.54 50.2171 59.535 50.2171ZM60.6191 50.1768V50.1818C60.715 50.1768 60.8108 50.1818 60.9015 50.1667C61.2344 50.1213 61.4462 49.9095 61.4613 49.6221C61.4714 49.3346 61.2798 49.0926 60.9671 49.0119C60.7704 48.9615 60.5637 48.9816 60.362 48.9867C60.1956 48.9917 60.1149 49.0775 60.1098 49.2388C60.1098 49.4557 60.1098 49.6725 60.1098 49.8893C60.1098 50.0961 60.2208 50.1818 60.4174 50.1768C60.483 50.1768 60.5536 50.1768 60.6191 50.1768Z" fill="white"/>
<path d="M90.7283 50.2272C90.7283 49.8641 90.7283 49.496 90.7283 49.1329C90.7283 49.0371 90.7283 48.9413 90.7384 48.8505C90.7686 48.6236 90.8493 48.5479 91.0409 48.553C91.2376 48.558 91.2931 48.679 91.2981 48.8505C91.3031 49.0825 91.2931 49.3094 91.3082 49.5413C91.3233 49.7985 91.3687 49.8439 91.6259 49.859C91.8831 49.8742 92.1403 49.849 92.3924 49.9145C93.0278 50.0759 93.3152 50.5247 93.174 51.1601C93.0883 51.5585 92.8261 51.7955 92.4428 51.8913C91.9789 52.0073 91.5049 51.977 91.0308 51.9669C90.8039 51.9619 90.7333 51.8156 90.7333 51.6139C90.7333 51.145 90.7333 50.6861 90.7283 50.2272C90.7333 50.2272 90.7333 50.2272 90.7283 50.2272ZM91.8276 51.4677V51.4627C91.9083 51.4627 91.989 51.4677 92.0696 51.4627C92.4176 51.4274 92.6496 51.2004 92.6445 50.9079C92.6445 50.5903 92.4025 50.3734 92.0293 50.3532C91.3233 50.3179 91.2729 50.3633 91.3032 51.0744C91.3183 51.4273 91.3485 51.4576 91.7066 51.4677C91.7469 51.4727 91.7873 51.4677 91.8276 51.4677Z" fill="white"/>
<path d="M70.2491 50.2369C70.2491 49.8033 70.244 49.3746 70.2491 48.941C70.2541 48.593 70.2995 48.5476 70.6525 48.5426C71.0156 48.5375 71.3837 48.5224 71.7468 48.5476C72.5687 48.6031 73.0175 49.4452 72.6091 50.1462C72.4124 50.484 72.0947 50.6101 71.7316 50.6504C71.5451 50.6706 71.3534 50.6555 71.1669 50.6656C70.8794 50.6807 70.8391 50.721 70.8239 51.0034C70.8138 51.2203 70.829 51.4371 70.8139 51.6539C70.7987 51.8758 70.7029 51.9616 70.5163 51.9515C70.3298 51.9414 70.2541 51.8304 70.2541 51.659C70.2491 51.185 70.2541 50.711 70.2491 50.2369ZM70.8139 49.5663C70.8189 49.7024 70.8239 49.8335 70.834 49.9697C70.8441 50.0756 70.9046 50.1512 71.0105 50.1613C71.2929 50.1865 71.5753 50.2168 71.8476 50.1058C72.0695 50.0151 72.1804 49.8335 72.1855 49.6016C72.1905 49.3645 72.0846 49.188 71.8628 49.0872C71.7266 49.0216 71.5804 48.9964 71.4341 48.9863C70.8542 48.946 70.8189 48.9762 70.8139 49.5663Z" fill="white"/>
<path d="M107.027 48.5477C107.218 48.5477 107.405 48.5376 107.596 48.5477C108.166 48.588 108.56 48.9814 108.59 49.5361C108.625 50.1059 108.302 50.4992 107.723 50.6253C107.48 50.6757 107.238 50.6556 106.996 50.6656C106.714 50.6808 106.674 50.7211 106.658 51.0035C106.648 51.2204 106.653 51.4372 106.648 51.654C106.643 51.8255 106.573 51.9415 106.386 51.9465C106.2 51.9566 106.109 51.8709 106.089 51.6439C106.074 51.4977 106.084 51.3464 106.084 51.2002C106.084 50.4438 106.079 49.6873 106.089 48.9259C106.094 48.5981 106.144 48.5527 106.467 48.5376C106.492 48.5376 106.522 48.5376 106.548 48.5376C106.704 48.5426 106.865 48.5426 107.027 48.5477C107.027 48.5426 107.027 48.5426 107.027 48.5477ZM106.658 49.5462C106.658 49.6823 106.653 49.8185 106.658 49.9496C106.664 50.0504 106.709 50.1412 106.82 50.1563C107.117 50.1866 107.415 50.2168 107.702 50.0958C107.914 50.005 108.01 49.8487 108.015 49.6218C108.02 49.3999 107.954 49.2285 107.753 49.1125C107.596 49.0217 107.425 48.9914 107.248 48.9814C106.679 48.9561 106.653 48.9814 106.658 49.5462Z" fill="white"/>
<path d="M74.0625 48.5475C74.239 48.5324 74.3399 48.6232 74.4004 48.7795C74.4962 49.0317 74.597 49.2838 74.6929 49.5359C74.945 50.2066 75.2022 50.8773 75.4493 51.548C75.4997 51.6791 75.6056 51.8304 75.4039 51.9312C75.2425 52.0069 75.0711 51.9363 74.9702 51.7447C74.8996 51.6136 74.8492 51.4723 74.7988 51.3312C74.7382 51.1547 74.6172 51.074 74.4306 51.079C74.1886 51.0841 73.9415 51.0841 73.6994 51.079C73.4927 51.074 73.3716 51.1748 73.3162 51.3665C73.2758 51.4976 73.2254 51.6236 73.18 51.7497C73.1145 51.9111 72.9884 51.9665 72.822 51.9514C72.6758 51.9363 72.6001 51.8556 72.6304 51.7043C72.6505 51.6135 72.6858 51.5228 72.7161 51.432C73.0388 50.5848 73.3616 49.7376 73.6793 48.8905C73.7499 48.714 73.8205 48.5374 74.0625 48.5475ZM74.0726 49.4351C73.9062 49.6317 73.881 49.8334 73.8104 50.02C73.6036 50.5949 73.6591 50.6605 74.2743 50.5798C74.2894 50.5798 74.2995 50.5747 74.3147 50.5747C74.4357 50.5647 74.4911 50.4991 74.4508 50.3831C74.3499 50.0755 74.244 49.7628 74.0726 49.4351Z" fill="white"/>
<path d="M112.083 50.2121C112.098 49.6725 112.194 49.1632 112.628 48.7799C113.308 48.1849 114.458 48.4723 114.7 49.2943C114.735 49.4153 114.811 49.5615 114.645 49.6523C114.498 49.733 114.292 49.6674 114.191 49.5061C114.171 49.4708 114.156 49.4355 114.14 49.3951C114.024 49.0623 113.772 48.9514 113.445 48.9614C113.117 48.9715 112.9 49.148 112.794 49.4304C112.597 49.9549 112.587 50.4894 112.794 51.0189C112.915 51.3316 113.147 51.4778 113.485 51.4828C113.803 51.4828 114.035 51.3668 114.151 51.0592C114.181 50.9836 114.206 50.9029 114.261 50.8474C114.367 50.7365 114.509 50.7415 114.64 50.797C114.771 50.8525 114.746 50.9685 114.72 51.0794C114.635 51.4475 114.418 51.7148 114.075 51.861C113.197 52.2392 112.35 51.7904 112.159 50.8525C112.113 50.6457 112.078 50.4339 112.083 50.2121Z" fill="white"/>
<path d="M124.832 50.2518C124.832 50.0602 124.812 49.8736 124.837 49.6819C124.943 48.7188 125.942 48.1792 126.809 48.6078C127.117 48.7591 127.308 49.0163 127.404 49.339C127.439 49.455 127.465 49.5912 127.318 49.6567C127.172 49.7172 127.021 49.7122 126.915 49.571C126.875 49.5206 126.855 49.45 126.829 49.3895C126.703 49.0869 126.471 48.9659 126.154 48.9709C125.836 48.981 125.604 49.1222 125.493 49.4197C125.291 49.9442 125.281 50.4787 125.468 51.0082C125.574 51.3208 125.806 51.5024 126.138 51.5074C126.466 51.5175 126.713 51.3713 126.839 51.0536C126.865 50.9931 126.885 50.9225 126.925 50.872C127.021 50.746 127.157 50.746 127.293 50.7863C127.444 50.8367 127.45 50.9578 127.419 51.0889C127.349 51.3914 127.177 51.6335 126.91 51.7949C126.027 52.3344 124.918 51.7697 124.837 50.7359C124.817 50.5745 124.827 50.4131 124.832 50.2518Z" fill="white"/>
<path d="M150.889 50.1918C150.889 49.7582 150.884 49.3245 150.889 48.8958C150.894 48.5933 150.924 48.5529 151.201 48.5479C151.595 48.5378 151.988 48.5277 152.376 48.5529C152.956 48.5882 153.319 48.9463 153.36 49.4909C153.405 50.091 153.097 50.5045 152.507 50.6356C152.255 50.6911 151.993 50.6507 151.741 50.6709C151.484 50.6911 151.438 50.7314 151.423 50.9886C151.413 51.1752 151.423 51.3668 151.418 51.5584C151.408 51.866 151.338 51.9669 151.141 51.9568C150.959 51.9518 150.894 51.861 150.894 51.5735C150.889 51.1096 150.894 50.6507 150.889 50.1918C150.894 50.1918 150.894 50.1918 150.889 50.1918ZM151.423 49.5716C151.423 50.1918 151.428 50.1969 152.054 50.1818C152.175 50.1767 152.296 50.1717 152.412 50.1414C152.654 50.0758 152.765 49.9246 152.785 49.6775C152.82 49.2438 152.573 49.0169 152.038 48.9917C151.454 48.9564 151.423 48.9866 151.423 49.5716Z" fill="white"/>
<path d="M115.684 50.2371C115.674 50.464 115.714 50.691 115.775 50.9128C115.875 51.281 116.117 51.4877 116.455 51.5079C116.803 51.523 117.055 51.3768 117.181 51.044C117.212 50.9683 117.247 50.8876 117.302 50.8372C117.418 50.7414 117.56 50.7515 117.681 50.8271C117.792 50.8977 117.771 51.0137 117.746 51.1196C117.645 51.5028 117.403 51.7701 117.04 51.8962C116.213 52.1887 115.28 51.8155 115.174 50.7616C115.144 50.4691 115.139 50.1665 115.154 49.869C115.205 48.8705 116.072 48.2503 116.99 48.5528C117.388 48.6839 117.655 48.9562 117.756 49.3748C117.787 49.5009 117.792 49.6269 117.64 49.6774C117.509 49.7177 117.368 49.7227 117.272 49.5967C117.227 49.5311 117.197 49.4555 117.166 49.3798C117.045 49.0974 116.828 48.9714 116.526 48.9815C116.213 48.9915 115.976 49.1227 115.85 49.4101C115.724 49.6622 115.674 49.9396 115.684 50.2371Z" fill="white"/>
<path d="M94.1376 50.2372C94.1426 50.5045 94.1174 50.7768 94.2385 51.034C94.3797 51.3315 94.5915 51.5131 94.9293 51.503C95.247 51.4929 95.5143 51.3819 95.6202 51.0441C95.6353 50.9936 95.6555 50.9382 95.6857 50.8978C95.7765 50.7718 95.9076 50.7465 96.0438 50.7919C96.2001 50.8424 96.185 50.9735 96.1648 51.0945C96.0942 51.5131 95.7412 51.866 95.2924 51.9568C94.415 52.1384 93.7493 51.6996 93.6031 50.8171C93.5274 50.3482 93.5123 49.8742 93.6636 49.4102C93.946 48.553 94.9697 48.2 95.716 48.6992C95.953 48.8555 96.0892 49.0875 96.1598 49.3547C96.19 49.4758 96.2001 49.6119 96.0488 49.6624C95.8975 49.7128 95.7513 49.7027 95.6656 49.5413C95.6403 49.4959 95.6202 49.4405 95.6 49.39C95.4941 49.1228 95.3075 48.9816 95.015 48.9665C94.7024 48.9463 94.4654 49.0724 94.2939 49.3295C94.1073 49.6119 94.1426 49.9246 94.1376 50.2372Z" fill="white"/>
<path d="M83.1334 48.5427C83.4712 48.5427 83.8091 48.5427 84.147 48.5427C84.2882 48.5427 84.4294 48.5679 84.4294 48.7545C84.4243 48.931 84.2932 48.9714 84.147 48.9764C84.026 48.9814 83.9049 48.9764 83.7839 48.9814C83.4561 48.9966 83.4158 49.0319 83.4158 49.3697C83.4107 50.0303 83.4158 50.696 83.4107 51.3566C83.4107 51.4776 83.4107 51.5986 83.3956 51.7197C83.3805 51.881 83.2746 51.9516 83.1183 51.9516C82.9619 51.9466 82.8661 51.8659 82.851 51.7045C82.8409 51.5986 82.8409 51.4877 82.8409 51.3818C82.8409 50.7313 82.8409 50.0858 82.8409 49.4353C82.8359 49.0067 82.8157 48.9915 82.377 48.9814C82.2559 48.9814 82.1349 48.9764 82.0139 48.9714C81.8929 48.9613 81.8122 48.8957 81.8071 48.7646C81.8071 48.6335 81.8828 48.5629 82.0089 48.5579C82.2509 48.5478 82.4929 48.5478 82.74 48.5427C82.8661 48.5427 82.9972 48.5427 83.1334 48.5427Z" fill="white"/>
<path d="M97.9578 50.464C97.9578 50.8574 97.9679 51.2456 97.9527 51.639C97.9477 51.8659 97.8519 51.9567 97.6703 51.9516C97.5342 51.9466 97.4283 51.8911 97.4081 51.7499C97.393 51.6289 97.388 51.5079 97.388 51.3868C97.388 50.7262 97.393 50.0606 97.3829 49.4C97.3779 49.0167 97.3476 48.9966 96.9593 48.9814C96.8232 48.9764 96.687 48.9764 96.5559 48.9613C96.4349 48.9461 96.3592 48.8705 96.3693 48.7394C96.3794 48.6284 96.45 48.573 96.5559 48.5579C96.6214 48.5478 96.6921 48.5427 96.7576 48.5427C97.3779 48.5427 98.0032 48.5427 98.6234 48.5427C98.6789 48.5427 98.7293 48.5478 98.7848 48.5528C98.9058 48.5629 98.9966 48.6133 99.0016 48.7444C99.0067 48.9008 98.9109 48.9613 98.7747 48.9714C98.6688 48.9814 98.5579 48.9764 98.452 48.9814C97.9679 48.9915 97.9628 48.9915 97.9628 49.4908C97.9578 49.8135 97.9578 50.1413 97.9578 50.464Z" fill="white"/>
<path d="M135.376 48.4114C135.079 48.4214 134.852 48.3004 134.716 48.0331C134.665 47.9323 134.655 47.8163 134.761 47.7407C134.862 47.6701 134.968 47.6902 135.059 47.7709C135.099 47.8062 135.124 47.8567 135.159 47.897C135.346 48.0836 135.432 48.0785 135.628 47.8919C135.835 47.6902 135.961 47.6499 136.062 47.7659C136.153 47.8667 136.097 48.0735 135.941 48.2298C135.775 48.3811 135.583 48.4164 135.376 48.4114Z" fill="white"/>
<path d="M122.915 48.4113C122.643 48.4062 122.406 48.3306 122.28 48.0633C122.224 47.9524 122.194 47.8213 122.325 47.7406C122.431 47.675 122.537 47.7154 122.618 47.7961C122.658 47.8364 122.683 47.8868 122.719 47.9221C122.88 48.0684 122.976 48.0684 123.137 47.9171C123.188 47.8717 123.218 47.8061 123.263 47.7608C123.339 47.6902 123.435 47.6801 123.525 47.7355C123.621 47.791 123.631 47.8868 123.611 47.9877C123.586 48.1289 123.495 48.2297 123.379 48.3054C123.263 48.381 123.112 48.4163 122.915 48.4113Z" fill="white"/>
<path d="M23.1408 49.2033C23.1308 49.8891 22.7626 50.3228 22.1726 50.3732C22.0919 50.3783 22.0113 50.3732 21.9356 50.3581C21.865 50.343 21.8146 50.2925 21.8196 50.2169C21.8247 50.1564 21.8751 50.1261 21.9255 50.111C22.0163 50.0858 22.1121 50.0706 22.2029 50.0505C22.334 50.0152 22.4651 49.9748 22.5609 49.874C22.6265 49.8034 22.7021 49.7277 22.6517 49.6269C22.6063 49.5361 22.5155 49.5664 22.4348 49.5764C22.4197 49.5764 22.4096 49.5815 22.3945 49.5815C21.9608 49.6017 21.7087 49.4353 21.633 49.0823C21.5624 48.7545 21.7389 48.4519 22.0819 48.3158C22.4298 48.1796 22.8181 48.3057 22.9996 48.6133C23.1156 48.7999 23.1509 49.0117 23.1408 49.2033ZM22.4096 49.2739C22.6517 49.2739 22.7828 49.168 22.7727 48.9965C22.7576 48.7646 22.576 48.5729 22.3642 48.5679C22.1575 48.5679 22.0062 48.7192 22.0062 48.9209C22.0062 49.1377 22.1676 49.2789 22.4096 49.2739Z" fill="white"/>
<path d="M19.8158 49.2181C19.8107 49.919 19.4829 50.3073 18.8274 50.383C18.7467 50.3931 18.666 50.3981 18.5904 50.3628C18.5399 50.3376 18.4996 50.3073 18.4996 50.2418C18.4996 50.1813 18.5349 50.1359 18.5904 50.1207C18.6811 50.0955 18.7769 50.0804 18.8677 50.0602C18.9988 50.03 19.1299 49.9896 19.2308 49.8888C19.2964 49.8232 19.3871 49.7526 19.3518 49.6518C19.3115 49.5257 19.1905 49.5912 19.1047 49.5912C18.6559 49.5912 18.3987 49.4198 18.3433 49.087C18.2727 48.6785 18.4441 48.3961 18.8375 48.2801C19.2258 48.1692 19.6292 48.3659 19.7603 48.734C19.8158 48.8954 19.8158 49.0567 19.8158 49.2181ZM19.0745 49.2786C19.3064 49.2836 19.4476 49.1828 19.4577 49.0164C19.4728 48.7743 19.2762 48.5676 19.0442 48.5676C18.8375 48.5676 18.6862 48.7189 18.6862 48.9155C18.6761 49.1324 18.8274 49.2736 19.0745 49.2786Z" fill="white"/>
<path d="M21.014 49.1884C21.014 49.3245 21.014 49.4556 21.014 49.5918C21.0089 49.8237 20.9988 50.0608 21.3115 50.1213C21.3619 50.1314 21.3972 50.1868 21.372 50.2473C21.3569 50.2776 21.3216 50.3179 21.2863 50.323C20.9787 50.3684 20.6711 50.3633 20.3635 50.328C20.308 50.323 20.2626 50.2826 20.2626 50.2221C20.2626 50.1616 20.308 50.1213 20.3584 50.1112C20.6005 50.0607 20.6307 49.8893 20.6257 49.6876C20.6206 49.4607 20.6257 49.2287 20.6206 49.0018C20.6206 48.8455 20.5551 48.7698 20.3937 48.8505C20.2929 48.9009 20.1668 49.0068 20.0912 48.8404C20.0256 48.6942 20.1618 48.6135 20.2626 48.558C20.4643 48.4471 20.6408 48.1697 20.898 48.3109C21.1098 48.4269 20.9989 48.7042 21.014 48.911C21.019 49.0018 21.014 49.0976 21.014 49.1884Z" fill="white"/>
<path d="M17.608 49.1681C17.608 49.3144 17.6131 49.4657 17.608 49.6119C17.603 49.8539 17.603 50.0809 17.9257 50.1162C17.9812 50.1212 18.0165 50.1767 18.0064 50.2372C17.9963 50.2977 17.9409 50.328 17.8904 50.333C17.5828 50.3633 17.2702 50.3633 16.9626 50.328C16.9071 50.3229 16.8617 50.2826 16.8516 50.2271C16.8415 50.1666 16.8869 50.1162 16.9424 50.1111C17.245 50.0809 17.2551 49.8893 17.2298 49.6472C17.2097 49.4455 17.2298 49.2438 17.2198 49.0421C17.2097 48.795 17.1895 48.7849 16.9626 48.8605C16.8718 48.8908 16.781 48.9614 16.7104 48.8605C16.6247 48.7445 16.7104 48.6538 16.8012 48.5933C16.9575 48.4874 17.1139 48.3815 17.2853 48.3058C17.4618 48.2251 17.5778 48.2856 17.5929 48.4874C17.6131 48.7143 17.598 48.9463 17.598 49.1732C17.598 49.1681 17.603 49.1681 17.608 49.1681Z" fill="white"/>
</svg>
