<svg width="105" height="57" viewBox="0 0 105 57" fill="none" xmlns="http://www.w3.org/2000/svg">
<path d="M0.875 40.6789C0.970551 40.6038 1.07621 40.5647 1.20109 40.5652C3.61817 40.5718 6.03575 40.5571 8.45283 40.589C9.63988 40.6048 10.8188 40.753 11.9422 41.1772C13.0125 41.5816 13.9159 42.2002 14.3168 43.3298C14.7218 44.4701 14.7379 45.6063 14.0008 46.642C13.5554 47.2677 12.9048 47.628 12.2076 47.9087C12.0519 47.9711 11.8947 48.0305 11.694 48.1081C11.8492 48.1578 11.968 48.1939 12.0863 48.2339C13.1646 48.5983 14.064 49.1976 14.6601 50.1993C15.5251 51.6522 15.1894 54.2108 13.2956 55.3633C12.4892 55.854 11.6141 56.1219 10.693 56.2686C10.0251 56.3746 9.35273 56.3731 8.67882 56.3721C6.21927 56.3696 3.75972 56.3706 1.30068 56.3721C1.14649 56.3721 0.996334 56.3726 0.875 56.2579C0.875 56.1732 0.875 56.0889 0.875 56.0042C0.989256 55.889 1.14143 55.8718 1.28956 55.8403C1.77692 55.7363 2.06357 55.4333 2.17783 54.9502C2.239 54.6919 2.23698 54.4306 2.23748 54.1697C2.24052 50.3607 2.24052 46.5512 2.24052 42.7422C2.24052 42.6158 2.23647 42.489 2.22889 42.3626C2.18389 41.6166 1.86236 41.1767 1.19097 41.0772C1.07571 41.06 0.959934 41.025 0.875 40.9326C0.875 40.8478 0.875 40.7636 0.875 40.6789ZM5.83808 51.7781C5.83707 51.7781 5.83656 51.7781 5.83555 51.7781C5.83555 52.59 5.84566 53.4014 5.83252 54.2129C5.82038 54.9837 6.27437 55.278 6.87549 55.3805C7.48519 55.4841 8.10197 55.4785 8.70965 55.377C9.90176 55.1781 10.7476 54.5432 11.1303 53.3563C11.3092 52.8021 11.3477 52.2338 11.3335 51.6563C11.3022 50.3628 10.6818 49.4686 9.51198 48.9551C8.57366 48.543 7.58023 48.4628 6.57114 48.5034C6.06153 48.5237 5.84111 48.7521 5.83858 49.2666C5.83504 50.1039 5.83808 50.9413 5.83808 51.7781ZM5.83858 44.5437C5.83909 44.5437 5.83959 44.5437 5.8401 44.5437C5.8401 45.2871 5.83302 46.0306 5.84263 46.7735C5.84869 47.2617 6.10855 47.5448 6.57973 47.5636C7.43059 47.5971 8.2774 47.5585 9.10197 47.3139C9.99074 47.05 10.5797 46.4954 10.7531 45.5581C10.8659 44.9476 10.8598 44.3321 10.7511 43.7206C10.5762 42.7366 9.9963 42.1089 9.05748 41.8034C8.3047 41.5583 7.52766 41.503 6.74353 41.503C6.11512 41.503 5.8492 41.7582 5.84111 42.39C5.8315 43.1081 5.83858 43.8261 5.83858 44.5437Z" fill="white"/>
<path d="M36.1125 56.5115C35.5286 56.3994 34.9391 56.3106 34.3764 56.1056C32.1596 55.2967 30.7283 53.7159 30.0322 51.4917C29.1575 48.6946 29.4624 46.0071 31.0681 43.5347C32.15 41.8692 33.7546 40.9502 35.6798 40.5656C37.016 40.2981 38.3335 40.3575 39.6429 40.7391C40.1176 40.8777 40.6029 40.9858 41.0994 41.0289C41.4148 41.0563 41.6727 40.9726 41.8865 40.7244C42.0984 40.4783 42.2793 40.5123 42.3774 40.8223C42.8208 42.2214 43.2551 43.6235 43.6858 45.0262C43.7293 45.1688 43.7611 45.3519 43.5796 45.4255C43.4057 45.4961 43.2975 45.3591 43.2207 45.2241C42.7788 44.4497 42.2601 43.7347 41.6196 43.1125C40.7622 42.2803 39.7748 41.6729 38.568 41.5698C36.8441 41.4227 35.2748 42.0088 34.2632 43.7677C33.7207 44.7105 33.4578 45.7452 33.3395 46.8216C33.2541 47.5954 33.2071 48.3688 33.292 49.1462C33.5018 51.0619 34.0746 52.8142 35.5605 54.1407C36.2268 54.7354 37.0144 55.0703 37.9118 55.1389C39.4851 55.2586 40.9138 54.8861 42.1681 53.9017C42.2606 53.8291 42.3607 53.7657 42.4624 53.7063C42.5635 53.6479 42.6712 53.6352 42.7702 53.7139C42.8729 53.7951 42.8587 53.9103 42.8385 54.0179C42.8178 54.129 42.7414 54.2117 42.6701 54.296C41.562 55.6017 40.153 56.3212 38.4543 56.4765C38.4143 56.4801 38.3759 56.4994 38.337 56.5115C37.5953 56.5115 36.8542 56.5115 36.1125 56.5115Z" fill="white"/>
<path d="M52.0374 0.488037C52.6097 0.569231 53.1851 0.633171 53.7538 0.734156C56.0359 1.13911 58.1476 1.98403 60.1006 3.23493C60.2578 3.3354 60.229 3.40848 60.1229 3.52621C59.8392 3.83881 59.5566 4.15242 59.2942 4.48227C59.1724 4.63552 59.0849 4.64821 58.9242 4.54164C57.9585 3.8997 56.9252 3.38869 55.8362 2.9954C54.6451 2.56508 53.4201 2.29156 52.1578 2.16368C49.4414 1.88812 46.8474 2.33215 44.3615 3.44552C43.6689 3.75558 43.0021 4.1169 42.3716 4.54113C42.2306 4.63603 42.1447 4.65074 42.0218 4.49698C41.7539 4.16104 41.4637 3.84185 41.1699 3.52722C41.0395 3.38717 41.0663 3.31866 41.2164 3.22224C43.178 1.96982 45.2983 1.13099 47.59 0.723499C48.1436 0.624037 48.7038 0.582425 49.2569 0.488037C50.1836 0.488037 51.1107 0.488037 52.0374 0.488037Z" fill="white"/>
<path d="M104.919 54.6341C104.837 55.1877 104.62 55.6632 104.156 56.0042C103.562 56.4411 102.67 56.4645 102.045 56.0529C101.414 55.6373 101.1 54.8578 101.263 54.1114C101.43 53.3476 102.016 52.8148 102.78 52.6844C103.895 52.4946 104.832 53.369 104.888 54.2626C104.889 54.2854 104.908 54.3072 104.919 54.3296C104.919 54.4311 104.919 54.5326 104.919 54.6341ZM101.541 54.4874C101.539 55.3567 102.208 56.0423 103.059 56.0448C103.902 56.0473 104.597 55.3501 104.6 54.4981C104.603 53.6699 103.904 52.9706 103.071 52.9691C102.229 52.9681 101.542 53.6501 101.541 54.4874Z" fill="white"/>
<path d="M32.1511 17.8152C32.1627 14.8349 32.8447 12.2895 34.0176 9.8633C35.0095 7.81164 36.3124 5.96854 37.7628 4.22287C38.1607 3.74383 38.4529 3.22418 38.2936 2.55332C38.2471 2.35693 38.4049 2.31481 38.5707 2.34475C38.9433 2.41225 39.2674 2.59138 39.5763 2.79842C40.3776 3.33532 41.0125 4.04678 41.6162 4.78767C42.5611 5.94824 43.368 7.20776 44.2077 8.44393C44.4726 8.83366 44.7188 9.24065 45.0975 9.54005C45.6283 9.96074 46.2279 10.0769 46.8952 10.0455C47.7967 10.0029 48.1086 9.56441 48.0287 8.60531C48.0196 8.49671 47.9913 8.38964 47.9736 8.28104C47.9503 8.1354 47.8715 8.06689 47.7289 8.00397C46.6511 7.5305 46.0019 6.67645 45.7188 5.55597C45.5869 5.03379 45.8563 4.76078 46.3963 4.74048C46.8609 4.72323 47.3224 4.78209 47.7769 4.8577C48.0363 4.90084 48.0646 4.78767 48.0772 4.60194C48.102 4.23809 48.1672 3.88185 48.2835 3.53678C48.513 2.85729 48.8573 2.78066 49.3553 3.29827C49.5545 3.50532 49.7304 3.73317 49.8861 3.97472C49.965 4.09702 50.0469 4.12036 50.1976 4.10565C51.1429 4.01379 52.0909 3.91027 53.0378 4.07976C53.7193 4.20206 53.9609 4.68364 53.6591 5.31493C53.4038 5.84827 52.9842 6.26083 52.6055 6.70233C52.3255 7.02913 52.0302 7.34426 51.8234 7.72689C51.5186 8.28967 51.6465 8.66417 52.238 8.91587C52.6091 9.0742 53.0029 9.17925 53.3563 9.37919C53.554 9.49083 53.781 9.58065 53.9321 9.73999C54.3204 10.1495 54.7749 10.0901 55.2446 9.99271C55.8902 9.85874 56.3639 9.47865 56.738 8.94683C57.5049 7.85579 58.2102 6.72161 59.01 5.6529C59.7248 4.69836 60.4629 3.76514 61.4068 3.02069C61.7663 2.73702 62.153 2.49648 62.5964 2.36759C62.9447 2.2661 63.0266 2.34222 62.9746 2.69541C62.9043 3.16887 63.0514 3.586 63.3315 3.9529C63.8487 4.63036 64.3982 5.28346 64.9058 5.96803C66.6298 8.29525 67.9644 10.8178 68.6525 13.6545C68.8972 14.6649 69.0428 15.689 69.0918 16.7303C69.2764 20.6398 68.0787 24.1306 65.9205 27.3301C64.9427 28.7789 63.7996 30.0846 62.4614 31.2122C62.3133 31.337 62.1556 31.4502 61.9988 31.5644C61.9452 31.6035 61.8729 31.6476 61.8148 31.5933C61.7415 31.5248 61.8006 31.4497 61.8446 31.3913C61.9907 31.1955 62.1464 31.0062 62.2915 30.8088C63.9978 28.4836 65.1742 25.9174 65.7561 23.0857C65.8815 22.4742 65.9447 21.8506 65.8325 21.2233C65.7931 21.0041 65.7218 20.7991 65.6131 20.6068C65.2829 20.0237 64.6464 19.8826 64.1065 20.2769C63.6424 20.6164 63.3199 21.0848 62.9907 21.5446C62.3325 22.4641 61.7167 23.4156 60.9366 24.2417C60.8325 24.3523 60.7304 24.466 60.6166 24.566C60.5474 24.6269 60.4761 24.7482 60.3633 24.6665C60.2774 24.6046 60.3178 24.497 60.3391 24.4061C60.4068 24.1103 60.4882 23.817 60.5403 23.5181C60.8128 21.9439 60.9088 20.3678 60.5706 18.789C60.5175 18.5409 60.427 18.3049 60.3325 18.0695C59.8805 16.9378 58.7855 16.8242 58.0383 17.1246C57.3907 17.3849 56.9053 17.8492 56.4877 18.3887C55.7562 19.3341 55.2188 20.3764 54.9584 21.5537C54.9003 21.8155 54.9498 22.0028 55.152 22.2043C55.7046 22.7559 55.8987 23.4328 55.7107 24.2016C55.6647 24.3894 55.6015 24.5746 55.5251 24.7522C55.4458 24.9375 55.3795 25.214 55.2142 25.2511C54.9989 25.2993 54.9695 24.9877 54.8538 24.8405C54.4149 24.2849 53.9175 24.0697 53.3927 24.2534C53.0302 24.3803 52.7987 24.6583 52.6076 24.9745C52.1824 25.6783 51.9756 26.4634 51.8027 27.256C51.5363 28.4765 51.3917 29.7152 51.283 30.9595C51.1551 32.4235 51.0777 33.8901 51.0267 35.3587C51.009 35.8732 50.969 36.3868 50.9306 36.9003C50.9215 37.0247 50.8826 37.148 50.8492 37.2693C50.8209 37.3718 50.7638 37.4687 50.6485 37.4692C50.5337 37.4697 50.4812 37.3723 50.4438 37.2723C50.3406 36.9988 50.3366 36.707 50.3209 36.4238C50.2552 35.2262 50.2228 34.0271 50.151 32.83C50.0307 30.8169 49.8735 28.8063 49.3932 26.8394C49.2107 26.0919 48.9928 25.3526 48.5151 24.7269C47.9989 24.0514 47.2436 24.0078 46.6465 24.6112C46.4792 24.7806 46.3411 24.972 46.2264 25.1795C46.1455 25.3262 46.0798 25.3115 45.9974 25.179C45.3604 24.1565 45.2795 22.9989 46.2284 22.1155C46.3781 21.9759 46.3922 21.8155 46.3543 21.6552C45.96 19.9831 45.2092 18.5181 43.8315 17.4422C43.3336 17.0535 42.7593 16.8916 42.1207 17.0332C41.6935 17.1281 41.3705 17.3595 41.1415 17.731C40.7775 18.3217 40.642 18.9834 40.5773 19.6578C40.4231 21.2599 40.5429 22.8437 40.9544 24.4026C40.9792 24.497 41.0247 24.6157 40.9109 24.6766C40.8058 24.7329 40.7451 24.6213 40.6819 24.5619C39.913 23.8413 39.3149 22.9812 38.7117 22.1251C38.3134 21.5593 37.9393 20.9737 37.4408 20.487C37.2148 20.2668 36.9691 20.0861 36.6304 20.0689C36.2375 20.0486 35.9433 20.2028 35.7325 20.5256C35.5237 20.8443 35.4337 21.2025 35.4145 21.5796C35.3639 22.5727 35.5722 23.5282 35.8579 24.468C36.6142 26.9577 37.7466 29.2534 39.3806 31.2878C39.4504 31.3746 39.5924 31.4908 39.509 31.5837C39.4008 31.7034 39.2795 31.5558 39.187 31.4837C37.9059 30.4876 36.8169 29.3037 35.8462 28.0076C34.2269 25.8453 33.0586 23.4704 32.5015 20.8103C32.4307 20.4718 32.3599 20.1328 32.3149 19.7903C32.2163 19.0468 32.138 18.2993 32.1511 17.8152ZM61.7157 21.5126C63.8269 17.2555 64.4644 12.836 63.1434 8.20035C66.6975 12.5478 67.9644 17.4605 66.8274 22.9832C66.9108 22.8076 66.9816 22.63 67.0398 22.4489C67.6282 20.624 67.7905 18.7571 67.609 16.8511C67.4907 15.6098 67.2309 14.402 66.8421 13.2207C66.0165 10.7103 64.6854 8.48199 63.0635 6.41561C62.6106 5.83863 62.1136 5.28042 61.8649 4.5786C61.6778 4.05185 61.5848 4.1909 61.2814 4.45579C61.2435 4.48878 61.2132 4.53039 61.1793 4.56794C60.7294 5.07033 60.425 5.66457 60.1298 6.26337C59.6257 7.28438 59.2 8.34599 58.5883 9.31169C57.8512 10.4753 56.9508 11.4024 55.4604 11.4618C55.328 11.4669 55.3583 11.5455 55.3886 11.6171C55.5454 11.9835 55.6485 12.3656 55.7188 12.7569C55.7375 12.8614 55.7855 12.9345 55.8891 12.9461C56.1217 12.973 56.3487 13.0243 56.5904 12.9923C57.3285 12.8944 57.8846 12.4991 58.3527 11.95C58.7385 11.4978 59.0413 10.9914 59.3113 10.4636C59.8194 9.46951 60.1798 8.41298 60.6187 7.38943C60.7182 7.1565 60.8133 6.91952 60.9918 6.73277C61.1591 6.55821 61.3315 6.56227 61.4882 6.74495C61.5479 6.81448 61.5954 6.89668 61.6368 6.97889C62.4852 8.66519 62.8921 10.4636 62.9604 12.3417C62.9933 13.245 62.9599 14.1473 62.8745 15.0496C62.7587 16.2685 62.5726 17.4757 62.331 18.6744C62.1404 19.6233 61.922 20.5667 61.7157 21.5126ZM34.4686 23.0233C34.4747 22.9548 34.4827 22.9304 34.4782 22.9086C34.2987 22.084 34.1794 21.2518 34.1182 20.4084C34.005 18.8413 34.0874 17.2885 34.4104 15.7499C34.9433 13.21 36.0404 10.933 37.5879 8.86563C38.2062 8.03999 38.8826 7.2651 39.6111 6.53588C39.8437 6.30295 40.0146 6.31463 40.2239 6.56683C40.3488 6.71704 40.4387 6.88958 40.5227 7.06465C40.8467 7.74313 41.0924 8.45408 41.3831 9.14626C41.7957 10.1292 42.2259 11.103 42.9231 11.9256C43.5378 12.6508 44.2739 13.1171 45.2759 12.9619C46.1516 12.8259 46.8138 12.3971 47.1698 11.5552C47.2051 11.4714 47.283 11.3679 47.233 11.2959C47.1682 11.2035 47.0611 11.2984 46.9797 11.3197C45.5899 11.6831 44.4018 11.3573 43.4291 10.2845C42.8856 9.68519 42.4868 8.99098 42.1228 8.27393C41.6647 7.37116 41.2815 6.43083 40.7891 5.54531C40.5343 5.08708 40.2532 4.64508 39.8391 4.30761C39.7087 4.20156 39.5823 4.14979 39.5131 4.36394C39.3113 4.9866 38.9367 5.50725 38.5388 6.01116C37.3336 7.53812 36.2365 9.13357 35.3892 10.8945C34.2537 13.2547 33.6096 15.7336 33.6041 18.3618C33.6021 19.2387 33.6885 20.1145 33.8639 20.9767C34.004 21.6618 34.1794 22.3367 34.4686 23.0233ZM50.7147 29.4676C50.7744 29.1337 50.781 28.7972 50.8032 28.4643C50.8917 27.1337 51.0241 25.8093 51.2698 24.498C51.4256 23.6678 51.6081 22.8426 52.0201 22.0931C52.1601 21.8389 52.3325 21.6095 52.6151 21.4958C52.9392 21.3654 53.2016 21.4913 53.3057 21.8267C53.3775 22.0571 53.3876 22.2946 53.3371 22.528C53.2981 22.7097 53.3042 22.798 53.5353 22.8142C53.9807 22.8457 54.3583 23.0472 54.6384 23.4044C54.7643 23.5653 54.8714 23.7414 54.9933 23.92C55.2228 23.2496 54.9766 22.6853 54.3128 22.359C54.1642 22.286 54.106 22.2235 54.1349 22.0373C54.2532 21.268 54.4443 20.518 54.6733 19.7761C54.7304 19.5913 54.8037 19.4102 54.8078 19.2123C54.8153 18.8784 54.6773 18.7317 54.3472 18.7145C53.9453 18.6931 53.5899 18.8433 53.2344 19.0007C53.15 19.0382 53.0732 19.1164 52.9372 19.0778C53.013 18.9641 53.0757 18.8657 53.1424 18.7703C53.4711 18.2988 53.7744 17.8112 54.0413 17.3027C54.7638 15.9265 55.2162 14.4914 55.011 12.904C54.8148 11.3887 53.647 10.0485 52.1702 9.68113C52.0666 9.65525 51.917 9.57202 51.8659 9.66539C51.7976 9.79074 51.9807 9.83793 52.0474 9.92471C52.0782 9.9648 52.1162 9.99829 52.1505 10.0353C53.0444 11.001 53.3892 12.1829 53.4599 13.4612C53.5494 15.0749 53.2446 16.6364 52.7835 18.172C52.6126 18.7398 52.4124 19.2985 52.2163 19.8897C52.5368 19.7446 52.8371 19.6411 53.1652 19.6624C53.7264 19.6984 54.0762 20.1262 53.9417 20.6073C53.9094 20.7245 53.8806 20.7793 53.7375 20.7204C53.1172 20.4637 52.5823 20.6403 52.1268 21.0934C51.645 21.5735 51.4195 22.1946 51.238 22.832C50.962 23.8012 50.8502 24.7964 50.7663 25.7986C50.6637 27.0211 50.6824 28.2441 50.7147 29.4676ZM39.5687 21.6029C39.1238 19.5797 38.7365 17.5544 38.6177 15.4834C38.5014 13.4632 38.599 11.4689 39.1703 9.51519C39.2487 9.24775 39.326 8.97931 39.2977 8.69462C39.2871 8.58704 39.2982 8.45865 39.1622 8.42364C39.0378 8.39167 38.9585 8.48352 38.8877 8.56826C38.7128 8.77886 38.5995 9.02498 38.507 9.27922C37.9655 10.7646 37.777 12.3001 37.821 13.8773C37.8659 15.4987 38.1374 17.0804 38.5525 18.6419C38.822 19.6543 39.1531 20.6448 39.5687 21.6029ZM48.7592 21.4613C48.5879 21.163 48.3639 21.0117 48.0919 20.9955C47.4969 20.9605 47.1217 21.335 47.1516 21.9729C47.1622 22.1956 47.1212 22.3042 46.9028 22.4052C46.3138 22.6767 46.058 23.3526 46.2977 23.9093C46.3866 23.8601 46.4048 23.7617 46.4529 23.6866C46.733 23.2501 47.0884 22.9091 47.6227 22.8508C47.9084 22.8193 48.009 22.7173 47.9332 22.4367C47.9119 22.3585 47.9241 22.2672 47.9377 22.185C48.0115 21.7359 48.2567 21.338 48.7592 21.4613ZM52.7673 4.68364C52.1126 4.36445 49.5509 4.63594 49.193 5.04902C49.3578 5.10585 52.6146 4.7826 52.7673 4.68364ZM46.3138 5.61737C46.5636 6.27301 46.9544 6.78504 47.6566 6.9931C47.8007 7.03573 47.9428 7.03268 48.0049 6.88907C48.0727 6.73176 47.9235 6.66427 47.8138 6.61301C47.2658 6.35522 46.7279 6.08424 46.3138 5.61737ZM50.0039 5.56358C49.9357 5.57576 49.8356 5.5854 49.7395 5.61128C49.4989 5.67725 49.3866 5.83152 49.4205 6.04669C49.4483 6.22176 49.5332 6.30803 49.7153 6.2106C49.8856 6.11976 50.0474 6.01522 50.1773 5.86958C50.237 5.8031 50.33 5.73307 50.284 5.63361C50.2375 5.53364 50.1242 5.5717 50.0039 5.56358Z" fill="white"/>
<path d="M69.4136 49.0286C70.8286 49.6893 71.7073 50.8331 72.549 52.014C73.0976 52.7838 73.6102 53.5795 74.2224 54.3026C74.7851 54.9674 75.4171 55.5408 76.2386 55.8697C76.3771 55.925 76.5096 56.0067 76.4813 56.1813C76.4515 56.367 76.2937 56.3736 76.1451 56.3705C75.1203 56.3502 74.0935 56.4233 73.0728 56.2345C71.817 56.0021 70.8008 55.379 69.9737 54.4234C69.1537 53.476 68.4682 52.4321 67.8099 51.3685C67.3989 50.7042 66.9297 50.0897 66.2821 49.6325C65.8853 49.3523 65.4429 49.2082 64.9646 49.1717C64.6871 49.1504 64.4788 49.329 64.4368 49.6076C64.4267 49.6741 64.4227 49.7426 64.4227 49.8101C64.4252 51.4 64.4207 52.9898 64.4363 54.5792C64.4439 55.3272 64.8236 55.7748 65.4742 55.8605C65.5319 55.8682 65.5905 55.8864 65.6436 55.9103C65.7422 55.9549 65.8084 56.0265 65.7983 56.1462C65.7882 56.2655 65.7098 56.3315 65.6067 56.3533C65.5091 56.3736 65.406 56.371 65.3054 56.371C62.045 56.3716 58.7847 56.3655 55.5243 56.3787C55.0916 56.3802 54.8413 56.2224 54.6659 55.8316C54.2554 54.9151 53.808 54.0154 53.3904 53.102C52.9895 52.2246 52.4434 51.7993 51.1972 51.8785C50.2094 51.9414 49.2407 52.0784 48.3065 52.4103C47.1265 52.83 46.1007 53.4557 45.4693 54.5959C45.3904 54.738 45.3338 54.8857 45.2999 55.0435C45.2109 55.4525 45.3874 55.7646 45.7827 55.8849C45.9354 55.9311 46.0987 55.9844 46.0663 56.1757C46.0345 56.3629 45.859 56.371 45.7023 56.371C44.5143 56.3716 43.3267 56.3716 42.1386 56.371C41.9829 56.371 41.8075 56.3624 41.7777 56.1731C41.7473 55.9808 41.9071 55.9245 42.0628 55.8849C42.6634 55.7327 43.0314 55.2952 43.3459 54.805C43.9126 53.9205 44.312 52.9497 44.7524 52.0008C46.3803 48.4952 47.9253 44.9506 49.6492 41.4897C49.7695 41.2482 49.8904 41.0056 50.0294 40.7747C50.3181 40.2936 50.7427 40.282 51.036 40.7625C51.449 41.44 51.7963 42.1545 52.1568 42.8614C53.9616 46.4035 55.6846 49.9867 57.4136 53.5663C57.6997 54.1585 57.9727 54.7609 58.3742 55.2886C58.8125 55.8651 59.3625 56.0326 60.0501 55.8159C60.5172 55.6687 60.7382 55.3216 60.8125 54.8664C60.8519 54.6259 60.8686 54.3788 60.8691 54.1347C60.8726 50.3713 60.8721 46.6085 60.8706 42.8452C60.8706 42.5412 60.8433 42.2382 60.7751 41.9414C60.6704 41.4826 60.3802 41.2096 59.9298 41.1005C59.8565 41.0827 59.7816 41.0685 59.7083 41.0503C59.5658 41.0147 59.4444 40.9447 59.4712 40.7767C59.497 40.6169 59.6285 40.5692 59.7751 40.5677C60.0279 40.5651 60.2806 40.5656 60.5334 40.5662C62.7407 40.5672 64.9485 40.5448 67.1552 40.5778C68.7488 40.6017 70.3311 40.761 71.8145 41.4227C72.6916 41.814 73.4287 42.3732 73.8448 43.2724C74.6036 44.9131 74.088 46.7841 72.6067 47.8355C71.7503 48.4435 70.7892 48.7749 69.7695 48.9626C69.6694 48.9809 69.5703 48.9997 69.4136 49.0286ZM64.4308 45.0399C64.4282 45.0399 64.4252 45.0399 64.4227 45.0399C64.4227 45.8006 64.4131 46.5618 64.4257 47.3225C64.4353 47.8863 64.6613 48.1015 65.2119 48.1837C65.726 48.2608 66.2366 48.2273 66.7467 48.175C67.5855 48.0888 68.3878 47.8736 69.0905 47.3869C69.8999 46.8267 70.4429 46.0802 70.4752 45.0648C70.5228 43.5744 69.769 42.4707 68.3842 41.9256C67.5248 41.5872 66.6259 41.4943 65.7108 41.5019C64.8797 41.509 64.4601 41.8916 64.4353 42.7325C64.4126 43.5008 64.4308 44.2706 64.4308 45.0399ZM49.6133 45.248C49.5446 45.3901 49.5026 45.4723 49.4647 45.556C48.7463 47.1459 48.0274 48.7363 47.31 50.3267C47.175 50.6256 47.1765 50.6281 47.494 50.6281C48.9495 50.6286 50.4055 50.6286 51.861 50.6276C52.1846 50.6276 52.1876 50.6245 52.0476 50.3307C51.4955 49.1742 50.9419 48.0187 50.3883 46.8632C50.1381 46.3421 49.8878 45.8199 49.6133 45.248Z" fill="white"/>
<path d="M80.8914 56.3711C79.6614 56.3711 78.4313 56.3711 77.2013 56.3711C77.1174 56.3711 77.0319 56.3746 76.949 56.3635C76.8201 56.3462 76.7246 56.2731 76.7124 56.1387C76.7008 56.0098 76.7928 55.9408 76.902 55.9012C76.9728 55.8753 77.0481 55.8616 77.1219 55.8448C77.6927 55.7165 77.9895 55.3815 78.0638 54.802C78.1027 54.4991 78.1133 54.1966 78.1133 53.8921C78.1118 50.2222 78.1118 46.5517 78.1138 42.8817C78.1138 42.5681 78.0946 42.2581 78.0233 41.9516C77.9116 41.472 77.6083 41.198 77.1341 41.0934C76.9551 41.0539 76.6912 41.0605 76.7215 40.7895C76.7508 40.5271 77.0001 40.5703 77.1897 40.5703C79.2958 40.5687 81.4025 40.5444 83.5082 40.5769C85.3014 40.6048 87.0622 40.8539 88.7104 41.6324C90.6825 42.5641 91.9378 44.0849 92.4105 46.2249C92.812 48.0416 92.7629 49.8532 92.1608 51.6197C91.4449 53.7191 89.9535 55.0456 87.8949 55.7677C86.6917 56.1894 85.4465 56.3604 84.1775 56.3696C83.082 56.3772 81.9869 56.3711 80.8914 56.3711ZM81.675 48.0426C81.675 49.9202 81.6689 51.7978 81.678 53.6749C81.6816 54.4021 82.0289 54.9304 82.6866 55.2395C83.2695 55.5135 83.8838 55.4668 84.4965 55.3902C86.0764 55.1917 87.2589 54.3915 88.0455 53.0041C88.5744 52.0709 88.8206 51.0529 88.9419 49.9943C89.1052 48.5724 89.0683 47.1612 88.724 45.7697C88.358 44.2884 87.63 43.0416 86.2741 42.2586C85.037 41.5446 83.6952 41.3726 82.2984 41.5913C81.8747 41.6577 81.723 41.8328 81.6811 42.2327C81.6694 42.3418 81.675 42.4524 81.675 42.5625C81.675 44.3889 81.675 46.2158 81.675 48.0426Z" fill="white"/>
<path d="M29.0525 56.3708C28.4625 56.3713 27.8725 56.3565 27.283 56.3763C26.8821 56.39 26.641 56.2317 26.4858 55.8603C26.0859 54.9022 25.64 53.9629 25.2583 52.9982C24.9554 52.2329 24.4428 51.8056 23.6218 51.8138C21.7482 51.832 20.0187 52.2715 18.6365 53.6401C18.2451 54.0273 17.91 54.4663 17.7613 55.0123C17.641 55.4548 17.8139 55.7567 18.2472 55.8882C18.3923 55.9323 18.5399 55.9836 18.5192 56.1632C18.4984 56.3423 18.3402 56.3697 18.1916 56.3697C16.9782 56.3718 15.7649 56.3718 14.5515 56.3697C14.4009 56.3697 14.2492 56.3368 14.2249 56.1586C14.2042 56.0059 14.3281 55.9282 14.455 55.9003C15.0733 55.7648 15.4565 55.3335 15.78 54.8372C16.3357 53.9852 16.7264 53.0474 17.1415 52.1233C18.5222 49.0511 19.8311 45.947 21.2472 42.8911C21.5348 42.2709 21.8457 41.662 22.146 41.048C22.1718 40.9947 22.1996 40.9424 22.229 40.8911C22.3604 40.6608 22.4913 40.4182 22.8007 40.4187C23.1187 40.4192 23.2729 40.6577 23.3922 40.9038C23.9271 42.0045 24.4635 43.1047 24.9792 44.2145C26.4332 47.3461 27.8472 50.4954 29.2588 53.6462C29.5141 54.2161 29.8038 54.7712 30.187 55.2701C30.4195 55.5725 30.7036 55.8004 31.0828 55.8902C31.2299 55.9252 31.3771 55.9871 31.3548 56.1647C31.3331 56.3408 31.1738 56.3692 31.0237 56.3697C30.3669 56.3718 29.7097 56.3708 29.0525 56.3708ZM21.8892 45.265C21.8483 45.338 21.825 45.372 21.8088 45.4091C21.0904 47.0756 20.3751 48.7431 19.6531 50.4081C19.5606 50.6212 19.6683 50.6293 19.8291 50.6293C21.2108 50.6278 22.5925 50.6248 23.9741 50.6329C24.2284 50.6344 24.1779 50.5324 24.1101 50.3766C23.5095 48.9994 22.913 47.6206 22.3154 46.2418C22.1789 45.9267 22.0409 45.6126 21.8892 45.265Z" fill="white"/>
<path d="M97.0253 40.5658C97.9691 40.5658 98.9125 40.5658 99.8564 40.5663C99.9403 40.5663 100.027 40.5613 100.108 40.5765C100.229 40.5993 100.339 40.6557 100.348 40.7977C100.357 40.9419 100.254 41.0073 100.133 41.0398C100.012 41.0723 99.8857 41.0875 99.7639 41.12C99.1587 41.2814 98.8453 41.7 98.8165 42.3947C98.8048 42.6733 98.8099 42.9529 98.8099 43.232C98.8094 46.8771 98.8094 50.5222 98.8104 54.1668C98.8104 54.386 98.8114 54.6037 98.8554 54.8225C98.9722 55.4035 99.2902 55.7318 99.8665 55.8409C99.9737 55.8612 100.082 55.88 100.185 55.9155C100.275 55.947 100.349 56.0125 100.349 56.119C100.349 56.2342 100.279 56.3012 100.175 56.3428C100.085 56.3788 99.9924 56.3707 99.9009 56.3707C97.9797 56.3712 96.0591 56.3717 94.138 56.3702C93.9479 56.3702 93.7017 56.4052 93.6785 56.1398C93.6557 55.8836 93.908 55.8836 94.0799 55.8496C94.823 55.7029 95.1921 55.2873 95.1982 54.517C95.2098 53.0707 95.2042 51.6249 95.2047 50.1787C95.2052 47.7094 95.2052 45.2396 95.2042 42.7702C95.2042 42.6013 95.2138 42.4302 95.1921 42.2633C95.1006 41.5564 94.7841 41.2276 94.0773 41.086C94.0364 41.0779 93.9964 41.0621 93.955 41.054C93.8053 41.0256 93.6572 40.9764 93.6759 40.7916C93.6951 40.5983 93.8584 40.5679 94.0177 40.5668C94.4388 40.5638 94.8604 40.5653 95.2816 40.5653C95.8625 40.5658 96.4439 40.5658 97.0253 40.5658Z" fill="white"/>
<path d="M49.7704 35.2665C49.7694 35.6192 49.8361 35.5968 49.3331 35.5608C45.6455 35.2969 42.3978 34.0724 39.9069 31.1956C38.322 29.3652 37.2745 27.2481 36.5566 24.9508C36.325 24.2099 36.1365 23.4578 35.9899 22.6951C35.962 22.55 35.8731 22.3343 36.0283 22.2846C36.1976 22.2303 36.2315 22.4663 36.2805 22.5972C36.8569 24.1439 37.6289 25.5811 38.6587 26.872C40.9767 29.7778 43.9443 31.632 47.5778 32.4024C48.1703 32.5282 48.7663 32.6297 49.3725 32.653C49.5884 32.6612 49.6617 32.7632 49.6688 32.9692C49.6946 33.6867 49.7315 34.4033 49.7704 35.2665Z" fill="white"/>
<path d="M52.0575 35.5651C51.4604 35.5672 51.513 35.6123 51.5282 35.1368C51.5519 34.4112 51.602 33.686 51.6303 32.9608C51.6384 32.7482 51.7269 32.668 51.9346 32.6518C57.6995 32.2073 62.7683 28.3881 64.8699 22.9633C64.9371 22.7903 65.0013 22.6157 65.0767 22.4467C65.1126 22.3666 65.1469 22.2402 65.2576 22.2681C65.3861 22.3006 65.3542 22.4381 65.337 22.5289C65.2597 22.9344 65.1828 23.3414 65.0812 23.7413C64.5782 25.7249 63.8446 27.6127 62.7561 29.3543C60.8148 32.461 58.0777 34.431 54.4978 35.2074C53.6591 35.3895 52.8128 35.5154 52.0575 35.5651Z" fill="white"/>
<path d="M99.3176 36.2944C99.3176 36.5395 99.3222 36.7851 99.3166 37.0302C99.308 37.4073 99.1852 37.5707 98.8161 37.6504C97.7514 37.8797 96.7171 38.1979 95.7332 38.6724C95.5361 38.7673 95.3419 38.8693 95.1463 38.9677C95.0361 39.023 94.9127 39.0591 94.8136 38.9743C94.7029 38.8794 94.7337 38.7409 94.7752 38.6191C94.8525 38.3897 95.0103 38.2101 95.164 38.031C96.121 36.9145 97.1973 35.9387 98.4855 35.2161C98.5659 35.1709 98.6493 35.1273 98.7363 35.0963C99.0927 34.97 99.3106 35.1237 99.3187 35.5084C99.3237 35.7702 99.3197 36.0326 99.3197 36.2949C99.3187 36.2944 99.3181 36.2944 99.3176 36.2944Z" fill="white"/>
<path d="M103.57 54.5758C103.935 54.7814 103.853 55.1163 103.892 55.4076C103.908 55.5258 103.803 55.506 103.732 55.5096C103.63 55.5146 103.52 55.5197 103.504 55.3771C103.494 55.2853 103.501 55.1914 103.491 55.0995C103.459 54.8077 102.993 54.5961 102.756 54.7641C102.707 54.7981 102.708 54.8504 102.708 54.9001C102.706 55.0265 102.701 55.1533 102.707 55.2797C102.714 55.4274 102.686 55.5157 102.505 55.5157C102.328 55.5157 102.292 55.4324 102.293 55.2832C102.296 54.7514 102.293 54.2201 102.295 53.6883C102.295 53.5736 102.303 53.4594 102.461 53.462C102.755 53.4665 103.05 53.4594 103.342 53.4817C103.611 53.5026 103.825 53.6223 103.893 53.9161C103.957 54.1988 103.862 54.4119 103.57 54.5758ZM102.711 54.0907C102.688 54.2851 102.683 54.449 102.978 54.4292C103.356 54.4043 103.491 54.3388 103.494 54.0948C103.497 53.8491 103.375 53.7898 102.953 53.7659C102.686 53.7507 102.692 53.904 102.711 54.0907Z" fill="white"/>
</svg>
