<?xml version="1.0" standalone="no"?>
<!DOCTYPE svg PUBLIC "-//W3C//DTD SVG 20010904//EN"
 "http://www.w3.org/TR/2001/REC-SVG-20010904/DTD/svg10.dtd">
<svg version="1.0" xmlns="http://www.w3.org/2000/svg"
 width="333.000000pt" height="333.000000pt" viewBox="0 0 333.000000 333.000000"
 preserveAspectRatio="xMidYMid meet">
<metadata>
Created by potrace 1.14, written by Peter Selinger 2001-2017
</metadata>
<g transform="translate(0.000000,333.000000) scale(0.100000,-0.100000)"
fill="#000000" stroke="none">
<path d="M686 2385 c-121 -31 -240 -114 -303 -213 -19 -29 -49 -101 -68 -160
-63 -198 -314 -1066 -310 -1070 6 -6 345 -5 352 1 2 3 20 58 39 124 18 65 38
127 42 138 9 20 18 20 362 20 l353 0 18 -65 c9 -36 27 -101 38 -145 l22 -80
162 2 c206 2 199 2 194 11 -3 4 -21 68 -40 142 -20 74 -54 203 -76 285 -86
324 -103 391 -107 405 -17 74 -77 286 -90 316 -35 83 -111 173 -187 221 -112
70 -279 99 -401 68z m187 -339 c64 -27 79 -55 127 -241 48 -185 60 -228 66
-247 5 -17 -10 -18 -260 -18 -179 0 -266 3 -266 10 0 21 113 396 129 428 33
68 129 100 204 68z"/>
<path d="M2153 2362 l-132 -3 -3 -135 c-2 -79 1 -138 7 -142 5 -3 216 -6 470
-7 374 0 464 -3 481 -14 37 -24 58 -71 57 -127 -1 -64 -26 -110 -69 -124 -19
-7 -158 -13 -331 -15 -318 -3 -345 -6 -438 -37 -153 -52 -249 -155 -295 -318
-18 -63 -22 -107 -25 -283 -3 -205 -3 -207 18 -211 12 -3 339 -4 727 -3 l705
2 3 143 3 142 -582 0 -582 0 6 54 c10 103 60 171 150 205 47 18 79 19 345 20
219 1 311 5 365 17 191 40 285 161 293 379 10 299 -121 446 -406 454 -137 4
-624 6 -767 3z"/>
</g>
</svg>
