<svg width="98" height="100" viewBox="0 0 98 100" fill="none" xmlns="http://www.w3.org/2000/svg">
<rect x="-1.81396" y="97.1162" width="2.69767" height="2.69767" rx="1.34884" fill="#292B2C" fill-opacity="0.5"/>
<rect x="-1.81396" y="91.7209" width="2.69767" height="2.69767" rx="1.34884" fill="#292B2C" fill-opacity="0.5"/>
<rect x="-1.81396" y="86.3254" width="2.69767" height="2.69767" rx="1.34884" fill="#292B2C" fill-opacity="0.5"/>
<rect x="-1.81396" y="80.9302" width="2.69767" height="2.69767" rx="1.34884" fill="#292B2C" fill-opacity="0.5"/>
<rect x="-1.81396" y="75.5349" width="2.69767" height="2.69767" rx="1.34884" fill="#292B2C" fill-opacity="0.5"/>
<rect x="-1.81396" y="70.1396" width="2.69767" height="2.69767" rx="1.34884" fill="#292B2C" fill-opacity="0.5"/>
<rect x="-1.81396" y="64.7441" width="2.69767" height="2.69767" rx="1.34884" fill="#292B2C" fill-opacity="0.5"/>
<rect x="-1.81396" y="59.3489" width="2.69767" height="2.69767" rx="1.34884" fill="#292B2C" fill-opacity="0.5"/>
<rect x="-1.81396" y="53.9536" width="2.69767" height="2.69767" rx="1.34884" fill="#292B2C" fill-opacity="0.5"/>
<rect x="-1.81396" y="48.5581" width="2.69767" height="2.69767" rx="1.34884" fill="#292B2C" fill-opacity="0.5"/>
<rect x="-1.81396" y="43.1628" width="2.69767" height="2.69767" rx="1.34884" fill="#292B2C" fill-opacity="0.5"/>
<rect x="-1.81396" y="37.7673" width="2.69767" height="2.69767" rx="1.34884" fill="#292B2C" fill-opacity="0.5"/>
<rect x="-1.81396" y="32.3721" width="2.69767" height="2.69767" rx="1.34884" fill="#292B2C" fill-opacity="0.5"/>
<rect x="-1.81396" y="26.9768" width="2.69767" height="2.69767" rx="1.34884" fill="#292B2C" fill-opacity="0.5"/>
<rect x="-1.81396" y="21.5813" width="2.69767" height="2.69767" rx="1.34884" fill="#292B2C" fill-opacity="0.5"/>
<rect x="-1.81396" y="16.186" width="2.69767" height="2.69767" rx="1.34884" fill="#292B2C" fill-opacity="0.5"/>
<rect x="-1.81396" y="10.7908" width="2.69767" height="2.69767" rx="1.34884" fill="#292B2C" fill-opacity="0.5"/>
<rect x="-1.81396" y="5.39526" width="2.69767" height="2.69767" rx="1.34884" fill="#292B2C" fill-opacity="0.5"/>
<rect x="-1.81396" width="2.69767" height="2.69767" rx="1.34884" fill="#292B2C" fill-opacity="0.5"/>
<rect x="3.58142" y="97.1162" width="2.69767" height="2.69767" rx="1.34884" fill="#292B2C" fill-opacity="0.5"/>
<rect x="3.58142" y="91.7209" width="2.69767" height="2.69767" rx="1.34884" fill="#292B2C" fill-opacity="0.5"/>
<rect x="3.58142" y="86.3254" width="2.69767" height="2.69767" rx="1.34884" fill="#292B2C" fill-opacity="0.5"/>
<rect x="3.58142" y="80.9302" width="2.69767" height="2.69767" rx="1.34884" fill="#292B2C" fill-opacity="0.5"/>
<rect x="3.58142" y="75.5349" width="2.69767" height="2.69767" rx="1.34884" fill="#292B2C" fill-opacity="0.5"/>
<rect x="3.58142" y="70.1396" width="2.69767" height="2.69767" rx="1.34884" fill="#292B2C" fill-opacity="0.5"/>
<rect x="3.58142" y="64.7441" width="2.69767" height="2.69767" rx="1.34884" fill="#292B2C" fill-opacity="0.5"/>
<rect x="3.58142" y="59.3489" width="2.69767" height="2.69767" rx="1.34884" fill="#292B2C" fill-opacity="0.5"/>
<rect x="3.58142" y="53.9536" width="2.69767" height="2.69767" rx="1.34884" fill="#292B2C" fill-opacity="0.5"/>
<rect x="3.58142" y="48.5581" width="2.69767" height="2.69767" rx="1.34884" fill="#292B2C" fill-opacity="0.5"/>
<rect x="3.58142" y="43.1628" width="2.69767" height="2.69767" rx="1.34884" fill="#292B2C" fill-opacity="0.5"/>
<rect x="3.58142" y="37.7673" width="2.69767" height="2.69767" rx="1.34884" fill="#292B2C" fill-opacity="0.5"/>
<rect x="3.58142" y="32.3721" width="2.69767" height="2.69767" rx="1.34884" fill="#292B2C" fill-opacity="0.5"/>
<rect x="3.58142" y="26.9768" width="2.69767" height="2.69767" rx="1.34884" fill="#292B2C" fill-opacity="0.5"/>
<rect x="3.58142" y="21.5813" width="2.69767" height="2.69767" rx="1.34884" fill="#292B2C" fill-opacity="0.5"/>
<rect x="3.58142" y="16.186" width="2.69767" height="2.69767" rx="1.34884" fill="#292B2C" fill-opacity="0.5"/>
<rect x="3.58142" y="10.7908" width="2.69767" height="2.69767" rx="1.34884" fill="#292B2C" fill-opacity="0.5"/>
<rect x="3.58142" y="5.39526" width="2.69767" height="2.69767" rx="1.34884" fill="#292B2C" fill-opacity="0.5"/>
<rect x="3.58142" width="2.69767" height="2.69767" rx="1.34884" fill="#292B2C" fill-opacity="0.5"/>
<rect x="8.97668" y="97.1162" width="2.69767" height="2.69767" rx="1.34884" fill="#292B2C" fill-opacity="0.5"/>
<rect x="8.97668" y="91.7209" width="2.69767" height="2.69767" rx="1.34884" fill="#292B2C" fill-opacity="0.5"/>
<rect x="8.97668" y="86.3254" width="2.69767" height="2.69767" rx="1.34884" fill="#292B2C" fill-opacity="0.5"/>
<rect x="8.97668" y="80.9302" width="2.69767" height="2.69767" rx="1.34884" fill="#292B2C" fill-opacity="0.5"/>
<rect x="8.97668" y="75.5349" width="2.69767" height="2.69767" rx="1.34884" fill="#292B2C" fill-opacity="0.5"/>
<rect x="8.97668" y="70.1396" width="2.69767" height="2.69767" rx="1.34884" fill="#292B2C" fill-opacity="0.5"/>
<rect x="8.97668" y="64.7441" width="2.69767" height="2.69767" rx="1.34884" fill="#292B2C" fill-opacity="0.5"/>
<rect x="8.97668" y="59.3489" width="2.69767" height="2.69767" rx="1.34884" fill="#292B2C" fill-opacity="0.5"/>
<rect x="8.97668" y="53.9536" width="2.69767" height="2.69767" rx="1.34884" fill="#292B2C" fill-opacity="0.5"/>
<rect x="8.97668" y="48.5581" width="2.69767" height="2.69767" rx="1.34884" fill="#292B2C" fill-opacity="0.5"/>
<rect x="8.97668" y="43.1628" width="2.69767" height="2.69767" rx="1.34884" fill="#292B2C" fill-opacity="0.5"/>
<rect x="8.97668" y="37.7673" width="2.69767" height="2.69767" rx="1.34884" fill="#292B2C" fill-opacity="0.5"/>
<rect x="8.97668" y="32.3721" width="2.69767" height="2.69767" rx="1.34884" fill="#292B2C" fill-opacity="0.5"/>
<rect x="8.97668" y="26.9768" width="2.69767" height="2.69767" rx="1.34884" fill="#292B2C" fill-opacity="0.5"/>
<rect x="8.97668" y="21.5813" width="2.69767" height="2.69767" rx="1.34884" fill="#292B2C" fill-opacity="0.5"/>
<rect x="8.97668" y="16.186" width="2.69767" height="2.69767" rx="1.34884" fill="#292B2C" fill-opacity="0.5"/>
<rect x="8.97668" y="10.7908" width="2.69767" height="2.69767" rx="1.34884" fill="#292B2C" fill-opacity="0.5"/>
<rect x="8.97668" y="5.39526" width="2.69767" height="2.69767" rx="1.34884" fill="#292B2C" fill-opacity="0.5"/>
<rect x="8.97668" width="2.69767" height="2.69767" rx="1.34884" fill="#292B2C" fill-opacity="0.5"/>
<rect x="14.3721" y="97.1162" width="2.69767" height="2.69767" rx="1.34884" fill="#292B2C" fill-opacity="0.5"/>
<rect x="14.3721" y="91.7209" width="2.69767" height="2.69767" rx="1.34884" fill="#292B2C" fill-opacity="0.5"/>
<rect x="14.3721" y="86.3254" width="2.69767" height="2.69767" rx="1.34884" fill="#292B2C" fill-opacity="0.5"/>
<rect x="14.3721" y="80.9302" width="2.69767" height="2.69767" rx="1.34884" fill="#292B2C" fill-opacity="0.5"/>
<rect x="14.3721" y="75.5349" width="2.69767" height="2.69767" rx="1.34884" fill="#292B2C" fill-opacity="0.5"/>
<rect x="14.3721" y="70.1396" width="2.69767" height="2.69767" rx="1.34884" fill="#292B2C" fill-opacity="0.5"/>
<rect x="14.3721" y="64.7441" width="2.69767" height="2.69767" rx="1.34884" fill="#292B2C" fill-opacity="0.5"/>
<rect x="14.3721" y="59.3489" width="2.69767" height="2.69767" rx="1.34884" fill="#292B2C" fill-opacity="0.5"/>
<rect x="14.3721" y="53.9536" width="2.69767" height="2.69767" rx="1.34884" fill="#292B2C" fill-opacity="0.5"/>
<rect x="14.3721" y="48.5581" width="2.69767" height="2.69767" rx="1.34884" fill="#292B2C" fill-opacity="0.5"/>
<rect x="14.3721" y="43.1628" width="2.69767" height="2.69767" rx="1.34884" fill="#292B2C" fill-opacity="0.5"/>
<rect x="14.3721" y="37.7673" width="2.69767" height="2.69767" rx="1.34884" fill="#292B2C" fill-opacity="0.5"/>
<rect x="14.3721" y="32.3721" width="2.69767" height="2.69767" rx="1.34884" fill="#292B2C" fill-opacity="0.5"/>
<rect x="14.3721" y="26.9768" width="2.69767" height="2.69767" rx="1.34884" fill="#292B2C" fill-opacity="0.5"/>
<rect x="14.3721" y="21.5813" width="2.69767" height="2.69767" rx="1.34884" fill="#292B2C" fill-opacity="0.5"/>
<rect x="14.3721" y="16.186" width="2.69767" height="2.69767" rx="1.34884" fill="#292B2C" fill-opacity="0.5"/>
<rect x="14.3721" y="10.7908" width="2.69767" height="2.69767" rx="1.34884" fill="#292B2C" fill-opacity="0.5"/>
<rect x="14.3721" y="5.39526" width="2.69767" height="2.69767" rx="1.34884" fill="#292B2C" fill-opacity="0.5"/>
<rect x="14.3721" width="2.69767" height="2.69767" rx="1.34884" fill="#292B2C" fill-opacity="0.5"/>
<rect x="19.7675" y="97.1162" width="2.69767" height="2.69767" rx="1.34884" fill="#292B2C" fill-opacity="0.5"/>
<rect x="19.7675" y="91.7209" width="2.69767" height="2.69767" rx="1.34884" fill="#292B2C" fill-opacity="0.5"/>
<rect x="19.7675" y="86.3254" width="2.69767" height="2.69767" rx="1.34884" fill="#292B2C" fill-opacity="0.5"/>
<rect x="19.7675" y="80.9302" width="2.69767" height="2.69767" rx="1.34884" fill="#292B2C" fill-opacity="0.5"/>
<rect x="19.7675" y="75.5349" width="2.69767" height="2.69767" rx="1.34884" fill="#292B2C" fill-opacity="0.5"/>
<rect x="19.7675" y="70.1396" width="2.69767" height="2.69767" rx="1.34884" fill="#292B2C" fill-opacity="0.5"/>
<rect x="19.7675" y="64.7441" width="2.69767" height="2.69767" rx="1.34884" fill="#292B2C" fill-opacity="0.5"/>
<rect x="19.7675" y="59.3489" width="2.69767" height="2.69767" rx="1.34884" fill="#292B2C" fill-opacity="0.5"/>
<rect x="19.7675" y="53.9536" width="2.69767" height="2.69767" rx="1.34884" fill="#292B2C" fill-opacity="0.5"/>
<rect x="19.7675" y="48.5581" width="2.69767" height="2.69767" rx="1.34884" fill="#292B2C" fill-opacity="0.5"/>
<rect x="19.7675" y="43.1628" width="2.69767" height="2.69767" rx="1.34884" fill="#292B2C" fill-opacity="0.5"/>
<rect x="19.7675" y="37.7673" width="2.69767" height="2.69767" rx="1.34884" fill="#292B2C" fill-opacity="0.5"/>
<rect x="19.7675" y="32.3721" width="2.69767" height="2.69767" rx="1.34884" fill="#292B2C" fill-opacity="0.5"/>
<rect x="19.7675" y="26.9768" width="2.69767" height="2.69767" rx="1.34884" fill="#292B2C" fill-opacity="0.5"/>
<rect x="19.7675" y="21.5813" width="2.69767" height="2.69767" rx="1.34884" fill="#292B2C" fill-opacity="0.5"/>
<rect x="19.7675" y="16.186" width="2.69767" height="2.69767" rx="1.34884" fill="#292B2C" fill-opacity="0.5"/>
<rect x="19.7675" y="10.7908" width="2.69767" height="2.69767" rx="1.34884" fill="#292B2C" fill-opacity="0.5"/>
<rect x="19.7675" y="5.39526" width="2.69767" height="2.69767" rx="1.34884" fill="#292B2C" fill-opacity="0.5"/>
<rect x="19.7675" width="2.69767" height="2.69767" rx="1.34884" fill="#292B2C" fill-opacity="0.5"/>
<rect x="25.1628" y="97.1162" width="2.69767" height="2.69767" rx="1.34884" fill="#292B2C" fill-opacity="0.5"/>
<rect x="25.1628" y="91.7209" width="2.69767" height="2.69767" rx="1.34884" fill="#292B2C" fill-opacity="0.5"/>
<rect x="25.1628" y="86.3254" width="2.69767" height="2.69767" rx="1.34884" fill="#292B2C" fill-opacity="0.5"/>
<rect x="25.1628" y="80.9302" width="2.69767" height="2.69767" rx="1.34884" fill="#292B2C" fill-opacity="0.5"/>
<rect x="25.1628" y="75.5349" width="2.69767" height="2.69767" rx="1.34884" fill="#292B2C" fill-opacity="0.5"/>
<rect x="25.1628" y="70.1396" width="2.69767" height="2.69767" rx="1.34884" fill="#292B2C" fill-opacity="0.5"/>
<rect x="25.1628" y="64.7441" width="2.69767" height="2.69767" rx="1.34884" fill="#292B2C" fill-opacity="0.5"/>
<rect x="25.1628" y="59.3489" width="2.69767" height="2.69767" rx="1.34884" fill="#292B2C" fill-opacity="0.5"/>
<rect x="25.1628" y="53.9536" width="2.69767" height="2.69767" rx="1.34884" fill="#292B2C" fill-opacity="0.5"/>
<rect x="25.1628" y="48.5581" width="2.69767" height="2.69767" rx="1.34884" fill="#292B2C" fill-opacity="0.5"/>
<rect x="25.1628" y="43.1628" width="2.69767" height="2.69767" rx="1.34884" fill="#292B2C" fill-opacity="0.5"/>
<rect x="25.1628" y="37.7673" width="2.69767" height="2.69767" rx="1.34884" fill="#292B2C" fill-opacity="0.5"/>
<rect x="25.1628" y="32.3721" width="2.69767" height="2.69767" rx="1.34884" fill="#292B2C" fill-opacity="0.5"/>
<rect x="25.1628" y="26.9768" width="2.69767" height="2.69767" rx="1.34884" fill="#292B2C" fill-opacity="0.5"/>
<rect x="25.1628" y="21.5813" width="2.69767" height="2.69767" rx="1.34884" fill="#292B2C" fill-opacity="0.5"/>
<rect x="25.1628" y="16.186" width="2.69767" height="2.69767" rx="1.34884" fill="#292B2C" fill-opacity="0.5"/>
<rect x="25.1628" y="10.7908" width="2.69767" height="2.69767" rx="1.34884" fill="#292B2C" fill-opacity="0.5"/>
<rect x="25.1628" y="5.39526" width="2.69767" height="2.69767" rx="1.34884" fill="#292B2C" fill-opacity="0.5"/>
<rect x="25.1628" width="2.69767" height="2.69767" rx="1.34884" fill="#292B2C" fill-opacity="0.5"/>
<rect x="30.5581" y="97.1162" width="2.69767" height="2.69767" rx="1.34884" fill="#292B2C" fill-opacity="0.5"/>
<rect x="30.5581" y="91.7209" width="2.69767" height="2.69767" rx="1.34884" fill="#292B2C" fill-opacity="0.5"/>
<rect x="30.5581" y="86.3254" width="2.69767" height="2.69767" rx="1.34884" fill="#292B2C" fill-opacity="0.5"/>
<rect x="30.5581" y="80.9302" width="2.69767" height="2.69767" rx="1.34884" fill="#292B2C" fill-opacity="0.5"/>
<rect x="30.5581" y="75.5349" width="2.69767" height="2.69767" rx="1.34884" fill="#292B2C" fill-opacity="0.5"/>
<rect x="30.5581" y="70.1396" width="2.69767" height="2.69767" rx="1.34884" fill="#292B2C" fill-opacity="0.5"/>
<rect x="30.5581" y="64.7441" width="2.69767" height="2.69767" rx="1.34884" fill="#292B2C" fill-opacity="0.5"/>
<rect x="30.5581" y="59.3489" width="2.69767" height="2.69767" rx="1.34884" fill="#292B2C" fill-opacity="0.5"/>
<rect x="30.5581" y="53.9536" width="2.69767" height="2.69767" rx="1.34884" fill="#292B2C" fill-opacity="0.5"/>
<rect x="30.5581" y="48.5581" width="2.69767" height="2.69767" rx="1.34884" fill="#292B2C" fill-opacity="0.5"/>
<rect x="30.5581" y="43.1628" width="2.69767" height="2.69767" rx="1.34884" fill="#292B2C" fill-opacity="0.5"/>
<rect x="30.5581" y="37.7673" width="2.69767" height="2.69767" rx="1.34884" fill="#292B2C" fill-opacity="0.5"/>
<rect x="30.5581" y="32.3721" width="2.69767" height="2.69767" rx="1.34884" fill="#292B2C" fill-opacity="0.5"/>
<rect x="30.5581" y="26.9768" width="2.69767" height="2.69767" rx="1.34884" fill="#292B2C" fill-opacity="0.5"/>
<rect x="30.5581" y="21.5813" width="2.69767" height="2.69767" rx="1.34884" fill="#292B2C" fill-opacity="0.5"/>
<rect x="30.5581" y="16.186" width="2.69767" height="2.69767" rx="1.34884" fill="#292B2C" fill-opacity="0.5"/>
<rect x="30.5581" y="10.7908" width="2.69767" height="2.69767" rx="1.34884" fill="#292B2C" fill-opacity="0.5"/>
<rect x="30.5581" y="5.39526" width="2.69767" height="2.69767" rx="1.34884" fill="#292B2C" fill-opacity="0.5"/>
<rect x="30.5581" width="2.69767" height="2.69767" rx="1.34884" fill="#292B2C" fill-opacity="0.5"/>
<rect x="35.9535" y="97.1162" width="2.69767" height="2.69767" rx="1.34884" fill="#292B2C" fill-opacity="0.5"/>
<rect x="35.9535" y="91.7209" width="2.69767" height="2.69767" rx="1.34884" fill="#292B2C" fill-opacity="0.5"/>
<rect x="35.9535" y="86.3254" width="2.69767" height="2.69767" rx="1.34884" fill="#292B2C" fill-opacity="0.5"/>
<rect x="35.9535" y="80.9302" width="2.69767" height="2.69767" rx="1.34884" fill="#292B2C" fill-opacity="0.5"/>
<rect x="35.9535" y="75.5349" width="2.69767" height="2.69767" rx="1.34884" fill="#292B2C" fill-opacity="0.5"/>
<rect x="35.9535" y="70.1396" width="2.69767" height="2.69767" rx="1.34884" fill="#292B2C" fill-opacity="0.5"/>
<rect x="35.9535" y="64.7441" width="2.69767" height="2.69767" rx="1.34884" fill="#292B2C" fill-opacity="0.5"/>
<rect x="35.9535" y="59.3489" width="2.69767" height="2.69767" rx="1.34884" fill="#292B2C" fill-opacity="0.5"/>
<rect x="35.9535" y="53.9536" width="2.69767" height="2.69767" rx="1.34884" fill="#292B2C" fill-opacity="0.5"/>
<rect x="35.9535" y="48.5581" width="2.69767" height="2.69767" rx="1.34884" fill="#292B2C" fill-opacity="0.5"/>
<rect x="35.9535" y="43.1628" width="2.69767" height="2.69767" rx="1.34884" fill="#292B2C" fill-opacity="0.5"/>
<rect x="35.9535" y="37.7673" width="2.69767" height="2.69767" rx="1.34884" fill="#292B2C" fill-opacity="0.5"/>
<rect x="35.9535" y="32.3721" width="2.69767" height="2.69767" rx="1.34884" fill="#292B2C" fill-opacity="0.5"/>
<rect x="35.9535" y="26.9768" width="2.69767" height="2.69767" rx="1.34884" fill="#292B2C" fill-opacity="0.5"/>
<rect x="35.9535" y="21.5813" width="2.69767" height="2.69767" rx="1.34884" fill="#292B2C" fill-opacity="0.5"/>
<rect x="35.9535" y="16.186" width="2.69767" height="2.69767" rx="1.34884" fill="#292B2C" fill-opacity="0.5"/>
<rect x="35.9535" y="10.7908" width="2.69767" height="2.69767" rx="1.34884" fill="#292B2C" fill-opacity="0.5"/>
<rect x="35.9535" y="5.39526" width="2.69767" height="2.69767" rx="1.34884" fill="#292B2C" fill-opacity="0.5"/>
<rect x="35.9535" width="2.69767" height="2.69767" rx="1.34884" fill="#292B2C" fill-opacity="0.5"/>
<rect x="41.3489" y="97.1162" width="2.69767" height="2.69767" rx="1.34884" fill="#292B2C" fill-opacity="0.5"/>
<rect x="41.3489" y="91.7209" width="2.69767" height="2.69767" rx="1.34884" fill="#292B2C" fill-opacity="0.5"/>
<rect x="41.3489" y="86.3254" width="2.69767" height="2.69767" rx="1.34884" fill="#292B2C" fill-opacity="0.5"/>
<rect x="41.3489" y="80.9302" width="2.69767" height="2.69767" rx="1.34884" fill="#292B2C" fill-opacity="0.5"/>
<rect x="41.3489" y="75.5349" width="2.69767" height="2.69767" rx="1.34884" fill="#292B2C" fill-opacity="0.5"/>
<rect x="41.3489" y="70.1396" width="2.69767" height="2.69767" rx="1.34884" fill="#292B2C" fill-opacity="0.5"/>
<rect x="41.3489" y="64.7441" width="2.69767" height="2.69767" rx="1.34884" fill="#292B2C" fill-opacity="0.5"/>
<rect x="41.3489" y="59.3489" width="2.69767" height="2.69767" rx="1.34884" fill="#292B2C" fill-opacity="0.5"/>
<rect x="41.3489" y="53.9536" width="2.69767" height="2.69767" rx="1.34884" fill="#292B2C" fill-opacity="0.5"/>
<rect x="41.3489" y="48.5581" width="2.69767" height="2.69767" rx="1.34884" fill="#292B2C" fill-opacity="0.5"/>
<rect x="41.3489" y="43.1628" width="2.69767" height="2.69767" rx="1.34884" fill="#292B2C" fill-opacity="0.5"/>
<rect x="41.3489" y="37.7673" width="2.69767" height="2.69767" rx="1.34884" fill="#292B2C" fill-opacity="0.5"/>
<rect x="41.3489" y="32.3721" width="2.69767" height="2.69767" rx="1.34884" fill="#292B2C" fill-opacity="0.5"/>
<rect x="41.3489" y="26.9768" width="2.69767" height="2.69767" rx="1.34884" fill="#292B2C" fill-opacity="0.5"/>
<rect x="41.3489" y="21.5813" width="2.69767" height="2.69767" rx="1.34884" fill="#292B2C" fill-opacity="0.5"/>
<rect x="41.3489" y="16.186" width="2.69767" height="2.69767" rx="1.34884" fill="#292B2C" fill-opacity="0.5"/>
<rect x="41.3489" y="10.7908" width="2.69767" height="2.69767" rx="1.34884" fill="#292B2C" fill-opacity="0.5"/>
<rect x="41.3489" y="5.39526" width="2.69767" height="2.69767" rx="1.34884" fill="#292B2C" fill-opacity="0.5"/>
<rect x="41.3489" width="2.69767" height="2.69767" rx="1.34884" fill="#292B2C" fill-opacity="0.5"/>
<rect x="46.7441" y="97.1162" width="2.69767" height="2.69767" rx="1.34884" fill="#292B2C" fill-opacity="0.5"/>
<rect x="46.7441" y="91.7209" width="2.69767" height="2.69767" rx="1.34884" fill="#292B2C" fill-opacity="0.5"/>
<rect x="46.7441" y="86.3254" width="2.69767" height="2.69767" rx="1.34884" fill="#292B2C" fill-opacity="0.5"/>
<rect x="46.7441" y="80.9302" width="2.69767" height="2.69767" rx="1.34884" fill="#292B2C" fill-opacity="0.5"/>
<rect x="46.7441" y="75.5349" width="2.69767" height="2.69767" rx="1.34884" fill="#292B2C" fill-opacity="0.5"/>
<rect x="46.7441" y="70.1396" width="2.69767" height="2.69767" rx="1.34884" fill="#292B2C" fill-opacity="0.5"/>
<rect x="46.7441" y="64.7441" width="2.69767" height="2.69767" rx="1.34884" fill="#292B2C" fill-opacity="0.5"/>
<rect x="46.7441" y="59.3489" width="2.69767" height="2.69767" rx="1.34884" fill="#292B2C" fill-opacity="0.5"/>
<rect x="46.7441" y="53.9536" width="2.69767" height="2.69767" rx="1.34884" fill="#292B2C" fill-opacity="0.5"/>
<rect x="46.7441" y="48.5581" width="2.69767" height="2.69767" rx="1.34884" fill="#292B2C" fill-opacity="0.5"/>
<rect x="46.7441" y="43.1628" width="2.69767" height="2.69767" rx="1.34884" fill="#292B2C" fill-opacity="0.5"/>
<rect x="46.7441" y="37.7673" width="2.69767" height="2.69767" rx="1.34884" fill="#292B2C" fill-opacity="0.5"/>
<rect x="46.7441" y="32.3721" width="2.69767" height="2.69767" rx="1.34884" fill="#292B2C" fill-opacity="0.5"/>
<rect x="46.7441" y="26.9768" width="2.69767" height="2.69767" rx="1.34884" fill="#292B2C" fill-opacity="0.5"/>
<rect x="46.7441" y="21.5813" width="2.69767" height="2.69767" rx="1.34884" fill="#292B2C" fill-opacity="0.5"/>
<rect x="46.7441" y="16.186" width="2.69767" height="2.69767" rx="1.34884" fill="#292B2C" fill-opacity="0.5"/>
<rect x="46.7441" y="10.7908" width="2.69767" height="2.69767" rx="1.34884" fill="#292B2C" fill-opacity="0.5"/>
<rect x="46.7441" y="5.39526" width="2.69767" height="2.69767" rx="1.34884" fill="#292B2C" fill-opacity="0.5"/>
<rect x="46.7441" width="2.69767" height="2.69767" rx="1.34884" fill="#292B2C" fill-opacity="0.5"/>
<rect x="52.1395" y="97.1162" width="2.69767" height="2.69767" rx="1.34884" fill="#292B2C" fill-opacity="0.5"/>
<rect x="52.1395" y="91.7209" width="2.69767" height="2.69767" rx="1.34884" fill="#292B2C" fill-opacity="0.5"/>
<rect x="52.1395" y="86.3254" width="2.69767" height="2.69767" rx="1.34884" fill="#292B2C" fill-opacity="0.5"/>
<rect x="52.1395" y="80.9302" width="2.69767" height="2.69767" rx="1.34884" fill="#292B2C" fill-opacity="0.5"/>
<rect x="52.1395" y="75.5349" width="2.69767" height="2.69767" rx="1.34884" fill="#292B2C" fill-opacity="0.5"/>
<rect x="52.1395" y="70.1396" width="2.69767" height="2.69767" rx="1.34884" fill="#292B2C" fill-opacity="0.5"/>
<rect x="52.1395" y="64.7441" width="2.69767" height="2.69767" rx="1.34884" fill="#292B2C" fill-opacity="0.5"/>
<rect x="52.1395" y="59.3489" width="2.69767" height="2.69767" rx="1.34884" fill="#292B2C" fill-opacity="0.5"/>
<rect x="52.1395" y="53.9536" width="2.69767" height="2.69767" rx="1.34884" fill="#292B2C" fill-opacity="0.5"/>
<rect x="52.1395" y="48.5581" width="2.69767" height="2.69767" rx="1.34884" fill="#292B2C" fill-opacity="0.5"/>
<rect x="52.1395" y="43.1628" width="2.69767" height="2.69767" rx="1.34884" fill="#292B2C" fill-opacity="0.5"/>
<rect x="52.1395" y="37.7673" width="2.69767" height="2.69767" rx="1.34884" fill="#292B2C" fill-opacity="0.5"/>
<rect x="52.1395" y="32.3721" width="2.69767" height="2.69767" rx="1.34884" fill="#292B2C" fill-opacity="0.5"/>
<rect x="52.1395" y="26.9768" width="2.69767" height="2.69767" rx="1.34884" fill="#292B2C" fill-opacity="0.5"/>
<rect x="52.1395" y="21.5813" width="2.69767" height="2.69767" rx="1.34884" fill="#292B2C" fill-opacity="0.5"/>
<rect x="52.1395" y="16.186" width="2.69767" height="2.69767" rx="1.34884" fill="#292B2C" fill-opacity="0.5"/>
<rect x="52.1395" y="10.7908" width="2.69767" height="2.69767" rx="1.34884" fill="#292B2C" fill-opacity="0.5"/>
<rect x="52.1395" y="5.39526" width="2.69767" height="2.69767" rx="1.34884" fill="#292B2C" fill-opacity="0.5"/>
<rect x="52.1395" width="2.69767" height="2.69767" rx="1.34884" fill="#292B2C" fill-opacity="0.5"/>
<rect x="57.5349" y="97.1162" width="2.69767" height="2.69767" rx="1.34884" fill="#292B2C" fill-opacity="0.5"/>
<rect x="57.5349" y="91.7209" width="2.69767" height="2.69767" rx="1.34884" fill="#292B2C" fill-opacity="0.5"/>
<rect x="57.5349" y="86.3254" width="2.69767" height="2.69767" rx="1.34884" fill="#292B2C" fill-opacity="0.5"/>
<rect x="57.5349" y="80.9302" width="2.69767" height="2.69767" rx="1.34884" fill="#292B2C" fill-opacity="0.5"/>
<rect x="57.5349" y="75.5349" width="2.69767" height="2.69767" rx="1.34884" fill="#292B2C" fill-opacity="0.5"/>
<rect x="57.5349" y="70.1396" width="2.69767" height="2.69767" rx="1.34884" fill="#292B2C" fill-opacity="0.5"/>
<rect x="57.5349" y="64.7441" width="2.69767" height="2.69767" rx="1.34884" fill="#292B2C" fill-opacity="0.5"/>
<rect x="57.5349" y="59.3489" width="2.69767" height="2.69767" rx="1.34884" fill="#292B2C" fill-opacity="0.5"/>
<rect x="57.5349" y="53.9536" width="2.69767" height="2.69767" rx="1.34884" fill="#292B2C" fill-opacity="0.5"/>
<rect x="57.5349" y="48.5581" width="2.69767" height="2.69767" rx="1.34884" fill="#292B2C" fill-opacity="0.5"/>
<rect x="57.5349" y="43.1628" width="2.69767" height="2.69767" rx="1.34884" fill="#292B2C" fill-opacity="0.5"/>
<rect x="57.5349" y="37.7673" width="2.69767" height="2.69767" rx="1.34884" fill="#292B2C" fill-opacity="0.5"/>
<rect x="57.5349" y="32.3721" width="2.69767" height="2.69767" rx="1.34884" fill="#292B2C" fill-opacity="0.5"/>
<rect x="57.5349" y="26.9768" width="2.69767" height="2.69767" rx="1.34884" fill="#292B2C" fill-opacity="0.5"/>
<rect x="57.5349" y="21.5813" width="2.69767" height="2.69767" rx="1.34884" fill="#292B2C" fill-opacity="0.5"/>
<rect x="57.5349" y="16.186" width="2.69767" height="2.69767" rx="1.34884" fill="#292B2C" fill-opacity="0.5"/>
<rect x="57.5349" y="10.7908" width="2.69767" height="2.69767" rx="1.34884" fill="#292B2C" fill-opacity="0.5"/>
<rect x="57.5349" y="5.39526" width="2.69767" height="2.69767" rx="1.34884" fill="#292B2C" fill-opacity="0.5"/>
<rect x="57.5349" width="2.69767" height="2.69767" rx="1.34884" fill="#292B2C" fill-opacity="0.5"/>
<rect x="62.9302" y="97.1162" width="2.69767" height="2.69767" rx="1.34884" fill="#292B2C" fill-opacity="0.5"/>
<rect x="62.9302" y="91.7209" width="2.69767" height="2.69767" rx="1.34884" fill="#292B2C" fill-opacity="0.5"/>
<rect x="62.9302" y="86.3254" width="2.69767" height="2.69767" rx="1.34884" fill="#292B2C" fill-opacity="0.5"/>
<rect x="62.9302" y="80.9302" width="2.69767" height="2.69767" rx="1.34884" fill="#292B2C" fill-opacity="0.5"/>
<rect x="62.9302" y="75.5349" width="2.69767" height="2.69767" rx="1.34884" fill="#292B2C" fill-opacity="0.5"/>
<rect x="62.9302" y="70.1396" width="2.69767" height="2.69767" rx="1.34884" fill="#292B2C" fill-opacity="0.5"/>
<rect x="62.9302" y="64.7441" width="2.69767" height="2.69767" rx="1.34884" fill="#292B2C" fill-opacity="0.5"/>
<rect x="62.9302" y="59.3489" width="2.69767" height="2.69767" rx="1.34884" fill="#292B2C" fill-opacity="0.5"/>
<rect x="62.9302" y="53.9536" width="2.69767" height="2.69767" rx="1.34884" fill="#292B2C" fill-opacity="0.5"/>
<rect x="62.9302" y="48.5581" width="2.69767" height="2.69767" rx="1.34884" fill="#292B2C" fill-opacity="0.5"/>
<rect x="62.9302" y="43.1628" width="2.69767" height="2.69767" rx="1.34884" fill="#292B2C" fill-opacity="0.5"/>
<rect x="62.9302" y="37.7673" width="2.69767" height="2.69767" rx="1.34884" fill="#292B2C" fill-opacity="0.5"/>
<rect x="62.9302" y="32.3721" width="2.69767" height="2.69767" rx="1.34884" fill="#292B2C" fill-opacity="0.5"/>
<rect x="62.9302" y="26.9768" width="2.69767" height="2.69767" rx="1.34884" fill="#292B2C" fill-opacity="0.5"/>
<rect x="62.9302" y="21.5813" width="2.69767" height="2.69767" rx="1.34884" fill="#292B2C" fill-opacity="0.5"/>
<rect x="62.9302" y="16.186" width="2.69767" height="2.69767" rx="1.34884" fill="#292B2C" fill-opacity="0.5"/>
<rect x="62.9302" y="10.7908" width="2.69767" height="2.69767" rx="1.34884" fill="#292B2C" fill-opacity="0.5"/>
<rect x="62.9302" y="5.39526" width="2.69767" height="2.69767" rx="1.34884" fill="#292B2C" fill-opacity="0.5"/>
<rect x="62.9302" width="2.69767" height="2.69767" rx="1.34884" fill="#292B2C" fill-opacity="0.5"/>
<rect x="68.3256" y="97.1162" width="2.69767" height="2.69767" rx="1.34884" fill="#292B2C" fill-opacity="0.5"/>
<rect x="68.3256" y="91.7209" width="2.69767" height="2.69767" rx="1.34884" fill="#292B2C" fill-opacity="0.5"/>
<rect x="68.3256" y="86.3254" width="2.69767" height="2.69767" rx="1.34884" fill="#292B2C" fill-opacity="0.5"/>
<rect x="68.3256" y="80.9302" width="2.69767" height="2.69767" rx="1.34884" fill="#292B2C" fill-opacity="0.5"/>
<rect x="68.3256" y="75.5349" width="2.69767" height="2.69767" rx="1.34884" fill="#292B2C" fill-opacity="0.5"/>
<rect x="68.3256" y="70.1396" width="2.69767" height="2.69767" rx="1.34884" fill="#292B2C" fill-opacity="0.5"/>
<rect x="68.3256" y="64.7441" width="2.69767" height="2.69767" rx="1.34884" fill="#292B2C" fill-opacity="0.5"/>
<rect x="68.3256" y="59.3489" width="2.69767" height="2.69767" rx="1.34884" fill="#292B2C" fill-opacity="0.5"/>
<rect x="68.3256" y="53.9536" width="2.69767" height="2.69767" rx="1.34884" fill="#292B2C" fill-opacity="0.5"/>
<rect x="68.3256" y="48.5581" width="2.69767" height="2.69767" rx="1.34884" fill="#292B2C" fill-opacity="0.5"/>
<rect x="68.3256" y="43.1628" width="2.69767" height="2.69767" rx="1.34884" fill="#292B2C" fill-opacity="0.5"/>
<rect x="68.3256" y="37.7673" width="2.69767" height="2.69767" rx="1.34884" fill="#292B2C" fill-opacity="0.5"/>
<rect x="68.3256" y="32.3721" width="2.69767" height="2.69767" rx="1.34884" fill="#292B2C" fill-opacity="0.5"/>
<rect x="68.3256" y="26.9768" width="2.69767" height="2.69767" rx="1.34884" fill="#292B2C" fill-opacity="0.5"/>
<rect x="68.3256" y="21.5813" width="2.69767" height="2.69767" rx="1.34884" fill="#292B2C" fill-opacity="0.5"/>
<rect x="68.3256" y="16.186" width="2.69767" height="2.69767" rx="1.34884" fill="#292B2C" fill-opacity="0.5"/>
<rect x="68.3256" y="10.7908" width="2.69767" height="2.69767" rx="1.34884" fill="#292B2C" fill-opacity="0.5"/>
<rect x="68.3256" y="5.39526" width="2.69767" height="2.69767" rx="1.34884" fill="#292B2C" fill-opacity="0.5"/>
<rect x="68.3256" width="2.69767" height="2.69767" rx="1.34884" fill="#292B2C" fill-opacity="0.5"/>
<rect x="73.7209" y="97.1162" width="2.69767" height="2.69767" rx="1.34884" fill="#292B2C" fill-opacity="0.5"/>
<rect x="73.7209" y="91.7209" width="2.69767" height="2.69767" rx="1.34884" fill="#292B2C" fill-opacity="0.5"/>
<rect x="73.7209" y="86.3254" width="2.69767" height="2.69767" rx="1.34884" fill="#292B2C" fill-opacity="0.5"/>
<rect x="73.7209" y="80.9302" width="2.69767" height="2.69767" rx="1.34884" fill="#292B2C" fill-opacity="0.5"/>
<rect x="73.7209" y="75.5349" width="2.69767" height="2.69767" rx="1.34884" fill="#292B2C" fill-opacity="0.5"/>
<rect x="73.7209" y="70.1396" width="2.69767" height="2.69767" rx="1.34884" fill="#292B2C" fill-opacity="0.5"/>
<rect x="73.7209" y="64.7441" width="2.69767" height="2.69767" rx="1.34884" fill="#292B2C" fill-opacity="0.5"/>
<rect x="73.7209" y="59.3489" width="2.69767" height="2.69767" rx="1.34884" fill="#292B2C" fill-opacity="0.5"/>
<rect x="73.7209" y="53.9536" width="2.69767" height="2.69767" rx="1.34884" fill="#292B2C" fill-opacity="0.5"/>
<rect x="73.7209" y="48.5581" width="2.69767" height="2.69767" rx="1.34884" fill="#292B2C" fill-opacity="0.5"/>
<rect x="73.7209" y="43.1628" width="2.69767" height="2.69767" rx="1.34884" fill="#292B2C" fill-opacity="0.5"/>
<rect x="73.7209" y="37.7673" width="2.69767" height="2.69767" rx="1.34884" fill="#292B2C" fill-opacity="0.5"/>
<rect x="73.7209" y="32.3721" width="2.69767" height="2.69767" rx="1.34884" fill="#292B2C" fill-opacity="0.5"/>
<rect x="73.7209" y="26.9768" width="2.69767" height="2.69767" rx="1.34884" fill="#292B2C" fill-opacity="0.5"/>
<rect x="73.7209" y="21.5813" width="2.69767" height="2.69767" rx="1.34884" fill="#292B2C" fill-opacity="0.5"/>
<rect x="73.7209" y="16.186" width="2.69767" height="2.69767" rx="1.34884" fill="#292B2C" fill-opacity="0.5"/>
<rect x="73.7209" y="10.7908" width="2.69767" height="2.69767" rx="1.34884" fill="#292B2C" fill-opacity="0.5"/>
<rect x="73.7209" y="5.39526" width="2.69767" height="2.69767" rx="1.34884" fill="#292B2C" fill-opacity="0.5"/>
<rect x="73.7209" width="2.69767" height="2.69767" rx="1.34884" fill="#292B2C" fill-opacity="0.5"/>
<rect x="79.1162" y="97.1162" width="2.69767" height="2.69767" rx="1.34884" fill="#292B2C" fill-opacity="0.5"/>
<rect x="79.1162" y="91.7209" width="2.69767" height="2.69767" rx="1.34884" fill="#292B2C" fill-opacity="0.5"/>
<rect x="79.1162" y="86.3254" width="2.69767" height="2.69767" rx="1.34884" fill="#292B2C" fill-opacity="0.5"/>
<rect x="79.1162" y="80.9302" width="2.69767" height="2.69767" rx="1.34884" fill="#292B2C" fill-opacity="0.5"/>
<rect x="79.1162" y="75.5349" width="2.69767" height="2.69767" rx="1.34884" fill="#292B2C" fill-opacity="0.5"/>
<rect x="79.1162" y="70.1396" width="2.69767" height="2.69767" rx="1.34884" fill="#292B2C" fill-opacity="0.5"/>
<rect x="79.1162" y="64.7441" width="2.69767" height="2.69767" rx="1.34884" fill="#292B2C" fill-opacity="0.5"/>
<rect x="79.1162" y="59.3489" width="2.69767" height="2.69767" rx="1.34884" fill="#292B2C" fill-opacity="0.5"/>
<rect x="79.1162" y="53.9536" width="2.69767" height="2.69767" rx="1.34884" fill="#292B2C" fill-opacity="0.5"/>
<rect x="79.1162" y="48.5581" width="2.69767" height="2.69767" rx="1.34884" fill="#292B2C" fill-opacity="0.5"/>
<rect x="79.1162" y="43.1628" width="2.69767" height="2.69767" rx="1.34884" fill="#292B2C" fill-opacity="0.5"/>
<rect x="79.1162" y="37.7673" width="2.69767" height="2.69767" rx="1.34884" fill="#292B2C" fill-opacity="0.5"/>
<rect x="79.1162" y="32.3721" width="2.69767" height="2.69767" rx="1.34884" fill="#292B2C" fill-opacity="0.5"/>
<rect x="79.1162" y="26.9768" width="2.69767" height="2.69767" rx="1.34884" fill="#292B2C" fill-opacity="0.5"/>
<rect x="79.1162" y="21.5813" width="2.69767" height="2.69767" rx="1.34884" fill="#292B2C" fill-opacity="0.5"/>
<rect x="79.1162" y="16.186" width="2.69767" height="2.69767" rx="1.34884" fill="#292B2C" fill-opacity="0.5"/>
<rect x="79.1162" y="10.7908" width="2.69767" height="2.69767" rx="1.34884" fill="#292B2C" fill-opacity="0.5"/>
<rect x="79.1162" y="5.39526" width="2.69767" height="2.69767" rx="1.34884" fill="#292B2C" fill-opacity="0.5"/>
<rect x="79.1162" width="2.69767" height="2.69767" rx="1.34884" fill="#292B2C" fill-opacity="0.5"/>
<rect x="84.5116" y="97.1162" width="2.69767" height="2.69767" rx="1.34884" fill="#292B2C" fill-opacity="0.5"/>
<rect x="84.5116" y="91.7209" width="2.69767" height="2.69767" rx="1.34884" fill="#292B2C" fill-opacity="0.5"/>
<rect x="84.5116" y="86.3254" width="2.69767" height="2.69767" rx="1.34884" fill="#292B2C" fill-opacity="0.5"/>
<rect x="84.5116" y="80.9302" width="2.69767" height="2.69767" rx="1.34884" fill="#292B2C" fill-opacity="0.5"/>
<rect x="84.5116" y="75.5349" width="2.69767" height="2.69767" rx="1.34884" fill="#292B2C" fill-opacity="0.5"/>
<rect x="84.5116" y="70.1396" width="2.69767" height="2.69767" rx="1.34884" fill="#292B2C" fill-opacity="0.5"/>
<rect x="84.5116" y="64.7441" width="2.69767" height="2.69767" rx="1.34884" fill="#292B2C" fill-opacity="0.5"/>
<rect x="84.5116" y="59.3489" width="2.69767" height="2.69767" rx="1.34884" fill="#292B2C" fill-opacity="0.5"/>
<rect x="84.5116" y="53.9536" width="2.69767" height="2.69767" rx="1.34884" fill="#292B2C" fill-opacity="0.5"/>
<rect x="84.5116" y="48.5581" width="2.69767" height="2.69767" rx="1.34884" fill="#292B2C" fill-opacity="0.5"/>
<rect x="84.5116" y="43.1628" width="2.69767" height="2.69767" rx="1.34884" fill="#292B2C" fill-opacity="0.5"/>
<rect x="84.5116" y="37.7673" width="2.69767" height="2.69767" rx="1.34884" fill="#292B2C" fill-opacity="0.5"/>
<rect x="84.5116" y="32.3721" width="2.69767" height="2.69767" rx="1.34884" fill="#292B2C" fill-opacity="0.5"/>
<rect x="84.5116" y="26.9768" width="2.69767" height="2.69767" rx="1.34884" fill="#292B2C" fill-opacity="0.5"/>
<rect x="84.5116" y="21.5813" width="2.69767" height="2.69767" rx="1.34884" fill="#292B2C" fill-opacity="0.5"/>
<rect x="84.5116" y="16.186" width="2.69767" height="2.69767" rx="1.34884" fill="#292B2C" fill-opacity="0.5"/>
<rect x="84.5116" y="10.7908" width="2.69767" height="2.69767" rx="1.34884" fill="#292B2C" fill-opacity="0.5"/>
<rect x="84.5116" y="5.39526" width="2.69767" height="2.69767" rx="1.34884" fill="#292B2C" fill-opacity="0.5"/>
<rect x="84.5116" width="2.69767" height="2.69767" rx="1.34884" fill="#292B2C" fill-opacity="0.5"/>
<rect x="89.907" y="97.1162" width="2.69767" height="2.69767" rx="1.34884" fill="#292B2C" fill-opacity="0.5"/>
<rect x="89.907" y="91.7209" width="2.69767" height="2.69767" rx="1.34884" fill="#292B2C" fill-opacity="0.5"/>
<rect x="89.907" y="86.3254" width="2.69767" height="2.69767" rx="1.34884" fill="#292B2C" fill-opacity="0.5"/>
<rect x="89.907" y="80.9302" width="2.69767" height="2.69767" rx="1.34884" fill="#292B2C" fill-opacity="0.5"/>
<rect x="89.907" y="75.5349" width="2.69767" height="2.69767" rx="1.34884" fill="#292B2C" fill-opacity="0.5"/>
<rect x="89.907" y="70.1396" width="2.69767" height="2.69767" rx="1.34884" fill="#292B2C" fill-opacity="0.5"/>
<rect x="89.907" y="64.7441" width="2.69767" height="2.69767" rx="1.34884" fill="#292B2C" fill-opacity="0.5"/>
<rect x="89.907" y="59.3489" width="2.69767" height="2.69767" rx="1.34884" fill="#292B2C" fill-opacity="0.5"/>
<rect x="89.907" y="53.9536" width="2.69767" height="2.69767" rx="1.34884" fill="#292B2C" fill-opacity="0.5"/>
<rect x="89.907" y="48.5581" width="2.69767" height="2.69767" rx="1.34884" fill="#292B2C" fill-opacity="0.5"/>
<rect x="89.907" y="43.1628" width="2.69767" height="2.69767" rx="1.34884" fill="#292B2C" fill-opacity="0.5"/>
<rect x="89.907" y="37.7673" width="2.69767" height="2.69767" rx="1.34884" fill="#292B2C" fill-opacity="0.5"/>
<rect x="89.907" y="32.3721" width="2.69767" height="2.69767" rx="1.34884" fill="#292B2C" fill-opacity="0.5"/>
<rect x="89.907" y="26.9768" width="2.69767" height="2.69767" rx="1.34884" fill="#292B2C" fill-opacity="0.5"/>
<rect x="89.907" y="21.5813" width="2.69767" height="2.69767" rx="1.34884" fill="#292B2C" fill-opacity="0.5"/>
<rect x="89.907" y="16.186" width="2.69767" height="2.69767" rx="1.34884" fill="#292B2C" fill-opacity="0.5"/>
<rect x="89.907" y="10.7908" width="2.69767" height="2.69767" rx="1.34884" fill="#292B2C" fill-opacity="0.5"/>
<rect x="89.907" y="5.39526" width="2.69767" height="2.69767" rx="1.34884" fill="#292B2C" fill-opacity="0.5"/>
<rect x="89.907" width="2.69767" height="2.69767" rx="1.34884" fill="#292B2C" fill-opacity="0.5"/>
<rect x="95.3024" y="97.1162" width="2.69767" height="2.69767" rx="1.34884" fill="#292B2C" fill-opacity="0.5"/>
<rect x="95.3024" y="91.7209" width="2.69767" height="2.69767" rx="1.34884" fill="#292B2C" fill-opacity="0.5"/>
<rect x="95.3024" y="86.3254" width="2.69767" height="2.69767" rx="1.34884" fill="#292B2C" fill-opacity="0.5"/>
<rect x="95.3024" y="80.9302" width="2.69767" height="2.69767" rx="1.34884" fill="#292B2C" fill-opacity="0.5"/>
<rect x="95.3024" y="75.5349" width="2.69767" height="2.69767" rx="1.34884" fill="#292B2C" fill-opacity="0.5"/>
<rect x="95.3024" y="70.1396" width="2.69767" height="2.69767" rx="1.34884" fill="#292B2C" fill-opacity="0.5"/>
<rect x="95.3024" y="64.7441" width="2.69767" height="2.69767" rx="1.34884" fill="#292B2C" fill-opacity="0.5"/>
<rect x="95.3024" y="59.3489" width="2.69767" height="2.69767" rx="1.34884" fill="#292B2C" fill-opacity="0.5"/>
<rect x="95.3024" y="53.9536" width="2.69767" height="2.69767" rx="1.34884" fill="#292B2C" fill-opacity="0.5"/>
<rect x="95.3024" y="48.5581" width="2.69767" height="2.69767" rx="1.34884" fill="#292B2C" fill-opacity="0.5"/>
<rect x="95.3024" y="43.1628" width="2.69767" height="2.69767" rx="1.34884" fill="#292B2C" fill-opacity="0.5"/>
<rect x="95.3024" y="37.7673" width="2.69767" height="2.69767" rx="1.34884" fill="#292B2C" fill-opacity="0.5"/>
<rect x="95.3024" y="32.3721" width="2.69767" height="2.69767" rx="1.34884" fill="#292B2C" fill-opacity="0.5"/>
<rect x="95.3024" y="26.9768" width="2.69767" height="2.69767" rx="1.34884" fill="#292B2C" fill-opacity="0.5"/>
<rect x="95.3024" y="21.5813" width="2.69767" height="2.69767" rx="1.34884" fill="#292B2C" fill-opacity="0.5"/>
<rect x="95.3024" y="16.186" width="2.69767" height="2.69767" rx="1.34884" fill="#292B2C" fill-opacity="0.5"/>
<rect x="95.3024" y="10.7908" width="2.69767" height="2.69767" rx="1.34884" fill="#292B2C" fill-opacity="0.5"/>
<rect x="95.3024" y="5.39526" width="2.69767" height="2.69767" rx="1.34884" fill="#292B2C" fill-opacity="0.5"/>
<rect x="95.3024" width="2.69767" height="2.69767" rx="1.34884" fill="#292B2C" fill-opacity="0.5"/>
</svg>
