<svg width="87" height="38" viewBox="0 0 87 38" fill="none" xmlns="http://www.w3.org/2000/svg">
<path d="M67.9535 37.6011C61.8047 37.6011 55.6559 37.6011 49.51 37.6011C49.3823 37.6011 49.2546 37.6011 49.1269 37.5902C49.0219 37.582 48.9737 37.5328 48.9623 37.4343C48.951 37.3523 48.951 37.2703 48.951 37.1883C48.951 34.6674 48.934 32.1466 48.9595 29.6257C48.9765 28.0345 49.1723 26.4569 49.5781 24.9094C49.8306 23.9524 50.1711 23.0256 50.6251 22.1424C51.0649 21.2867 51.6097 20.491 52.2652 19.7692C53.3831 18.5361 54.7423 17.6229 56.2887 16.964C57.611 16.4008 58.9956 16.0536 60.4229 15.8485C61.4869 15.6954 62.5538 15.6188 63.6292 15.6024C67.4995 15.5395 71.3727 15.5942 75.243 15.5724C75.5523 15.5696 75.8587 15.5696 76.168 15.5532C76.6277 15.5313 77.0703 15.4247 77.4959 15.2497C78.35 14.8998 78.8693 14.2627 79.1161 13.4206C79.3006 12.7972 79.363 12.1547 79.2864 11.504C79.258 11.2689 79.2495 11.0337 79.1956 10.8041C79.1303 10.5224 79.0367 10.2518 78.909 9.99202C78.5855 9.33856 78.0663 8.89564 77.3711 8.63863C76.9625 8.48825 76.5369 8.39256 76.0971 8.37889C75.8303 8.37069 75.5665 8.36522 75.2997 8.36522C67.9819 8.36522 60.6641 8.36522 53.3462 8.36522C53.2072 8.36522 53.0682 8.36522 52.932 8.35428C52.81 8.34335 52.7589 8.29413 52.7447 8.18203C52.7333 8.10001 52.7333 8.01799 52.7333 7.93596C52.7333 5.75414 52.7333 3.56958 52.7333 1.38775C52.7333 0.983104 52.7447 0.972168 53.1618 0.972168C57.7982 0.972168 62.4375 0.972168 67.0739 0.972168C69.9256 0.972168 72.7744 0.974902 75.626 0.972168C76.2531 0.972168 76.8802 0.983104 77.5045 1.04599C78.8523 1.18269 80.1717 1.44517 81.423 1.97012C82.5495 2.44312 83.5483 3.09384 84.3796 3.96876C85.1514 4.78079 85.7132 5.71586 86.1162 6.74115C86.4794 7.66529 86.712 8.61949 86.834 9.60104C86.8993 10.1315 86.9504 10.6591 86.9646 11.1923C86.9731 11.4985 87.0071 11.8047 86.9986 12.1137C86.9561 13.4261 86.8567 14.733 86.5077 16.0098C86.2524 16.9449 85.892 17.8417 85.3728 18.6756C84.652 19.8348 83.6873 20.7535 82.4842 21.4425C81.5251 21.9948 80.4895 22.353 79.4056 22.5936C78.804 22.7275 78.194 22.8178 77.5811 22.8806C77.181 22.9217 76.7752 22.9463 76.3723 22.9572C75.7452 22.9709 75.1181 22.9654 74.4911 22.9654C71.0237 22.9654 67.5563 22.9599 64.0889 22.9681C63.1071 22.9709 62.1339 23.0666 61.189 23.3318C60.1505 23.6216 59.2141 24.0891 58.4537 24.8465C57.8748 25.4234 57.4606 26.0987 57.1768 26.8478C56.9044 27.5642 56.7512 28.3051 56.6859 29.0652C56.6632 29.3195 56.6235 29.5738 56.632 29.8308C56.6349 29.8909 56.6292 29.9538 56.6349 30.014C56.6462 30.1315 56.6916 30.1807 56.8136 30.1889C56.9413 30.1971 57.069 30.1971 57.1967 30.1971C62.707 30.1971 68.2174 30.1971 73.7278 30.1971C77.9613 30.1971 82.1948 30.1971 86.4283 30.1971C86.556 30.1971 86.6837 30.1999 86.8114 30.2108C86.905 30.219 86.9674 30.2737 86.9816 30.3667C86.9929 30.4487 86.9986 30.5307 86.9986 30.6127C86.9986 32.8055 86.9986 34.9982 86.9986 37.1937C86.9986 37.2348 86.9986 37.2758 86.9958 37.3168C86.9816 37.5574 86.9447 37.5902 86.6865 37.5984C86.5815 37.6011 86.4737 37.5984 86.3687 37.5984C80.2284 37.6011 74.091 37.6011 67.9535 37.6011Z" fill="white"/>
<path d="M36.779 37.7901C35.3745 37.7901 33.9699 37.7901 32.5682 37.7901C32.1284 37.7901 32.1454 37.8092 32.0348 37.3936C31.4332 35.1626 30.8345 32.9315 30.2358 30.6977C30.1365 30.3286 30.1365 30.3259 29.7421 30.3259C28.1049 30.3259 26.4648 30.3259 24.8276 30.3259C20.5827 30.3259 16.3407 30.3259 12.0959 30.3259C11.9795 30.3259 11.8632 30.3286 11.744 30.3314C11.622 30.3341 11.5454 30.397 11.5113 30.5064C11.4461 30.7114 11.3837 30.9192 11.3212 31.1243C10.7055 33.2022 10.0898 35.2829 9.4712 37.3608C9.33501 37.8201 9.36906 37.7873 8.89236 37.7873C6.08327 37.7873 3.27701 37.7873 0.467913 37.7873C0.351577 37.7873 0.235241 37.7846 0.118904 37.7736C0.0337802 37.7654 -0.0116193 37.7053 0.00256801 37.6233C0.0224303 37.5221 0.0479675 37.4237 0.0763422 37.3252C0.94177 34.4079 1.8072 31.4934 2.67263 28.5788C3.46144 25.9185 4.25026 23.2582 5.03908 20.6007C5.67751 18.4544 6.31594 16.3054 6.95437 14.1591C7.43958 12.5241 7.92478 10.8891 8.40999 9.25407C8.93208 7.4933 9.80603 5.91299 11.0375 4.51859C12.7229 2.61017 14.817 1.30053 17.2998 0.562319C18.0517 0.338122 18.8235 0.193214 19.6066 0.102988C19.9982 0.0592421 20.3926 0.0537738 20.7814 0.0154962C21.0651 -0.011845 21.3545 -0.000908499 21.6411 0.0319009C21.9674 0.0674444 22.2966 0.0647103 22.6257 0.102988C23.6132 0.212353 24.5751 0.428348 25.5086 0.745505C26.8535 1.2021 28.0907 1.85282 29.2143 2.69766C30.5905 3.73116 31.7113 4.97518 32.5796 6.4352C33.1868 7.45503 33.6266 8.53774 33.9302 9.67513C34.492 11.7886 35.0623 13.9021 35.627 16.0128C36.2456 18.3149 36.8641 20.6143 37.4799 22.9165C38.1183 25.2979 38.7567 27.6766 39.398 30.058C40.0137 32.3492 40.6295 34.6403 41.2452 36.9315C41.2906 37.1011 41.3388 37.2678 41.3842 37.4373C41.3984 37.4866 41.4098 37.5358 41.4183 37.5877C41.4353 37.7108 41.3927 37.7654 41.2736 37.7791C41.1998 37.7873 41.126 37.7873 41.0494 37.7873C40.7827 37.7873 40.5188 37.7873 40.2521 37.7873C39.0972 37.79 37.9367 37.7901 36.779 37.7901ZM20.9686 22.1919C23.1279 22.1919 25.2844 22.1919 27.4437 22.1919C27.5487 22.1919 27.6565 22.1946 27.7615 22.1892C27.8835 22.1837 27.9176 22.1427 27.8977 22.0361C27.8807 21.9458 27.8552 21.8556 27.8325 21.7681C27.0692 18.9219 26.3031 16.0757 25.5398 13.2322C25.3866 12.6663 25.2447 12.1003 25.0745 11.5398C24.8333 10.7496 24.3594 10.1071 23.6869 9.59584C22.7307 8.86856 21.6354 8.64437 20.4465 8.78107C18.7412 9.11464 17.6091 10.0688 17.1012 11.6792C16.8117 12.6006 16.5479 13.5302 16.2726 14.4544C15.5462 16.8959 14.8227 19.3375 14.0963 21.7791C13.9714 22.2001 13.9601 22.1946 14.4283 22.1919C16.6103 22.1919 18.7895 22.1919 20.9686 22.1919Z" fill="white"/>
</svg>
